<?xml version="1.0" encoding="UTF-8" standalone="no"?>
<svg
   xmlns:dc="http://purl.org/dc/elements/1.1/"
   xmlns:cc="http://creativecommons.org/ns#"
   xmlns:rdf="http://www.w3.org/1999/02/22-rdf-syntax-ns#"
   xmlns:svg="http://www.w3.org/2000/svg"
   xmlns="http://www.w3.org/2000/svg"
   xmlns:sodipodi="http://sodipodi.sourceforge.net/DTD/sodipodi-0.dtd"
   xmlns:inkscape="http://www.inkscape.org/namespaces/inkscape"
   width="580"
   height="580"
   id="svg2"
   version="1.1"
   inkscape:version="0.92.3 (2405546, 2018-03-11)"
   sodipodi:docname="aerialway_pylon_small_m.svg">
  <defs
     id="defs16" />
  <sodipodi:namedview
     pagecolor="#ffffff"
     bordercolor="#666666"
     borderopacity="1"
     objecttolerance="10"
     gridtolerance="10"
     guidetolerance="10"
     inkscape:pageopacity="0"
     inkscape:pageshadow="2"
     inkscape:window-width="1920"
     inkscape:window-height="1006"
     id="namedview14"
     showgrid="false"
     inkscape:zoom="1.1508772"
     inkscape:cx="147.6519"
     inkscape:cy="293.53859"
     inkscape:window-x="1920"
     inkscape:window-y="0"
     inkscape:window-maximized="1"
     inkscape:current-layer="svg2" />
  <metadata
     id="metadata2975">image/svg+xmlen<rdf:RDF>
  <cc:Work
     rdf:about="">
    <dc:format>image/svg+xml</dc:format>
    <dc:type
       rdf:resource="http://purl.org/dc/dcmitype/StillImage" />
    <dc:title />
  </cc:Work>
</rdf:RDF>
</metadata>
  <g
     id="g1327" />
  <path
     sodipodi:type="inkscape:offset"
     inkscape:radius="16.173542"
     inkscape:original="M 146.5 99.699219 C 134.24771 99.700366 122.06993 104.74453 113.40625 113.4082 C 104.74257 122.07188 99.698412 134.24966 99.697266 146.50195 L 99.697266 433.50195 C 99.698412 445.75424 104.74257 457.93203 113.40625 466.5957 C 122.06993 475.25938 134.24771 480.30354 146.5 480.30469 L 433.5 480.30469 C 445.75229 480.30354 457.93007 475.25938 466.59375 466.5957 C 475.25743 457.93203 480.30159 445.75424 480.30273 433.50195 L 480.30273 146.50195 C 480.30159 134.24966 475.25743 122.07188 466.59375 113.4082 C 457.93007 104.74453 445.75229 99.700366 433.5 99.699219 L 146.5 99.699219 z "
     style="fill:#ffffff;fill-opacity:1;stroke:none;stroke-width:5"
     id="svg_2-3"
     d="M 146.49805,83.525391 C 129.80775,83.526953 113.77327,90.1701 101.9707,101.97266 90.16813,113.77523 83.524999,129.80971 83.523438,146.5 a 16.175159,16.175159 0 0 0 0,0.002 v 287 a 16.175159,16.175159 0 0 0 0,0.002 c 0.0016,16.69029 6.644679,32.72477 18.447262,44.52734 11.80258,11.80257 27.83706,18.4457 44.52735,18.44727 a 16.175159,16.175159 0 0 0 0.002,0 h 287 a 16.175159,16.175159 0 0 0 0.002,0 c 16.69029,-0.002 32.72477,-6.6447 44.52735,-18.44727 11.80258,-11.80257 18.44571,-27.83705 18.44726,-44.52734 a 16.175159,16.175159 0 0 0 0,-0.002 v -287 a 16.175159,16.175159 0 0 0 0,-0.002 c -0.002,-16.6903 -6.64469,-32.72477 -18.44726,-44.52734 C 466.22673,90.1701 450.19225,83.526953 433.50195,83.525391 a 16.175159,16.175159 0 0 0 -0.002,0 h -287 a 16.175159,16.175159 0 0 0 -0.002,0 z" />
</svg>
