<?xml version="1.0" encoding="UTF-8" standalone="no"?>
<!-- Created with Inkscape (http://www.inkscape.org/) -->

<svg
   xmlns:dc="http://purl.org/dc/elements/1.1/"
   xmlns:cc="http://creativecommons.org/ns#"
   xmlns:rdf="http://www.w3.org/1999/02/22-rdf-syntax-ns#"
   xmlns:svg="http://www.w3.org/2000/svg"
   xmlns="http://www.w3.org/2000/svg"
   xmlns:sodipodi="http://sodipodi.sourceforge.net/DTD/sodipodi-0.dtd"
   xmlns:inkscape="http://www.inkscape.org/namespaces/inkscape"
   version="1.0"
   width="580"
   height="580"
   id="svg2"
   sodipodi:version="0.32"
   inkscape:version="0.92.3 (2405546, 2018-03-11)"
   sodipodi:docname="archaeological_site_cluster.svg"
   inkscape:output_extension="org.inkscape.output.svg.inkscape">
  <metadata
     id="metadata2975">
    <rdf:RDF>
      <cc:Work
         rdf:about="">
        <dc:format>image/svg+xml</dc:format>
        <dc:type
           rdf:resource="http://purl.org/dc/dcmitype/StillImage" />
        <cc:license
           rdf:resource="http://web.resource.org/cc/PublicDomain" />
        <dc:language>en</dc:language>
        <dc:title></dc:title>
      </cc:Work>
    </rdf:RDF>
  </metadata>
  <sodipodi:namedview
     inkscape:window-height="1006"
     inkscape:window-width="1920"
     inkscape:pageshadow="2"
     inkscape:pageopacity="0.0"
     guidetolerance="10.0"
     gridtolerance="10.0"
     objecttolerance="10.0"
     borderopacity="1.0"
     bordercolor="#666666"
     pagecolor="#ffffff"
     id="base"
     inkscape:zoom="0.65172414"
     inkscape:cx="-5.4746607"
     inkscape:cy="378.39113"
     inkscape:window-x="1920"
     inkscape:window-y="0"
     inkscape:current-layer="svg2"
     showgrid="false"
     inkscape:window-maximized="1" />
  <defs
     id="defs4">
    <inkscape:perspective
       sodipodi:type="inkscape:persp3d"
       inkscape:vp_x="0 : 290 : 1"
       inkscape:vp_y="0 : 1000 : 0"
       inkscape:vp_z="580 : 290 : 1"
       inkscape:persp3d-origin="290 : 193.33333 : 1"
       id="perspective2441" />
    <inkscape:perspective
       id="perspective3452"
       inkscape:persp3d-origin="30 : 20 : 1"
       inkscape:vp_z="60 : 30 : 1"
       inkscape:vp_y="0 : 1000 : 0"
       inkscape:vp_x="0 : 30 : 1"
       sodipodi:type="inkscape:persp3d" />
    <symbol
       viewBox="244.5 110 489 219.9"
       id="symbol-university">
      <path
         id="path4460"
         d="M79,43l57,119c0,0,21-96,104-96s124,106,124,106l43-133l82-17L0,17L79,43z" />
      <path
         id="path4462"
         d="M94,176l-21,39"
         stroke-width="20"
         stroke="#000000"
         fill="none" />
      <path
         id="path4464"
         d="M300,19c0,10.5-22.6,19-50.5,19S199,29.5,199,19s22.6-19,50.5-19S300,8.5,300,19z" />
      <path
         id="path4466"
         d="M112,216l-16-38L64,88c0,0-9-8-4-35s16-24,16-24"
         stroke-width="20"
         stroke="#000000"
         ill="none" />
    </symbol>
    <inkscape:perspective
       id="perspective4471"
       inkscape:persp3d-origin="372.04724 : 350.78739 : 1"
       inkscape:vp_z="744.09448 : 526.18109 : 1"
       inkscape:vp_y="0 : 1000 : 0"
       inkscape:vp_x="0 : 526.18109 : 1"
       sodipodi:type="inkscape:persp3d" />
    <inkscape:perspective
       id="perspective4668"
       inkscape:persp3d-origin="6 : 4 : 1"
       inkscape:vp_z="12 : 6 : 1"
       inkscape:vp_y="0 : 1000 : 0"
       inkscape:vp_x="0 : 6 : 1"
       sodipodi:type="inkscape:persp3d" />
    <inkscape:perspective
       id="perspective8054"
       inkscape:persp3d-origin="372.04724 : 350.78739 : 1"
       inkscape:vp_z="744.09448 : 526.18109 : 1"
       inkscape:vp_y="0 : 1000 : 0"
       inkscape:vp_x="0 : 526.18109 : 1"
       sodipodi:type="inkscape:persp3d" />
    <inkscape:perspective
       id="perspective8069"
       inkscape:persp3d-origin="372.04724 : 350.78739 : 1"
       inkscape:vp_z="744.09448 : 526.18109 : 1"
       inkscape:vp_y="0 : 1000 : 0"
       inkscape:vp_x="0 : 526.18109 : 1"
       sodipodi:type="inkscape:persp3d" />
    <inkscape:perspective
       id="perspective8896"
       inkscape:persp3d-origin="372.04724 : 350.78739 : 1"
       inkscape:vp_z="744.09448 : 526.18109 : 1"
       inkscape:vp_y="0 : 1000 : 0"
       inkscape:vp_x="0 : 526.18109 : 1"
       sodipodi:type="inkscape:persp3d" />
  </defs>
  <path
     sodipodi:type="inkscape:offset"
     inkscape:radius="0"
     inkscape:original="M 244.22461 121.5625 C 243.04605 121.5482 241.90274 121.58966 240.85742 121.66992 C 235.5808 122.07509 229.02532 123.75408 226.53906 125.33008 C 225.47713 126.00323 223.36446 127.25633 221.83594 128.13477 C 217.80485 130.45146 208.21218 140.91149 203.91016 147.68945 C 201.1756 151.99784 198.17133 156.93773 197.15039 158.77539 C 196.91692 159.19561 195.60056 161.1021 194.23828 163.02344 C 192.87601 164.94479 191.22871 167.53969 190.55273 168.79297 C 189.87677 170.04624 189.1571 171.09468 188.97656 171.11719 C 188.79604 171.13969 187.51154 172.9894 186.11719 175.23047 C 180.015 185.03817 172.49159 194.33449 169.52734 195.69336 C 165.52188 197.52952 158.71938 203.725 154.91406 209.02344 C 153.54426 210.93069 151.239 214.07739 149.81055 216.02344 C 146.62053 220.36945 141.39481 229.3968 139.57812 233.68164 C 138.83587 235.43231 137.60548 238.34854 136.82617 240.17188 C 135.17009 244.04664 132.33213 251.79982 132.15234 252.96875 C 132.08384 253.414 131.67632 254.92581 131.24414 256.30664 C 130.81197 257.68748 130.17773 259.8928 129.82812 261.22266 C 129.47853 262.55254 128.65936 265.63657 128.00977 268.08789 C 127.36021 270.53918 126.68563 273.31344 126.51367 274.23242 C 126.34172 275.15138 126.14533 275.98424 126.06055 276.07617 C 125.92309 276.22524 125.01624 280.53999 124.2168 284.9707 C 124.05692 285.85675 123.86186 286.68257 123.76367 286.78906 C 123.45815 287.12041 121.27939 302.53303 121.41211 303.43164 C 121.48121 303.89942 121.44723 304.37215 121.33203 304.5 C 121.21671 304.62786 121.00312 306.2918 120.85156 308.18555 C 120.70002 310.07929 120.50048 312.39575 120.42383 313.3418 C 120.34713 314.28785 120.21692 316.25135 120.12891 317.69531 C 120.04091 319.13925 119.89847 321.17734 119.80859 322.23828 C 119.568 325.07813 119.48655 326.56726 119.43555 328.70312 C 119.41045 329.75518 119.33105 330.67205 119.27539 330.73242 C 119.09678 330.92612 118.76516 339.00775 118.84766 341.09766 C 118.89156 342.20794 118.93547 343.79765 118.95312 344.65039 C 119.12336 352.88671 120.06841 362.98794 121.65234 373.39453 C 122.60257 379.63755 123.16981 385.13244 123.14844 388.11328 C 123.13064 390.59676 123.13025 390.60122 121.97266 390.25195 C 121.33598 390.05988 119.86061 389.38594 118.6875 388.75586 C 117.51436 388.12576 115.73168 387.38262 114.73242 387.09961 C 113.73315 386.8166 112.77558 386.45872 112.5957 386.29688 C 112.41582 386.13504 110.15662 385.66156 107.59961 385.22852 C 105.04258 384.79547 102.46573 384.20107 101.85547 383.91992 C 99.776427 382.96204 93.925786 381.61911 90.929688 381.4082 C 84.422723 380.95013 77.770312 383.35452 75.380859 387.01953 C 73.31298 390.19133 72.002604 395.47656 72.335938 399.33398 C 72.795417 404.65132 75.701794 415.5947 76.957031 416.75195 C 77.068651 416.85487 77.368799 417.52925 77.625 418.27344 C 78.107037 419.67337 79.719284 422.41713 82.486328 426.5293 C 83.366705 427.83769 84.253293 429.33691 84.464844 429.86719 C 84.84832 430.82834 88.961377 436.42597 95.283203 444.5332 C 97.115851 446.88343 98.994004 449.32122 99.451172 449.95703 C 99.784584 450.42081 104.07099 454.46242 109.97852 459.94727 C 125.63652 459.17238 142.49402 459.19015 158.89453 460.83008 C 214.54763 466.39504 240.52968 468.25005 292.47266 460.83008 C 303.68548 459.22836 315.97476 457.73007 328.64648 456.39453 C 334.15074 454.65057 338.26286 453.1515 341.62891 451.64062 C 342.74145 451.14126 344.53179 450.4143 345.60938 450.00977 C 351.67109 447.73412 365.64145 439.85306 370.80273 435.79883 C 372.21697 434.68793 373.8784 433.50527 374.49023 433.17969 C 377.4592 431.59992 381.49481 427.88636 388.30273 420.49219 C 395.70443 412.4531 395.90388 412.21305 400.24414 404.30273 C 403.25887 398.80815 413.72481 387.94942 419.74609 384.08008 C 420.55844 383.5581 422.32623 382.29328 423.67383 381.24805 C 427.81462 378.03633 430.22661 376.27359 431.66211 375.42578 C 432.41832 374.97915 433.53952 374.16648 434.17383 373.60742 C 434.80812 373.0484 436.33995 371.84021 437.56641 370.9375 C 448.61925 362.8024 456.51292 355.41378 460.19336 349.7793 C 462.37857 346.43394 463.84261 342.01229 464.81641 335.86133 C 465.56128 331.15637 465.53916 330.54853 464.36133 324.34766 C 462.74551 315.84055 459.55821 307.07456 456.5332 302.84375 C 451.95737 296.44389 449.12235 293.73567 442.05469 289.08594 C 439.11022 287.14883 432.45599 284.09283 431.12695 284.0625 C 430.66326 284.0519 430.11299 283.88202 429.89844 283.68945 C 429.68386 283.49681 426.72002 282.9548 423.32617 282.48633 C 419.93231 282.01786 417.05666 281.5462 416.91406 281.41797 C 416.25839 280.82833 424.13781 273.66639 426.29102 272.89648 C 427.3732 272.50954 428.75213 273.143 431.82227 275.48828 C 434.00522 277.15583 435.50957 277.53815 437.51172 276.9043 C 438.25044 276.67046 442.59577 275.55767 447.18359 274.44727 C 459.43792 271.4813 460.03419 271.30205 460.19336 270.70703 C 460.41201 269.88964 459.63684 268.79364 454.69141 262.90625 C 452.20438 259.94551 449.8354 257.10244 449.42773 256.60156 C 446.76989 253.33621 439.46829 246.15517 424.04688 231.67773 C 404.33866 213.17591 350.66006 163.76331 348.62891 162.24805 C 347.9077 161.71001 343.32241 157.71447 338.45117 153.37891 C 324.43655 140.90542 307.54324 126.9988 303.48047 124.60742 C 301.54411 123.46767 301.33218 123.69761 300.67383 127.75977 C 300.38306 129.55389 299.60324 132.70462 298.9375 134.75977 C 296.77869 141.42421 295.60371 145.62467 295.49219 146.99414 C 295.34811 148.76317 297.02518 151.98011 299.44531 154.52734 C 300.50804 155.6459 301.4092 156.86827 301.44922 157.25195 C 301.58573 158.56053 299.57935 161.91685 296.32031 165.85352 C 293.06553 169.78503 293.0639 169.80127 292.84766 168.09766 C 292.42921 164.80058 290.45839 154.88132 289.96094 153.5918 C 288.16307 148.93146 284.07617 142.85111 279.27539 137.67188 C 275.57902 133.68409 266.90745 127.63009 261.72266 125.41016 C 258.43655 124.00316 253.69392 122.54218 253.41406 122.8457 C 253.30269 122.96649 252.88838 122.86387 252.47852 122.63086 C 251.44648 122.04423 247.7603 121.60536 244.22461 121.5625 z M 248.81836 135.66797 C 252.29032 135.60147 256.09267 136.37065 258.9707 137.88477 C 261.899 139.42533 262.39724 139.81224 266.18359 143.49414 C 270.11422 147.31634 270.30614 147.55073 271.92773 150.76172 C 274.99276 156.83093 276.25836 161.6965 276.17578 167.16406 C 276.11548 171.15685 274.98286 178.3174 274.30664 179.05078 C 274.02714 179.3539 273.76569 179.94496 273.71875 180.35938 C 273.52907 182.03376 271.04819 186.07067 268.5625 188.77539 C 265.6229 191.97402 265.54847 192.01889 259.58594 192.54102 C 247.89638 193.56473 243.08677 193.20518 229.7168 190.32422 C 227.27128 189.79726 224.67464 189.24987 223.94727 189.0957 C 223.21993 188.94151 221.10168 188.43723 219.24414 188 C 217.38661 187.56274 214.7291 187.06962 213.33984 186.87891 C 211.95058 186.68818 210.3664 186.32882 209.81445 186.10352 C 208.51252 185.57209 208.18986 185.24744 208.10352 184.41992 C 208.00432 183.46851 209.47399 179.60796 210.58984 177.875 C 211.52692 176.41969 213.5321 172.8541 215.05078 169.94141 C 215.49831 169.08309 216.73773 167.00734 217.80273 165.32031 C 218.86773 163.63328 220.46668 160.95877 221.38281 159.38867 C 227.66879 148.61552 236.32566 139.63725 243.20898 136.70898 C 244.76928 136.04521 246.73518 135.70788 248.81836 135.66797 z M 424.68945 300.83984 C 431.572 301.0042 438.04571 302.91107 442.42773 306.50391 C 446.31221 309.6888 449.30312 314.2725 449.96094 318.09766 C 450.63173 321.99839 449.69964 329.07275 447.95898 333.37695 C 446.64397 336.62866 446.4123 336.95202 440.95898 342.86133 C 436.54376 347.64566 434.69967 349.37495 432.51562 350.79492 C 430.97962 351.79356 428.69714 353.33909 427.44141 354.21484 C 426.18569 355.09059 423.75733 356.70458 422.04297 357.79297 C 420.32865 358.88136 417.7592 360.54133 416.32617 361.50781 C 412.60895 364.01493 407.72075 366.50934 405.96094 366.76953 C 404.0594 367.05066 403.9159 366.90747 403.7168 364.44531 C 403.56779 362.6026 400.47126 349.9108 399.20117 345.95898 C 398.19718 342.83507 396.02173 332.17713 395.62109 328.35547 C 394.56031 318.23708 398.11999 309.18459 404.54492 305.5957 C 410.53356 302.25052 417.80691 300.67548 424.68945 300.83984 z M 419.72266 476.69141 C 416.71543 476.68541 413.64994 476.70681 410.53711 476.75391 C 373.18311 477.31931 328.89636 481.55619 293.76758 486.57422 C 243.00944 493.82494 219.82171 492.03827 164.31836 486.48828 C 124.19251 482.47602 83.177579 487.41536 60.287109 490.98438 L 43.392578 493.61914 L 48.664062 527.4043 L 65.556641 524.77148 C 86.891686 521.44497 125.98969 517.01935 160.91602 520.51172 C 216.71884 526.09166 245.47373 528.01303 298.60156 520.42383 C 343.54576 514.0037 406.95871 509.0919 442.55469 511.62695 L 459.60938 512.84375 L 462.03906 478.73438 L 444.98438 477.52148 C 437.24878 476.97057 428.74435 476.70829 419.72266 476.69141 z "
     style="fill:#000000;fill-opacity:1;stroke:#0d0d0d;stroke-width:4.71551275;stroke-miterlimit:4;stroke-dasharray:none;stroke-opacity:1"
     id="path8938"
     d="m 244.22461,121.5625 c -1.17856,-0.0143 -2.32187,0.0272 -3.36719,0.10742 -5.27662,0.40517 -11.8321,2.08416 -14.31836,3.66016 -1.06193,0.67315 -3.1746,1.92625 -4.70312,2.80469 -4.03109,2.31669 -13.62376,12.77672 -17.92578,19.55468 -2.73456,4.30839 -5.73883,9.24828 -6.75977,11.08594 -0.23347,0.42022 -1.54983,2.32671 -2.91211,4.24805 -1.36227,1.92135 -3.00957,4.51625 -3.68555,5.76953 -0.67596,1.25327 -1.39563,2.30171 -1.57617,2.32422 -0.18052,0.0225 -1.46502,1.87221 -2.85937,4.11328 -6.10219,9.8077 -13.6256,19.10402 -16.58985,20.46289 -4.00546,1.83616 -10.80796,8.03164 -14.61328,13.33008 -1.3698,1.90725 -3.67506,5.05395 -5.10351,7 -3.19002,4.34601 -8.41574,13.37336 -10.23243,17.6582 -0.74225,1.75067 -1.97264,4.6669 -2.75195,6.49024 -1.65608,3.87476 -4.49404,11.62794 -4.67383,12.79687 -0.0685,0.44525 -0.47602,1.95706 -0.9082,3.33789 -0.43217,1.38084 -1.06641,3.58616 -1.41602,4.91602 -0.34959,1.32988 -1.16876,4.41391 -1.81835,6.86523 -0.64956,2.45129 -1.32414,5.22555 -1.4961,6.14453 -0.17195,0.91896 -0.36834,1.75182 -0.45312,1.84375 -0.13746,0.14907 -1.04431,4.46382 -1.84375,8.89453 -0.15988,0.88605 -0.35494,1.71187 -0.45313,1.81836 -0.30552,0.33135 -2.48428,15.74397 -2.35156,16.64258 0.0691,0.46778 0.0351,0.94051 -0.0801,1.06836 -0.11532,0.12786 -0.32891,1.7918 -0.48047,3.68555 -0.15154,1.89374 -0.35108,4.2102 -0.42773,5.15625 -0.0767,0.94605 -0.20691,2.90955 -0.29492,4.35351 -0.088,1.44394 -0.23044,3.48203 -0.32032,4.54297 -0.24059,2.83985 -0.32204,4.32898 -0.37304,6.46484 -0.0251,1.05206 -0.1045,1.96893 -0.16016,2.0293 -0.17861,0.1937 -0.51023,8.27533 -0.42773,10.36524 0.0439,1.11028 0.0878,2.69999 0.10546,3.55273 0.17024,8.23632 1.11529,18.33755 2.69922,28.74414 0.95023,6.24302 1.51747,11.73791 1.4961,14.71875 -0.0178,2.48348 -0.0182,2.48794 -1.17578,2.13867 -0.63668,-0.19207 -2.11205,-0.86601 -3.28516,-1.49609 -1.17314,-0.6301 -2.95582,-1.37324 -3.95508,-1.65625 -0.99927,-0.28301 -1.95684,-0.64089 -2.13672,-0.80273 -0.17988,-0.16184 -2.43908,-0.63532 -4.99609,-1.06836 -2.55703,-0.43305 -5.13388,-1.02745 -5.74414,-1.3086 -2.079043,-0.95788 -7.929684,-2.30081 -10.925782,-2.51172 -6.506965,-0.45807 -13.159376,1.94632 -15.548829,5.61133 -2.067879,3.1718 -3.378255,8.45703 -3.044921,12.31445 0.459479,5.31734 3.365856,16.26072 4.621093,17.41797 0.11162,0.10292 0.411768,0.7773 0.667969,1.52149 0.482037,1.39993 2.094284,4.14369 4.861328,8.25586 0.880377,1.30839 1.766965,2.80761 1.978516,3.33789 0.383476,0.96115 4.496533,6.55878 10.818359,14.66601 1.832648,2.35023 3.710801,4.78802 4.167969,5.42383 0.333412,0.46378 4.619818,4.50539 10.527348,9.99024 15.658,-0.77489 32.5155,-0.75712 48.91601,0.88281 55.6531,5.56496 81.63515,7.41997 133.57813,0 11.21282,-1.60172 23.5021,-3.10001 36.17382,-4.43555 5.50426,-1.74396 9.61638,-3.24303 12.98243,-4.75391 1.11254,-0.49936 2.90288,-1.22632 3.98047,-1.63085 6.06171,-2.27565 20.03207,-10.15671 25.19335,-14.21094 1.41424,-1.1109 3.07567,-2.29356 3.6875,-2.61914 2.96897,-1.57977 7.00458,-5.29333 13.8125,-12.6875 7.4017,-8.03909 7.60115,-8.27914 11.94141,-16.18946 3.01473,-5.49458 13.48067,-16.35331 19.50195,-20.22265 0.81235,-0.52198 2.58014,-1.7868 3.92774,-2.83203 4.14079,-3.21172 6.55278,-4.97446 7.98828,-5.82227 0.75621,-0.44663 1.87741,-1.2593 2.51172,-1.81836 0.63429,-0.55902 2.16612,-1.76721 3.39258,-2.66992 11.05284,-8.1351 18.94651,-15.52372 22.62695,-21.1582 2.18521,-3.34536 3.64925,-7.76701 4.62305,-13.91797 0.74487,-4.70496 0.72275,-5.3128 -0.45508,-11.51367 -1.61582,-8.50711 -4.80312,-17.2731 -7.82813,-21.50391 -4.57583,-6.39986 -7.41085,-9.10808 -14.47851,-13.75781 -2.94447,-1.93711 -9.5987,-4.99311 -10.92774,-5.02344 -0.46369,-0.0106 -1.01396,-0.18048 -1.22851,-0.37305 -0.21458,-0.19264 -3.17842,-0.73465 -6.57227,-1.20312 -3.39386,-0.46847 -6.26951,-0.94013 -6.41211,-1.06836 -0.65567,-0.58964 7.22375,-7.75158 9.37696,-8.52149 1.08218,-0.38694 2.46111,0.24652 5.53125,2.5918 2.18295,1.66755 3.6873,2.04987 5.68945,1.41602 0.73872,-0.23384 5.08405,-1.34663 9.67187,-2.45703 12.25433,-2.96597 12.8506,-3.14522 13.00977,-3.74024 0.21865,-0.81739 -0.55652,-1.91339 -5.50195,-7.80078 -2.48703,-2.96074 -4.85601,-5.80381 -5.26368,-6.30469 -2.65784,-3.26535 -9.95944,-10.44639 -25.38085,-24.92383 -19.70822,-18.50182 -73.38682,-67.91442 -75.41797,-69.42968 -0.72121,-0.53804 -5.3065,-4.53358 -10.17774,-8.86914 -14.01462,-12.47349 -30.90793,-26.38011 -34.9707,-28.77149 -1.93636,-1.13975 -2.14829,-0.90981 -2.80664,3.15235 -0.29077,1.79412 -1.07059,4.94485 -1.73633,7 -2.15881,6.66444 -3.33379,10.8649 -3.44531,12.23437 -0.14408,1.76903 1.53299,4.98597 3.95312,7.5332 1.06273,1.11856 1.96389,2.34093 2.00391,2.72461 0.13651,1.30858 -1.86987,4.6649 -5.12891,8.60157 -3.25478,3.93151 -3.25641,3.94775 -3.47265,2.24414 -0.41845,-3.29708 -2.38927,-13.21634 -2.88672,-14.50586 -1.79787,-4.66034 -5.88477,-10.74069 -10.68555,-15.91992 -3.69637,-3.98779 -12.36794,-10.04179 -17.55273,-12.26172 -3.28611,-1.407 -8.02874,-2.86798 -8.3086,-2.56446 -0.11137,0.12079 -0.52568,0.0182 -0.93554,-0.21484 -1.03204,-0.58663 -4.71822,-1.0255 -8.25391,-1.06836 z m 4.59375,14.10547 c 3.47196,-0.0665 7.27431,0.70268 10.15234,2.2168 2.9283,1.54056 3.42654,1.92747 7.21289,5.60937 3.93063,3.8222 4.12255,4.05659 5.74414,7.26758 3.06503,6.06921 4.33063,10.93478 4.24805,16.40234 -0.0603,3.99279 -1.19292,11.15334 -1.86914,11.88672 -0.2795,0.30312 -0.54095,0.89418 -0.58789,1.3086 -0.18968,1.67438 -2.67056,5.71129 -5.15625,8.41601 -2.9396,3.19863 -3.01403,3.2435 -8.97656,3.76563 -11.68956,1.02371 -16.49917,0.66416 -29.86914,-2.2168 -2.44552,-0.52696 -5.04216,-1.07435 -5.76953,-1.22852 -0.72734,-0.15419 -2.84559,-0.65847 -4.70313,-1.0957 -1.85753,-0.43726 -4.51504,-0.93038 -5.9043,-1.12109 -1.38926,-0.19073 -2.97344,-0.55009 -3.52539,-0.77539 -1.30193,-0.53143 -1.62459,-0.85608 -1.71093,-1.6836 -0.0992,-0.95141 1.37047,-4.81196 2.48632,-6.54492 0.93708,-1.45531 2.94226,-5.0209 4.46094,-7.93359 0.44753,-0.85832 1.68695,-2.93407 2.75195,-4.6211 1.065,-1.68703 2.66395,-4.36154 3.58008,-5.93164 6.28598,-10.77315 14.94285,-19.75142 21.82617,-22.67969 1.5603,-0.66377 3.5262,-1.0011 5.60938,-1.04101 z m 175.87109,165.17187 c 6.88255,0.16436 13.35626,2.07123 17.73828,5.66407 3.88448,3.18489 6.87539,7.76859 7.53321,11.59375 0.67079,3.90073 -0.2613,10.97509 -2.00196,15.27929 -1.31501,3.25171 -1.54668,3.57507 -7,9.48438 -4.41522,4.78433 -6.25931,6.51362 -8.44336,7.93359 -1.536,0.99864 -3.81848,2.54417 -5.07421,3.41992 -1.25572,0.87575 -3.68408,2.48974 -5.39844,3.57813 -1.71432,1.08839 -4.28377,2.74836 -5.7168,3.71484 -3.71722,2.50712 -8.60542,5.00153 -10.36523,5.26172 -1.90154,0.28113 -2.04504,0.13794 -2.24414,-2.32422 -0.14901,-1.84271 -3.24554,-14.53451 -4.51563,-18.48633 -1.00399,-3.12391 -3.17944,-13.78185 -3.58008,-17.60351 -1.06078,-10.11839 2.4989,-19.17088 8.92383,-22.75977 5.98864,-3.34518 13.26199,-4.92022 20.14453,-4.75586 z m -4.96679,175.85157 c -3.00723,-0.006 -6.07272,0.0154 -9.18555,0.0625 -37.354,0.5654 -81.64075,4.80228 -116.76953,9.82031 -50.75814,7.25072 -73.94587,5.46405 -129.44922,-0.0859 -40.12585,-4.01226 -81.140781,0.92708 -104.031251,4.4961 l -16.894531,2.63476 5.271484,33.78516 16.892579,-2.63282 c 21.335045,-3.32651 60.433049,-7.75213 95.359379,-4.25976 55.80282,5.57994 84.55771,7.50131 137.68554,-0.0879 44.9442,-6.42013 108.35715,-11.33193 143.95313,-8.79688 l 17.05469,1.2168 2.42968,-34.10937 -17.05468,-1.2129 c -7.7356,-0.55091 -16.24003,-0.81319 -25.26172,-0.83007 z"
     transform="translate(-7.6719576,-9.2063492)" />
  <path
     style="fill:#000000;fill-opacity:1;stroke:#0d0d0d;stroke-width:4.71551275;stroke-miterlimit:4;stroke-dasharray:none;stroke-opacity:1"
     d="m 341.12882,94.106151 c -1.11427,-0.0135 -2.19335,0.0257 -3.18164,0.10156 -4.3525,0.3342 -9.62544,1.58364 -12.46094,2.88672 1.36781,1.17254 2.8451,2.44436 4.64063,3.921879 2.92667,2.40831 6.07368,5.05102 9.27344,7.77343 0.25715,-0.12431 0.51719,-0.25593 0.76953,-0.36328 1.47518,-0.62755 3.33319,-0.94664 5.30273,-0.98437 3.28256,-0.0629 6.87858,0.66421 9.59961,2.0957 2.76856,1.45648 3.23856,1.82374 6.81836,5.30469 3.71621,3.6136 3.89851,3.8334 5.43164,6.86914 2.82434,5.59248 4.02261,10.10812 4.00977,15.11914 0.49798,0.45391 0.77883,0.70613 1.31054,1.19141 5.68327,5.18692 13.22217,12.10518 21.31446,19.55468 16.18456,14.89901 34.50633,31.85273 44.56836,41.29883 15.59836,14.64357 22.01782,20.33478 28.33007,28.08985 -0.49166,-0.60409 2.51107,3.02006 4.94532,5.91796 2.57323,3.06337 4.08367,4.74936 6.34961,7.96094 1.13296,1.60579 2.68471,3.57354 4.50195,8.29492 1.81724,4.72139 2.88762,14.16451 1.13281,20.72461 -0.55001,2.05608 -2.93176,5.8253 -5.72461,9.58203 3.34834,5.44023 5.47998,10.3995 7.05274,15.40625 -0.38812,-2.10172 -0.72121,-4.05268 -0.84571,-5.24023 -1.00292,-9.56616 2.36306,-18.12456 8.4375,-21.51758 5.66195,-3.16261 12.53588,-4.65148 19.04297,-4.49609 6.5071,0.15539 12.63046,1.95872 16.77344,5.35547 3.67258,3.01107 6.49915,7.34453 7.12109,10.96093 0.6342,3.68784 -0.24882,10.37798 -1.89453,14.44727 -1.24327,3.07425 -1.46135,3.37804 -6.61719,8.96484 -4.17436,4.52322 -5.91557,6.15949 -7.98046,7.50196 -1.45221,0.94414 -3.6116,2.40446 -4.79883,3.23242 -1.18722,0.82795 -3.48268,2.35382 -5.10352,3.38281 -1.6208,1.02899 -4.04945,2.59799 -5.4043,3.51172 -3.51443,2.37029 -8.13697,4.72862 -9.80078,4.97461 -1.79781,0.26578 -1.93285,0.13051 -2.12109,-2.19727 -0.11426,-1.41301 -2.0515,-9.51658 -3.42383,-14.54297 1.22265,6.51781 1.43553,17.31936 0.61133,22.5254 -1.38261,8.73321 -3.78605,17.82105 -9.49219,26.55664 -8.18286,12.52735 -17.87636,20.20344 -30.53906,29.52343 -0.48469,0.35675 -2.58096,2.12148 -1.17773,0.88477 -3.14805,2.77457 -3.95456,3.34051 -7.43165,5.39453 1.714,-1.0106 -0.80328,0.57028 -4.63085,3.53906 -2.18698,1.69627 -3.41769,2.65505 -6.26758,4.48633 1.68476,-1.08265 -3.04959,4.54345 -6.32617,7.8125 4.05299,-1.33433 7.29311,-2.53968 9.97656,-3.74414 1.05185,-0.47212 2.74487,-1.15856 3.76367,-1.54102 5.73104,-2.15145 18.93863,-9.60258 23.81836,-13.43554 1.33709,-1.05027 2.90787,-2.1668 3.48633,-2.47461 2.80701,-1.49355 6.62206,-5.00548 13.05859,-11.9961 6.99793,-7.60034 7.18556,-7.82804 11.28906,-15.30664 2.85027,-5.1947 12.74665,-15.45902 18.43946,-19.11718 0.76804,-0.49349 2.4388,-1.68955 3.71289,-2.67774 3.9149,-3.03643 6.19554,-4.70432 7.55273,-5.50586 0.71496,-0.42226 1.77334,-1.18824 2.37305,-1.71679 0.59968,-0.52851 2.04942,-1.67194 3.20898,-2.5254 10.44989,-7.6911 17.91486,-14.67693 21.39453,-20.0039 2.066,-3.16278 3.44848,-7.34294 4.36915,-13.1582 0.70424,-4.44817 0.68389,-5.02232 -0.42969,-10.88477 -1.52768,-8.04282 -4.5404,-16.33212 -7.40039,-20.33203 -4.32621,-6.05057 -7.00735,-8.6099 -13.68946,-13.00586 -2.78385,-1.83139 -9.07549,-4.71938 -10.33203,-4.74805 -0.4384,-0.01 -0.95927,-0.17145 -1.16211,-0.35351 -0.20288,-0.18213 -3.00418,-0.69382 -6.21289,-1.13672 -3.20872,-0.44291 -5.92768,-0.88853 -6.0625,-1.00977 -0.6199,-0.55745 6.82949,-7.32875 8.86524,-8.05664 1.02315,-0.36582 2.32585,0.23194 5.22851,2.44922 2.06386,1.57654 3.48793,1.93715 5.38086,1.33789 0.69843,-0.22108 4.80698,-1.27246 9.14453,-2.32226 11.58584,-2.80409 12.15029,-2.97457 12.30078,-3.53711 0.20672,-0.77278 -0.52942,-1.80892 -5.20507,-7.375 -2.35136,-2.79915 -4.58918,-5.48545 -4.97461,-5.95899 -2.51285,-3.08714 -9.41594,-9.87714 -23.9961,-23.56445 -18.63311,-17.49205 -69.38433,-64.20807 -71.30468,-65.64063 -0.68187,-0.50868 -5.01754,-4.28582 -9.62305,-8.38476 -13.2501,-11.79273 -29.22136,-24.940299 -33.0625,-27.201169 -1.83073,-1.07754 -2.0299,-0.86 -2.65234,2.98047 -0.27491,1.696199 -1.01315,4.674189 -1.64258,6.617179 -2.04104,6.30071 -3.15238,10.27363 -3.25782,11.56836 -0.13622,1.67248 1.45018,4.71289 3.73829,7.1211 1.00476,1.05751 1.85669,2.21343 1.89453,2.57617 0.12906,1.23716 -1.76836,4.41099 -4.84961,8.13281 -3.07723,3.71694 -3.07877,3.73172 -3.28321,2.12109 -0.39563,-3.11714 -2.25819,-12.49375 -2.72851,-13.71289 -1.69979,-4.406 -5.56463,-10.15616 -10.10352,-15.05273 -3.49472,-3.77015 -11.6918,-9.494969 -16.59375,-11.593749 -3.10685,-1.33021 -7.59087,-2.71079 -7.85547,-2.42383 -0.10529,0.11419 -0.49726,0.0171 -0.88476,-0.20312 -0.97574,-0.55461 -4.46187,-0.96925 -7.80469,-1.00977 z M 507.0546,429.85224 c -2.84318,-0.006 -5.74252,0.0161 -8.68554,0.0606 -24.67296,0.37345 -52.50048,2.45892 -78.38477,5.28906 6.78088,0.12089 13.34154,0.38476 19.62305,0.83203 h 0.004 l 17.05078,1.21289 c 14.34385,1.03135 26.28704,11.40317 29.31836,25.46094 16.1526,-0.62629 31.00094,-0.65453 42.66016,0.17578 l 16.125,1.14844 2.29688,-32.24609 -16.125,-1.14844 c -7.31363,-0.52084 -15.35328,-0.7692 -23.88282,-0.78516 z"
     id="path8938-3"
     inkscape:connector-curvature="0"
     sodipodi:nodetypes="ccccccccscccsccccsccccssccccsccccccscccccccssccsccccccccccccccccscccscscccscccccccccccccccccccccccc" />
</svg>
