<?xml version="1.0" encoding="UTF-8" standalone="no"?>
<!-- Created with Inkscape (http://www.inkscape.org/) -->

<svg
   xmlns:dc="http://purl.org/dc/elements/1.1/"
   xmlns:cc="http://creativecommons.org/ns#"
   xmlns:rdf="http://www.w3.org/1999/02/22-rdf-syntax-ns#"
   xmlns:svg="http://www.w3.org/2000/svg"
   xmlns="http://www.w3.org/2000/svg"
   xmlns:sodipodi="http://sodipodi.sourceforge.net/DTD/sodipodi-0.dtd"
   xmlns:inkscape="http://www.inkscape.org/namespaces/inkscape"
   version="1.0"
   width="580"
   height="580"
   id="svg2"
   sodipodi:version="0.32"
   inkscape:version="0.92.3 (2405546, 2018-03-11)"
   sodipodi:docname="archaeological_site.svg"
   inkscape:output_extension="org.inkscape.output.svg.inkscape">
  <metadata
     id="metadata2975">
    <rdf:RDF>
      <cc:Work
         rdf:about="">
        <dc:format>image/svg+xml</dc:format>
        <dc:type
           rdf:resource="http://purl.org/dc/dcmitype/StillImage" />
        <cc:license
           rdf:resource="http://web.resource.org/cc/PublicDomain" />
        <dc:language>en</dc:language>
      </cc:Work>
    </rdf:RDF>
  </metadata>
  <sodipodi:namedview
     inkscape:window-height="1006"
     inkscape:window-width="1920"
     inkscape:pageshadow="2"
     inkscape:pageopacity="0.0"
     guidetolerance="10.0"
     gridtolerance="10.0"
     objecttolerance="10.0"
     borderopacity="1.0"
     bordercolor="#666666"
     pagecolor="#ffffff"
     id="base"
     inkscape:zoom="0.65172414"
     inkscape:cx="-222.66925"
     inkscape:cy="397.99244"
     inkscape:window-x="1920"
     inkscape:window-y="0"
     inkscape:current-layer="svg2"
     showgrid="false"
     inkscape:window-maximized="1" />
  <defs
     id="defs4">
    <inkscape:perspective
       sodipodi:type="inkscape:persp3d"
       inkscape:vp_x="0 : 290 : 1"
       inkscape:vp_y="0 : 1000 : 0"
       inkscape:vp_z="580 : 290 : 1"
       inkscape:persp3d-origin="290 : 193.33333 : 1"
       id="perspective2441" />
    <inkscape:perspective
       id="perspective3452"
       inkscape:persp3d-origin="30 : 20 : 1"
       inkscape:vp_z="60 : 30 : 1"
       inkscape:vp_y="0 : 1000 : 0"
       inkscape:vp_x="0 : 30 : 1"
       sodipodi:type="inkscape:persp3d" />
    <symbol
       viewBox="244.5 110 489 219.9"
       id="symbol-university">
      <path
         id="path4460"
         d="M79,43l57,119c0,0,21-96,104-96s124,106,124,106l43-133l82-17L0,17L79,43z" />
      <path
         id="path4462"
         d="M94,176l-21,39"
         stroke-width="20"
         stroke="#000000"
         fill="none" />
      <path
         id="path4464"
         d="M300,19c0,10.5-22.6,19-50.5,19S199,29.5,199,19s22.6-19,50.5-19S300,8.5,300,19z" />
      <path
         id="path4466"
         d="M112,216l-16-38L64,88c0,0-9-8-4-35s16-24,16-24"
         stroke-width="20"
         stroke="#000000"
         ill="none" />
    </symbol>
    <inkscape:perspective
       id="perspective4471"
       inkscape:persp3d-origin="372.04724 : 350.78739 : 1"
       inkscape:vp_z="744.09448 : 526.18109 : 1"
       inkscape:vp_y="0 : 1000 : 0"
       inkscape:vp_x="0 : 526.18109 : 1"
       sodipodi:type="inkscape:persp3d" />
    <inkscape:perspective
       id="perspective4668"
       inkscape:persp3d-origin="6 : 4 : 1"
       inkscape:vp_z="12 : 6 : 1"
       inkscape:vp_y="0 : 1000 : 0"
       inkscape:vp_x="0 : 6 : 1"
       sodipodi:type="inkscape:persp3d" />
    <inkscape:perspective
       id="perspective8054"
       inkscape:persp3d-origin="372.04724 : 350.78739 : 1"
       inkscape:vp_z="744.09448 : 526.18109 : 1"
       inkscape:vp_y="0 : 1000 : 0"
       inkscape:vp_x="0 : 526.18109 : 1"
       sodipodi:type="inkscape:persp3d" />
    <inkscape:perspective
       id="perspective8069"
       inkscape:persp3d-origin="372.04724 : 350.78739 : 1"
       inkscape:vp_z="744.09448 : 526.18109 : 1"
       inkscape:vp_y="0 : 1000 : 0"
       inkscape:vp_x="0 : 526.18109 : 1"
       sodipodi:type="inkscape:persp3d" />
    <inkscape:perspective
       id="perspective8896"
       inkscape:persp3d-origin="372.04724 : 350.78739 : 1"
       inkscape:vp_z="744.09448 : 526.18109 : 1"
       inkscape:vp_y="0 : 1000 : 0"
       inkscape:vp_x="0 : 526.18109 : 1"
       sodipodi:type="inkscape:persp3d" />
  </defs>
  <path
     style="fill:#000000;fill-opacity:1;stroke:#0d0d0d;stroke-width:4.71551275;stroke-miterlimit:4;stroke-dasharray:none;stroke-opacity:1"
     d="m 278.33499,52.624458 c -1.37859,-0.01671 -2.71477,0.0311 -3.9375,0.125 -6.17219,0.473974 -13.84177,2.437633 -16.75,4.28125 -1.24217,0.787443 -3.71205,2.253656 -5.5,3.28125 -4.71525,2.710074 -15.93658,14.946128 -20.96875,22.875 -3.19868,5.039959 -6.71204,10.819056 -7.90625,12.96875 -0.2731,0.491576 -1.81276,2.721154 -3.40625,4.968752 -1.59348,2.24759 -3.52179,5.28391 -4.3125,6.75 -0.79069,1.46608 -1.63257,2.69242 -1.84375,2.71875 -0.21116,0.0263 -1.71275,2.1909 -3.34375,4.8125 -7.13787,11.47307 -15.9389,22.3479 -19.40625,23.9375 -4.68528,2.14795 -12.64258,9.39562 -17.09375,15.59375 -1.60228,2.2311 -4.29787,5.91101 -5.96875,8.1875 -3.73145,5.08397 -9.84374,15.64384 -11.96875,20.65625 -0.86823,2.04794 -2.30718,5.4608 -3.21875,7.59375 -1.93716,4.5327 -5.25845,13.60134 -5.46875,14.96875 -0.0801,0.52086 -0.55698,2.29096 -1.0625,3.90625 -0.50552,1.61531 -1.24731,4.19433 -1.65625,5.75 -0.40892,1.5557 -1.36516,5.16369 -2.125,8.03125 -0.75981,2.86753 -1.54885,6.11248 -1.75,7.1875 -0.20114,1.07501 -0.43209,2.04871 -0.53125,2.15625 -0.16079,0.17439 -1.22113,5.22319 -2.15625,10.40625 -0.18701,1.0365 -0.4164,2.00043 -0.53125,2.125 -0.35738,0.38761 -2.90524,18.41756 -2.75,19.46875 0.0808,0.54721 0.0411,1.10045 -0.0937,1.25 -0.1349,0.14957 -0.38522,2.09719 -0.5625,4.3125 -0.17726,2.2153 -0.41034,4.92456 -0.5,6.03125 -0.0897,1.10669 -0.24081,3.4046 -0.34375,5.09375 -0.10295,1.68912 -0.26986,4.07141 -0.375,5.3125 -0.28142,3.32206 -0.37784,5.06397 -0.4375,7.5625 -0.0294,1.2307 -0.12239,2.30437 -0.1875,2.375 -0.20893,0.22659 -0.5965,9.68021 -0.5,12.125 0.0513,1.2988 0.10437,3.15872 0.125,4.15625 0.19912,9.63487 1.30349,21.45135 3.15625,33.625 1.1115,7.3031 1.775,13.73176 1.75,17.21875 -0.0208,2.90518 -0.0209,2.90857 -1.375,2.5 -0.74474,-0.22469 -2.47153,-1.01292 -3.84375,-1.75 -1.37224,-0.73709 -3.45614,-1.60644 -4.625,-1.9375 -1.16887,-0.33107 -2.28959,-0.74819 -2.5,-0.9375 -0.21041,-0.18933 -2.85276,-0.74343 -5.84375,-1.25 -2.99101,-0.50658 -6.00491,-1.20236 -6.71875,-1.53125 -2.4319,-1.12052 -9.27665,-2.69078 -12.781254,-2.9375 -7.611347,-0.53585 -15.392502,2.27516 -18.1875,6.5625 -2.418846,3.71038 -3.952407,9.89384 -3.5625,14.40625 0.537464,6.22024 3.937971,19.02124 5.40625,20.375 0.130565,0.12039 0.481566,0.9107 0.78125,1.78125 0.563849,1.63765 2.450826,4.84583 5.6875,9.65625 1.029798,1.53056 2.065044,3.28593 2.3125,3.90625 0.44856,1.12436 5.261468,7.6724 12.656254,17.15625 2.14369,2.74931 4.34024,5.59998 4.875,6.34375 0.39,0.54253 5.40233,5.27131 12.3125,11.6875 18.31553,-0.90646 38.03469,-0.88714 57.21875,1.03125 65.0987,6.50991 95.4911,8.6799 156.25,0 13.11589,-1.87369 27.4901,-3.62518 42.3125,-5.1875 6.43847,-2.04009 11.25015,-3.79507 15.1875,-5.5625 1.30137,-0.58416 3.39577,-1.43303 4.65625,-1.90625 7.09052,-2.66206 23.43148,-11.88235 29.46875,-16.625 1.65426,-1.29953 3.59683,-2.68164 4.3125,-3.0625 3.47287,-1.84802 8.19286,-6.19404 16.15625,-14.84375 8.65793,-9.40415 8.89184,-9.68398 13.96875,-18.9375 3.52639,-6.42757 15.76927,-19.12989 22.8125,-23.65625 0.95022,-0.61061 3.01743,-2.08979 4.59375,-3.3125 4.84358,-3.75708 7.66461,-5.82073 9.34375,-6.8125 0.88456,-0.52247 2.19554,-1.47101 2.9375,-2.125 0.74195,-0.65395 2.53414,-2.06901 3.96875,-3.125 12.92877,-9.51646 22.16366,-18.15877 26.46875,-24.75 2.55609,-3.91341 4.26718,-9.08584 5.40625,-16.28125 0.8713,-5.50387 0.84648,-6.21496 -0.53125,-13.46875 -1.89006,-9.95163 -5.61783,-20.20704 -9.15625,-25.15625 -5.35245,-7.48657 -8.67029,-10.65448 -16.9375,-16.09375 -3.44421,-2.26603 -11.22665,-5.83952 -12.78125,-5.875 -0.5424,-0.0124 -1.18654,-0.21224 -1.4375,-0.4375 -0.251,-0.22535 -3.71764,-0.85823 -7.6875,-1.40625 -3.96988,-0.54802 -7.3332,-1.1 -7.5,-1.25 -0.76695,-0.68976 8.45009,-9.06811 10.96875,-9.96875 1.26585,-0.45264 2.87753,0.28773 6.46875,3.03125 2.55344,1.9507 4.31429,2.39773 6.65625,1.65625 0.86409,-0.27354 5.94602,-1.57605 11.3125,-2.875 14.33418,-3.4696 15.03257,-3.67894 15.21875,-4.375 0.25577,-0.95619 -0.65271,-2.23791 -6.4375,-9.125 -2.90913,-3.46347 -5.67939,-6.78907 -6.15625,-7.375 -3.10893,-3.81982 -11.64871,-12.22052 -29.6875,-29.15625 -23.05315,-21.64347 -85.84287,-79.4462 -88.21875,-81.21875 -0.84362,-0.629403 -6.20824,-5.303248 -11.90625,-10.375002 -16.39322,-14.591517 -36.15393,-30.858811 -40.90625,-33.65625 -2.265,-1.333281 -2.51116,-1.064427 -3.28125,3.6875 -0.34012,2.098764 -1.25252,5.783387 -2.03125,8.1875 -2.52521,7.796076 -3.9008,12.710489 -4.03125,14.3125 -0.16853,2.069417 1.79412,5.832753 4.625,8.8125 1.2431,1.308492 2.29693,2.738671 2.34375,3.1875 0.15967,1.530785 -2.18782,5.457379 -6,10.062502 -3.80718,4.59909 -3.80956,4.61789 -4.0625,2.625 -0.48947,-3.85693 -2.79312,-15.460269 -3.375,-16.968752 -2.10301,-5.451678 -6.88442,-12.56632 -12.5,-18.625 -4.32373,-4.664929 -14.46648,-11.746862 -20.53125,-14.34375 -3.84384,-1.645902 -9.39139,-3.355063 -9.71875,-3 -0.13027,0.141297 -0.61432,0.02254 -1.09375,-0.25 -1.2072,-0.686236 -5.52047,-1.199861 -9.65625,-1.25 z m 5.375,16.5 c 4.06123,-0.07781 8.50851,0.822529 11.875,2.59375 3.4253,1.802158 4.00852,2.255409 8.4375,6.5625 4.59774,4.471224 4.82194,4.743774 6.71875,8.5 3.58523,7.099772 5.06534,12.791531 4.96875,19.187502 -0.0705,4.67077 -1.39651,13.04834 -2.1875,13.90625 -0.32694,0.35459 -0.63259,1.04646 -0.6875,1.53125 -0.22187,1.95871 -3.12368,6.67976 -6.03125,9.84375 -3.43852,3.74176 -3.52549,3.79546 -10.5,4.40625 -13.67354,1.19753 -19.29834,0.7764 -34.9375,-2.59375 -2.86059,-0.61644 -5.89918,-1.25715 -6.75,-1.4375 -0.85078,-0.18037 -3.32719,-0.76977 -5.5,-1.28125 -2.17279,-0.5115 -5.28121,-1.08941 -6.90625,-1.3125 -1.62505,-0.22312 -3.47937,-0.64269 -4.125,-0.90625 -1.52289,-0.62167 -1.89901,-1.00072 -2,-1.96875 -0.11608,-1.11297 1.60101,-5.62903 2.90625,-7.65625 1.09612,-1.70243 3.44232,-5.87398 5.21875,-9.28125 0.52349,-1.00406 1.973,-3.43276 3.21875,-5.40625 1.24575,-1.97349 3.11589,-5.100794 4.1875,-6.937502 7.35286,-12.602453 17.47968,-23.105756 25.53125,-26.53125 1.82512,-0.776482 4.12576,-1.172066 6.5625,-1.21875 z M 489.42874,262.34321 c 8.05067,0.19227 15.62425,2.42209 20.75,6.625 4.54376,3.72569 8.04303,9.08782 8.8125,13.5625 0.78464,4.56308 -0.30766,12.83994 -2.34375,17.875 -1.5382,3.80385 -1.80862,4.18102 -8.1875,11.09375 -5.16458,5.59672 -7.32028,7.62017 -9.875,9.28125 -1.79669,1.16821 -4.46864,2.97555 -5.9375,4 -1.46885,1.02445 -4.30718,2.91429 -6.3125,4.1875 -2.00528,1.2732 -5.01125,3.21316 -6.6875,4.34375 -4.34812,2.93284 -10.06651,5.85188 -12.125,6.15625 -2.22427,0.32887 -2.3921,0.16149 -2.625,-2.71875 -0.1743,-2.15561 -3.7956,-17.00215 -5.28125,-21.625 -1.17439,-3.65435 -3.71886,-16.12316 -4.1875,-20.59375 -1.24082,-11.83651 2.92211,-22.4267 10.4375,-26.625 7.00504,-3.9132 15.51183,-5.75477 23.5625,-5.5625 z m -5.80859,205.71094 c -3.51763,-0.007 -7.10299,0.0191 -10.74414,0.0742 -43.69383,0.66141 -95.49891,5.61818 -136.58985,11.48828 -59.37296,8.48191 -86.49443,6.39085 -151.41797,-0.10157 -46.93613,-4.69355 -94.911992,1.08472 -121.687501,5.25977 l -19.761719,3.08203 6.164063,39.52149 19.759765,-3.08008 c 24.956092,-3.89135 70.690782,-9.0678 111.544922,-4.98242 65.27383,6.52743 98.90985,8.77633 161.05469,-0.10157 52.57227,-7.51028 126.74734,-13.25651 168.38477,-10.29101 l 19.94922,1.42187 2.84179,-39.90039 -19.94922,-1.41992 c -9.04851,-0.64445 -18.99594,-0.95096 -29.54882,-0.9707 z"
     id="path8938"
     inkscape:connector-curvature="0" />
</svg>
