<?xml version="1.0" encoding="UTF-8" standalone="no"?>
<!-- Created with Inkscape (http://www.inkscape.org/) -->

<svg
   xmlns:dc="http://purl.org/dc/elements/1.1/"
   xmlns:cc="http://creativecommons.org/ns#"
   xmlns:rdf="http://www.w3.org/1999/02/22-rdf-syntax-ns#"
   xmlns:svg="http://www.w3.org/2000/svg"
   xmlns="http://www.w3.org/2000/svg"
   xmlns:sodipodi="http://sodipodi.sourceforge.net/DTD/sodipodi-0.dtd"
   xmlns:inkscape="http://www.inkscape.org/namespaces/inkscape"
   version="1.0"
   width="580"
   height="580"
   id="svg2"
   sodipodi:version="0.32"
   inkscape:version="0.92.3 (2405546, 2018-03-11)"
   sodipodi:docname="archaeological_site_cluster_m.svg"
   inkscape:output_extension="org.inkscape.output.svg.inkscape">
  <metadata
     id="metadata2975">
    <rdf:RDF>
      <cc:Work
         rdf:about="">
        <dc:format>image/svg+xml</dc:format>
        <dc:type
           rdf:resource="http://purl.org/dc/dcmitype/StillImage" />
        <cc:license
           rdf:resource="http://web.resource.org/cc/PublicDomain" />
        <dc:language>en</dc:language>
        <dc:title></dc:title>
      </cc:Work>
    </rdf:RDF>
  </metadata>
  <sodipodi:namedview
     inkscape:window-height="1006"
     inkscape:window-width="1920"
     inkscape:pageshadow="2"
     inkscape:pageopacity="0.0"
     guidetolerance="10.0"
     gridtolerance="10.0"
     objecttolerance="10.0"
     borderopacity="1.0"
     bordercolor="#666666"
     pagecolor="#ffffff"
     id="base"
     inkscape:zoom="1.3034483"
     inkscape:cx="264.51808"
     inkscape:cy="281.98817"
     inkscape:window-x="1920"
     inkscape:window-y="0"
     inkscape:current-layer="svg2"
     showgrid="false"
     inkscape:window-maximized="1" />
  <defs
     id="defs4">
    <inkscape:perspective
       sodipodi:type="inkscape:persp3d"
       inkscape:vp_x="0 : 290 : 1"
       inkscape:vp_y="0 : 1000 : 0"
       inkscape:vp_z="580 : 290 : 1"
       inkscape:persp3d-origin="290 : 193.33333 : 1"
       id="perspective2441" />
    <inkscape:perspective
       id="perspective3452"
       inkscape:persp3d-origin="30 : 20 : 1"
       inkscape:vp_z="60 : 30 : 1"
       inkscape:vp_y="0 : 1000 : 0"
       inkscape:vp_x="0 : 30 : 1"
       sodipodi:type="inkscape:persp3d" />
    <symbol
       viewBox="244.5 110 489 219.9"
       id="symbol-university">
      <path
         id="path4460"
         d="M79,43l57,119c0,0,21-96,104-96s124,106,124,106l43-133l82-17L0,17L79,43z" />
      <path
         id="path4462"
         d="M94,176l-21,39"
         stroke-width="20"
         stroke="#000000"
         fill="none" />
      <path
         id="path4464"
         d="M300,19c0,10.5-22.6,19-50.5,19S199,29.5,199,19s22.6-19,50.5-19S300,8.5,300,19z" />
      <path
         id="path4466"
         d="M112,216l-16-38L64,88c0,0-9-8-4-35s16-24,16-24"
         stroke-width="20"
         stroke="#000000"
         ill="none" />
    </symbol>
    <inkscape:perspective
       id="perspective4471"
       inkscape:persp3d-origin="372.04724 : 350.78739 : 1"
       inkscape:vp_z="744.09448 : 526.18109 : 1"
       inkscape:vp_y="0 : 1000 : 0"
       inkscape:vp_x="0 : 526.18109 : 1"
       sodipodi:type="inkscape:persp3d" />
    <inkscape:perspective
       id="perspective4668"
       inkscape:persp3d-origin="6 : 4 : 1"
       inkscape:vp_z="12 : 6 : 1"
       inkscape:vp_y="0 : 1000 : 0"
       inkscape:vp_x="0 : 6 : 1"
       sodipodi:type="inkscape:persp3d" />
    <inkscape:perspective
       id="perspective8054"
       inkscape:persp3d-origin="372.04724 : 350.78739 : 1"
       inkscape:vp_z="744.09448 : 526.18109 : 1"
       inkscape:vp_y="0 : 1000 : 0"
       inkscape:vp_x="0 : 526.18109 : 1"
       sodipodi:type="inkscape:persp3d" />
    <inkscape:perspective
       id="perspective8069"
       inkscape:persp3d-origin="372.04724 : 350.78739 : 1"
       inkscape:vp_z="744.09448 : 526.18109 : 1"
       inkscape:vp_y="0 : 1000 : 0"
       inkscape:vp_x="0 : 526.18109 : 1"
       sodipodi:type="inkscape:persp3d" />
    <inkscape:perspective
       id="perspective8896"
       inkscape:persp3d-origin="372.04724 : 350.78739 : 1"
       inkscape:vp_z="744.09448 : 526.18109 : 1"
       inkscape:vp_y="0 : 1000 : 0"
       inkscape:vp_x="0 : 526.18109 : 1"
       sodipodi:type="inkscape:persp3d" />
  </defs>
  <path
     style="fill:#ffffff;fill-opacity:1;stroke:#ffffff;stroke-width:4.71551275;stroke-miterlimit:4;stroke-dasharray:none;stroke-opacity:1"
     d="m 341.48438,64.816406 c -2.03017,-0.0246 -3.93647,0.04409 -5.7793,0.185547 -8.1084,0.622591 -13.54932,1.38653 -22.44922,5.476563 -6.82188,3.15022 -12.17239,8.801404 -14.94531,15.785156 -6.79453,-0.244727 -17.54965,2.207159 -23.95117,7.226562 -2.62692,-1.418482 -5.46009,-2.793684 -8.7793,-4.214843 -2.95791,-1.266466 -5.52371,-2.167738 -8.17774,-2.986329 -0.88301,-0.27235 -1.95385,-0.534832 -2.98632,-0.798828 -5.87475,-2.712118 -6.81249,-1.572826 -9.12891,-1.865234 -2.86575,-0.361751 -5.52276,-0.523971 -8.37891,-0.558594 -2.09582,-0.02543 -4.0633,0.04548 -5.96484,0.191406 -4.79457,0.368156 -9.01029,1.141303 -13.22266,2.21875 -4.21236,1.077448 -7.43248,1.40398 -14.53515,5.90625 -0.10775,0.0683 -2.41285,1.456304 -3.61719,2.148438 -9.82512,5.64655 -11.50332,8.95814 -15.85547,13.70508 -4.35214,4.74694 -8.42879,9.59917 -12.20508,15.54883 -2.96123,4.66552 -5.58929,8.87496 -7.63476,12.55664 2.10046,-3.7806 0.83928,-1.39499 0.42968,-0.79883 -0.40959,0.59616 -1.01894,1.46899 -1.63085,2.33203 -1.6163,2.27962 -2.85849,4.33508 -4.25782,6.72852 -0.0872,0.11014 -0.31814,0.35566 -0.39844,0.45703 -0.84432,1.06597 -1.27265,1.68934 -1.73828,2.35937 -0.93125,1.34006 -1.78418,2.65193 -2.70312,4.12891 -2.39162,3.84391 -5.2699,7.85487 -7.35938,10.43359 -0.59533,0.73473 -0.79771,0.93068 -1.18164,1.35938 -11.17134,5.99058 -15.30403,11.64733 -21.58203,20.38867 -1.19155,1.65905 -3.51491,4.83181 -4.92578,6.75391 -5.60978,7.64263 -9.66078,14.29878 -13.58594,23.55664 -0.7645,1.80316 -1.99647,4.72221 -2.71875,6.4121 -1.22643,2.86951 -2.389561,5.91681 -3.468747,8.86915 -0.539593,1.47616 -1.032093,2.86757 -1.486328,4.23046 -0.454235,1.3629 -0.670832,-0.17161 -1.736328,6.75586 1.071136,-6.96238 0.267478,-1.53277 0.08789,-0.95898 v 0.002 c -0.647494,2.06883 -1.249201,4.16325 -1.789063,6.2168 -0.319961,1.21718 -1.151423,4.34341 -1.804687,6.80859 v 0.002 c -0.217275,0.81994 -0.379848,1.68035 -0.560547,2.3457 -1.426981,2.3555 -0.841335,2.80425 -0.789063,3.30859 -0.109538,0.4824 -0.225941,0.85532 -0.345703,1.44532 -0.05742,0.19648 -0.185028,0.56953 -0.228516,0.7246 -0.238156,0.84925 -0.340505,1.29511 -0.451171,1.76368 -0.221334,0.93713 -0.404304,1.78861 -0.609376,2.77343 -0.08277,0.3975 -0.179216,0.9493 -0.265624,1.37696 0.752214,-1.42312 2.153527,-3.45414 5.783203,-7.39063 -3.897501,4.22702 -5.325451,6.47292 -5.878907,7.87696 -0.121072,0.60536 -0.244213,1.25681 -0.36914,1.90625 0.02387,0.24529 0.03675,0.46896 -0.01367,0.69531 0.0046,-0.0806 -0.0424,-0.15705 -0.07617,-0.22656 -0.11723,0.61526 -0.228067,1.14056 -0.345703,1.78125 -0.07408,0.27606 -0.231583,0.76738 -0.283203,0.97461 -0.255388,1.02525 -0.345642,1.52146 -0.44336,2.02343 -0.195435,1.00394 -0.330997,1.8125 -0.480468,2.73047 -0.298944,1.83594 -0.613159,3.94678 -0.917969,6.10352 -0.154901,1.09603 -0.27563,2.08659 -0.416016,3.14453 0.317695,-0.65149 0.777166,-1.40091 1.267578,-2.17969 -1.943606,3.30802 -0.92985,4.01211 -1.197265,4.96875 -0.396063,1.41687 -0.511425,2.08335 -0.623047,2.67188 -0.137882,0.72697 -0.179156,1.09272 -0.244141,1.54882 -0.01429,0.20394 -0.02906,0.31395 -0.04297,0.57227 -0.0034,-0.045 -0.01816,-0.0992 -0.02344,-0.14453 -0.01954,0.14649 -0.06536,0.38768 -0.08398,0.53125 -0.02285,0.17615 -0.03168,0.33941 -0.05273,0.51172 -0.01967,0.11807 -0.03106,0.1942 -0.03906,0.38281 -0.117907,1.01188 -0.226583,1.99383 -0.310547,3.04297 -0.139948,1.74888 -0.329478,3.93833 -0.425781,5.12695 -0.124664,1.53797 -0.239331,3.3525 -0.335938,4.9375 -0.07307,1.1989 -0.228241,3.34113 -0.271484,3.85156 -0.238189,2.81152 -0.34963,5.07899 -0.419922,7.36719 -0.03069,0.25424 -0.104048,0.70994 -0.125,0.90625 -0.101523,0.95118 -0.138007,1.51624 -0.179688,2.13672 -0.08336,1.24095 -0.144387,2.49223 -0.199218,3.82422 -0.109664,2.66398 -0.280109,4.17624 -0.119141,8.25391 l 0.002,0.002 c 0.03075,0.77765 0.07542,2.4 0.08789,3.00195 0.04508,2.18007 0.282444,4.58525 0.408203,6.86328 -13.985264,-0.75348 -27.293719,0.58848 -39.232422,18.90039 -7.106258,10.89988 -8.789183,18.13021 -7.691406,30.83399 0.537399,6.21906 1.630338,10.53539 2.884765,15.26172 0.627214,2.36316 1.27489,4.589 2.16211,7.0625 0.44361,1.23674 0.914446,2.50704 1.779297,4.32031 0.451812,0.94728 0.645602,1.96629 1.607421,3.54883 2.258661,5.34 4.008191,6.98376 6.597657,10.83203 0.08581,0.12752 0.270981,0.42541 0.324219,0.51367 1.530453,3.30274 2.075473,3.58944 2.748046,4.57227 0.86078,1.25784 1.752716,2.49409 2.810547,3.92968 1.61804,2.19587 3.901685,5.15947 6.207031,8.14453 -5.096992,0.6765 -10.403742,1.36358 -14.498046,2.00196 h -0.002 L 31.207031,455.4707 C 15.223199,457.96506 4.2870532,472.94357 6.7792969,488.92773 l 5.2714841,33.78516 c 2.495377,15.98127 17.471009,26.91572 33.453125,24.42578 l 16.892578,-2.63281 c 19.860219,-3.09656 57.598466,-7.08797 87.933596,-4.05469 56.13169,5.61283 89.4645,7.65803 144.74219,-0.23828 43.19473,-6.17022 107.26214,-10.74507 137.72656,-8.57617 l 17.05469,1.2168 c 16.13608,1.14906 30.14909,-10.99888 31.30078,-27.13477 l 0.99804,-14 c 1.64401,0.22635 3.30428,0.3126 4.96289,0.25781 15.49222,-0.60068 29.59071,-0.57875 39.44532,0.12305 l 16.125,1.14844 c 16.13461,1.14679 30.14514,-11.00052 31.29687,-27.13477 l 2.29688,-32.24609 c 1.1479,-16.13605 -11.00086,-30.14814 -27.13672,-31.29883 l -16.125,-1.14844 c -8.1702,-0.58184 -16.83966,-0.84227 -25.90039,-0.85937 h -0.008 c -3.0348,-0.006 -6.09804,0.0179 -9.18165,0.0645 h -0.002 c -0.96482,0.0146 -1.98345,0.0704 -2.95508,0.0898 1.28566,-1.40523 2.44967,-2.55111 3.92578,-4.15429 7.01868,-7.62287 11.2559,-13.46774 15.41993,-21.05664 -3.07669,5.60734 10.87666,-10.03143 8.59375,-8.56446 2.62282,-1.68528 3.80131,-2.60031 5.83007,-4.17383 3.66634,-2.84364 6.08705,-4.37123 4.4961,-3.43164 h 0.002 c 3.17181,-1.87329 3.9508,-2.4132 6.84375,-4.96289 -1.24657,1.09863 0.7174,-0.55121 1.20508,-0.91015 11.90602,-8.76281 20.99762,-16.00522 28.55469,-27.57422 5.25657,-8.04713 7.4875,-16.45062 8.77734,-24.59766 0.77874,-4.91875 0.58282,-14.789 -0.58398,-20.93164 -1.92148,-10.11604 -3.86738,-18.37457 -10.10743,-28.2793 2.77761,-3.6412 5.15252,-7.39868 5.6875,-9.39843 v -0.002 c 1.59541,-5.96417 0.61377,-14.52813 -1.03906,-18.81054 -1.65283,-4.28241 -3.06545,-6.07451 -4.10547,-7.54688 -2.08002,-2.94473 -3.50307,-4.53704 -5.92968,-7.42578 -2.30206,-2.74045 -5.10419,-6.12371 -4.68555,-5.60937 -5.81823,-7.14794 -11.92318,-12.5915 -26.66406,-26.42969 -9.50487,-8.9228 -26.83088,-24.95295 -42.13086,-39.03711 -7.65,-7.04208 -14.77548,-13.58067 -20.14649,-18.48242 -2.6855,-2.45088 -4.92627,-4.48847 -6.61914,-6.01367 -0.84643,-0.76261 -1.54879,-1.39065 -2.16406,-1.9336 -0.61501,-0.54272 0.23666,-0.0483 -2.77734,-2.29687 3.66073,2.73093 0.0286,-0.0226 -1.61329,-1.45313 -1.64189,-1.43054 -3.82017,-3.34872 -6.05078,-5.33398 -6.95278,-6.188054 -14.46454,-12.598522 -20.92187,-17.912112 -6.45733,-5.31359 -8.74103,-7.933717 -16.75781,-12.652344 -1.02907,-0.605695 -2.35848,-2.085514 -8.88282,-3.708984 -5.62249,-1.399062 -18.68532,0.97074 -26.36328,6.320312 -2.27029,-1.177533 -4.72817,-2.324422 -7.56055,-3.537109 -2.87002,-1.228814 -5.32699,-2.091812 -7.89257,-2.882812 -0.79515,-0.245152 -1.79758,-0.485806 -2.71289,-0.72461 -5.87178,-2.719476 -6.75747,-1.565222 -9.01172,-1.849609 -2.78405,-0.351223 -5.34274,-0.507575 -8.10156,-0.541016 z m 6.42187,1.3125 c 0.34153,-0.02083 0.50163,0.02655 0.81836,0.01563 -0.3994,0.01068 -0.59228,-0.02218 -1.08008,0.01367 0.0749,-0.0049 0.189,-0.02486 0.26172,-0.0293 z M 243.81836,84.451172 c 0.29427,-0.01801 0.42932,0.02426 0.70508,0.01367 -0.35194,0.01154 -0.51012,-0.01865 -0.92774,0.01172 0.0635,-0.0041 0.16077,-0.0216 0.22266,-0.02539 z m -73.05078,49.802738 c -5.00071,1.54622 -6.2061,3.55611 -7.51953,4.58007 -0.85272,0.66479 -1.0255,0.91185 -1.50196,1.35352 0.2142,-0.1959 0.17607,-0.21392 0.43555,-0.43945 1.33729,-1.16237 2.44013,-3.67179 8.58594,-5.49414 z m -13.01367,10.39453 c -0.22805,0.40707 -0.40843,0.57735 -0.6543,1.0332 0.10375,-0.19235 0.11844,-0.25683 0.59375,-0.95508 0.009,-0.0134 0.0513,-0.0644 0.0605,-0.0781 z m -12.875,17.87304 c -0.21207,0.23408 -0.68495,0.79635 -0.73633,0.84766 -0.0789,0.0787 -0.0715,-0.19882 0.73633,-0.84766 z m -54.744144,96.76368 c -0.162207,0.70442 -0.05039,0.17184 0,0 z m -0.06641,42.38476 h 0.002 c -1.53869,1.66869 -2.426368,2.85511 -3.333984,4.05469 0.79922,-1.13221 1.851794,-2.44919 3.332031,-4.05469 z m -6.898437,12.92383 c -0.07915,0.33128 -0.145696,0.6121 -0.19336,0.85352 0.04781,-0.23282 0.02831,-0.22037 0.09961,-0.53125 0.0157,-0.0684 0.07704,-0.24953 0.09375,-0.32227 z M 44.017578,422.98438 c 0.892809,1.43382 2.37466,3.29536 5.41211,6.0957 -4.03506,-3.72056 -5.056186,-5.19921 -5.41211,-6.0957 z"
     id="path8938"
     inkscape:connector-curvature="0"
     sodipodi:nodetypes="cccccsscsccscccccccccccccccccccccccccccccccccccccccscscccccccccccccscccsccccccscscccccccccccccccccccccccccccccccsccscccccsccccsccccsccscccscsccccsccccccccccccccccccccccccccccccccccccc" />
</svg>
