<?xml version="1.0" encoding="UTF-8" standalone="no"?>
<!-- Created with Inkscape (http://www.inkscape.org/) -->

<svg
   xmlns:dc="http://purl.org/dc/elements/1.1/"
   xmlns:cc="http://creativecommons.org/ns#"
   xmlns:rdf="http://www.w3.org/1999/02/22-rdf-syntax-ns#"
   xmlns:svg="http://www.w3.org/2000/svg"
   xmlns="http://www.w3.org/2000/svg"
   xmlns:sodipodi="http://sodipodi.sourceforge.net/DTD/sodipodi-0.dtd"
   xmlns:inkscape="http://www.inkscape.org/namespaces/inkscape"
   version="1.0"
   width="580"
   height="580"
   id="svg2"
   sodipodi:version="0.32"
   inkscape:version="0.92.3 (2405546, 2018-03-11)"
   sodipodi:docname="archaeological_site_m.svg"
   inkscape:output_extension="org.inkscape.output.svg.inkscape">
  <metadata
     id="metadata2975">
    <rdf:RDF>
      <cc:Work
         rdf:about="">
        <dc:format>image/svg+xml</dc:format>
        <dc:type
           rdf:resource="http://purl.org/dc/dcmitype/StillImage" />
        <cc:license
           rdf:resource="http://web.resource.org/cc/PublicDomain" />
        <dc:language>en</dc:language>
      </cc:Work>
    </rdf:RDF>
  </metadata>
  <sodipodi:namedview
     inkscape:window-height="1006"
     inkscape:window-width="1920"
     inkscape:pageshadow="2"
     inkscape:pageopacity="0.0"
     guidetolerance="10.0"
     gridtolerance="10.0"
     objecttolerance="10.0"
     borderopacity="1.0"
     bordercolor="#666666"
     pagecolor="#ffffff"
     id="base"
     inkscape:zoom="0.65172414"
     inkscape:cx="-386.84914"
     inkscape:cy="450.16175"
     inkscape:window-x="1920"
     inkscape:window-y="0"
     inkscape:current-layer="svg2"
     showgrid="false"
     inkscape:window-maximized="1" />
  <defs
     id="defs4">
    <inkscape:perspective
       sodipodi:type="inkscape:persp3d"
       inkscape:vp_x="0 : 290 : 1"
       inkscape:vp_y="0 : 1000 : 0"
       inkscape:vp_z="580 : 290 : 1"
       inkscape:persp3d-origin="290 : 193.33333 : 1"
       id="perspective2441" />
    <inkscape:perspective
       id="perspective3452"
       inkscape:persp3d-origin="30 : 20 : 1"
       inkscape:vp_z="60 : 30 : 1"
       inkscape:vp_y="0 : 1000 : 0"
       inkscape:vp_x="0 : 30 : 1"
       sodipodi:type="inkscape:persp3d" />
    <symbol
       viewBox="244.5 110 489 219.9"
       id="symbol-university">
      <path
         id="path4460"
         d="M79,43l57,119c0,0,21-96,104-96s124,106,124,106l43-133l82-17L0,17L79,43z" />
      <path
         id="path4462"
         d="M94,176l-21,39"
         stroke-width="20"
         stroke="#000000"
         fill="none" />
      <path
         id="path4464"
         d="M300,19c0,10.5-22.6,19-50.5,19S199,29.5,199,19s22.6-19,50.5-19S300,8.5,300,19z" />
      <path
         id="path4466"
         d="M112,216l-16-38L64,88c0,0-9-8-4-35s16-24,16-24"
         stroke-width="20"
         stroke="#000000"
         ill="none" />
    </symbol>
    <inkscape:perspective
       id="perspective4471"
       inkscape:persp3d-origin="372.04724 : 350.78739 : 1"
       inkscape:vp_z="744.09448 : 526.18109 : 1"
       inkscape:vp_y="0 : 1000 : 0"
       inkscape:vp_x="0 : 526.18109 : 1"
       sodipodi:type="inkscape:persp3d" />
    <inkscape:perspective
       id="perspective4668"
       inkscape:persp3d-origin="6 : 4 : 1"
       inkscape:vp_z="12 : 6 : 1"
       inkscape:vp_y="0 : 1000 : 0"
       inkscape:vp_x="0 : 6 : 1"
       sodipodi:type="inkscape:persp3d" />
    <inkscape:perspective
       id="perspective8054"
       inkscape:persp3d-origin="372.04724 : 350.78739 : 1"
       inkscape:vp_z="744.09448 : 526.18109 : 1"
       inkscape:vp_y="0 : 1000 : 0"
       inkscape:vp_x="0 : 526.18109 : 1"
       sodipodi:type="inkscape:persp3d" />
    <inkscape:perspective
       id="perspective8069"
       inkscape:persp3d-origin="372.04724 : 350.78739 : 1"
       inkscape:vp_z="744.09448 : 526.18109 : 1"
       inkscape:vp_y="0 : 1000 : 0"
       inkscape:vp_x="0 : 526.18109 : 1"
       sodipodi:type="inkscape:persp3d" />
    <inkscape:perspective
       id="perspective8896"
       inkscape:persp3d-origin="372.04724 : 350.78739 : 1"
       inkscape:vp_z="744.09448 : 526.18109 : 1"
       inkscape:vp_y="0 : 1000 : 0"
       inkscape:vp_x="0 : 526.18109 : 1"
       sodipodi:type="inkscape:persp3d" />
  </defs>
  <path
     sodipodi:type="inkscape:offset"
     inkscape:radius="29.752489"
     inkscape:original="M 267.96875 50.75 C 266.59016 50.73329 265.25398 50.7811 264.03125 50.875 C 257.85906 51.348974 250.18948 53.312633 247.28125 55.15625 C 246.03908 55.943693 243.5692 57.409906 241.78125 58.4375 C 237.066 61.147574 225.84467 73.383628 220.8125 81.3125 C 217.61382 86.352459 214.10046 92.131556 212.90625 94.28125 C 212.63315 94.772826 211.09349 97.002404 209.5 99.25 C 207.90652 101.49759 205.97821 104.53391 205.1875 106 C 204.39681 107.46608 203.55493 108.69242 203.34375 108.71875 C 203.13259 108.74505 201.631 110.90965 200 113.53125 C 192.86213 125.00432 184.0611 135.87915 180.59375 137.46875 C 175.90847 139.6167 167.95117 146.86437 163.5 153.0625 C 161.89772 155.2936 159.20213 158.97351 157.53125 161.25 C 153.7998 166.33397 147.68751 176.89384 145.5625 181.90625 C 144.69427 183.95419 143.25532 187.36705 142.34375 189.5 C 140.40659 194.0327 137.0853 203.10134 136.875 204.46875 C 136.7949 204.98961 136.31802 206.75971 135.8125 208.375 C 135.30698 209.99031 134.56519 212.56933 134.15625 214.125 C 133.74733 215.6807 132.79109 219.28869 132.03125 222.15625 C 131.27144 225.02378 130.4824 228.26873 130.28125 229.34375 C 130.08011 230.41876 129.84916 231.39246 129.75 231.5 C 129.58921 231.67439 128.52887 236.72319 127.59375 241.90625 C 127.40674 242.94275 127.17735 243.90668 127.0625 244.03125 C 126.70512 244.41886 124.15726 262.44881 124.3125 263.5 C 124.3933 264.04721 124.35355 264.60045 124.21875 264.75 C 124.08385 264.89957 123.83353 266.84719 123.65625 269.0625 C 123.47899 271.2778 123.24591 273.98706 123.15625 275.09375 C 123.06655 276.20044 122.91544 278.49835 122.8125 280.1875 C 122.70955 281.87662 122.54264 284.25891 122.4375 285.5 C 122.15608 288.82206 122.05966 290.56397 122 293.0625 C 121.9706 294.2932 121.87761 295.36687 121.8125 295.4375 C 121.60357 295.66409 121.216 305.11771 121.3125 307.5625 C 121.3638 308.8613 121.41687 310.72122 121.4375 311.71875 C 121.63662 321.35362 122.74099 333.1701 124.59375 345.34375 C 125.70525 352.64685 126.36875 359.07551 126.34375 362.5625 C 126.32295 365.46768 126.32285 365.47107 124.96875 365.0625 C 124.22401 364.83781 122.49722 364.04958 121.125 363.3125 C 119.75276 362.57541 117.66886 361.70606 116.5 361.375 C 115.33113 361.04393 114.21041 360.62681 114 360.4375 C 113.78959 360.24817 111.14724 359.69407 108.15625 359.1875 C 105.16524 358.68092 102.15134 357.98514 101.4375 357.65625 C 99.005606 356.53573 92.160853 354.96547 88.65625 354.71875 C 81.044903 354.1829 73.263748 356.99391 70.46875 361.28125 C 68.049904 364.99163 66.516343 371.17509 66.90625 375.6875 C 67.443714 381.90774 70.844221 394.70874 72.3125 396.0625 C 72.443065 396.18289 72.794066 396.9732 73.09375 397.84375 C 73.657599 399.4814 75.544576 402.68958 78.78125 407.5 C 79.811048 409.03056 80.846294 410.78593 81.09375 411.40625 C 81.54231 412.53061 86.355218 419.07865 93.75 428.5625 C 95.89369 431.31181 98.090247 434.16248 98.625 434.90625 C 99.014999 435.44878 104.02733 440.17756 110.9375 446.59375 C 129.25303 445.68729 148.97219 445.70661 168.15625 447.625 C 233.25495 454.13491 263.64735 456.3049 324.40625 447.625 C 337.52214 445.75131 351.89635 443.99982 366.71875 442.4375 C 373.15722 440.39741 377.9689 438.64243 381.90625 436.875 C 383.20762 436.29084 385.30202 435.44197 386.5625 434.96875 C 393.65302 432.30669 409.99398 423.0864 416.03125 418.34375 C 417.68551 417.04422 419.62808 415.66211 420.34375 415.28125 C 423.81662 413.43323 428.53661 409.08721 436.5 400.4375 C 445.15793 391.03335 445.39184 390.75352 450.46875 381.5 C 453.99514 375.07243 466.23802 362.37011 473.28125 357.84375 C 474.23147 357.23314 476.29868 355.75396 477.875 354.53125 C 482.71858 350.77417 485.53961 348.71052 487.21875 347.71875 C 488.10331 347.19628 489.41429 346.24774 490.15625 345.59375 C 490.8982 344.9398 492.69039 343.52474 494.125 342.46875 C 507.05377 332.95229 516.28866 324.30998 520.59375 317.71875 C 523.14984 313.80534 524.86093 308.63291 526 301.4375 C 526.8713 295.93363 526.84648 295.22254 525.46875 287.96875 C 523.57869 278.01712 519.85092 267.76171 516.3125 262.8125 C 510.96005 255.32593 507.64221 252.15802 499.375 246.71875 C 495.93079 244.45272 488.14835 240.87923 486.59375 240.84375 C 486.05135 240.83135 485.40721 240.63151 485.15625 240.40625 C 484.90525 240.1809 481.43861 239.54802 477.46875 239 C 473.49887 238.45198 470.13555 237.9 469.96875 237.75 C 469.2018 237.06024 478.41884 228.68189 480.9375 227.78125 C 482.20335 227.32861 483.81503 228.06898 487.40625 230.8125 C 489.95969 232.7632 491.72054 233.21023 494.0625 232.46875 C 494.92659 232.19521 500.00852 230.8927 505.375 229.59375 C 519.70918 226.12415 520.40757 225.91481 520.59375 225.21875 C 520.84952 224.26256 519.94104 222.98084 514.15625 216.09375 C 511.24712 212.63028 508.47686 209.30468 508 208.71875 C 504.89107 204.89893 496.35129 196.49823 478.3125 179.5625 C 455.25935 157.91903 392.46963 100.1163 390.09375 98.34375 C 389.25013 97.714349 383.88551 93.040504 378.1875 87.96875 C 361.79423 73.377233 342.03357 57.109939 337.28125 54.3125 C 335.01625 52.979219 334.77009 53.248073 334 58 C 333.65988 60.098764 332.74748 63.783387 331.96875 66.1875 C 329.44354 73.983576 328.06795 78.897989 327.9375 80.5 C 327.76897 82.569417 329.73162 86.332753 332.5625 89.3125 C 333.8056 90.620992 334.85943 92.051171 334.90625 92.5 C 335.06592 94.030785 332.71843 97.957375 328.90625 102.5625 C 325.09907 107.16159 325.09669 107.18039 324.84375 105.1875 C 324.35428 101.33057 322.05063 89.727233 321.46875 88.21875 C 319.36574 82.767072 314.58433 75.65243 308.96875 69.59375 C 304.64502 64.928821 294.50227 57.846888 288.4375 55.25 C 284.59366 53.604098 279.04611 51.894937 278.71875 52.25 C 278.58848 52.391297 278.10443 52.27254 277.625 52 C 276.4178 51.313764 272.10453 50.800139 267.96875 50.75 z M 273.34375 67.25 C 277.40498 67.17219 281.85226 68.072529 285.21875 69.84375 C 288.64405 71.645908 289.22727 72.099159 293.65625 76.40625 C 298.25399 80.877474 298.47819 81.150024 300.375 84.90625 C 303.96023 92.006022 305.44034 97.697777 305.34375 104.09375 C 305.27325 108.76452 303.94724 117.14209 303.15625 118 C 302.82931 118.35459 302.52366 119.04646 302.46875 119.53125 C 302.24688 121.48996 299.34507 126.21101 296.4375 129.375 C 292.99898 133.11676 292.91201 133.17046 285.9375 133.78125 C 272.26396 134.97878 266.63916 134.55765 251 131.1875 C 248.13941 130.57106 245.10082 129.93035 244.25 129.75 C 243.39922 129.56963 240.92281 128.98023 238.75 128.46875 C 236.57721 127.95725 233.46879 127.37934 231.84375 127.15625 C 230.2187 126.93313 228.36438 126.51356 227.71875 126.25 C 226.19586 125.62833 225.81974 125.24928 225.71875 124.28125 C 225.60267 123.16828 227.31976 118.65222 228.625 116.625 C 229.72112 114.92257 232.06732 110.75102 233.84375 107.34375 C 234.36724 106.33969 235.81675 103.91099 237.0625 101.9375 C 238.30825 99.964008 240.17839 96.836708 241.25 95 C 248.60286 82.397547 258.72968 71.894244 266.78125 68.46875 C 268.60637 67.692268 270.90701 67.296684 273.34375 67.25 z M 479.0625 260.46875 C 487.11317 260.66102 494.68675 262.89084 499.8125 267.09375 C 504.35626 270.81944 507.85553 276.18157 508.625 280.65625 C 509.40964 285.21933 508.31734 293.49619 506.28125 298.53125 C 504.74305 302.3351 504.47263 302.71227 498.09375 309.625 C 492.92917 315.22172 490.77347 317.24517 488.21875 318.90625 C 486.42206 320.07446 483.75011 321.8818 482.28125 322.90625 C 480.8124 323.9307 477.97407 325.82054 475.96875 327.09375 C 473.96347 328.36695 470.9575 330.30691 469.28125 331.4375 C 464.93313 334.37034 459.21474 337.28938 457.15625 337.59375 C 454.93198 337.92262 454.76415 337.75524 454.53125 334.875 C 454.35695 332.71939 450.73565 317.87285 449.25 313.25 C 448.07561 309.59565 445.53114 297.12684 445.0625 292.65625 C 443.82168 280.81974 447.98461 270.22955 455.5 266.03125 C 462.50504 262.11805 471.01183 260.27648 479.0625 260.46875 z M 473.25391 466.17969 C 469.73628 466.17269 466.15092 466.19881 462.50977 466.25391 C 418.81594 466.91532 367.01086 471.87209 325.91992 477.74219 C 266.54696 486.2241 239.42549 484.13305 174.50195 477.64062 C 127.56582 472.94707 79.589962 478.72534 52.814453 482.90039 L 33.052734 485.98242 L 39.216797 525.50391 L 58.976562 522.42383 C 83.932654 518.53248 129.66734 513.35603 170.52148 517.44141 C 235.79531 523.96884 269.43133 526.21774 331.57617 517.33984 C 384.14844 509.82956 458.32351 504.08333 499.96094 507.04883 L 519.91016 508.4707 L 522.75195 468.57031 L 502.80273 467.15039 C 493.75422 466.50594 483.80679 466.19943 473.25391 466.17969 z "
     style="fill:#ffffff;fill-opacity:1;stroke:none;stroke-width:4.71551275;stroke-miterlimit:4;stroke-dasharray:none;stroke-opacity:1"
     id="path8938-3"
     d="m 268.33008,21 c -2.2993,-0.02787 -4.47225,0.04741 -6.57617,0.208984 -5.27557,0.405121 -10.01273,1.271754 -14.69336,2.46875 -4.68064,1.196997 -8.30018,1.652936 -15.70899,6.34961 -0.28488,0.180591 -2.94611,1.78166 -4.39648,2.615234 -10.28962,5.913924 -12.52025,9.770259 -17.4707,15.169922 -4.95046,5.399663 -9.62585,10.990761 -13.79297,17.556641 -3.43084,5.405745 -6.56153,10.446068 -8.79297,14.46289 2.117,-3.810582 0.7749,-1.298377 0.27734,-0.574219 -0.49756,0.724159 -1.22025,1.759708 -1.94726,2.785157 -1.91357,2.699073 -3.38893,5.084084 -5.06055,7.988281 -0.12443,0.155967 -0.42722,0.478337 -0.53711,0.617188 -0.88278,1.115416 -1.35122,1.795858 -1.86328,2.533203 -1.02412,1.474689 -1.99062,2.963283 -3.0293,4.632812 -2.89888,4.659527 -6.34695,9.469777 -8.93359,12.662107 -0.97106,1.19845 -1.54538,1.80275 -2.06055,2.35938 -12.34139,6.55363 -17.42359,13.1425 -24.41016,22.87109 -1.4215,1.97939 -4.13419,5.68548 -5.7871,7.9375 a 29.755464,29.755464 0 0 0 0,0.002 c -6.18932,8.43273 -11.11075,16.58348 -15.37696,26.64649 -0.89368,2.10797 -2.33461,5.5226 -3.18554,7.51367 -1.37168,3.20953 -2.72377,6.75261 -3.96485,10.14648 -0.62054,1.69694 -1.18871,3.29513 -1.69922,4.82618 -0.51023,1.53023 -0.76103,0.0853 -1.84961,7.16015 1.07093,-6.96377 0.19497,-1.24264 -0.0527,-0.45117 -0.72374,2.31259 -1.4346,4.78024 -2.03711,7.07227 -0.38506,1.46492 -1.3492,5.10578 -2.10938,7.97461 -0.33721,1.27266 -0.58427,2.5443 -0.85937,3.58984 -1.49227,2.44773 -0.85267,2.88307 -0.81641,3.41211 -0.10585,0.48445 -0.22003,0.82169 -0.33203,1.38477 -0.0699,0.23618 -0.21114,0.65353 -0.26172,0.83398 -0.24784,0.88427 -0.36109,1.36491 -0.48242,1.87891 -0.24265,1.02799 -0.45091,1.99957 -0.685546,3.12695 -0.153895,0.73943 -0.333129,1.74673 -0.498046,2.57812 0.759052,-1.43624 2.176752,-3.49075 5.851562,-7.47656 h 0.002 c -3.92297,4.25481 -5.36975,6.52131 -5.945309,7.95313 -0.136091,0.69187 -0.268964,1.37482 -0.408203,2.10937 0.01363,0.14667 0.0032,0.29529 -0.0098,0.4336 -0.0074,-0.0457 -0.02643,-0.0961 -0.04687,-0.13868 -0.109996,0.58331 -0.212347,1.06329 -0.322266,1.66407 -0.106392,0.38161 -0.291844,0.96325 -0.357422,1.22656 -0.264402,1.06165 -0.362698,1.5957 -0.46875,2.14062 -0.212104,1.08985 -0.366451,2.00824 -0.537109,3.05664 -0.341316,2.09681 -0.705482,4.54752 -1.058594,7.04688 -0.234253,1.65806 -0.427545,3.18612 -0.628906,4.74219 0.328467,-0.68201 0.810179,-1.47092 1.328125,-2.29297 -1.989139,3.37749 -0.950851,4.09311 -1.224609,5.07226 -0.404822,1.44793 -0.526197,2.13865 -0.642578,2.75196 -0.130504,0.68773 -0.167229,1.04003 -0.234376,1.49804 -0.0095,0.14781 -0.02011,0.216 -0.0293,0.38672 -0.0012,0.0221 -0.0098,0.0441 -0.01172,0.0645 -0.003,-0.0287 -0.01189,-0.0629 -0.01563,-0.0918 -0.03245,0.23487 -0.09766,0.58885 -0.126953,0.81445 -0.01197,0.0922 -0.0158,0.18194 -0.02734,0.27344 -0.0094,0.0837 -0.01845,0.11566 -0.02344,0.22461 -0.159508,1.29528 -0.292094,2.53733 -0.400391,3.89062 -0.165697,2.07079 -0.388853,4.65415 -0.498047,6.00196 l 0.002,-0.002 c -0.14025,1.73037 -0.2759,3.86907 -0.386719,5.6875 -0.0875,1.43558 -0.265836,3.92218 -0.324218,4.61133 -0.28447,3.35806 -0.418901,5.97035 -0.496094,8.67578 -0.04261,0.3345 -0.126376,0.86014 -0.152344,1.10352 -0.107092,1.00369 -0.148771,1.62906 -0.195312,2.32226 -0.09308,1.38641 -0.16361,2.82496 -0.226563,4.35547 -0.125906,3.06102 -0.306491,4.98989 -0.136719,9.29102 0.03903,0.98809 0.09279,2.89034 0.107422,3.59765 0.08367,4.04879 0.437916,8.45092 0.763672,12.8125 -0.611228,-0.0375 -1.020668,-0.059 -1.708984,-0.10742 -16.299666,-1.14752 -31.859117,-0.47168 -45.201172,19.99414 -7.535595,11.5592 -9.447853,19.7137 -8.28125,33.21485 0.581315,6.72774 1.820888,11.73911 3.240234,17.08593 0.709673,2.67342 1.442552,5.18637 2.414063,7.89454 0.485755,1.35408 0.998909,2.72843 1.908203,4.63476 0.484214,1.01515 0.713994,2.11523 1.757812,3.80078 2.467539,5.90214 4.487661,7.95089 7.511719,12.44532 0.151839,0.22567 0.429449,0.66587 0.525391,0.82812 0.0893,0.15102 0.158554,0.71835 -1.082032,-2.33398 3.086077,7.68368 3.184578,6.05003 4.128907,7.42968 0.957381,1.39872 1.979079,2.81382 3.197265,4.4668 2.436373,3.30597 5.607415,7.46535 9.421875,12.35742 1.245454,1.59731 1.63831,2.11184 2.513672,3.25781 -9.318829,1.11023 -17.63187,2.30678 -24.570312,3.38868 l -19.761719,3.08203 a 29.755464,29.755464 0 0 0 -24.8125,33.98242 l 6.1640625,39.52148 a 29.755464,29.755464 0 0 0 33.9785155,24.8125 l 19.759766,-3.08007 a 29.755464,29.755464 0 0 0 0.002,-0.002 c 23.457366,-3.65765 67.809373,-8.39247 104.000003,-4.77343 65.60754,6.5608 103.89354,8.93603 168.22265,-0.25391 50.79618,-7.25655 125.6387,-12.66024 162.0625,-10.06641 l 19.94922,1.42188 a 29.755464,29.755464 0 0 0 31.79297,-27.56446 l 2.8418,-39.90039 a 29.755464,29.755464 0 0 0 -27.56446,-31.79101 l -19.94921,-1.41992 c -9.92179,-0.70665 -20.51096,-1.0241 -31.60352,-1.04493 h -0.004 c -3.70389,-0.007 -7.45499,0.0188 -11.24804,0.0762 a 29.755464,29.755464 0 0 0 -0.002,0 c -6.73205,0.1019 -13.82554,0.47819 -20.80468,0.75976 6.32532,-4.53267 10.66987,-9.65176 17.13476,-16.67383 8.67627,-9.42406 13.02345,-15.40966 18.16406,-24.77929 -2.49072,4.53985 13.87685,-13.62025 12.81446,-12.9375 2.82337,-1.81437 4.39665,-3.01115 6.74414,-4.83203 4.59191,-3.56187 7.55595,-5.48335 6.23828,-4.70508 3.37748,-1.99493 4.40142,-2.70968 7.47851,-5.42188 -1.11549,0.9832 1.19129,-0.93797 1.9336,-1.48437 14.40714,-10.60464 25.29583,-19.50977 33.74219,-32.44141 5.79545,-8.87292 8.36856,-18.33303 9.88281,-27.89844 0.94682,-5.98095 0.74452,-16.13225 -0.6875,-23.67187 -2.50565,-13.19286 -5.07792,-23.99425 -13.97266,-36.56836 3.95616,-4.56071 7.8846,-10.23368 8.60938,-12.94336 1.62883,-6.08936 0.63754,-14.82941 -1.06446,-19.24609 -1.70199,-4.41669 -3.18503,-6.32367 -4.32421,-7.9375 -2.27837,-3.22766 -4.02609,-5.21341 -7.00977,-8.76563 -2.85931,-3.40416 -6.20348,-7.43994 -5.86133,-7.01953 -6.46577,-7.94424 -14.19641,-14.97742 -32.39844,-32.06641 -11.71785,-11.00132 -33.15643,-30.83992 -52.07617,-48.25781 -9.45986,-8.70895 -18.27269,-16.795054 -24.90625,-22.849608 -3.31677,-3.027277 -6.08259,-5.541894 -8.1582,-7.41211 -1.03781,-0.935107 -1.89531,-1.70391 -2.62695,-2.349609 -0.73164,-0.645699 0.0671,-0.198646 -3.02539,-2.505859 3.64258,2.717631 -0.32465,-0.315504 -2.37891,-2.105469 -2.05426,-1.789965 -4.76149,-4.175924 -7.53711,-6.646484 -8.52983,-7.592337 -17.77664,-15.485238 -25.69336,-22 -7.91672,-6.514763 -11.33329,-10.029269 -19.90039,-15.072266 -1.14599,-0.674583 -2.57587,-2.219284 -9.26562,-3.884766 -6.68976,-1.665481 -23.5841,1.825948 -30.23633,9.28711 -0.0815,0.09142 -0.10994,0.153727 -0.18946,0.24414 -3.74478,-2.258792 -7.71954,-4.357914 -12.53515,-6.419921 -3.25732,-1.394756 -6.17214,-2.421022 -9.11914,-3.330079 -1.14784,-0.35407 -2.41072,-0.678585 -3.80078,-1.015625 -5.98767,-2.740031 -7.08018,-1.614534 -9.60743,-1.933593 C 274.48023,21.222613 271.50399,21.038478 268.33008,21 Z m 8.36328,1.615234 c 0.0799,-0.005 0.11289,0.0084 0.19141,0.0039 -0.10511,0.0062 -0.13817,-0.0057 -0.24805,0.002 0.0158,-0.001 0.0409,-0.0049 0.0566,-0.0059 z m -84.05664,58.011719 c -5.08438,1.57247 -6.31155,3.619207 -7.64844,4.662109 -0.81895,0.63886 -0.97171,0.867864 -1.44531,1.302735 0.19666,-0.178762 0.15737,-0.189848 0.39062,-0.392578 1.35339,-1.176287 2.4689,-3.722702 8.70313,-5.572266 z m -13.16406,10.503906 c -0.16339,0.295375 -0.30292,0.431379 -0.47266,0.746094 0.0536,-0.09943 0.0143,-0.07612 0.45312,-0.720703 0.003,-0.0041 0.0167,-0.02126 0.0195,-0.02539 z m 91.89257,5.042969 c 0.13776,0.07248 0.0637,0.0087 0.16407,0.05664 0.005,0.0066 0.0282,0.03026 0.0332,0.03711 -0.11203,-0.05835 -0.0691,-0.02629 -0.19727,-0.09375 z m -36.65625,0.875 c -0.10561,-0.06525 1.48492,0.581583 2.03321,0.791016 -0.29198,-0.04256 -0.55074,-0.118858 -0.85157,-0.160156 0.16647,0.02286 -0.96064,-0.494335 -1.18164,-0.63086 z m 119.00977,0.710938 c 1.62923,4.294904 0.69003,4.070924 0.64063,3.681644 -0.1643,-1.2946 -0.44109,-2.466919 -0.64063,-3.681644 z m -78.94336,2.626954 c 0.70695,1.55243 0.83514,2.14653 0.81836,3.25781 8.2e-4,-0.0542 -0.0949,0.81089 -0.11914,1.08008 -1.65842,0.075 -3.14987,0.0742 -4.61719,-0.0566 1.36536,-1.62316 2.647,-3.003 3.91797,-4.28125 z m -111.11914,12.54883 c -0.14026,0.15055 -0.523,0.61098 -0.5957,0.68359 -0.18635,0.1861 -0.20954,-0.0529 0.5957,-0.68359 z m 90.83789,18.29101 c 0.819,-0.94201 -2.29897,3.64529 -0.85352,1.50586 0.84027,-1.42205 -0.14748,0.19553 0.85352,-1.50586 z M 99.9375,275.27148 c -1.55988,1.69187 -2.459749,2.89422 -3.380859,4.11133 0.811142,-1.14808 1.881077,-2.48439 3.380859,-4.11133 z m 374.83594,12.78907 c 0.10181,-0.23643 0.14352,-0.14404 -0.0137,0.1582 0.0102,-0.0295 0.003,-0.13458 0.0137,-0.1582 z m -381.847659,0.35351 c -0.07412,0.31066 -0.135154,0.57053 -0.18164,0.80274 0.04639,-0.2241 0.02631,-0.20585 0.09375,-0.5 0.01471,-0.0642 0.07232,-0.23485 0.08789,-0.30274 z m 382.238279,2.16992 c -0.13844,0.14654 -0.11144,0.12106 -0.22851,0.24414 -0.006,-0.0247 -0.0416,-0.19392 -0.0469,-0.21289 0.0926,-0.0162 0.18231,-0.0162 0.27539,-0.0312 z m -26.15234,18.31836 c -0.0412,0.0213 -0.0992,0.06 -0.13867,0.0801 -0.71366,0.36297 -1.2112,0.27616 0.13867,-0.0801 z m 33.84961,15.78321 c 3.88633,6.39816 1.38154,8.47574 1.32617,7.79101 -0.48949,-6.05358 -0.82065,-5.49639 -1.2832,-7.60742 -0.0122,-0.0559 -0.0306,-0.12736 -0.043,-0.18359 z m -436.214846,87.0625 c 0.923777,1.47133 2.431848,3.36045 5.498047,6.1875 -4.094148,-3.77509 -5.137224,-5.27999 -5.498047,-6.1875 z"
     transform="translate(10.366236,1.8744584)" />
</svg>
