<?xml version="1.0" encoding="UTF-8" standalone="no"?>
<!-- Created with Inkscape (http://www.inkscape.org/) -->

<svg
   xmlns:dc="http://purl.org/dc/elements/1.1/"
   xmlns:cc="http://creativecommons.org/ns#"
   xmlns:rdf="http://www.w3.org/1999/02/22-rdf-syntax-ns#"
   xmlns:svg="http://www.w3.org/2000/svg"
   xmlns="http://www.w3.org/2000/svg"
   xmlns:sodipodi="http://sodipodi.sourceforge.net/DTD/sodipodi-0.dtd"
   xmlns:inkscape="http://www.inkscape.org/namespaces/inkscape"
   version="1.0"
   width="580"
   height="580"
   id="svg2"
   sodipodi:version="0.32"
   inkscape:version="0.92.3 (2405546, 2018-03-11)"
   sodipodi:docname="barrier_border_control.svg"
   inkscape:output_extension="org.inkscape.output.svg.inkscape">
  <metadata
     id="metadata2975">
    <rdf:RDF>
      <cc:Work
         rdf:about="">
        <dc:format>image/svg+xml</dc:format>
        <dc:type
           rdf:resource="http://purl.org/dc/dcmitype/StillImage" />
        <cc:license
           rdf:resource="http://web.resource.org/cc/PublicDomain" />
        <dc:language>en</dc:language>
        <dc:title />
      </cc:Work>
    </rdf:RDF>
  </metadata>
  <sodipodi:namedview
     inkscape:window-height="1006"
     inkscape:window-width="1920"
     inkscape:pageshadow="2"
     inkscape:pageopacity="0.0"
     guidetolerance="10.0"
     gridtolerance="10.0"
     objecttolerance="10.0"
     borderopacity="1.0"
     bordercolor="#666666"
     pagecolor="#ffffff"
     id="base"
     inkscape:zoom="0.65172414"
     inkscape:cx="46.055401"
     inkscape:cy="331.33237"
     inkscape:window-x="1920"
     inkscape:window-y="0"
     inkscape:current-layer="svg2"
     showgrid="false"
     inkscape:window-maximized="1" />
  <defs
     id="defs4">
    <inkscape:perspective
       sodipodi:type="inkscape:persp3d"
       inkscape:vp_x="0 : 290 : 1"
       inkscape:vp_y="0 : 1000 : 0"
       inkscape:vp_z="580 : 290 : 1"
       inkscape:persp3d-origin="290 : 193.33333 : 1"
       id="perspective2441" />
  </defs>
  <path
     inkscape:connector-curvature="0"
     style="fill:#000000;fill-opacity:1;stroke-width:0.92979687"
     d="m 317.2924,65.91896 c -6.89481,0 -12.06437,6.894159 -8.61696,13.78896 l 32.74991,37.92191 H 479.32039 V 91.775303 c 0,-5.1711 -3.44617,-8.61878 -6.89356,-8.618781 z m 17.23757,68.94843 -25.85453,25.85453 c -3.44741,3.4474 -1.72432,8.61878 3.44678,8.61878 h 29.30313 c 0,37.9214 31.02702,68.94843 68.94843,68.94843 37.9214,0 68.94661,-31.02703 68.94661,-68.94843 V 134.86739 H 468.97823 351.76753 Z M 72.527014,169.3407 c -5.171102,1.7237 -6.893873,6.89597 -5.170179,13.79078 l 25.854527,134.44826 c 1.723694,5.1711 5.171071,6.89357 10.342178,6.89357 h 89.63277 c 5.17111,-1.7237 8.61909,-5.17108 6.8954,-10.34218 L 172.50197,176.23608 c -1.72371,-5.1711 -5.17108,-6.89538 -10.34218,-6.89538 z M 348.32074,272.76244 c -15.51331,0 -31.028,5.17166 -43.09391,17.23756 l -82.73738,74.11861 -22.40774,-22.40774 h -96.52817 l 93.08138,93.07957 c 6.89481,6.8948 15.51263,10.34217 24.13113,10.34217 8.6185,0 15.51293,-3.44768 22.40774,-8.61878 l 46.54069,-39.64531 v 87.9094 L 448.29387,272.76244 Z M 493.11117,283.10461 320.741,514.08104 H 513.79552 V 324.47331 c 0,-17.23701 -8.61845,-31.02651 -20.68435,-41.3687 z"
     id="path3" />
</svg>
