<?xml version="1.0" encoding="UTF-8" standalone="no"?>
<!-- Created with Inkscape (http://www.inkscape.org/) -->

<svg
   xmlns:dc="http://purl.org/dc/elements/1.1/"
   xmlns:cc="http://creativecommons.org/ns#"
   xmlns:rdf="http://www.w3.org/1999/02/22-rdf-syntax-ns#"
   xmlns:svg="http://www.w3.org/2000/svg"
   xmlns="http://www.w3.org/2000/svg"
   xmlns:sodipodi="http://sodipodi.sourceforge.net/DTD/sodipodi-0.dtd"
   xmlns:inkscape="http://www.inkscape.org/namespaces/inkscape"
   version="1.0"
   width="580"
   height="580"
   id="svg2"
   sodipodi:version="0.32"
   inkscape:version="0.92.3 (2405546, 2018-03-11)"
   sodipodi:docname="barrier_border_control_m.svg"
   inkscape:output_extension="org.inkscape.output.svg.inkscape">
  <metadata
     id="metadata2975">
    <rdf:RDF>
      <cc:Work
         rdf:about="">
        <dc:format>image/svg+xml</dc:format>
        <dc:type
           rdf:resource="http://purl.org/dc/dcmitype/StillImage" />
        <cc:license
           rdf:resource="http://web.resource.org/cc/PublicDomain" />
        <dc:language>en</dc:language>
        <dc:title />
      </cc:Work>
    </rdf:RDF>
  </metadata>
  <sodipodi:namedview
     inkscape:window-height="1006"
     inkscape:window-width="1920"
     inkscape:pageshadow="2"
     inkscape:pageopacity="0.0"
     guidetolerance="10.0"
     gridtolerance="10.0"
     objecttolerance="10.0"
     borderopacity="1.0"
     bordercolor="#666666"
     pagecolor="#ffffff"
     id="base"
     inkscape:zoom="0.65172414"
     inkscape:cx="227.1136"
     inkscape:cy="263.81915"
     inkscape:window-x="1920"
     inkscape:window-y="0"
     inkscape:current-layer="svg2"
     showgrid="false"
     inkscape:window-maximized="1" />
  <defs
     id="defs4">
    <inkscape:perspective
       sodipodi:type="inkscape:persp3d"
       inkscape:vp_x="0 : 290 : 1"
       inkscape:vp_y="0 : 1000 : 0"
       inkscape:vp_z="580 : 290 : 1"
       inkscape:persp3d-origin="290 : 193.33333 : 1"
       id="perspective2441" />
  </defs>
  <path
     sodipodi:type="inkscape:offset"
     inkscape:radius="44.733456"
     inkscape:original="M 317.29297 65.919922 C 310.39816 65.919922 305.22837 72.81223 308.67578 79.707031 L 341.42578 117.62891 L 479.32031 117.62891 L 479.32031 91.775391 C 479.32031 86.604291 475.87512 83.156251 472.42773 83.15625 L 317.29297 65.919922 z M 334.5293 134.86719 L 308.67578 160.72266 C 305.22837 164.17006 306.95195 169.33984 312.12305 169.33984 L 341.42578 169.33984 C 341.42578 207.26124 372.45164 238.28906 410.37305 238.28906 C 448.29445 238.28906 479.32031 207.26124 479.32031 169.33984 L 479.32031 134.86719 L 468.97852 134.86719 L 351.76758 134.86719 L 334.5293 134.86719 z M 72.527344 169.33984 C 67.356242 171.06354 65.633728 176.23605 67.357422 183.13086 L 93.210938 317.58008 C 94.934631 322.75118 98.381627 324.47266 103.55273 324.47266 L 193.18555 324.47266 C 198.35666 322.74896 201.80572 319.30196 200.08203 314.13086 L 172.50195 176.23633 C 170.77824 171.06523 167.33126 169.33984 162.16016 169.33984 L 72.527344 169.33984 z M 348.32031 272.76172 C 332.807 272.76172 317.29247 277.9341 305.22656 290 L 222.49023 364.11914 L 200.08203 341.71094 L 103.55273 341.71094 L 196.63477 434.79102 C 203.52958 441.68582 212.14712 445.13281 220.76562 445.13281 C 229.38413 445.13281 236.27902 441.68477 243.17383 436.51367 L 289.71484 396.86914 L 289.71484 484.77734 L 448.29297 272.76172 L 348.32031 272.76172 z M 493.11133 283.10547 L 320.74023 514.08008 L 513.79492 514.08008 L 513.79492 324.47266 C 513.79492 307.23565 505.17723 293.44766 493.11133 283.10547 z "
     style="fill:#ffffff;fill-opacity:1;stroke-width:0.92979687"
     id="path3-3"
     d="m 317.29297,21.185547 c -18.35315,0 -35.40949,9.234142 -45.40625,24.228515 -9.99676,14.994374 -11.61287,37.518453 -3.22266,54.298829 a 44.737929,44.737929 0 0 0 6.15625,9.232419 l 10.36524,12.00196 -8.14063,8.14453 c -12.26529,12.26525 -19.00842,33.61962 -11.76172,52.9414 6.39022,17.03815 24.32264,28.91058 40.46875,31.48633 2.92427,6.83644 6.50679,13.33326 10.65821,19.41992 -15.38896,4.72538 -30.34188,12.95712 -42.81446,25.42969 l 1.78321,-1.6875 -34.91211,31.27539 -24.09961,-120.49414 a 44.737929,44.737929 0 0 0 -1.42774,-5.37305 c -3.21871,-9.65609 -11.21677,-22.05243 -22.59961,-29.16992 -11.38283,-7.11749 -22.61888,-8.31445 -30.17968,-8.31445 H 72.527344 a 44.737929,44.737929 0 0 0 -14.146485,2.29687 c -13.906761,4.63559 -28.041349,18.28758 -33.066406,32.11328 -5.025057,13.82571 -3.706034,25.56254 -1.355469,34.96485 l -0.529296,-2.40235 25.853515,134.44922 a 44.737929,44.737929 0 0 0 1.490235,5.69922 c 1.632255,4.89679 4.514068,10.48905 8.423828,15.75 a 44.737929,44.737929 0 0 0 12.724609,25.86524 l 93.082035,93.08008 c 14.80178,14.80176 35.21571,23.44531 55.76171,23.44531 8.67649,0 16.84573,-1.75386 24.25391,-4.32227 a 44.737929,44.737929 0 0 0 33.26953,42.44727 44.737929,44.737929 0 0 0 42.45117,30.82226 H 513.79492 A 44.737929,44.737929 0 0 0 558.5293,514.08008 V 324.47266 c 0,-32.14676 -17.31569,-59.05409 -36.30664,-75.33204 A 44.737929,44.737929 0 0 0 499.83594,238.9375 c 15.09509,-19.30413 24.21875,-43.45304 24.21875,-69.59766 v -34.47265 a 44.737929,44.737929 0 0 0 -0.86524,-8.68946 44.737929,44.737929 0 0 0 0.86524,-8.54882 V 91.775391 c 0,-23.815221 -16.63124,-50.537434 -46.88281,-53.09961 L 322.23242,21.460938 a 44.737929,44.737929 0 0 0 -4.93945,-0.275391 z" />
</svg>
