<?xml version="1.0" encoding="UTF-8" standalone="no"?>
<!-- Created with Inkscape (http://www.inkscape.org/) -->

<svg
   xmlns:dc="http://purl.org/dc/elements/1.1/"
   xmlns:cc="http://creativecommons.org/ns#"
   xmlns:rdf="http://www.w3.org/1999/02/22-rdf-syntax-ns#"
   xmlns:svg="http://www.w3.org/2000/svg"
   xmlns="http://www.w3.org/2000/svg"
   xmlns:sodipodi="http://sodipodi.sourceforge.net/DTD/sodipodi-0.dtd"
   xmlns:inkscape="http://www.inkscape.org/namespaces/inkscape"
   version="1.0"
   width="580"
   height="580"
   id="svg2"
   sodipodi:version="0.32"
   inkscape:version="0.92.3 (2405546, 2018-03-11)"
   sodipodi:docname="camping_cluster_m.svg"
   inkscape:output_extension="org.inkscape.output.svg.inkscape">
  <metadata
     id="metadata2975">
    <rdf:RDF>
      <cc:Work
         rdf:about="">
        <dc:format>image/svg+xml</dc:format>
        <dc:type
           rdf:resource="http://purl.org/dc/dcmitype/StillImage" />
        <cc:license
           rdf:resource="http://web.resource.org/cc/PublicDomain" />
        <dc:language>en</dc:language>
        <dc:title></dc:title>
      </cc:Work>
    </rdf:RDF>
  </metadata>
  <sodipodi:namedview
     inkscape:window-height="1006"
     inkscape:window-width="1920"
     inkscape:pageshadow="2"
     inkscape:pageopacity="0.0"
     guidetolerance="10.0"
     gridtolerance="10.0"
     objecttolerance="10.0"
     borderopacity="1.0"
     bordercolor="#666666"
     pagecolor="#ffffff"
     id="base"
     inkscape:zoom="0.65172414"
     inkscape:cx="716.07348"
     inkscape:cy="378.09245"
     inkscape:window-x="1920"
     inkscape:window-y="0"
     inkscape:current-layer="svg2"
     showgrid="false"
     inkscape:window-maximized="1" />
  <defs
     id="defs4">
    <inkscape:perspective
       sodipodi:type="inkscape:persp3d"
       inkscape:vp_x="0 : 290 : 1"
       inkscape:vp_y="0 : 1000 : 0"
       inkscape:vp_z="580 : 290 : 1"
       inkscape:persp3d-origin="290 : 193.33333 : 1"
       id="perspective2441" />
  </defs>
  <path
     sodipodi:type="inkscape:offset"
     inkscape:radius="30.22401"
     inkscape:original="M 258.47266 84.302734 L 239.84961 94.123047 L 268.68164 148.80664 C 268.66114 148.84894 268.65752 148.8613 268.63672 148.9043 C 267.49186 151.26286 265.78117 154.6671 263.61719 158.89844 C 259.28922 167.3611 253.13283 179.16539 245.77539 193.14844 C 231.06052 221.11451 211.53273 257.8182 192.04297 294.3125 C 153.0634 367.30113 114.22852 439.46484 114.22852 439.46484 L 105.86523 455.00781 L 453.6582 454.43164 L 445.50195 439.02539 L 293.08203 149.94531 L 321.60156 96.068359 L 302.99609 86.21875 L 281.19727 127.40234 L 258.47266 84.302734 z M 376.11133 89.246094 L 357.29297 124.79688 L 347.39062 106.01367 C 347.00299 107.03738 346.55494 108.03719 346.04883 109.00781 L 337.21875 125.68945 L 346.49023 143.27344 C 346.47253 143.30994 346.46917 143.32227 346.45117 143.35938 C 345.46289 145.39535 343.98521 148.33173 342.11719 151.98438 C 339.91513 156.29017 337.0317 161.8389 333.84375 167.94336 L 356.75 211.38672 C 356.99459 210.21106 357.26252 208.98548 357.48242 207.86133 C 357.98804 210.44611 358.58026 213.21038 359.2207 216.07227 L 459.97852 407.17773 L 506.16797 407.09961 L 499.12695 393.79883 L 367.55273 144.25586 L 392.17188 97.748047 L 376.11133 89.246094 z M 281.41602 223.62695 C 283.41729 233.85768 286.28139 245.90559 290.3418 260.1582 C 307.64252 320.8863 348.5188 404.05886 363.45703 433.5293 L 199.24023 433.79883 C 214.07637 404.54276 255.14422 321.05211 272.49219 260.1582 C 276.55255 245.90573 279.41475 233.85762 281.41602 223.62695 z "
     style="color:#000000;font-style:normal;font-variant:normal;font-weight:normal;font-stretch:normal;font-size:medium;line-height:normal;font-family:sans-serif;text-indent:0;text-align:start;text-decoration:none;text-decoration-line:none;text-decoration-style:solid;text-decoration-color:#000000;letter-spacing:normal;word-spacing:normal;text-transform:none;writing-mode:lr-tb;direction:ltr;baseline-shift:baseline;text-anchor:start;white-space:normal;clip-rule:nonzero;display:inline;overflow:visible;visibility:visible;opacity:1;isolation:auto;mix-blend-mode:normal;color-interpolation:sRGB;color-interpolation-filters:linearRGB;solid-color:#000000;solid-opacity:1;fill:#ffffff;fill-opacity:0.4407081;fill-rule:evenodd;stroke:none;stroke-width:26.27972794;stroke-linecap:butt;stroke-linejoin:miter;stroke-miterlimit:4;stroke-dasharray:none;stroke-dashoffset:0;stroke-opacity:1;color-rendering:auto;image-rendering:auto;shape-rendering:auto;text-rendering:auto;enable-background:accumulate"
     id="path4181"
     d="m 258.0332,54.082031 a 30.227033,30.227033 0 0 0 -13.6582,3.486328 l -18.62305,9.820313 a 30.227033,30.227033 0 0 0 -12.63867,40.830078 l 21.54297,40.85937 c -4.11651,8.00255 -9.15126,17.68512 -15.62891,29.9961 -14.65825,27.85848 -34.1697,64.53366 -53.64453,101 -38.94963,72.93257 -77.769529,145.06836 -77.769529,145.06836 a 30.227033,30.227033 0 0 0 0,0.002 L 79.25,440.6875 a 30.227033,30.227033 0 0 0 26.66602,44.54492 l 347.79296,-0.57617 a 30.227033,30.227033 0 0 0 26.66016,-44.36523 l -1.54687,-2.91993 27.39648,-0.0469 a 30.227033,30.227033 0 0 0 26.66211,-44.36524 L 525.85156,379.67969 401.73633,144.2832 418.88477,111.88867 A 30.227033,30.227033 0 0 0 406.3125,71.035156 l -16.06055,-8.501953 a 30.227033,30.227033 0 0 0 -40.85351,12.572266 l -0.4043,0.763672 a 30.227033,30.227033 0 0 0 -4.83789,0.109375 30.227033,30.227033 0 0 0 -8.41406,-6.621094 l -18.60547,-9.84961 a 30.227033,30.227033 0 0 0 -35.51758,5.386719 30.227033,30.227033 0 0 0 -23.58594,-10.8125 z m 23.38477,272.337889 c 10.99672,27.88234 23.00497,54.34078 33.74219,76.96485 l -67.54102,0.10937 c 10.75233,-22.65126 22.78153,-49.13962 33.79883,-77.07422 z" />
</svg>
