<?xml version="1.0" encoding="UTF-8" standalone="no"?>
<!-- Created with Inkscape (http://www.inkscape.org/) -->

<svg
   xmlns:dc="http://purl.org/dc/elements/1.1/"
   xmlns:cc="http://creativecommons.org/ns#"
   xmlns:rdf="http://www.w3.org/1999/02/22-rdf-syntax-ns#"
   xmlns:svg="http://www.w3.org/2000/svg"
   xmlns="http://www.w3.org/2000/svg"
   xmlns:sodipodi="http://sodipodi.sourceforge.net/DTD/sodipodi-0.dtd"
   xmlns:inkscape="http://www.inkscape.org/namespaces/inkscape"
   version="1.0"
   width="580"
   height="580"
   id="svg2"
   sodipodi:version="0.32"
   inkscape:version="0.92.3 (2405546, 2018-03-11)"
   sodipodi:docname="cave_entrance_cluster_m.svg"
   inkscape:output_extension="org.inkscape.output.svg.inkscape">
  <metadata
     id="metadata2975">
    <rdf:RDF>
      <cc:Work
         rdf:about="">
        <dc:format>image/svg+xml</dc:format>
        <dc:type
           rdf:resource="http://purl.org/dc/dcmitype/StillImage" />
        <cc:license
           rdf:resource="http://web.resource.org/cc/PublicDomain" />
        <dc:language>en</dc:language>
        <dc:title></dc:title>
      </cc:Work>
    </rdf:RDF>
  </metadata>
  <sodipodi:namedview
     inkscape:window-height="1006"
     inkscape:window-width="1920"
     inkscape:pageshadow="2"
     inkscape:pageopacity="0.0"
     guidetolerance="10.0"
     gridtolerance="10.0"
     objecttolerance="10.0"
     borderopacity="1.0"
     bordercolor="#666666"
     pagecolor="#ffffff"
     id="base"
     inkscape:zoom="0.65172414"
     inkscape:cx="134.8517"
     inkscape:cy="357.39858"
     inkscape:window-x="1920"
     inkscape:window-y="0"
     inkscape:current-layer="svg2"
     showgrid="false"
     inkscape:window-maximized="1" />
  <defs
     id="defs4">
    <inkscape:perspective
       sodipodi:type="inkscape:persp3d"
       inkscape:vp_x="0 : 290 : 1"
       inkscape:vp_y="0 : 1000 : 0"
       inkscape:vp_z="580 : 290 : 1"
       inkscape:persp3d-origin="290 : 193.33333 : 1"
       id="perspective2441" />
  </defs>
  <path
     sodipodi:type="inkscape:offset"
     inkscape:radius="35.868938"
     inkscape:original="M 335.46094 114.22461 C 322.49029 114.22461 310.9029 115.97418 300.5957 118.98047 C 321.17727 124.75231 338.63197 134.32927 352.77539 145.88477 C 379.94995 149.99567 392.04657 163.95118 399.65039 178.37109 C 408.70857 195.54902 408.82812 213.0293 408.82812 213.0293 L 408.82812 213.0625 L 408.82812 396.79102 L 435.86328 396.79102 C 437.88582 396.80162 439.90227 397.01364 441.88281 397.42383 L 495.45508 397.42383 L 495.45508 366.97852 L 439.27344 366.97852 L 439.27344 213.16406 C 439.27344 213.16406 439.57701 188.8173 426.58008 164.16992 C 413.58317 139.52254 384.71206 114.22461 335.46094 114.22461 z M 256.25195 143.51758 C 200.96279 143.51758 167.85312 171.6395 152.17773 199.08203 C 136.50234 226.52456 135.60352 253.83789 135.60352 253.83789 L 135.58984 254.17578 L 135.58984 427.25977 L 76.726562 427.25977 L 76.726562 461.43555 L 169.76953 461.43555 L 169.76953 255.04492 C 169.79033 254.64012 170.82764 235.34132 181.85547 216.03516 C 192.99999 196.52473 211.67532 177.69531 256.25195 177.69531 C 300.82857 177.69531 318.14188 196.24542 328.31055 215.5293 C 338.47922 234.81319 338.61523 254.43555 338.61523 254.43555 L 338.61523 254.47461 L 338.61523 461.4375 L 435.86328 461.4375 L 435.86328 427.25977 L 372.79297 427.25977 L 372.79297 254.58789 C 372.79297 254.58789 373.13327 227.25696 358.54297 199.58789 C 343.95267 171.91882 311.5411 143.51758 256.25195 143.51758 z "
     style="color:#000000;font-style:normal;font-variant:normal;font-weight:normal;font-stretch:normal;font-size:medium;line-height:normal;font-family:sans-serif;font-variant-ligatures:normal;font-variant-position:normal;font-variant-caps:normal;font-variant-numeric:normal;font-variant-alternates:normal;font-feature-settings:normal;text-indent:0;text-align:start;text-decoration:none;text-decoration-line:none;text-decoration-style:solid;text-decoration-color:#000000;letter-spacing:normal;word-spacing:normal;text-transform:none;writing-mode:lr-tb;direction:ltr;text-orientation:mixed;dominant-baseline:auto;baseline-shift:baseline;text-anchor:start;white-space:normal;shape-padding:0;clip-rule:nonzero;display:inline;overflow:visible;visibility:visible;opacity:1;isolation:auto;mix-blend-mode:normal;color-interpolation:sRGB;color-interpolation-filters:linearRGB;solid-color:#000000;solid-opacity:1;vector-effect:none;fill:#ffffff;fill-opacity:1;fill-rule:evenodd;stroke:none;stroke-width:40.59236908;stroke-linecap:butt;stroke-linejoin:miter;stroke-miterlimit:4;stroke-dasharray:none;stroke-dashoffset:0;stroke-opacity:1;color-rendering:auto;image-rendering:auto;shape-rendering:auto;text-rendering:auto;enable-background:accumulate"
     id="path4144"
     d="m 335.46094,78.355469 c -16.19615,0 -31.25508,2.209212 -44.90821,6.191406 A 35.872525,35.872525 0 0 0 266.49219,108 c -3.36875,-0.19215 -6.75812,-0.35156 -10.24024,-0.35156 -67.45192,0 -113.99045,36.47529 -135.2207,73.64258 -20.46659,35.83037 -21.277344,71.36718 -21.277344,71.36718 l 0.0098,-0.27148 -0.01367,0.33789 a 35.872525,35.872525 0 0 0 -0.0293,1.45117 V 391.39062 H 76.726562 a 35.872525,35.872525 0 0 0 -35.86914,35.86915 v 34.17578 a 35.872525,35.872525 0 0 0 35.86914,35.86914 h 93.042968 a 35.872525,35.872525 0 0 0 35.86914,-35.86914 V 256.64453 c -0.0685,1.64847 1.08002,-11.8184 7.36328,-22.81836 7.51443,-13.15532 8.7742,-20.26172 43.25,-20.26172 17.31281,0 25.2566,3.29038 29.79297,6.15235 4.53638,2.86196 7.15702,6.13295 10.53711,12.54297 5.54231,10.51044 6.1629,22.38777 6.16406,22.41015 V 461.4375 a 35.872525,35.872525 0 0 0 35.86914,35.86914 h 97.24805 a 35.872525,35.872525 0 0 0 35.86914,-35.86914 v -28.14453 h 23.72266 a 35.872525,35.872525 0 0 0 35.86914,-35.86914 v -30.44531 a 35.872525,35.872525 0 0 0 -35.86914,-35.86914 h -20.3125 V 213.16406 l -0.004,0.44727 c 0,0 0.82014,-32.7 -16.83008,-66.17188 C 439.81244,112.3633 396.99482,78.355469 335.46094,78.355469 Z" />
</svg>
