<?xml version="1.0" encoding="UTF-8" standalone="no"?>
<!-- Created with Inkscape (http://www.inkscape.org/) -->

<svg
   xmlns:dc="http://purl.org/dc/elements/1.1/"
   xmlns:cc="http://creativecommons.org/ns#"
   xmlns:rdf="http://www.w3.org/1999/02/22-rdf-syntax-ns#"
   xmlns:svg="http://www.w3.org/2000/svg"
   xmlns="http://www.w3.org/2000/svg"
   xmlns:sodipodi="http://sodipodi.sourceforge.net/DTD/sodipodi-0.dtd"
   xmlns:inkscape="http://www.inkscape.org/namespaces/inkscape"
   version="1.0"
   width="580"
   height="580"
   id="svg2"
   sodipodi:version="0.32"
   inkscape:version="0.91 r13725"
   sodipodi:docname="ford.svg"
   inkscape:output_extension="org.inkscape.output.svg.inkscape">
  <metadata
     id="metadata10">
    <rdf:RDF>
      <cc:Work
         rdf:about="">
        <dc:format>image/svg+xml</dc:format>
        <dc:type
           rdf:resource="http://purl.org/dc/dcmitype/StillImage" />
        <cc:license
           rdf:resource="http://web.resource.org/cc/PublicDomain" />
        <dc:language>en</dc:language>
        <dc:title />
      </cc:Work>
    </rdf:RDF>
  </metadata>
  <sodipodi:namedview
     inkscape:window-height="1006"
     inkscape:window-width="1920"
     inkscape:pageshadow="2"
     inkscape:pageopacity="0.0"
     guidetolerance="10.0"
     gridtolerance="10.0"
     objecttolerance="10.0"
     borderopacity="1.0"
     bordercolor="#666666"
     pagecolor="#ffffff"
     id="base"
     showgrid="false"
     inkscape:zoom="0.3535534"
     inkscape:cx="269.85714"
     inkscape:cy="421.37245"
     inkscape:window-x="1920"
     inkscape:window-y="0"
     inkscape:current-layer="svg2"
     inkscape:window-maximized="1" />
  <defs
     id="defs4">
    <inkscape:perspective
       sodipodi:type="inkscape:persp3d"
       inkscape:vp_x="0 : 290 : 1"
       inkscape:vp_y="0 : 1000 : 0"
       inkscape:vp_z="580 : 290 : 1"
       inkscape:persp3d-origin="290 : 193.33333 : 1"
       id="perspective12" />
    <style
       type="text/css"
       id="style6">
   
    .fil0 {fill:#EF7900}
   
  </style>
    <inkscape:perspective
       id="perspective6807"
       inkscape:persp3d-origin="29.116032 : 19.410688 : 1"
       inkscape:vp_z="58.232063 : 29.116032 : 1"
       inkscape:vp_y="0 : 1000 : 0"
       inkscape:vp_x="0 : 29.116032 : 1"
       sodipodi:type="inkscape:persp3d" />
    <inkscape:perspective
       id="perspective6954"
       inkscape:persp3d-origin="290 : 193.33333 : 1"
       inkscape:vp_z="580 : 290 : 1"
       inkscape:vp_y="0 : 1000 : 0"
       inkscape:vp_x="0 : 290 : 1"
       sodipodi:type="inkscape:persp3d" />
    <marker
       viewBox="0 0 10 10"
       refY="5"
       refX="10"
       orient="auto"
       markerWidth="4"
       markerUnits="strokeWidth"
       markerHeight="3"
       id="ArrowStart">
      <path
         id="path2295"
         d="M 10 0 L 0 5 L 10 10 z" />
    </marker>
    <marker
       viewBox="0 0 10 10"
       refY="5"
       refX="0"
       orient="auto"
       markerWidth="4"
       markerUnits="strokeWidth"
       markerHeight="3"
       id="ArrowEnd">
      <path
         id="path2292"
         d="M 0 0 L 10 5 L 0 10 z" />
    </marker>
    <inkscape:perspective
       id="perspective7597"
       inkscape:persp3d-origin="178.5405 : 158.483 : 1"
       inkscape:vp_z="357.08099 : 237.7245 : 1"
       inkscape:vp_y="0 : 1000 : 0"
       inkscape:vp_x="0 : 237.7245 : 1"
       sodipodi:type="inkscape:persp3d" />
    <inkscape:perspective
       id="perspective2896"
       inkscape:persp3d-origin="0.5 : 0.33333333 : 1"
       inkscape:vp_z="1 : 0.5 : 1"
       inkscape:vp_y="0 : 1000 : 0"
       inkscape:vp_x="0 : 0.5 : 1"
       sodipodi:type="inkscape:persp3d" />
    <inkscape:perspective
       id="perspective2887"
       inkscape:persp3d-origin="0.5 : 0.33333333 : 1"
       inkscape:vp_z="1 : 0.5 : 1"
       inkscape:vp_y="0 : 1000 : 0"
       inkscape:vp_x="0 : 0.5 : 1"
       sodipodi:type="inkscape:persp3d" />
  </defs>
  <g
     id="g2319"
     transform="translate(879.29125,36.805119)">
    <path
       id="path2323"
       style="fill:#ffffff;stroke:none"
       d="" />
  </g>
  <g
     id="g2325"
     transform="translate(879.29125,36.805119)">
    <path
       id="path2329"
       style="fill:#ffffff;stroke:none"
       d="" />
  </g>
  <path
     style="fill:#ffffff;fill-opacity:1;stroke:none"
     d="m 197.59375,9.8085938 c -41.21963,0 -73.97272,29.3257762 -84.68555,57.2773442 -2e-4,5.29e-4 2.1e-4,0.0014 0,0.002 L 84.978516,139.20508 c -7.955162,4.22597 -15.23983,9.97804 -22.330078,17.30859 -13.975802,14.44947 -25.144532,36.92079 -25.144532,62.82617 l 0,113.8086 c 0.01601,19.72157 14.402496,36.48909 33.892578,39.50195 0.663571,16.15004 6.425301,31.95406 15.953125,44.03711 -14.104464,6.36281 -28.595956,13.83368 -43.621093,22.74023 -18.989987,11.26023 -28.803428,37.18992 -17.562878,56.19156 l 16.308216,35.65647 c 11.257568,19.02014 42.877295,21.77134 61.891376,10.50354 47.82585,-28.35005 75.12773,-32.87806 95.10352,-31.65821 19.79373,1.20873 37.13021,9.28234 63.14258,23.33985 25.90046,13.99702 60.41489,34.43581 106.75195,41.60156 46.733,7.22699 101.1539,-1.04916 163.27344,-30.8457 19.93792,-9.5652 32.57562,-34.19945 22.98483,-54.12508 l -17.6036,-36.50796 c -9.57451,-19.88274 -36.97694,-26.13537 -56.87537,-16.59353 -46.56168,22.33401 -72.14793,23.85251 -93.57422,20.53907 -20.90647,-3.23306 -40.83149,-13.78979 -68.37695,-28.67578 -26.73409,-14.44753 -62.17306,-33.13611 -107.91602,-37.00977 1.81518,-6.03287 2.84441,-12.33581 3.15039,-18.69531 l 74.17774,0 0.0371,0 74.17774,0 c 0.93156,19.3618 9.19203,38.19372 22.35352,50.53906 13.9782,13.1114 31.69529,19.17416 48.98242,19.24609 17.28712,0.0719 35.18297,-5.8829 49.27148,-19.05859 13.3856,-12.51833 21.62552,-31.67514 22.42383,-51.24805 19.48132,-3.0115 33.86503,-19.76582 33.89258,-39.47851 l 0,-113.8086 c 0,-25.90612 -11.17011,-48.37891 -25.14649,-62.82812 -7.09353,-7.33351 -14.38071,-13.08817 -22.33984,-17.31445 l -27.95508,-72.109379 -0.004,-0.0059 C 453.58133,39.129531 420.83069,9.8085938 379.61328,9.8085938 l -48.99609,0 -83.43555,0 z"
     id="path4200"
     inkscape:connector-curvature="0"
     sodipodi:nodetypes="scccsscccccccsssccccsscccccsssccsscccsccs" />
  <path
     inkscape:connector-curvature="0"
     sodipodi:nodetypes="ccccccccccccccccccccccccccccccccccccccsssccsssc"
     style="fill:#000000;fill-opacity:1;stroke:none"
     d="m 197.59358,49.809355 c -26.66147,0 -40.80475,14.555428 -47.33417,31.593075 l -34.66,89.4952 c -13.73984,1.7618 -38.096421,17.88986 -38.096421,48.44271 l 0,113.80889 33.736211,0 0,36.39673 c 0,44.77861 63.37089,44.25124 63.37089,0 l 0,-36.39673 113.99367,0 0.0372,0 113.99362,0 0,36.39673 c 0,44.25124 63.37058,44.77861 63.37094,0 l 0,-36.39673 33.73616,0 0,-113.80889 c 0,-30.55285 -24.35642,-46.68091 -38.09651,-48.44271 L 426.94828,81.40243 C 420.41889,64.364783 406.27569,49.809355 379.61403,49.809355 l -48.99687,0 -83.43535,0 -49.58812,0 -1.1e-4,0 z m -0.40646,32.590732 91.34277,0 0.0738,0 0.0372,0 91.37962,0 c 11.42581,0.106482 16.31934,7.251856 19.58401,17.145237 l 26.12429,70.428546 -137.08792,0 -0.0372,0 -0.0738,0 -137.05109,0 26.12431,-70.428546 c 3.26473,-9.893381 8.15701,-17.038839 19.58401,-17.145237 z M 143.9408,204.22738 c 16.16738,0 29.26514,13.48914 29.26514,30.15197 0,16.66399 -13.09776,30.18896 -29.26514,30.18896 -16.16616,0 -29.26514,-13.52497 -29.26514,-30.18896 0,-16.66277 13.09898,-30.15197 29.26514,-30.15197 z m 289.36289,0 c 16.16741,0 29.26528,13.4892 29.26517,30.15197 0,16.66399 -13.09776,30.18896 -29.26517,30.18896 -16.16616,0 -29.30216,-13.52497 -29.30216,-30.18896 0,-16.66283 13.136,-30.15197 29.30216,-30.15197 z"
     id="path2449" />
  <path
     inkscape:connector-curvature="0"
     sodipodi:nodetypes="cccsssccsssc"
     id="path3236"
     d="m 189.51491,431.11467 c -35.17128,1.04854 -75.82269,13.33865 -125.389976,42.72098 -5.396212,18.38505 -1.373341,31.11864 19.844025,33.53554 52.249551,-30.97232 88.697831,-38.96062 117.937631,-37.17505 29.2398,1.78556 53.03599,13.65432 79.72272,28.07626 26.68673,14.42194 55.97362,31.40473 93.84751,37.2617 37.87389,5.85698 83.14581,-0.17857 139.86138,-27.38302 3.94795,-20.54201 -3.55505,-30.51392 -16.89775,-35.09533 -51.62,24.7603 -87.41858,28.57565 -116.98443,24.00348 -29.56584,-4.57218 -54.06772,-18.30831 -81.28251,-33.01561 -27.21478,-14.7073 -57.44611,-30.40575 -95.92723,-32.75564 -4.81015,-0.29374 -9.7069,-0.3231 -14.73137,-0.17331 z"
     style="color:#000000;font-style:normal;font-variant:normal;font-weight:normal;font-stretch:normal;font-size:medium;line-height:normal;font-family:'Bitstream Vera Sans';-inkscape-font-specification:'Bitstream Vera Sans';text-indent:0;text-align:start;text-decoration:none;text-decoration-line:none;letter-spacing:normal;word-spacing:normal;text-transform:none;direction:ltr;block-progression:tb;writing-mode:lr-tb;text-anchor:start;display:inline;overflow:visible;visibility:visible;fill:#000000;fill-opacity:1;fill-rule:nonzero;stroke:none;stroke-width:10.30599976;stroke-linecap:round;stroke-linejoin:round;stroke-miterlimit:4;stroke-dasharray:none;stroke-opacity:1;marker:none;enable-background:accumulate" />
</svg>
