<?xml version="1.0" encoding="UTF-8" standalone="no"?>
<!-- Generator: Adobe Illustrator 16.0.4, SVG Export Plug-In . SVG Version: 6.00 Build 0)  -->

<svg
   xmlns:dc="http://purl.org/dc/elements/1.1/"
   xmlns:cc="http://creativecommons.org/ns#"
   xmlns:rdf="http://www.w3.org/1999/02/22-rdf-syntax-ns#"
   xmlns:svg="http://www.w3.org/2000/svg"
   xmlns="http://www.w3.org/2000/svg"
   xmlns:sodipodi="http://sodipodi.sourceforge.net/DTD/sodipodi-0.dtd"
   xmlns:inkscape="http://www.inkscape.org/namespaces/inkscape"
   version="1.1"
   id="Слой_1"
   x="0px"
   y="0px"
   width="20"
   height="20"
   viewBox="405.306 283.114 20 20"
   enable-background="new 405.306 283.114 30 30"
   xml:space="preserve"
   inkscape:version="0.92.3 (2405546, 2018-03-11)"
   sodipodi:docname="h_topo_cemetery.svg"><metadata
     id="metadata37"><rdf:RDF><cc:Work
         rdf:about=""><dc:format>image/svg+xml</dc:format><dc:type
           rdf:resource="http://purl.org/dc/dcmitype/StillImage" /><dc:title /></cc:Work></rdf:RDF></metadata><defs
     id="defs35" /><sodipodi:namedview
     pagecolor="#ffffff"
     bordercolor="#666666"
     borderopacity="1"
     objecttolerance="10"
     gridtolerance="10"
     guidetolerance="10"
     inkscape:pageopacity="0"
     inkscape:pageshadow="2"
     inkscape:window-width="1920"
     inkscape:window-height="1006"
     id="namedview33"
     showgrid="true"
     inkscape:zoom="22.627417"
     inkscape:cx="7.6219344"
     inkscape:cy="7.7861478"
     inkscape:window-x="1920"
     inkscape:window-y="0"
     inkscape:window-maximized="1"
     inkscape:current-layer="Слой_1"
     inkscape:snap-global="false"><inkscape:grid
       type="xygrid"
       id="grid3789"
       empspacing="5"
       visible="true"
       enabled="true"
       snapvisiblegridlinesonly="true" /></sodipodi:namedview><path
     sodipodi:type="inkscape:offset"
     inkscape:radius="0.55733991"
     inkscape:original="M 418.30664 287.11328 L 418.30664 287.61328 L 418.30664 288.39453 L 418.30664 289.11328 L 416.80664 289.11328 L 416.30664 289.11328 L 416.30664 290.11328 L 416.80664 290.11328 L 418.30664 290.11328 L 418.30664 291.61328 L 418.30664 292.11328 L 419.30664 292.11328 L 419.30664 291.61328 L 419.30664 290.11328 L 420.80664 290.11328 L 421.30664 290.11328 L 421.30664 289.11328 L 420.80664 289.11328 L 419.30664 289.11328 L 419.30664 288.39453 L 419.30664 287.61328 L 419.30664 287.11328 L 418.30664 287.11328 z M 408.30664 297.11328 L 408.30664 297.61328 L 408.30664 299.11328 L 406.80664 299.11328 L 406.30664 299.11328 L 406.30664 300.11328 L 406.80664 300.11328 L 408.30664 300.11328 L 408.30664 301.61328 L 408.30664 302.11328 L 409.30664 302.11328 L 409.30664 301.61328 L 409.30664 300.11328 L 410.80664 300.11328 L 411.30664 300.11328 L 411.30664 299.11328 L 410.80664 299.11328 L 409.30664 299.11328 L 409.30664 297.61328 L 409.30664 297.11328 L 408.30664 297.11328 z "
     style="color:#000000;font-style:normal;font-variant:normal;font-weight:normal;font-stretch:normal;font-size:medium;line-height:normal;font-family:sans-serif;font-variant-ligatures:normal;font-variant-position:normal;font-variant-caps:normal;font-variant-numeric:normal;font-variant-alternates:normal;font-feature-settings:normal;text-indent:0;text-align:start;text-decoration:none;text-decoration-line:none;text-decoration-style:solid;text-decoration-color:#000000;letter-spacing:normal;word-spacing:normal;text-transform:none;writing-mode:lr-tb;direction:ltr;text-orientation:mixed;dominant-baseline:auto;baseline-shift:baseline;text-anchor:start;white-space:normal;shape-padding:0;clip-rule:nonzero;display:inline;overflow:visible;visibility:visible;opacity:1;isolation:auto;mix-blend-mode:normal;color-interpolation:sRGB;color-interpolation-filters:linearRGB;solid-color:#000000;solid-opacity:1;vector-effect:none;fill:#ffffff;fill-opacity:0.74611402;fill-rule:nonzero;stroke:none;stroke-width:1;stroke-linecap:square;stroke-linejoin:miter;stroke-miterlimit:4;stroke-dasharray:none;stroke-dashoffset:0;stroke-opacity:1;color-rendering:auto;image-rendering:auto;shape-rendering:auto;text-rendering:auto;enable-background:accumulate"
     id="path4138-3"
     d="m 418.30664,286.55664 a 0.55739564,0.55739564 0 0 0 -0.55664,0.55664 v 0.5 0.78125 0.16211 h -0.94336 -0.5 a 0.55739564,0.55739564 0 0 0 -0.55664,0.55664 v 1 a 0.55739564,0.55739564 0 0 0 0.55664,0.55664 h 0.5 0.94336 v 0.94336 0.5 a 0.55739564,0.55739564 0 0 0 0.55664,0.55664 h 1 a 0.55739564,0.55739564 0 0 0 0.55664,-0.55664 v -0.5 -0.94336 h 0.94336 0.5 a 0.55739564,0.55739564 0 0 0 0.55664,-0.55664 v -1 a 0.55739564,0.55739564 0 0 0 -0.55664,-0.55664 h -0.5 -0.94336 v -0.16211 -0.78125 -0.5 a 0.55739564,0.55739564 0 0 0 -0.55664,-0.55664 z m -10,10 a 0.55739564,0.55739564 0 0 0 -0.55664,0.55664 v 0.5 0.94336 h -0.94336 -0.5 a 0.55739564,0.55739564 0 0 0 -0.55664,0.55664 v 1 a 0.55739564,0.55739564 0 0 0 0.55664,0.55664 h 0.5 0.94336 v 0.94336 0.5 a 0.55739564,0.55739564 0 0 0 0.55664,0.55664 h 1 a 0.55739564,0.55739564 0 0 0 0.55664,-0.55664 v -0.5 -0.94336 h 0.94336 0.5 a 0.55739564,0.55739564 0 0 0 0.55664,-0.55664 v -1 a 0.55739564,0.55739564 0 0 0 -0.55664,-0.55664 h -0.5 -0.94336 v -0.94336 -0.5 a 0.55739564,0.55739564 0 0 0 -0.55664,-0.55664 z" /><path
     style="color:#000000;font-style:normal;font-variant:normal;font-weight:normal;font-stretch:normal;font-size:medium;line-height:normal;font-family:sans-serif;font-variant-ligatures:normal;font-variant-position:normal;font-variant-caps:normal;font-variant-numeric:normal;font-variant-alternates:normal;font-feature-settings:normal;text-indent:0;text-align:start;text-decoration:none;text-decoration-line:none;text-decoration-style:solid;text-decoration-color:#000000;letter-spacing:normal;word-spacing:normal;text-transform:none;writing-mode:lr-tb;direction:ltr;text-orientation:mixed;dominant-baseline:auto;baseline-shift:baseline;text-anchor:start;white-space:normal;shape-padding:0;clip-rule:nonzero;display:inline;overflow:visible;visibility:visible;opacity:1;isolation:auto;mix-blend-mode:normal;color-interpolation:sRGB;color-interpolation-filters:linearRGB;solid-color:#000000;solid-opacity:1;vector-effect:none;fill:#0b0b0b;fill-opacity:1;fill-rule:nonzero;stroke:none;stroke-width:1;stroke-linecap:square;stroke-linejoin:miter;stroke-miterlimit:4;stroke-dasharray:none;stroke-dashoffset:0;stroke-opacity:1;color-rendering:auto;image-rendering:auto;shape-rendering:auto;text-rendering:auto;enable-background:accumulate"
     d="M 13 4 L 13 4.5 L 13 5.28125 L 13 6 L 11.5 6 L 11 6 L 11 7 L 11.5 7 L 13 7 L 13 8.5 L 13 9 L 14 9 L 14 8.5 L 14 7 L 15.5 7 L 16 7 L 16 6 L 15.5 6 L 14 6 L 14 5.28125 L 14 4.5 L 14 4 L 13 4 z M 3 14 L 3 14.5 L 3 16 L 1.5 16 L 1 16 L 1 17 L 1.5 17 L 3 17 L 3 18.5 L 3 19 L 4 19 L 4 18.5 L 4 17 L 5.5 17 L 6 17 L 6 16 L 5.5 16 L 4 16 L 4 14.5 L 4 14 L 3 14 z "
     transform="translate(405.306,283.114)"
     id="path4138" /></svg>