<?xml version="1.0" encoding="UTF-8" standalone="no"?>
<!-- Created with Inkscape (http://www.inkscape.org/) -->

<svg
   xmlns:dc="http://purl.org/dc/elements/1.1/"
   xmlns:cc="http://creativecommons.org/ns#"
   xmlns:rdf="http://www.w3.org/1999/02/22-rdf-syntax-ns#"
   xmlns:svg="http://www.w3.org/2000/svg"
   xmlns="http://www.w3.org/2000/svg"
   xmlns:sodipodi="http://sodipodi.sourceforge.net/DTD/sodipodi-0.dtd"
   xmlns:inkscape="http://www.inkscape.org/namespaces/inkscape"
   version="1.0"
   width="580"
   height="580"
   id="svg2"
   sodipodi:version="0.32"
   inkscape:version="0.92.3 (2405546, 2018-03-11)"
   sodipodi:docname="hunting_stand_m.svg"
   inkscape:output_extension="org.inkscape.output.svg.inkscape">
  <metadata
     id="metadata2975">
    <rdf:RDF>
      <cc:Work
         rdf:about="">
        <dc:format>image/svg+xml</dc:format>
        <dc:type
           rdf:resource="http://purl.org/dc/dcmitype/StillImage" />
        <cc:license
           rdf:resource="http://web.resource.org/cc/PublicDomain" />
        <dc:language>en</dc:language>
        <dc:title />
      </cc:Work>
    </rdf:RDF>
  </metadata>
  <sodipodi:namedview
     inkscape:window-height="1006"
     inkscape:window-width="1920"
     inkscape:pageshadow="2"
     inkscape:pageopacity="0.0"
     guidetolerance="10.0"
     gridtolerance="10.0"
     objecttolerance="10.0"
     borderopacity="1.0"
     bordercolor="#666666"
     pagecolor="#ffffff"
     id="base"
     inkscape:zoom="0.65172414"
     inkscape:cx="-162.34535"
     inkscape:cy="258.79904"
     inkscape:window-x="1920"
     inkscape:window-y="0"
     inkscape:current-layer="svg2"
     showgrid="false"
     inkscape:window-maximized="1" />
  <defs
     id="defs4">
    <inkscape:perspective
       sodipodi:type="inkscape:persp3d"
       inkscape:vp_x="0 : 290 : 1"
       inkscape:vp_y="0 : 1000 : 0"
       inkscape:vp_z="580 : 290 : 1"
       inkscape:persp3d-origin="290 : 193.33333 : 1"
       id="perspective2441" />
  </defs>
  <path
     sodipodi:type="inkscape:offset"
     inkscape:radius="39.299599"
     inkscape:original="M 157.32617 54.097656 C 155.45514 54.026123 153.92578 62.677546 153.92578 73.324219 L 153.92578 92.681641 L 282.0625 125.05078 C 352.53796 142.85367 413.88927 157.6159 418.39844 157.85547 C 425.27759 158.22096 426.37147 155.23113 425.20117 139.27344 L 423.80664 120.25391 L 292.26758 87.240234 C 219.92108 69.082682 159.19721 54.169176 157.32617 54.097656 z M 195.88086 140.25781 C 191.56967 140.174 190.21094 158.08042 190.21094 214.98828 L 190.21094 289.83008 L 290.14844 289.83008 L 390.08594 289.83008 L 388.80273 239.26172 L 387.51953 188.69141 L 294.53516 164.5293 C 243.39367 151.24033 198.99924 140.31841 195.88086 140.25781 z M 153.92578 326.11719 L 153.92578 341.99219 C 153.92578 357.50216 154.34419 357.86719 172.1543 357.86719 C 188.75034 357.86719 190.16761 358.78321 187.9707 368.07422 C 181.94432 393.56042 158.46094 514.14088 158.46094 519.59766 C 158.46093 527.72937 201.96164 528.12805 204.91211 520.02344 C 206.04734 516.90505 213.8446 479.14502 222.23828 436.11133 L 237.5 357.86719 L 290.07422 357.86719 L 342.64844 357.86719 L 355.29688 420.23633 C 362.25285 454.53855 369.96559 492.29858 372.4375 504.14844 L 376.93164 525.69336 L 401.80859 525.69336 C 423.43042 525.69336 426.35894 524.65495 424.18359 517.75586 C 422.80704 513.39013 415.49359 479.20185 407.93164 441.78125 C 400.36971 404.36065 393.05625 370.17044 391.67969 365.80469 C 389.57692 359.13578 392.12497 357.86719 407.625 357.86719 C 425.68567 357.86719 426.07422 357.53345 426.07422 341.99219 L 426.07422 326.11719 L 290 326.11719 L 153.92578 326.11719 z "
     style="fill:#ffffff;fill-opacity:1;stroke-width:4.5358305"
     id="path825-6"
     d="m 158.82812,14.826172 c -15.44591,-0.590527 -26.91748,8.267372 -31.6621,13.648437 -4.74463,5.381066 -6.18494,9.0057 -7.39063,11.875 -2.41138,5.7386 -2.94384,9.065741 -3.55078,12.498047 -1.21389,6.864612 -1.59766,13.271473 -1.59766,20.476563 v 19.357422 a 39.303529,39.303529 0 0 0 29.67383,38.103519 l 10.99414,2.77734 c -2.09838,7.50276 -2.53453,12.88503 -3.05273,19.71484 -1.0623,14.00094 -1.33008,32.94424 -1.33008,61.71094 v 71.98047 a 39.303529,39.303529 0 0 0 -36.28516,39.14844 v 15.875 c 0,4.05419 -0.22494,7.86543 0.74024,14.59961 0.96517,6.73417 4.67266,19.63486 15.18359,28.78906 4.11501,3.58385 8.1453,5.75246 11.98242,7.38867 -3.15178,15.45964 -6.67891,33.22944 -10.15234,51.06445 -3.33092,17.10327 -6.47115,33.56791 -8.80664,46.25391 -1.16775,6.343 -2.13047,11.72072 -2.8418,15.92969 -0.35566,2.10448 -0.6475,3.89254 -0.89453,5.58594 -0.24703,1.69339 -0.67578,0.60614 -0.67578,7.99414 -2e-5,18.53595 12.71659,31.08183 19.82617,35.68164 7.10958,4.59981 12.05123,5.87307 16.58203,7.03125 9.0616,2.31635 16.66023,2.81348 24.65039,2.88672 7.99016,0.0732 15.76319,-0.36956 24.52539,-2.27149 4.3811,-0.95096 9.00711,-2.11173 15.14453,-5.23437 6.13743,-3.12264 16.25318,-8.57823 21.94922,-24.22461 2.02904,-5.57362 1.58783,-5.22885 2.02149,-7.04297 0.43365,-1.81412 0.89981,-3.87855 1.4414,-6.34375 1.08319,-4.93041 2.44832,-11.39369 4.03907,-19.09766 3.1815,-15.40793 7.24764,-35.70641 11.46875,-57.34765 l 9.06445,-46.46875 h 20.19922 20.44531 l 6.26172,30.88086 c 6.96407,34.34218 14.64264,71.93673 17.18555,84.12695 l 4.49414,21.54492 a 39.303529,39.303529 0 0 0 38.4707,31.27344 h 24.87695 c 11.44005,0 16.79021,2.1962 33.25,-3.64258 8.2299,-2.91939 23.20792,-14.13051 27.36133,-28.59766 4.15341,-14.46714 0.63348,-22.40819 -0.75586,-26.81445 1.07835,3.41998 -0.26895,-1.16188 -1.20898,-5.3125 -0.94004,-4.15062 -2.19666,-9.89492 -3.64844,-16.68164 -2.90355,-13.57344 -6.5995,-31.37038 -10.35352,-49.94727 -3.10205,-15.35066 -5.94187,-28.88915 -8.58398,-41.39843 3.6528,-1.60407 7.4623,-3.67574 11.38477,-7.05078 10.5915,-9.11334 14.40338,-22.15236 15.37695,-28.92579 0.97357,-6.77342 0.74219,-10.57983 0.74219,-14.6289 v -15.875 a 39.303529,39.303529 0 0 0 -36.04688,-39.14258 l -1.23633,-48.70899 -1.05664,-41.60546 c 3.40584,-0.52963 7.25034,-1.48271 11.76368,-3.53516 10.43477,-4.74524 19.85053,-16.52877 22.92578,-24.92969 6.15002,-16.80057 3.33767,-22.74788 2.67382,-31.79492 v -0.002 l -1.39453,-19.01758 A 39.303529,39.303529 0 0 0 433.37305,82.136719 L 301.83398,49.123047 C 265.60671,40.030712 232.29564,31.751118 207.74219,25.720703 195.46546,22.705496 185.38975,20.25531 178.15234,18.527344 c -3.6187,-0.863983 -6.50849,-1.543391 -8.75,-2.052735 -1.12075,-0.254671 -2.05522,-0.462464 -3.04296,-0.667968 -0.98775,-0.205504 3.58206,-0.555666 -7.53126,-0.980469 z M 429.16016,353.98633 c 0.13421,0.42567 0.74124,1.5847 1.08984,3.90039 -0.30638,-1.15945 -0.5296,-2.12358 -1.08984,-3.90039 z m -279.39454,4.49219 c 0.90238,-3.5372 -2.41354,11.63431 -0.18359,1.22656 0.0797,-0.64505 0.13955,-1.26343 0.18359,-1.22656 z m 24.39258,38.88281 c 4.47588,0.68757 5.97887,3.00177 0,0 z m 229.56446,0.28711 c -3.10158,1.23311 -2.41262,0.56227 0,0 z" />
</svg>
