<?xml version="1.0" encoding="UTF-8" standalone="no"?>
<!-- Created with Inkscape (http://www.inkscape.org/) -->

<svg
   xmlns:dc="http://purl.org/dc/elements/1.1/"
   xmlns:cc="http://creativecommons.org/ns#"
   xmlns:rdf="http://www.w3.org/1999/02/22-rdf-syntax-ns#"
   xmlns:svg="http://www.w3.org/2000/svg"
   xmlns="http://www.w3.org/2000/svg"
   xmlns:sodipodi="http://sodipodi.sourceforge.net/DTD/sodipodi-0.dtd"
   xmlns:inkscape="http://www.inkscape.org/namespaces/inkscape"
   version="1.0"
   width="580"
   height="580"
   id="svg2"
   sodipodi:version="0.32"
   inkscape:version="0.92.3 (2405546, 2018-03-11)"
   sodipodi:docname="lighthouse.svg"
   inkscape:output_extension="org.inkscape.output.svg.inkscape">
  <metadata
     id="metadata2975">
    <rdf:RDF>
      <cc:Work
         rdf:about="">
        <dc:format>image/svg+xml</dc:format>
        <dc:type
           rdf:resource="http://purl.org/dc/dcmitype/StillImage" />
        <cc:license
           rdf:resource="http://web.resource.org/cc/PublicDomain" />
        <dc:language>en</dc:language>
      </cc:Work>
    </rdf:RDF>
  </metadata>
  <sodipodi:namedview
     inkscape:window-height="1006"
     inkscape:window-width="1920"
     inkscape:pageshadow="2"
     inkscape:pageopacity="0.0"
     guidetolerance="10.0"
     gridtolerance="10.0"
     objecttolerance="10.0"
     borderopacity="1.0"
     bordercolor="#666666"
     pagecolor="#ffffff"
     id="base"
     inkscape:zoom="0.92167712"
     inkscape:cx="103.43101"
     inkscape:cy="305.99959"
     inkscape:window-x="1920"
     inkscape:window-y="0"
     inkscape:current-layer="svg2"
     showgrid="false"
     inkscape:window-maximized="1" />
  <defs
     id="defs4">
    <inkscape:perspective
       sodipodi:type="inkscape:persp3d"
       inkscape:vp_x="0 : 290 : 1"
       inkscape:vp_y="0 : 1000 : 0"
       inkscape:vp_z="580 : 290 : 1"
       inkscape:persp3d-origin="290 : 193.33333 : 1"
       id="perspective2441" />
    <inkscape:perspective
       id="perspective3452"
       inkscape:persp3d-origin="30 : 20 : 1"
       inkscape:vp_z="60 : 30 : 1"
       inkscape:vp_y="0 : 1000 : 0"
       inkscape:vp_x="0 : 30 : 1"
       sodipodi:type="inkscape:persp3d" />
    <symbol
       viewBox="244.5 110 489 219.9"
       id="symbol-university">
      <path
         id="path4460"
         d="M79,43l57,119c0,0,21-96,104-96s124,106,124,106l43-133l82-17L0,17L79,43z" />
      <path
         id="path4462"
         d="M94,176l-21,39"
         stroke-width="20"
         stroke="#000000"
         fill="none" />
      <path
         id="path4464"
         d="M300,19c0,10.5-22.6,19-50.5,19S199,29.5,199,19s22.6-19,50.5-19S300,8.5,300,19z" />
      <path
         id="path4466"
         d="M112,216l-16-38L64,88c0,0-9-8-4-35s16-24,16-24"
         stroke-width="20"
         stroke="#000000"
         ill="none" />
    </symbol>
    <inkscape:perspective
       id="perspective4471"
       inkscape:persp3d-origin="372.04724 : 350.78739 : 1"
       inkscape:vp_z="744.09448 : 526.18109 : 1"
       inkscape:vp_y="0 : 1000 : 0"
       inkscape:vp_x="0 : 526.18109 : 1"
       sodipodi:type="inkscape:persp3d" />
    <inkscape:perspective
       id="perspective4668"
       inkscape:persp3d-origin="6 : 4 : 1"
       inkscape:vp_z="12 : 6 : 1"
       inkscape:vp_y="0 : 1000 : 0"
       inkscape:vp_x="0 : 6 : 1"
       sodipodi:type="inkscape:persp3d" />
  </defs>
  <path
     style="color:#000000;font-style:normal;font-variant:normal;font-weight:normal;font-stretch:normal;font-size:40px;line-height:125%;font-family:NPSPICT3;-inkscape-font-specification:NPSPICT3;font-variant-ligatures:normal;font-variant-position:normal;font-variant-caps:normal;font-variant-numeric:normal;font-variant-alternates:normal;font-feature-settings:normal;text-indent:0;text-align:start;text-decoration:none;text-decoration-line:none;text-decoration-style:solid;text-decoration-color:#000000;letter-spacing:normal;word-spacing:normal;text-transform:none;writing-mode:lr-tb;direction:ltr;text-orientation:mixed;dominant-baseline:auto;baseline-shift:baseline;text-anchor:start;white-space:normal;shape-padding:0;clip-rule:nonzero;display:inline;overflow:visible;visibility:visible;opacity:1;isolation:auto;mix-blend-mode:normal;color-interpolation:sRGB;color-interpolation-filters:linearRGB;solid-color:#000000;solid-opacity:1;vector-effect:none;fill:#000000;fill-opacity:1;fill-rule:nonzero;stroke:none;stroke-width:10;stroke-linecap:butt;stroke-linejoin:round;stroke-miterlimit:4;stroke-dasharray:none;stroke-dashoffset:0;stroke-opacity:1;color-rendering:auto;image-rendering:auto;shape-rendering:auto;text-rendering:auto;enable-background:accumulate"
     d="M 291.30859 44.976562 C 290.4488 44.972763 289.60255 45.19071 288.85156 45.609375 L 221.44336 83.183594 C 221.33758 83.242954 221.23399 83.30615 221.13281 83.373047 C 219.04714 84.742833 217.20738 87.536649 217.20703 90.316406 C 217.20684 92.071776 217.72345 94.287917 219.36328 95.927734 C 221.00256 97.567004 223.21751 98.082016 224.97266 98.082031 L 357.59766 98.082031 C 359.39848 98.082083 361.47428 97.743516 363.28711 96.234375 C 365.10055 94.724723 365.91957 92.241138 365.91992 90.318359 L 365.91992 90.316406 C 365.91908 87.55419 364.10622 84.762109 362.03125 83.384766 C 361.91888 83.310476 361.80355 83.240758 361.68555 83.175781 L 293.70312 45.601562 C 292.96992 45.19589 292.14653 44.980977 291.30859 44.976562 z M 292.42188 110.59961 C 279.97713 110.5996 269.79492 120.78187 269.79492 133.22656 C 269.79492 145.67126 279.97712 155.85352 292.42188 155.85352 C 304.86662 155.85351 315.04883 145.67125 315.04883 133.22656 C 315.04883 120.78188 304.86661 110.59961 292.42188 110.59961 z M 222.20703 169.88672 C 219.34762 169.88691 216.30202 170.68411 214.11328 172.87891 C 211.92455 175.07371 211.13657 178.11426 211.13672 180.97461 C 211.13657 183.83181 211.92861 186.87394 214.11914 189.06445 C 216.30967 191.25497 219.34983 192.04511 222.20703 192.04492 L 228.10352 192.04492 L 183.53906 527.93945 C 183.14276 530.9354 185.47404 533.59553 188.49609 533.5957 L 394.07617 533.5957 C 397.09464 533.59491 399.42431 530.94029 399.0332 527.94727 L 355.01367 192.04492 L 360.91992 192.04492 C 363.77695 192.04511 366.81744 191.2548 369.00781 189.06445 C 371.19818 186.87411 371.98999 183.8317 371.99023 180.97461 C 371.98999 178.11437 371.20225 175.07354 369.01367 172.87891 C 366.8251 170.68428 363.77916 169.88691 360.91992 169.88672 L 222.20703 169.88672 z "
     id="flowRoot3192" />
  <path
     sodipodi:nodetypes="cccccccccc"
     id="path3186"
     d="M 242.32289,116.63003 51.111491,92.311424 51.668021,172.99118 242.32289,149.22909 Z m 100.37956,32.04254 190.65487,24.31861 V 92.311424 L 342.70245,116.63003 Z"
     style="font-style:normal;font-variant:normal;font-weight:normal;font-stretch:normal;font-size:40px;line-height:125%;font-family:NPSPICT3;-inkscape-font-specification:NPSPICT3;text-align:start;writing-mode:lr-tb;text-anchor:start;opacity:0.622;fill:#060606;fill-opacity:1;stroke:none;stroke-width:10;stroke-linecap:butt;stroke-linejoin:round;stroke-miterlimit:4;stroke-dasharray:none;stroke-opacity:1"
     inkscape:connector-curvature="0" />
</svg>
