<?xml version="1.0" encoding="UTF-8" standalone="no"?>
<!-- Created with Inkscape (http://www.inkscape.org/) -->

<svg
   xmlns:dc="http://purl.org/dc/elements/1.1/"
   xmlns:cc="http://creativecommons.org/ns#"
   xmlns:rdf="http://www.w3.org/1999/02/22-rdf-syntax-ns#"
   xmlns:svg="http://www.w3.org/2000/svg"
   xmlns="http://www.w3.org/2000/svg"
   xmlns:sodipodi="http://sodipodi.sourceforge.net/DTD/sodipodi-0.dtd"
   xmlns:inkscape="http://www.inkscape.org/namespaces/inkscape"
   version="1.0"
   width="580"
   height="580"
   id="svg2"
   sodipodi:version="0.32"
   inkscape:version="0.92.3 (2405546, 2018-03-11)"
   sodipodi:docname="mineshaft_m.svg"
   inkscape:output_extension="org.inkscape.output.svg.inkscape">
  <metadata
     id="metadata2975">
    <rdf:RDF>
      <cc:Work
         rdf:about="">
        <dc:format>image/svg+xml</dc:format>
        <dc:type
           rdf:resource="http://purl.org/dc/dcmitype/StillImage" />
        <cc:license
           rdf:resource="http://web.resource.org/cc/PublicDomain" />
        <dc:language>en</dc:language>
        <dc:title />
      </cc:Work>
    </rdf:RDF>
  </metadata>
  <sodipodi:namedview
     inkscape:window-height="1006"
     inkscape:window-width="1920"
     inkscape:pageshadow="2"
     inkscape:pageopacity="0.0"
     guidetolerance="10.0"
     gridtolerance="10.0"
     objecttolerance="10.0"
     borderopacity="1.0"
     bordercolor="#666666"
     pagecolor="#ffffff"
     id="base"
     inkscape:zoom="0.65172414"
     inkscape:cx="400.49985"
     inkscape:cy="292.97259"
     inkscape:window-x="1920"
     inkscape:window-y="0"
     inkscape:current-layer="svg2"
     showgrid="false"
     inkscape:window-maximized="1" />
  <defs
     id="defs4">
    <inkscape:perspective
       sodipodi:type="inkscape:persp3d"
       inkscape:vp_x="0 : 290 : 1"
       inkscape:vp_y="0 : 1000 : 0"
       inkscape:vp_z="580 : 290 : 1"
       inkscape:persp3d-origin="290 : 193.33333 : 1"
       id="perspective2441" />
  </defs>
  <path
     sodipodi:type="inkscape:offset"
     inkscape:radius="43.615601"
     inkscape:original="M 179.13281 55.447266 L 46.048828 188.53125 L 81.958984 294.85742 L 160.38867 216.42969 C 181.25818 237.22604 213.57198 269.40951 258.50586 314.14844 C 256.40388 316.24736 254.86991 317.77752 252.76367 319.88086 C 214.63915 357.9529 176.06934 396.49866 146.125 426.48242 C 116.18066 456.46618 96.150012 476.51258 90.845703 482.12891 A 25.0025 25.0025 0 1 0 127.19727 516.45898 C 129.03396 514.51425 151.58788 491.76791 181.50195 461.81445 C 211.41603 431.86099 249.97951 393.32349 288.0957 355.25977 C 290.23809 353.12033 291.79954 351.56453 293.9375 349.42969 C 333.5892 388.89358 373.64743 428.73386 404.86719 459.72266 C 436.42541 491.0474 457.59253 512.06261 463.41211 517.52539 A 25.0025 25.0025 0 1 0 497.63086 481.07031 C 495.49214 479.06272 471.61767 455.53091 440.08984 424.23633 C 408.93123 393.30822 368.93085 353.52444 329.32617 314.10742 C 374.86311 268.65489 407.48452 236.10802 422.41797 221.21484 L 498.23633 297.0332 L 533.95117 191.28711 L 401.59375 58.927734 L 330.86133 129.6582 L 387.06055 185.85742 C 372.08582 200.79213 339.45064 233.35406 293.89453 278.82617 C 248.97025 234.09658 216.64878 201.90598 195.74414 181.07422 L 250.25195 126.56641 L 179.13281 55.447266 z "
     style="color:#000000;font-style:normal;font-variant:normal;font-weight:normal;font-stretch:normal;font-size:medium;line-height:normal;font-family:sans-serif;font-variant-ligatures:normal;font-variant-position:normal;font-variant-caps:normal;font-variant-numeric:normal;font-variant-alternates:normal;font-feature-settings:normal;text-indent:0;text-align:start;text-decoration:none;text-decoration-line:none;text-decoration-style:solid;text-decoration-color:#000000;letter-spacing:normal;word-spacing:normal;text-transform:none;writing-mode:lr-tb;direction:ltr;text-orientation:mixed;dominant-baseline:auto;baseline-shift:baseline;text-anchor:start;white-space:normal;shape-padding:0;clip-rule:nonzero;display:inline;overflow:visible;visibility:visible;opacity:1;isolation:auto;mix-blend-mode:normal;color-interpolation:sRGB;color-interpolation-filters:linearRGB;solid-color:#000000;solid-opacity:1;vector-effect:none;fill:#ffffff;fill-opacity:1;fill-rule:evenodd;stroke:none;stroke-width:50;stroke-linecap:round;stroke-linejoin:miter;stroke-miterlimit:4;stroke-dasharray:none;stroke-dashoffset:0;stroke-opacity:1;color-rendering:auto;image-rendering:auto;shape-rendering:auto;text-rendering:auto;enable-background:accumulate"
     id="path4142-3"
     d="M 178.49219,11.837891 A 43.619962,43.619962 0 0 0 148.29102,24.605469 L 15.207031,157.68945 A 43.619962,43.619962 0 0 0 4.7265625,202.48828 L 40.636719,308.81445 a 43.619962,43.619962 0 0 0 72.162111,16.88477 l 47.65234,-47.65039 c 10.42663,10.38599 22.58228,22.49114 36.30078,36.15234 -28.90304,28.8747 -58.59529,58.53781 -81.48828,81.46094 -29.771984,29.81118 -48.356503,48.32194 -55.810545,56.20117 -25.142301,26.0252 -24.107413,72.72517 2.208984,97.57813 26.358563,24.89277 73.156091,23.21915 97.669921,-3.49219 l -0.42578,0.45703 c -1.98808,2.10502 6.28883,-6.39246 15.86133,-16.03125 9.5725,-9.63879 22.66657,-22.79145 37.5957,-37.74023 22.90335,-22.93351 52.67049,-52.67028 81.65234,-81.62305 28.28412,28.13734 57.56422,57.27213 80.125,79.66601 31.35466,31.12268 50.90201,50.62042 59.03907,58.27344 26.0863,25.13805 72.8566,23.99462 97.65625,-2.42578 24.83234,-26.45523 22.98456,-73.29873 -3.85352,-97.7168 l 0.5,0.46094 c 1.88455,1.769 -6.81963,-6.66328 -16.96094,-16.67383 -10.1413,-10.01055 -23.96853,-23.69433 -39.70507,-39.31445 -22.40562,-22.23987 -51.55142,-51.24219 -79.68555,-79.23047 12.22356,-12.19833 22.48231,-22.43419 31.25391,-31.18555 l 45.00976,45.00977 a 43.619962,43.619962 0 0 0 72.16406,-16.88477 L 575.27344,205.24414 A 43.619962,43.619962 0 0 0 564.79297,160.44727 L 432.43555,28.087891 a 43.619962,43.619962 0 0 0 -61.68164,-0.002 l -70.73243,70.730468 a 43.619962,43.619962 0 0 0 -8.83203,12.849614 43.619962,43.619962 0 0 0 -10.0957,-15.941411 L 209.97461,24.605469 A 43.619962,43.619962 0 0 0 178.49219,11.837891 Z M 289.92383,144.56055 A 43.619962,43.619962 0 0 0 300.01953,160.5 l 25.32617,25.32617 c -8.84384,8.82371 -19.14756,19.10631 -31.48047,31.41406 -13.76155,-13.70403 -25.91471,-25.80901 -36.375,-36.22851 l 23.60352,-23.60352 a 43.619962,43.619962 0 0 0 8.83008,-12.84765 z" />
</svg>
