<?xml version="1.0" encoding="UTF-8" standalone="no"?>
<!-- Created with Inkscape (http://www.inkscape.org/) -->

<svg
   xmlns:dc="http://purl.org/dc/elements/1.1/"
   xmlns:cc="http://creativecommons.org/ns#"
   xmlns:rdf="http://www.w3.org/1999/02/22-rdf-syntax-ns#"
   xmlns:svg="http://www.w3.org/2000/svg"
   xmlns="http://www.w3.org/2000/svg"
   xmlns:sodipodi="http://sodipodi.sourceforge.net/DTD/sodipodi-0.dtd"
   xmlns:inkscape="http://www.inkscape.org/namespaces/inkscape"
   version="1.0"
   width="580"
   height="580"
   id="svg2"
   sodipodi:version="0.32"
   inkscape:version="0.92.3 (2405546, 2018-03-11)"
   sodipodi:docname="mineshaft.svg"
   inkscape:output_extension="org.inkscape.output.svg.inkscape">
  <metadata
     id="metadata2975">
    <rdf:RDF>
      <cc:Work
         rdf:about="">
        <dc:format>image/svg+xml</dc:format>
        <dc:type
           rdf:resource="http://purl.org/dc/dcmitype/StillImage" />
        <cc:license
           rdf:resource="http://web.resource.org/cc/PublicDomain" />
        <dc:language>en</dc:language>
        <dc:title />
      </cc:Work>
    </rdf:RDF>
  </metadata>
  <sodipodi:namedview
     inkscape:window-height="1006"
     inkscape:window-width="1920"
     inkscape:pageshadow="2"
     inkscape:pageopacity="0.0"
     guidetolerance="10.0"
     gridtolerance="10.0"
     objecttolerance="10.0"
     borderopacity="1.0"
     bordercolor="#666666"
     pagecolor="#ffffff"
     id="base"
     inkscape:zoom="0.65172414"
     inkscape:cx="-352.88639"
     inkscape:cy="325.19481"
     inkscape:window-x="1920"
     inkscape:window-y="0"
     inkscape:current-layer="svg2"
     showgrid="false"
     inkscape:window-maximized="1" />
  <defs
     id="defs4">
    <inkscape:perspective
       sodipodi:type="inkscape:persp3d"
       inkscape:vp_x="0 : 290 : 1"
       inkscape:vp_y="0 : 1000 : 0"
       inkscape:vp_z="580 : 290 : 1"
       inkscape:persp3d-origin="290 : 193.33333 : 1"
       id="perspective2441" />
  </defs>
  <path
     inkscape:connector-curvature="0"
     style="color:#000000;font-style:normal;font-variant:normal;font-weight:normal;font-stretch:normal;font-size:medium;line-height:normal;font-family:sans-serif;font-variant-ligatures:normal;font-variant-position:normal;font-variant-caps:normal;font-variant-numeric:normal;font-variant-alternates:normal;font-feature-settings:normal;text-indent:0;text-align:start;text-decoration:none;text-decoration-line:none;text-decoration-style:solid;text-decoration-color:#000000;letter-spacing:normal;word-spacing:normal;text-transform:none;writing-mode:lr-tb;direction:ltr;text-orientation:mixed;dominant-baseline:auto;baseline-shift:baseline;text-anchor:start;white-space:normal;shape-padding:0;clip-rule:nonzero;display:inline;overflow:visible;visibility:visible;opacity:1;isolation:auto;mix-blend-mode:normal;color-interpolation:sRGB;color-interpolation-filters:linearRGB;solid-color:#000000;solid-opacity:1;vector-effect:none;fill:#0d0d0d;fill-opacity:1;fill-rule:evenodd;stroke:none;stroke-width:50;stroke-linecap:round;stroke-linejoin:miter;stroke-miterlimit:4;stroke-dasharray:none;stroke-dashoffset:0;stroke-opacity:1;color-rendering:auto;image-rendering:auto;shape-rendering:auto;text-rendering:auto;enable-background:accumulate"
     d="M 179.13281,55.44727 46.048828,188.53125 81.958984,294.85742 160.38867,216.42969 c 20.86951,20.79635 53.18331,52.97982 98.11719,97.71875 -2.10198,2.09892 -3.63595,3.62908 -5.74219,5.73242 -38.12452,38.07204 -76.69433,76.6178 -106.63867,106.60156 -29.94434,29.98376 -49.974988,50.03016 -55.279297,55.64649 a 25.0025,25.0025 0 1 0 36.351567,34.33007 c 1.83669,-1.94473 24.39061,-24.69107 54.30468,-54.64453 29.91408,-29.95346 68.47756,-68.49096 106.59375,-106.55468 2.14239,-2.13944 3.70384,-3.69524 5.8418,-5.83008 39.6517,39.46389 79.70993,79.30417 110.92969,110.29297 31.55822,31.32474 52.72534,52.33995 58.54492,57.80273 a 25.0025,25.0025 0 1 0 34.21875,-36.45508 c -2.13872,-2.00759 -26.01319,-25.5394 -57.54102,-56.83398 -31.15861,-30.92811 -71.15899,-70.71189 -110.76367,-110.12891 45.53694,-45.45253 78.15835,-77.9994 93.0918,-92.89258 L 498.23633,297.0332 533.95117,191.28711 401.59375,58.927738 330.86133,129.6582 l 56.19922,56.19922 c -14.97473,14.93471 -47.60991,47.49664 -93.16602,92.96875 -44.92428,-44.72959 -77.24575,-76.92019 -98.15039,-97.75195 l 54.50781,-54.50781 z"
     id="path4142" />
</svg>
