<?xml version="1.0" encoding="UTF-8" standalone="no"?>
<!-- Created with Inkscape (http://www.inkscape.org/) -->

<svg
   xmlns:dc="http://purl.org/dc/elements/1.1/"
   xmlns:cc="http://creativecommons.org/ns#"
   xmlns:rdf="http://www.w3.org/1999/02/22-rdf-syntax-ns#"
   xmlns:svg="http://www.w3.org/2000/svg"
   xmlns="http://www.w3.org/2000/svg"
   xmlns:sodipodi="http://sodipodi.sourceforge.net/DTD/sodipodi-0.dtd"
   xmlns:inkscape="http://www.inkscape.org/namespaces/inkscape"
   version="1.0"
   width="580"
   height="580"
   id="svg2"
   sodipodi:version="0.32"
   inkscape:version="0.92.3 (2405546, 2018-03-11)"
   sodipodi:docname="monastery_christian_m.svg"
   inkscape:output_extension="org.inkscape.output.svg.inkscape">
  <metadata
     id="metadata2975">
    <rdf:RDF>
      <cc:Work
         rdf:about="">
        <dc:format>image/svg+xml</dc:format>
        <dc:type
           rdf:resource="http://purl.org/dc/dcmitype/StillImage" />
        <cc:license
           rdf:resource="http://web.resource.org/cc/PublicDomain" />
        <dc:language>en</dc:language>
        <dc:title />
      </cc:Work>
    </rdf:RDF>
  </metadata>
  <sodipodi:namedview
     inkscape:window-height="1006"
     inkscape:window-width="1920"
     inkscape:pageshadow="2"
     inkscape:pageopacity="0.0"
     guidetolerance="10.0"
     gridtolerance="10.0"
     objecttolerance="10.0"
     borderopacity="1.0"
     bordercolor="#666666"
     pagecolor="#ffffff"
     id="base"
     inkscape:zoom="0.65172414"
     inkscape:cx="40.490683"
     inkscape:cy="164.55015"
     inkscape:window-x="1920"
     inkscape:window-y="0"
     inkscape:current-layer="svg2"
     showgrid="false"
     inkscape:window-maximized="1" />
  <defs
     id="defs4">
    <inkscape:perspective
       sodipodi:type="inkscape:persp3d"
       inkscape:vp_x="0 : 290 : 1"
       inkscape:vp_y="0 : 1000 : 0"
       inkscape:vp_z="580 : 290 : 1"
       inkscape:persp3d-origin="290 : 193.33333 : 1"
       id="perspective2441" />
  </defs>
  <path
     sodipodi:type="inkscape:offset"
     inkscape:radius="23.578861"
     inkscape:original="M 290 193.81641 L 213.19531 284.26953 L 213.19531 314.42188 L 366.80469 314.42188 L 366.80469 284.26953 L 290 193.81641 z M 136.39258 254.11914 L 110.79102 299.3457 L 110.79102 314.42188 L 187.5957 314.42188 L 187.5957 299.3457 L 161.99414 254.11914 L 136.39258 254.11914 z M 418.00586 254.11914 L 392.4043 299.3457 L 392.4043 314.42188 L 469.20898 314.42188 L 469.20898 299.3457 L 443.60742 254.11914 L 418.00586 254.11914 z M 110.79102 334.57227 L 110.79102 466.08008 L 238.79688 466.08008 C 238.79688 435.92886 238.79741 375.62695 290 375.62695 C 341.2026 375.62695 341.20313 435.92886 341.20312 466.08008 L 469.20898 466.08008 L 469.20898 334.57227 L 392.86719 334.57227 L 392.40625 364.72461 L 366.80469 364.72461 L 367.63672 334.57227 L 214.30664 334.57227 L 213.19727 364.72461 L 187.59766 364.72461 L 187.59766 334.57227 L 110.79102 334.57227 z "
     style="fill:#ffffff;fill-opacity:1;stroke:none;stroke-width:0.63692427"
     id="palace-5"
     d="m 289.21484,170.25195 a 23.581219,23.581219 0 0 0 -17.1875,8.30274 l -75.42773,88.83203 -14.08594,-24.88281 a 23.581219,23.581219 0 0 0 -20.51953,-11.96289 h -25.60156 a 23.581219,23.581219 0 0 0 -20.51953,11.96289 l -25.601566,45.22656 a 23.581219,23.581219 0 0 0 -3.058593,11.61523 v 15.07618 a 23.581219,23.581219 0 0 0 2.291015,10.07031 23.581219,23.581219 0 0 0 -2.291015,10.08008 V 466.08008 A 23.581219,23.581219 0 0 0 110.79102,489.6582 H 238.79688 A 23.581219,23.581219 0 0 0 262.375,466.08008 c 0,-15.07547 0.5953,-35.5457 5.14844,-48.95117 2.27657,-6.70274 5.19449,-11.13259 8.15234,-13.64844 2.95786,-2.51585 6.15176,-4.27539 14.32422,-4.27539 8.17247,0 11.36636,1.75954 14.32422,4.27539 2.95785,2.51585 5.87577,6.9457 8.15234,13.64844 4.55314,13.40546 5.14844,33.8757 5.14844,48.95117 a 23.581219,23.581219 0 0 0 23.57812,23.57812 h 128.00586 a 23.581219,23.581219 0 0 0 23.57813,-23.57812 V 334.57227 a 23.581219,23.581219 0 0 0 -2.29102,-10.07032 23.581219,23.581219 0 0 0 2.29102,-10.08007 V 299.3457 a 23.581219,23.581219 0 0 0 -3.05859,-11.61523 l -25.60157,-45.22656 a 23.581219,23.581219 0 0 0 -20.51953,-11.96289 h -25.60156 a 23.581219,23.581219 0 0 0 -20.51953,11.96289 l -14.08594,24.88281 -75.42773,-88.83203 a 23.581219,23.581219 0 0 0 -18.75782,-8.30274 z"
     transform="matrix(1.216152,0,0,1.216152,-62.684095,-20.607875)" />
  <path
     sodipodi:type="inkscape:offset"
     inkscape:radius="6.1286058"
     inkscape:original="M 222.03906 23.851562 C 214.56419 23.851965 207.10316 26.084762 200.85742 30.191406 L 200.71484 30.285156 C 187.92937 38.693108 181.06018 55.226057 184.12305 70.21875 L 214.10938 216.95312 L 72.689453 178.20117 C 64.646298 175.99787 55.88648 176.49878 48.146484 179.60352 C 40.406489 182.70825 33.73039 188.39992 29.439453 195.55078 L 29.345703 195.70703 C 25.772719 201.6625 23.851707 208.59791 23.851562 215.54297 L 23.851562 364.45703 C 23.851706 371.40209 25.772719 378.3375 29.345703 384.29297 L 29.439453 384.44922 C 33.646508 391.46017 40.143982 397.07092 47.693359 400.21094 C 55.242737 403.35095 63.804085 404.00434 71.742188 402.04492 L 214.11133 366.88867 L 184.16406 509.58203 C 181.00838 524.62492 187.87236 541.26988 200.71484 549.71484 L 200.85742 549.80859 C 207.10316 553.91524 214.56419 556.14803 222.03906 556.14844 L 357.96094 556.14844 C 365.43581 556.14803 372.89684 553.91524 379.14258 549.80859 L 379.28516 549.71484 C 392.60349 540.95712 399.4094 523.35794 395.44922 507.91797 L 359.26758 366.90234 L 508.64844 402.13867 C 516.54147 404.00015 525.01881 403.288 532.49023 400.13477 C 539.96166 396.98153 546.38786 391.40291 550.56055 384.44922 L 550.6543 384.29297 C 554.22728 378.3375 556.14829 371.40209 556.14844 364.45703 L 556.14844 215.54297 C 556.14829 208.59791 554.22728 201.6625 550.6543 195.70703 L 550.56055 195.55078 C 546.30741 188.46281 539.71082 182.80676 532.05664 179.68555 C 524.40246 176.56433 515.73315 175.99519 507.73633 178.08789 L 359.25391 216.95312 L 395.50781 71.845703 A 4.9206323 4.9206323 0 0 0 395.50781 71.84375 C 399.35048 56.458496 392.53465 38.998547 379.28516 30.285156 L 379.14258 30.191406 C 372.89684 26.084762 365.43581 23.851966 357.96094 23.851562 L 222.03906 23.851562 z "
     style="color:#000000;display:inline;overflow:visible;visibility:visible;fill:#ffffff;fill-opacity:1;stroke:none;stroke-width:35.32893753;stroke-linejoin:bevel;stroke-miterlimit:4;stroke-dasharray:none;stroke-opacity:1;marker:none;enable-background:accumulate"
     id="rect2987-3"
     d="m 222.03906,17.722656 c -8.69509,4.69e-4 -17.28306,2.570334 -24.54883,7.347656 l -0.14257,0.09375 c -15.02511,9.880774 -22.82791,28.662284 -19.22852,46.28125 L 206.10742,208.40625 74.308594,172.29102 c -9.365011,-2.56541 -19.43185,-1.98979 -28.44336,1.625 -9.011843,3.6149 -16.685876,10.15501 -21.68164,18.48046 a 6.1292187,6.1292187 0 0 0 0,0.002 l -0.09375,0.15625 c -4.154305,6.92442 -6.367019,14.91318 -6.367188,22.98828 v 148.91406 c 1.68e-4,8.0751 2.212883,16.06386 6.367188,22.98828 l 0.09375,0.15625 a 6.1292187,6.1292187 0 0 0 0,0.002 c 4.897262,8.16116 12.367949,14.61029 21.15625,18.26562 8.787996,3.65519 18.629888,4.40608 27.871094,2.125 L 206.10938,375.17578 178.16602,508.32227 a 6.1292187,6.1292187 0 0 0 0,0.002 c -3.70881,17.67962 4.08788,36.58636 19.18164,46.51172 l 0.14257,0.0937 c 7.26577,4.77733 15.85375,7.34718 24.54883,7.34765 h 135.92188 c 8.69508,-4.7e-4 17.28306,-2.57032 24.54883,-7.34765 l 0.14257,-0.0937 c 15.66681,-10.30201 23.39089,-30.27898 18.73243,-48.44141 L 367.7207,375.19336 507.24219,408.10352 c 9.18712,2.16667 18.93397,1.34816 27.63086,-2.32227 8.69728,-3.6706 16.08633,-10.08362 20.94336,-18.17773 a 6.1292187,6.1292187 0 0 0 0,-0.002 l 0.0937,-0.15625 c 4.1543,-6.92442 6.36701,-14.91319 6.36718,-22.98828 V 215.54297 c -1.7e-4,-8.07509 -2.21288,-16.06386 -6.36718,-22.98828 l -0.0937,-0.15625 a 6.1292187,6.1292187 0 0 0 0,-0.002 c -4.95156,-8.25189 -12.53409,-14.75291 -21.44532,-18.38671 -8.91119,-3.63381 -18.87596,-4.28781 -28.18554,-1.85157 a 6.1292187,6.1292187 0 0 0 -0.002,0 L 367.70703,208.4043 401.45312,73.332031 a 6.1292187,6.1292187 0 0 0 0,-0.0039 6.1292187,6.1292187 0 0 0 0.14844,-0.896484 c 4.05196,-17.852039 -3.62078,-37.186987 -18.94922,-47.267579 l -0.14257,-0.09375 C 375.244,20.29299 366.65603,17.723126 357.96094,17.722656 Z"
     transform="matrix(0.60896513,0,0,0.60896513,113.4001,-5.6834273)" />
</svg>
