<?xml version="1.0" encoding="UTF-8" standalone="no"?>
<!-- Created with Inkscape (http://www.inkscape.org/) -->

<svg
   xmlns:dc="http://purl.org/dc/elements/1.1/"
   xmlns:cc="http://creativecommons.org/ns#"
   xmlns:rdf="http://www.w3.org/1999/02/22-rdf-syntax-ns#"
   xmlns:svg="http://www.w3.org/2000/svg"
   xmlns="http://www.w3.org/2000/svg"
   xmlns:sodipodi="http://sodipodi.sourceforge.net/DTD/sodipodi-0.dtd"
   xmlns:inkscape="http://www.inkscape.org/namespaces/inkscape"
   version="1.0"
   width="580"
   height="580"
   id="svg2"
   sodipodi:version="0.32"
   inkscape:version="0.92.3 (2405546, 2018-03-11)"
   sodipodi:docname="observatory.svg"
   inkscape:output_extension="org.inkscape.output.svg.inkscape">
  <metadata
     id="metadata2975">
    <rdf:RDF>
      <cc:Work
         rdf:about="">
        <dc:format>image/svg+xml</dc:format>
        <dc:type
           rdf:resource="http://purl.org/dc/dcmitype/StillImage" />
        <cc:license
           rdf:resource="http://web.resource.org/cc/PublicDomain" />
        <dc:language>en</dc:language>
        <dc:title />
      </cc:Work>
    </rdf:RDF>
  </metadata>
  <sodipodi:namedview
     inkscape:window-height="1006"
     inkscape:window-width="1920"
     inkscape:pageshadow="2"
     inkscape:pageopacity="0.0"
     guidetolerance="10.0"
     gridtolerance="10.0"
     objecttolerance="10.0"
     borderopacity="1.0"
     bordercolor="#666666"
     pagecolor="#ffffff"
     id="base"
     inkscape:zoom="0.65172414"
     inkscape:cx="-3.0451292"
     inkscape:cy="283.76624"
     inkscape:window-x="1920"
     inkscape:window-y="0"
     inkscape:current-layer="svg2"
     showgrid="false"
     inkscape:window-maximized="1" />
  <defs
     id="defs4">
    <inkscape:perspective
       sodipodi:type="inkscape:persp3d"
       inkscape:vp_x="0 : 290 : 1"
       inkscape:vp_y="0 : 1000 : 0"
       inkscape:vp_z="580 : 290 : 1"
       inkscape:persp3d-origin="290 : 193.33333 : 1"
       id="perspective2441" />
  </defs>
  <path
     inkscape:connector-curvature="0"
     style="color:#000000;display:inline;overflow:visible;visibility:visible;fill:#000000;fill-opacity:1;fill-rule:nonzero;stroke:none;stroke-width:34.80533981;marker:none;enable-background:accumulate"
     d="m 477.32054,41.918469 -18.53436,46.156312 -49.6273,3.369186 38.16938,31.886253 -12.13214,48.2366 42.12442,-26.44638 42.12251,26.44638 -12.13213,-48.2366 L 545.48029,91.443967 495.853,88.074781 Z M 282.52243,116.92415 c 25.33335,26.99809 39.84439,51.94426 49.41409,80.57426 11.38146,34.05038 18.99408,66.4644 21.96886,98.06368 -20.15158,12.81653 -55.04034,19.95831 -84.07981,22.59121 -3.41963,-62.26611 -26.13814,-151.37185 -72.38948,-199.63099 -79.89271,18.15441 -138.916499,82.08932 -138.916498,158.17503 0,0.81067 0.01354,1.61432 0.02689,2.4222 8.79e-4,0.0183 -9.69e-4,0.0357 0,0.0538 2.592834,50.8148 84.531038,91.61536 185.237998,91.61536 100.70696,0 182.74998,-40.7726 185.34556,-91.58654 3.4e-4,-0.0183 -3e-4,-0.0375 0,-0.0557 0.0137,-0.81701 0.0288,-1.6292 0.0288,-2.44909 0,-78.51599 -62.85633,-144.0923 -146.63643,-159.77318 z m 14.14137,83.24425 a 27.291685,27.291685 0 0 0 -27.29156,27.29349 27.291685,27.291685 0 0 0 27.29156,27.29156 27.291685,27.291685 0 0 0 27.29156,-27.29156 A 27.291685,27.291685 0 0 0 296.6638,200.1684 Z M 58.519592,311.72034 v 1.01806 c 0,-0.34129 0.01982,-0.67763 0.02689,-1.01806 z m 0,1.01806 v 123.2519 5.42065 h 0.330387 c 3.222947,28.79535 31.945263,54.12804 74.882751,70.26309 0,-31.81096 0.40146,-74.09135 0.40146,-74.09135 14.73783,7.0939 31.45106,12.46295 46.77483,15.45522 0,0 0.16903,1.44609 0.16904,71.5078 19.5991,3.58236 40.72984,5.53592 62.76021,5.53592 98.7572,0 179.45672,-39.23186 184.9902,-88.67068 h 0.33039 V 435.9903 312.7384 c 0,51.96239 -82.97842,94.08942 -185.32059,94.08942 -102.34218,0 -185.318678,-42.12703 -185.318678,-94.08942 z m 370.639268,0 v -1.01806 h -0.0288 c 0.007,0.34043 0.0288,0.67677 0.0288,1.01806 z"
     id="path3988" />
</svg>
