<?xml version="1.0" encoding="UTF-8" standalone="no"?>
<!-- Created with Inkscape (http://www.inkscape.org/) -->

<svg
   xmlns:dc="http://purl.org/dc/elements/1.1/"
   xmlns:cc="http://creativecommons.org/ns#"
   xmlns:rdf="http://www.w3.org/1999/02/22-rdf-syntax-ns#"
   xmlns:svg="http://www.w3.org/2000/svg"
   xmlns="http://www.w3.org/2000/svg"
   xmlns:sodipodi="http://sodipodi.sourceforge.net/DTD/sodipodi-0.dtd"
   xmlns:inkscape="http://www.inkscape.org/namespaces/inkscape"
   version="1.0"
   width="580"
   height="580"
   id="svg2"
   sodipodi:version="0.32"
   inkscape:version="0.92.3 (2405546, 2018-03-11)"
   sodipodi:docname="observatory_m.svg"
   inkscape:output_extension="org.inkscape.output.svg.inkscape">
  <metadata
     id="metadata2975">
    <rdf:RDF>
      <cc:Work
         rdf:about="">
        <dc:format>image/svg+xml</dc:format>
        <dc:type
           rdf:resource="http://purl.org/dc/dcmitype/StillImage" />
        <cc:license
           rdf:resource="http://web.resource.org/cc/PublicDomain" />
        <dc:language>en</dc:language>
        <dc:title />
      </cc:Work>
    </rdf:RDF>
  </metadata>
  <sodipodi:namedview
     inkscape:window-height="1006"
     inkscape:window-width="1920"
     inkscape:pageshadow="2"
     inkscape:pageopacity="0.0"
     guidetolerance="10.0"
     gridtolerance="10.0"
     objecttolerance="10.0"
     borderopacity="1.0"
     bordercolor="#666666"
     pagecolor="#ffffff"
     id="base"
     inkscape:zoom="0.92167712"
     inkscape:cx="130.17675"
     inkscape:cy="269.81197"
     inkscape:window-x="1920"
     inkscape:window-y="0"
     inkscape:current-layer="svg2"
     showgrid="false"
     inkscape:window-maximized="1" />
  <defs
     id="defs4">
    <inkscape:perspective
       sodipodi:type="inkscape:persp3d"
       inkscape:vp_x="0 : 290 : 1"
       inkscape:vp_y="0 : 1000 : 0"
       inkscape:vp_z="580 : 290 : 1"
       inkscape:persp3d-origin="290 : 193.33333 : 1"
       id="perspective2441" />
  </defs>
  <path
     sodipodi:type="inkscape:offset"
     inkscape:radius="3.8894105"
     inkscape:original="M 479.92188 7.3691406 A 30.459844 30.459844 0 0 0 452.00195 26.46875 L 440.28125 55.658203 L 408.89648 57.789062 A 30.459844 30.459844 0 0 0 391.43359 111.54883 L 415.56836 131.71289 L 410.81445 150.61133 C 379.56233 117.10466 336.31188 93.226535 287.79883 84.146484 A 30.459844 30.459844 0 0 0 259.98438 134.92383 C 271.36441 147.05169 279.96163 158.14524 286.79883 169.27344 C 280.47501 170.49623 274.40555 172.83475 268.82422 176.09961 C 256.37301 145.97943 239.69384 117.61679 217.66797 94.634766 A 30.459844 30.459844 0 0 0 188.93164 86.009766 C 95.790682 107.17464 23.972655 183.4259 23.972656 276.54102 C 23.972656 277.70457 23.990448 278.69313 24.003906 279.50781 A 30.459844 30.459844 0 0 0 24.035156 280.46484 C 23.929591 278.26605 23.983326 279.46436 24.041016 280.63086 C 24.36529 286.95719 25.455619 292.99217 27.080078 298.80078 A 30.459844 30.459844 0 0 0 23.972656 312.15234 L 23.972656 313.1875 L 23.972656 438.50977 L 23.972656 444.02148 A 30.459844 30.459844 0 0 0 25.46875 453.39062 C 33.433993 497.20466 73.023204 526.24901 120.19336 543.97461 A 30.459844 30.459844 0 0 0 150.4082 538.80664 A 30.459844 30.459844 0 0 0 173.57031 558.51367 C 195.38099 562.50027 218.66038 564.63867 242.86133 564.63867 C 297.10243 564.63867 346.62627 554.18913 385.66797 535.39453 C 422.85693 517.49183 453.58454 490.59826 460.3418 453.07227 A 30.459844 30.459844 0 0 0 461.75195 444.02148 L 461.75195 438.50977 L 461.75195 313.1875 L 461.75195 312.15234 A 30.459844 30.459844 0 0 0 458.64062 298.83203 C 460.26793 293.01764 461.36003 286.97508 461.68359 280.64062 A 30.459844 30.459844 0 0 0 461.7168 279.64453 C 461.73722 278.527 461.73641 278.4872 461.71875 279.54102 C 461.732 278.74893 461.75195 277.74976 461.75195 276.54102 C 461.75195 248.96547 455.29011 222.9603 444.01367 199.34375 A 30.459844 30.459844 0 0 0 453.62695 195.43945 L 480.26562 178.71484 L 506.90039 195.43945 A 30.459844 30.459844 0 0 0 552.63281 162.21484 L 544.96094 131.71289 L 569.0957 111.54883 A 30.459844 30.459844 0 0 0 551.63281 57.789062 L 520.24805 55.658203 L 508.5293 26.470703 A 30.459844 30.459844 0 0 0 479.92188 7.3691406 z "
     style="color:#000000;display:inline;overflow:visible;visibility:visible;fill:#ffffff;fill-opacity:1;fill-rule:nonzero;stroke:none;stroke-width:35.38999557;marker:none;enable-background:accumulate"
     id="path3988-3"
     d="m 479.87891,3.4804688 c -13.4802,0.1517894 -26.45932,9.0283922 -31.48633,21.5371092 a 3.8897994,3.8897994 0 0 0 0,0.002 l -10.81055,26.923828 -28.94922,1.964844 c -13.578,0.92589 -26.12748,10.714433 -30.33203,23.658203 -4.20455,12.94377 0.19668,28.238444 10.63867,36.966794 l 22.26172,18.59961 -2.5,9.93555 C 377.3074,111.56269 335.38269,89.096561 288.51367,80.324219 c -7.05921,-1.319318 -14.52768,-0.35212 -21.01758,2.722656 -6.48989,3.074776 -11.96787,8.240661 -15.41797,14.539063 -3.45009,6.298402 -4.85422,13.697832 -3.95117,20.822262 0.90305,7.12443 4.1071,13.93736 9.01953,19.17578 a 3.8897994,3.8897994 0 0 0 0.002,0.002 c 9.75647,10.39761 17.29877,19.95726 23.51172,29.41211 -3.43059,1.01034 -6.74214,2.30211 -9.94336,3.89453 C 258.30363,141.83533 242.00031,114.40146 220.47656,91.943359 212.31636,83.430523 199.56961,79.604618 188.07031,82.216797 93.382283,103.73322 20.083983,181.42601 20.083984,276.54102 c 0,0.92798 0.01229,1.64074 0.02344,2.33789 -9e-6,0 -0.0059,0 -0.0059,0 -3e-6,4e-5 -0.01562,0.31825 -0.01562,0.31836 -3e-6,2e-4 -4.02e-4,0.10385 0,0.12304 8.02e-4,0.0384 0.0016,0.0461 0.002,0.0566 0.0015,0.0421 0.0028,0.053 0.0039,0.0781 0.0088,0.20135 0.03531,0.77781 0.06445,1.36719 a 3.8897994,3.8897994 0 0 0 0,0.008 c 0.317681,6.1977 1.386894,12.09266 2.894531,17.76758 -1.851441,4.2789 -2.95887,8.88616 -2.966797,13.54882 a 3.8897994,3.8897994 0 0 0 0,0.006 v 1.03516 125.32227 5.51171 a 3.8897994,3.8897994 0 0 0 0,0.008 c 0.007,3.58101 0.577019,7.15932 1.685547,10.56445 l -0.126953,-0.50781 c 8.316797,45.74781 49.37463,75.56364 97.183592,93.52929 a 3.8897994,3.8897994 0 0 0 0.004,0.002 c 9.74325,3.64375 21.10017,2.40792 29.98437,-2.95117 4.8961,9.02935 13.92427,15.80512 24.05078,17.67187 a 3.8897994,3.8897994 0 0 0 0.006,0.002 c 22.05022,4.03039 45.56018,6.1875 69.99024,6.1875 54.74063,0 104.80186,-10.52111 144.49414,-29.6289 37.80617,-18.19983 69.75018,-45.90575 76.81445,-85.13672 l -0.11914,0.48047 c 1.03954,-3.29628 1.57731,-6.75074 1.58984,-10.20703 a 3.8897994,3.8897994 0 0 0 0,-0.0137 v -5.51171 -125.32227 -1.03516 a 3.8897994,3.8897994 0 0 0 0,-0.0117 c -0.0139,-4.65137 -1.12241,-9.24569 -2.9707,-13.51367 1.50998,-5.68024 2.58149,-11.58203 2.89844,-17.78711 a 3.8897994,3.8897994 0 0 0 0,-0.006 c 0.0185,-0.37288 0.0307,-0.74584 0.0371,-1.11914 v -0.004 c 0.001,-0.0646 9.7e-4,-0.0556 0.002,-0.10547 9e-5,-0.005 -9e-5,-0.005 0,-0.01 0.007,-0.34637 0.0111,-0.4522 0.0137,-0.75 0,0 -0.006,0 -0.006,0 0.0114,-0.67973 0.0254,-1.36344 0.0254,-2.30468 0,-26.61196 -5.95274,-51.77727 -16.29687,-74.79102 2.2026,-0.80938 4.34785,-1.76936 6.33984,-3.00977 a 3.8897994,3.8897994 0 0 0 0.0117,-0.006 l 24.57031,-15.42774 24.56641,15.42578 a 3.8897994,3.8897994 0 0 0 0,0.002 c 11.52854,7.23493 27.4377,6.69518 38.44922,-1.30469 11.01152,-7.99987 16.44063,-22.96192 13.12305,-36.16211 a 3.8897994,3.8897994 0 0 0 0,-0.002 l -7.07618,-28.13281 22.26172,-18.59961 c 10.442,-8.72835 14.84323,-24.023024 10.63868,-36.966794 -4.20455,-12.94377 -16.75403,-22.732313 -30.33204,-23.658203 L 522.94727,51.943359 512.13867,25.021484 C 507.01599,12.272158 493.61801,3.3254126 479.87891,3.4804688 Z"
     transform="matrix(0.9834796,0,0,0.9834796,4.9891043,4.7248837)" />
</svg>
