<?xml version="1.0" encoding="UTF-8" standalone="no"?>
<!-- Created with Inkscape (http://www.inkscape.org/) -->

<svg
   xmlns:dc="http://purl.org/dc/elements/1.1/"
   xmlns:cc="http://creativecommons.org/ns#"
   xmlns:rdf="http://www.w3.org/1999/02/22-rdf-syntax-ns#"
   xmlns:svg="http://www.w3.org/2000/svg"
   xmlns="http://www.w3.org/2000/svg"
   xmlns:sodipodi="http://sodipodi.sourceforge.net/DTD/sodipodi-0.dtd"
   xmlns:inkscape="http://www.inkscape.org/namespaces/inkscape"
   version="1.0"
   width="580"
   height="580"
   id="svg2"
   sodipodi:version="0.32"
   inkscape:version="0.92.3 (2405546, 2018-03-11)"
   sodipodi:docname="place_of_worship_christian_cluster_m.svg"
   inkscape:output_extension="org.inkscape.output.svg.inkscape">
  <metadata
     id="metadata2975">
    <rdf:RDF>
      <cc:Work
         rdf:about="">
        <dc:format>image/svg+xml</dc:format>
        <dc:type
           rdf:resource="http://purl.org/dc/dcmitype/StillImage" />
        <cc:license
           rdf:resource="http://web.resource.org/cc/PublicDomain" />
        <dc:language>en</dc:language>
        <dc:title></dc:title>
      </cc:Work>
    </rdf:RDF>
  </metadata>
  <sodipodi:namedview
     inkscape:window-height="1006"
     inkscape:window-width="1920"
     inkscape:pageshadow="2"
     inkscape:pageopacity="0.0"
     guidetolerance="10.0"
     gridtolerance="10.0"
     objecttolerance="10.0"
     borderopacity="1.0"
     bordercolor="#666666"
     pagecolor="#ffffff"
     id="base"
     inkscape:zoom="0.92167712"
     inkscape:cx="401.99563"
     inkscape:cy="405.87447"
     inkscape:window-x="1920"
     inkscape:window-y="0"
     inkscape:current-layer="svg2"
     showgrid="false"
     inkscape:window-maximized="1"
     inkscape:snap-global="false" />
  <defs
     id="defs4">
    <inkscape:perspective
       sodipodi:type="inkscape:persp3d"
       inkscape:vp_x="0 : 290 : 1"
       inkscape:vp_y="0 : 1000 : 0"
       inkscape:vp_z="580 : 290 : 1"
       inkscape:persp3d-origin="290 : 193.33333 : 1"
       id="perspective2441" />
  </defs>
  <path
     style="color:#000000;display:inline;overflow:visible;visibility:visible;fill:#fffdfd;fill-opacity:1;fill-rule:nonzero;stroke:none;stroke-width:21.51408958;stroke-linejoin:bevel;stroke-miterlimit:4;stroke-dasharray:none;stroke-opacity:1;marker:none;enable-background:accumulate"
     d="m 318.88281,1.7148438 c -5.30412,4.856e-4 -10.49595,1.5281304 -14.95508,4.4003906 l -0.11523,0.074219 C 294.23417,12.359035 289.42667,23.776653 291.70703,34.939453 l 5.06836,24.802735 h -67.2832 c -5.25277,2.57e-4 -10.39657,1.498273 -14.82813,4.318359 l -0.1289,0.08203 c -9.65785,6.146614 -14.52327,17.613703 -12.23243,28.830078 l 7.0625,34.560545 -10.40039,-2.84961 c -11.99065,-3.28478 -24.69823,1.8459 -31.04687,12.53516 l -0.0742,0.125 c -2.53378,4.26739 -3.871,9.13863 -3.87109,14.10156 v 64.45508 l -69.230472,-18.9707 c -12.067859,-3.306 -24.850789,1.91311 -31.15625,12.7207 l -0.08203,0.14063 c -2.463571,4.22393 -3.761686,9.02614 -3.761718,13.91601 v 132.58594 c 3.2e-5,4.88986 1.298147,9.69208 3.761718,13.91601 l 0.08203,0.14063 c 6.17414,10.58364 18.582691,15.83491 30.478515,12.89844 L 231.18945,349.38477 202.33398,486.88086 c -2.33976,11.15083 2.40728,22.59414 11.95313,28.81445 l 0.12891,0.084 c 4.48524,2.9222 9.72298,4.47812 15.07617,4.47851 h 121.01562 c 5.35319,-3.9e-4 10.59093,-1.55631 15.07617,-4.47851 l 0.12891,-0.084 c 9.92083,-6.46475 14.61741,-18.53382 11.67578,-30.0039 l -16.875,-65.77344 h 66.75195 c 5.30393,10e-5 10.49574,-1.52687 14.95508,-4.39844 l 0.11524,-0.0742 c 9.99977,-6.44181 14.75246,-18.56197 11.79687,-30.08398 l -2.625,-10.23438 34.70703,8.1875 c 11.82205,2.78837 24.07834,-2.47338 30.19922,-12.96484 l 0.082,-0.14063 c 2.46357,-4.22393 3.76169,-9.02615 3.76172,-13.91601 v -65.67774 l 27.88281,6.57813 c 11.7446,2.77004 23.928,-2.40431 30.08985,-12.7793 l 0.0742,-0.125 c 2.53378,-4.26739 3.871,-9.13863 3.87109,-14.10156 V 151.44531 c -9e-5,-4.96293 -1.33731,-9.83417 -3.87109,-14.10156 l -0.0742,-0.125 c -6.28876,-10.58881 -18.82788,-15.73512 -30.74216,-12.61719 L 423.99023,156.92773 454.17578,36.103516 C 457.0435,24.624936 452.28229,12.594664 442.33594,6.1875 L 442.2207,6.1132812 C 437.76136,3.2417093 432.56955,1.714747 427.26562,1.7148438 Z"
     id="rect2987"
     inkscape:connector-curvature="0"
     sodipodi:nodetypes="ccccccccccccccccccccccccccccccccccccccccccccccccccccccccc" />
</svg>
