<?xml version="1.0" encoding="UTF-8" standalone="no"?>
<!-- Created with Inkscape (http://www.inkscape.org/) -->

<svg
   xmlns:dc="http://purl.org/dc/elements/1.1/"
   xmlns:cc="http://creativecommons.org/ns#"
   xmlns:rdf="http://www.w3.org/1999/02/22-rdf-syntax-ns#"
   xmlns:svg="http://www.w3.org/2000/svg"
   xmlns="http://www.w3.org/2000/svg"
   xmlns:sodipodi="http://sodipodi.sourceforge.net/DTD/sodipodi-0.dtd"
   xmlns:inkscape="http://www.inkscape.org/namespaces/inkscape"
   version="1.0"
   width="580"
   height="580"
   id="svg2"
   sodipodi:version="0.32"
   inkscape:version="0.92.3 (2405546, 2018-03-11)"
   sodipodi:docname="place_of_worship_unknown_cluster.svg"
   inkscape:output_extension="org.inkscape.output.svg.inkscape">
  <metadata
     id="metadata2975">
    <rdf:RDF>
      <cc:Work
         rdf:about="">
        <dc:format>image/svg+xml</dc:format>
        <dc:type
           rdf:resource="http://purl.org/dc/dcmitype/StillImage" />
        <cc:license
           rdf:resource="http://web.resource.org/cc/PublicDomain" />
        <dc:language>en</dc:language>
        <dc:title></dc:title>
      </cc:Work>
    </rdf:RDF>
  </metadata>
  <sodipodi:namedview
     inkscape:window-height="1006"
     inkscape:window-width="1920"
     inkscape:pageshadow="2"
     inkscape:pageopacity="0.0"
     guidetolerance="10.0"
     gridtolerance="10.0"
     objecttolerance="10.0"
     borderopacity="1.0"
     bordercolor="#666666"
     pagecolor="#ffffff"
     id="base"
     inkscape:zoom="0.32586207"
     inkscape:cx="-399.42255"
     inkscape:cy="437.30058"
     inkscape:window-x="1920"
     inkscape:window-y="0"
     inkscape:current-layer="svg2"
     showgrid="false"
     inkscape:window-maximized="1"
     showguides="false" />
  <defs
     id="defs4">
    <inkscape:perspective
       sodipodi:type="inkscape:persp3d"
       inkscape:vp_x="0 : 290 : 1"
       inkscape:vp_y="0 : 1000 : 0"
       inkscape:vp_z="580 : 290 : 1"
       inkscape:persp3d-origin="290 : 193.33333 : 1"
       id="perspective2441" />
  </defs>
  <path
     inkscape:connector-curvature="0"
     style="color:#000000;font-style:normal;font-variant:normal;font-weight:normal;font-stretch:normal;font-size:medium;line-height:normal;font-family:sans-serif;font-variant-ligatures:normal;font-variant-position:normal;font-variant-caps:normal;font-variant-numeric:normal;font-variant-alternates:normal;font-feature-settings:normal;text-indent:0;text-align:start;text-decoration:none;text-decoration-line:none;text-decoration-style:solid;text-decoration-color:#000000;letter-spacing:normal;word-spacing:normal;text-transform:none;writing-mode:lr-tb;direction:ltr;text-orientation:mixed;dominant-baseline:auto;baseline-shift:baseline;text-anchor:start;white-space:normal;shape-padding:0;clip-rule:nonzero;display:inline;overflow:visible;visibility:visible;opacity:1;isolation:auto;mix-blend-mode:normal;color-interpolation:sRGB;color-interpolation-filters:linearRGB;solid-color:#000000;solid-opacity:1;vector-effect:none;fill:#000000;fill-opacity:1;fill-rule:nonzero;stroke:none;stroke-width:120.97924042;stroke-linecap:round;stroke-linejoin:round;stroke-miterlimit:4;stroke-dasharray:none;stroke-dashoffset:0;stroke-opacity:1;color-rendering:auto;image-rendering:auto;shape-rendering:auto;text-rendering:auto;enable-background:accumulate"
     d="m 265.41697,106.1603 c -1.05036,0.0168 -2.11772,0.11917 -3.18218,0.2026 -43.95301,2.41541 -60.82588,61.76293 -25.34392,87.15367 34.05508,26.11254 85.02036,-5.34343 76.41425,-47.76764 -4.30893,-23.53457 -24.14696,-39.96928 -47.88815,-39.58863 z m -131.08068,54.50052 a 23.767549,23.767549 0 0 0 -17.65918,39.30569 l 61.57571,73.31765 a 23.767549,23.767549 0 0 0 18.91319,8.46893 23.767549,23.767549 0 0 0 0.77546,-0.035 l 59.24061,-3.72186 26.73591,104.79015 a 54.096689,54.096689 0 0 0 1.03394,3.52974 l -72.30815,65.23994 a 32.880875,32.880875 0 0 0 -9.78233,36.22481 30.110421,30.110421 0 0 0 30.86121,30.83153 l 145.32191,-1.57188 a 30.110421,30.110421 0 1 0 -0.65145,-60.21168 l -63.51962,0.68813 63.94402,-47.39737 a 32.880875,32.880875 0 0 0 11.707,-37.87354 54.096689,54.096689 0 0 0 -1.78321,-16.20607 L 361.39936,248.87111 a 54.096689,54.096689 0 0 0 -50.70181,-41.43296 54.096689,54.096689 0 0 0 -40.27502,16.00521 l -64.26013,9.16579 -53.08758,-63.21047 a 23.767549,23.767549 0 0 0 -18.73853,-8.73789 z"
     id="path4817" />
  <path
     style="color:#000000;font-style:normal;font-variant:normal;font-weight:normal;font-stretch:normal;font-size:medium;line-height:normal;font-family:sans-serif;font-variant-ligatures:normal;font-variant-position:normal;font-variant-caps:normal;font-variant-numeric:normal;font-variant-alternates:normal;font-feature-settings:normal;text-indent:0;text-align:start;text-decoration:none;text-decoration-line:none;text-decoration-style:solid;text-decoration-color:#000000;letter-spacing:normal;word-spacing:normal;text-transform:none;writing-mode:lr-tb;direction:ltr;text-orientation:mixed;dominant-baseline:auto;baseline-shift:baseline;text-anchor:start;white-space:normal;shape-padding:0;clip-rule:nonzero;display:inline;overflow:visible;visibility:visible;opacity:1;isolation:auto;mix-blend-mode:normal;color-interpolation:sRGB;color-interpolation-filters:linearRGB;solid-color:#000000;solid-opacity:1;vector-effect:none;fill:#000000;fill-opacity:1;fill-rule:nonzero;stroke:none;stroke-width:120.97924042;stroke-linecap:round;stroke-linejoin:round;stroke-miterlimit:4;stroke-dasharray:none;stroke-dashoffset:0;stroke-opacity:1;color-rendering:auto;image-rendering:auto;shape-rendering:auto;text-rendering:auto;enable-background:accumulate"
     d="M 357.83008 63.833984 C 356.87121 63.849324 355.89752 63.943368 354.92578 64.019531 C 338.85889 64.902477 326.76132 74.121172 320.10352 86.34375 C 336.09272 99.147839 347.69598 117.4286 351.62109 138.38281 C 352.53962 143.02166 353.0427 147.59152 353.17969 152.07422 C 380.29688 154.66569 407.72241 130.41716 401.54688 99.974609 C 397.61328 78.490011 379.5033 63.48649 357.83008 63.833984 z M 399.16602 156.28906 A 49.384613 49.384613 0 0 0 362.40039 170.90039 L 351.16797 172.50195 C 350.70698 174.49203 350.18034 176.45751 349.57422 178.39062 C 373.78411 190.70299 392.9882 213.25489 399.35156 239.75781 L 399.21875 239.2207 L 426.5625 346.38867 L 426.45508 345.97266 C 428.11137 352.17724 429.10392 358.55267 429.44922 364.96484 L 461.35352 341.31641 A 30.016796 30.016796 0 0 0 472.04102 306.74219 A 49.384613 49.384613 0 0 0 470.41211 291.94727 L 445.45117 194.11328 A 49.384613 49.384613 0 0 0 399.16602 156.28906 z M 460.96484 383.95703 L 431.10547 384.28125 C 430.61926 400.32903 424.81442 416.26871 414.80859 428.85547 C 419.43982 431.84452 423.74798 435.36102 427.63281 439.29102 L 461.56055 438.92383 A 27.487662 27.487662 0 1 0 460.96484 383.95703 z "
     id="path4817-3" />
</svg>
