<?xml version="1.0" encoding="UTF-8" standalone="no"?>
<!-- Created with Inkscape (http://www.inkscape.org/) -->

<svg
   xmlns:dc="http://purl.org/dc/elements/1.1/"
   xmlns:cc="http://creativecommons.org/ns#"
   xmlns:rdf="http://www.w3.org/1999/02/22-rdf-syntax-ns#"
   xmlns:svg="http://www.w3.org/2000/svg"
   xmlns="http://www.w3.org/2000/svg"
   xmlns:sodipodi="http://sodipodi.sourceforge.net/DTD/sodipodi-0.dtd"
   xmlns:inkscape="http://www.inkscape.org/namespaces/inkscape"
   version="1.0"
   width="580"
   height="580"
   id="svg2"
   sodipodi:version="0.32"
   inkscape:version="0.92.3 (2405546, 2018-03-11)"
   sodipodi:docname="place_of_worship_jewish.svg"
   inkscape:output_extension="org.inkscape.output.svg.inkscape">
  <metadata
     id="metadata2975">
    <rdf:RDF>
      <cc:Work
         rdf:about="">
        <dc:format>image/svg+xml</dc:format>
        <dc:type
           rdf:resource="http://purl.org/dc/dcmitype/StillImage" />
        <cc:license
           rdf:resource="http://web.resource.org/cc/PublicDomain" />
        <dc:language>en</dc:language>
        <dc:title />
      </cc:Work>
    </rdf:RDF>
  </metadata>
  <sodipodi:namedview
     inkscape:window-height="1006"
     inkscape:window-width="1920"
     inkscape:pageshadow="2"
     inkscape:pageopacity="0.0"
     guidetolerance="10.0"
     gridtolerance="10.0"
     objecttolerance="10.0"
     borderopacity="1.0"
     bordercolor="#666666"
     pagecolor="#ffffff"
     id="base"
     inkscape:zoom="0.65172414"
     inkscape:cx="42.952406"
     inkscape:cy="287.27215"
     inkscape:window-x="1920"
     inkscape:window-y="0"
     inkscape:current-layer="svg2"
     showgrid="false"
     inkscape:window-maximized="1" />
  <defs
     id="defs4">
    <inkscape:perspective
       sodipodi:type="inkscape:persp3d"
       inkscape:vp_x="0 : 290 : 1"
       inkscape:vp_y="0 : 1000 : 0"
       inkscape:vp_z="580 : 290 : 1"
       inkscape:persp3d-origin="290 : 193.33333 : 1"
       id="perspective2441" />
  </defs>
  <path
     inkscape:connector-curvature="0"
     style="fill:#000000;fill-opacity:1;stroke-width:1"
     d="m 253.52266,467.19 -33.00262,-57.26237 -64.93351,-0.0289 c -40.46631,-0.019 -65.760242,-1.36836 -67.128516,-3.58234 -1.207651,-1.95442 12.161706,-28.51407 29.709686,-59.02324 21.75906,-37.83033 31.16577,-57.4143 29.57855,-61.58541 -1.27884,-3.36348 -15.5223,-28.92376 -31.65145,-56.80021 -16.128874,-27.87647 -29.325218,-52.49887 -29.325218,-54.71557 0,-2.91941 18.450388,-4.03273 66.875188,-4.03636 l 66.87527,-0.005 32.91128,-57.31645 c 18.10165,-31.524188 34.01917,-57.316716 35.37216,-57.316716 3.71167,0 12.97911,14.372975 43.12019,66.875186 l 27.42335,47.76792 h 66.9422 c 51.31862,0 66.90602,1.01294 66.78936,4.34205 -0.0832,2.38853 -14.67486,29.30722 -32.42471,59.82002 l -32.27367,55.47707 32.42562,56.17346 c 17.83394,30.89625 32.42469,57.91172 32.42469,60.03436 0,2.69784 -20.16278,3.8609 -66.94129,3.8609 h -66.9422 l -27.42335,47.76792 c -29.99276,52.24382 -39.42118,66.89066 -43.02885,66.84543 -1.30234,-0.0163 -17.21986,-25.79813 -35.37216,-57.2922 z m 48.38202,-34.29502 c 5.8723,-10.26318 10.67649,-19.64366 10.67649,-20.8438 0,-1.20015 -10.16098,-2.18233 -22.58117,-2.18233 -12.41928,0 -22.58117,0.98218 -22.58117,2.18233 0,2.82536 20.96681,39.50619 22.58117,39.50619 0.67469,0 6.03238,-8.3983 11.90468,-18.66239 z M 186.78395,350.85104 c -6.2847,-11.44162 -12.20855,-20.80311 -13.1636,-20.80311 -0.95506,0 -6.8789,9.36149 -13.16361,20.80311 l -11.42715,20.80311 h 24.59076 24.59075 z m 163.43853,-2.64629 c 7.49661,-12.89771 18.04378,-31.40816 23.43945,-41.13412 l 9.80916,-17.68472 -22.50429,-39.63733 -22.5052,-39.63643 H 290.15465 241.8477 l -21.95441,37.80681 c -12.0747,20.79317 -21.95442,39.45374 -21.95442,41.46695 0,3.59952 36.01881,69.44198 42.6291,77.92619 2.40572,3.08764 16.76857,4.34205 49.70426,4.34205 h 46.32088 z m 69.32169,2.64629 c -6.28471,-11.44162 -12.20855,-20.80311 -13.1645,-20.80311 -0.95506,0 -6.87891,9.36149 -13.16362,20.80311 l -11.42624,20.80311 h 24.58986 24.59074 z M 186.55514,229.16162 197.75347,208.37479 h -24.36193 -24.36195 l 11.42715,20.80311 c 6.28471,11.44162 12.20855,20.79588 13.16361,20.78593 0.95505,-0.009 6.77579,-9.36964 12.93479,-20.80221 z m 232.76022,0 11.19743,-20.78683 h -24.36195 -24.36103 l 11.42624,20.80311 c 6.28471,11.44162 12.20856,20.79588 13.16362,20.78593 0.95595,-0.009 6.77669,-9.36964 12.93569,-20.80221 z M 312.58117,167.97776 c 0,-2.82445 -20.9659,-39.50529 -22.58117,-39.50529 -1.61436,0 -22.58117,36.68084 -22.58117,39.50529 0,1.20105 10.16189,2.18323 22.58117,2.18323 12.42019,0 22.58117,-0.98218 22.58117,-2.18323 z"
     id="path2-3" />
</svg>
