<?xml version="1.0" encoding="UTF-8" standalone="no"?>
<!-- Created with Inkscape (http://www.inkscape.org/) -->

<svg
   xmlns:dc="http://purl.org/dc/elements/1.1/"
   xmlns:cc="http://creativecommons.org/ns#"
   xmlns:rdf="http://www.w3.org/1999/02/22-rdf-syntax-ns#"
   xmlns:svg="http://www.w3.org/2000/svg"
   xmlns="http://www.w3.org/2000/svg"
   xmlns:sodipodi="http://sodipodi.sourceforge.net/DTD/sodipodi-0.dtd"
   xmlns:inkscape="http://www.inkscape.org/namespaces/inkscape"
   version="1.0"
   width="580"
   height="580"
   id="svg2"
   sodipodi:version="0.32"
   inkscape:version="0.92.3 (2405546, 2018-03-11)"
   sodipodi:docname="place_of_worship_muslim_m.svg"
   inkscape:output_extension="org.inkscape.output.svg.inkscape">
  <metadata
     id="metadata2975">
    <rdf:RDF>
      <cc:Work
         rdf:about="">
        <dc:format>image/svg+xml</dc:format>
        <dc:type
           rdf:resource="http://purl.org/dc/dcmitype/StillImage" />
        <cc:license
           rdf:resource="http://web.resource.org/cc/PublicDomain" />
        <dc:language>en</dc:language>
        <dc:title />
      </cc:Work>
    </rdf:RDF>
  </metadata>
  <sodipodi:namedview
     inkscape:window-height="1006"
     inkscape:window-width="1920"
     inkscape:pageshadow="2"
     inkscape:pageopacity="0.0"
     guidetolerance="10.0"
     gridtolerance="10.0"
     objecttolerance="10.0"
     borderopacity="1.0"
     bordercolor="#666666"
     pagecolor="#ffffff"
     id="base"
     inkscape:zoom="0.92167712"
     inkscape:cx="-191.49022"
     inkscape:cy="248.65762"
     inkscape:window-x="1920"
     inkscape:window-y="0"
     inkscape:current-layer="svg2"
     showgrid="false"
     inkscape:window-maximized="1" />
  <defs
     id="defs4">
    <inkscape:perspective
       sodipodi:type="inkscape:persp3d"
       inkscape:vp_x="0 : 290 : 1"
       inkscape:vp_y="0 : 1000 : 0"
       inkscape:vp_z="580 : 290 : 1"
       inkscape:persp3d-origin="290 : 193.33333 : 1"
       id="perspective2441" />
  </defs>
  <path
     sodipodi:type="inkscape:offset"
     inkscape:radius="29.702301"
     inkscape:original="M 294.81836 69.806641 C 269.5063 69.806641 225.71683 77.925895 206.00391 86.275391 C 151.74145 109.25855 102.53287 162.18715 83.078125 218.49219 C 75.958978 239.09596 71.900545 258.49058 71.636719 288.72266 C 71.366491 318.93338 75.958978 341.36888 83.078125 361.97266 C 103.48443 421.03167 158.16969 477.08602 214.80078 496.99023 C 225.85064 500.87397 241.46622 505.35924 249.50195 506.95703 C 288.79678 514.77006 343.60737 508.07068 381.19336 490.86328 C 406.64852 479.20948 424.00751 466.85753 420.14844 463.14258 C 418.49117 461.5472 400.05685 463.67393 379.18164 467.86914 C 346.84199 474.36833 337.80412 474.91072 318.09766 471.53516 C 254.59898 460.65829 197.10523 411.32108 174.4082 348.23242 C 163.44506 317.75949 163.48821 262.60638 174.49805 231.9375 C 197.83686 166.92484 256.23409 118.0047 321.14844 109.08594 C 343.69331 105.98843 353.36568 106.55102 382.52344 112.66016 C 418.95771 120.29388 425.83502 119.99275 418.44141 111.08398 C 403.97909 93.658034 332.54516 69.806641 294.81836 69.806641 z M 422.02539 202.63477 C 421.7204 202.61867 421.40927 202.64957 421.09766 202.73828 C 413.33058 208.33072 411.83558 219.28969 407.73242 227.47656 C 403.99894 237.70537 400.53616 248.05403 396.89062 258.32422 C 377.2428 259.99838 356.42383 257.41813 337.54102 263.54688 C 332.77355 269.17332 342.49089 273.57203 345.68555 277.2207 C 357.71997 287.09205 370.8284 295.48666 382.99414 305.23633 C 377.81907 324.11158 368.27355 342.3839 367.19336 362.0625 C 370.44069 370.79517 380.36454 363.6393 384.9082 360.19141 C 397.31965 351.99759 408.92579 341.25706 422.29297 335.1543 C 439.38443 344.29306 453.90808 358.21958 470.97461 367.63867 C 478.59978 367.85747 476.39246 357.10231 475.49023 352.23633 C 472.67427 336.57698 464.84498 321.3286 462.30078 306.07617 C 476.32442 291.64659 494.95141 282.58998 508.32812 267.5293 C 509.18633 259.9709 498.08775 261.79698 493.28125 260.625 C 477.90127 259.63831 462.47593 260.27543 447.07617 260.09375 C 439.78122 241.28332 436.45159 220.15573 424.50586 203.71094 C 423.80583 203.14869 422.94035 202.68302 422.02539 202.63477 z "
     style="vector-effect:none;fill:#ffffff;fill-opacity:1;stroke:none;stroke-width:21.51408958;stroke-linecap:butt;stroke-linejoin:bevel;stroke-miterlimit:4;stroke-dasharray:none;stroke-dashoffset:0;stroke-opacity:1;marker:none"
     id="path6579-5"
     d="m 294.81836,40.103516 c -31.66372,0 -72.50733,7.008862 -100.39844,18.822265 -63.4041,26.855151 -116.788739,84.380359 -139.416014,149.867189 -7.859345,22.74651 -12.781744,46.88893 -13.068359,79.66406 -1.2e-5,0.001 1.2e-5,0.003 0,0.004 -6e-6,6.9e-4 6e-6,0.001 0,0.002 -0.297629,33.34921 5.063783,60.04461 13.068359,83.21094 23.861351,69.05663 82.502024,129.63281 149.947264,153.33789 12.55943,4.41431 27.51287,8.84223 38.75781,11.07812 47.66154,9.47659 104.97746,2.32151 149.84766,-18.2207 14.01539,-6.41648 25.83144,-12.88481 35.32813,-19.64258 4.74834,-3.37888 8.86946,-6.35152 13.625,-12.32617 2.37776,-2.98732 5.42258,-6.73032 7.14648,-14.69141 1.7239,-7.96108 -1.45572,-22.29067 -8.9082,-29.46484 -11.30524,-10.88305 -15.35498,-8.14078 -18.36133,-8.50976 -3.00635,-0.36899 -4.95461,-0.3495 -6.92969,-0.31446 -3.95016,0.0701 -7.69377,0.41251 -11.99023,0.9082 -8.59294,0.9914 -18.99388,2.68255 -30.13672,4.92188 -31.60461,6.35147 -32.52176,6.54079 -50.2168,3.50977 -51.70714,-8.85707 -101.79776,-51.38611 -120.75586,-104.08204 -7.09012,-19.70756 -7.09626,-76.17121 0.0957,-96.20507 19.61617,-54.64286 69.95405,-96.20877 122.73829,-103.46094 20.92948,-2.87557 23.01463,-2.69509 51.24023,3.21875 18.66099,3.90985 27.91843,6.62791 41.78711,6.01953 3.46717,-0.1521 7.62455,-0.22045 14.27539,-3.32422 6.65084,-3.10377 16.36774,-13.30392 17.95117,-23.85742 1.58343,-10.5535 -1.67745,-16.66852 -3.68554,-20.45703 -2.0081,-3.78851 -3.78985,-5.980194 -5.46289,-7.996096 C 432.13376,81.074408 422.73557,76.308422 411.67383,70.746094 400.61208,65.183765 388.04408,60.171256 374.76172,55.736328 348.19699,46.866473 319.94116,40.103516 294.81836,40.103516 Z M 423.58984,172.97461 c -3.36421,-0.17739 -7.05345,0.18051 -10.625,1.19727 a 29.705271,29.705271 0 0 0 -9.22265,4.46289 c -21.23248,15.28777 -21.92376,34.25485 -22.56446,35.5332 a 29.705271,29.705271 0 0 0 -1.34765,3.125 c -1.48794,4.07659 -2.76074,7.83185 -4.15039,11.81055 -13.38129,-0.0122 -29.35294,0.36358 -47.3086,6.1914 a 29.705271,29.705271 0 0 0 -13.49218,9.05078 c -5.6431,6.65983 -9.74551,19.98706 -7.46875,29.86719 2.27675,9.88014 7.04355,14.70682 10.09179,17.79102 6.09649,6.16839 10.174,9.73777 5.83594,4.7832 a 29.705271,29.705271 0 0 0 3.50977,3.39844 c 7.28996,5.97966 14.33153,11.11701 20.97656,15.91015 -4.46469,12.06636 -9.30646,26.43712 -10.28906,44.33789 a 29.705271,29.705271 0 0 0 1.81836,11.98047 c 2.99629,8.0576 11.4034,18.06572 21.64648,21.60156 10.24308,3.53585 18.44204,1.6598 23.78711,-0.0859 10.67626,-3.48693 15.37422,-8.0254 18.06055,-10.06641 0.003,-0.003 0.0121,-0.009 0.0156,-0.0117 7.33154,-4.92561 13.74631,-9.64263 19.04883,-13.49218 9.44013,6.87656 20.42258,15.39739 34.71094,23.2832 a 29.705271,29.705271 0 0 0 13.5,3.68554 c 8.83903,0.25364 21.56556,-4.68391 28.0039,-12.65234 6.43835,-7.96843 7.45001,-15.22765 7.89063,-20.2207 0.88123,-9.9861 -0.94759,-15.61206 -1.32227,-17.63281 l 0.0274,0.15625 c -2.2098,-12.28855 -5.55873,-22.28661 -8.39063,-30.42969 9.73936,-7.02904 21.98105,-15.53424 34.20313,-29.29492 a 29.705271,29.705271 0 0 0 7.30468,-16.37305 c 1.00908,-8.88708 -3.2593,-22.49453 -10.77734,-29.37109 -7.51804,-6.87657 -14.15474,-8.14609 -18.4707,-8.98438 -8.63193,-1.67657 -14.43135,-2.25931 -8.27344,-0.75781 a 29.705271,29.705271 0 0 0 -5.13477,-0.7832 c -9.24132,-0.59287 -17.99452,-0.6764 -26.375,-0.64844 -3.84734,-13.09728 -8.95161,-28.49882 -20.27148,-44.08203 a 29.705271,29.705271 0 0 0 -5.43164,-5.70118 c -3.77595,-3.03276 -9.54755,-7.05203 -19.51367,-7.57812 z" />
</svg>
