<?xml version="1.0" encoding="UTF-8" standalone="no"?>
<!-- Created with Inkscape (http://www.inkscape.org/) -->

<svg
   xmlns:dc="http://purl.org/dc/elements/1.1/"
   xmlns:cc="http://creativecommons.org/ns#"
   xmlns:rdf="http://www.w3.org/1999/02/22-rdf-syntax-ns#"
   xmlns:svg="http://www.w3.org/2000/svg"
   xmlns="http://www.w3.org/2000/svg"
   xmlns:sodipodi="http://sodipodi.sourceforge.net/DTD/sodipodi-0.dtd"
   xmlns:inkscape="http://www.inkscape.org/namespaces/inkscape"
   version="1.0"
   width="580"
   height="580"
   id="svg2"
   sodipodi:version="0.32"
   inkscape:version="0.92.3 (2405546, 2018-03-11)"
   sodipodi:docname="place_of_worship_sikh.svg"
   inkscape:output_extension="org.inkscape.output.svg.inkscape">
  <metadata
     id="metadata2975">
    <rdf:RDF>
      <cc:Work
         rdf:about="">
        <dc:format>image/svg+xml</dc:format>
        <dc:type
           rdf:resource="http://purl.org/dc/dcmitype/StillImage" />
        <cc:license
           rdf:resource="http://web.resource.org/cc/PublicDomain" />
        <dc:language>en</dc:language>
        <dc:title />
      </cc:Work>
    </rdf:RDF>
  </metadata>
  <sodipodi:namedview
     inkscape:window-height="1006"
     inkscape:window-width="1920"
     inkscape:pageshadow="2"
     inkscape:pageopacity="0.0"
     guidetolerance="10.0"
     gridtolerance="10.0"
     objecttolerance="10.0"
     borderopacity="1.0"
     bordercolor="#666666"
     pagecolor="#ffffff"
     id="base"
     inkscape:zoom="0.92167712"
     inkscape:cx="158.86433"
     inkscape:cy="346.37252"
     inkscape:window-x="1920"
     inkscape:window-y="0"
     inkscape:current-layer="svg2"
     showgrid="false"
     inkscape:window-maximized="1" />
  <defs
     id="defs4">
    <inkscape:perspective
       sodipodi:type="inkscape:persp3d"
       inkscape:vp_x="0 : 290 : 1"
       inkscape:vp_y="0 : 1000 : 0"
       inkscape:vp_z="580 : 290 : 1"
       inkscape:persp3d-origin="290 : 193.33333 : 1"
       id="perspective2441" />
  </defs>
  <path
     inkscape:connector-curvature="0"
     style="fill:#1b1010;fill-opacity:1;stroke-width:0.99999988"
     d="m 287.54438,58.541332 c -10.75148,16.76188 -29.72745,26.579217 -40.15952,43.652978 0.062,9.24298 -0.0122,19.49639 -5.01924,27.41838 -9.50019,6.71393 -20.37849,12.02908 -27.94258,21.12063 -17.17981,16.12957 -32.52123,36.54 -34.11727,60.81327 -2.69328,22.05532 -0.49319,45.31966 11.29727,64.49009 12.06571,19.47948 27.00693,38.31359 47.91431,48.70809 7.87596,5.76888 10.12113,16.60679 7.07559,25.68707 -1.29169,4.40205 0.63692,9.35646 5.78766,9.75854 11.47952,4.7778 21.80452,13.15917 28.3531,23.8834 3.5547,6.50631 5.70406,16.39072 -0.35228,22.04688 -5.3095,3.86094 -10.92433,-2.34852 -15.72374,-4.14371 -14.84729,-9.64112 -28.37189,-20.91865 -42.20743,-31.92659 -28.44891,-23.52174 -60.15943,-54.56529 -71.14858,-90.60271 -11.03988,-31.35919 -14.13052,-71.77235 1.58571,-102.51247 7.08875,-14.77589 18.97784,-26.05907 29.94351,-38.01581 1.96241,-2.91214 -1.96242,-4.95441 -4.37481,-3.28791 -13.55842,4.10614 -24.54662,13.76415 -34.74668,23.15067 -25.16851,25.05204 -39.12176,65.30174 -36.82389,100.64494 1.22893,49.61557 28.5562,98.24006 58.32122,137.04121 11.65613,16.45085 24.49871,33.17599 29.63068,52.89408 -1.1301,3.77359 3.19585,5.39594 5.519,2.58337 16.44238,-8.511 26.6105,-25.78664 43.44744,-33.52452 7.42317,-2.07326 13.96424,2.56363 19.93321,6.13525 2.88961,1.12728 10.00372,3.80647 6.2818,7.80926 -7.41472,4.57303 -16.17279,6.82008 -23.1488,12.23763 -13.26157,8.83133 -25.36861,22.93273 -25.37706,39.60527 0.6698,8.8257 10.59084,15.81487 18.9055,11.71343 9.75102,-3.45794 15.04833,-15.29725 11.44853,-24.92333 0.23297,-9.81771 10.71014,-14.47152 18.4358,-17.9661 3.92296,-2.68482 11.63734,-4.12493 12.97598,2.08359 2.90747,9.96145 -0.27805,20.42547 -1.26255,30.32585 -1.41475,7.24187 -6.23483,13.20051 -8.71861,19.78573 -0.0639,8.55703 7.0878,15.12534 13.35739,19.87403 6.2893,5.08781 4.00562,-3.36776 4.34474,-7.48517 0,-154.76683 0,-309.53365 0,-464.300754 -1.14513,1.741843 -2.29027,3.483593 -3.4354,5.225436 z m -34.72789,97.932688 c 8.21885,0.66697 10.27896,10.73269 11.67397,17.32261 7.78203,30.34839 16.04597,58.22145 8.78155,89.51676 -3.14418,11.86655 -5.37151,20.37285 -10.53353,31.51701 -1.73884,4.59368 -6.32314,7.64393 -11.21367,5.72473 -11.76697,-5.02676 -17.01073,-12.91963 -25.58561,-22.09198 -17.02388,-18.90832 -26.00458,-44.33799 -18.95154,-69.47081 4.6369,-21.19295 16.13803,-34.26946 33.83922,-45.75086 4.00467,-2.02065 7.38184,-6.37291 11.98961,-6.76746 z"
     id="path2" />
  <path
     inkscape:connector-curvature="0"
     style="fill:#1b1010;fill-opacity:1;stroke-width:0.99999988"
     d="m 292.45464,58.541332 c 10.75242,16.76188 29.72839,26.579217 40.15953,43.652978 -0.061,9.24298 0.0131,19.49639 5.02018,27.41838 9.50019,6.71393 20.37849,12.02908 27.94163,21.12063 17.18076,16.12957 32.52217,36.54 34.11822,60.81327 2.69327,22.05532 0.49224,45.31966 -11.29727,64.49009 -12.06571,19.47948 -27.00788,38.31359 -47.91525,48.70809 -7.87503,5.76888 -10.1202,16.60679 -7.07465,25.68707 1.29073,4.40205 -0.63786,9.35646 -5.78767,9.75854 -11.47952,4.7778 -21.80451,13.15917 -28.35404,23.8834 -3.55376,6.50631 -5.70312,16.39072 0.35228,22.04688 5.30951,3.86094 10.92527,-2.34852 15.72375,-4.14371 14.84822,-9.64112 28.37282,-20.91865 42.20836,-31.92659 28.44891,-23.52174 60.15944,-54.56529 71.14859,-90.60271 11.03988,-31.35919 14.13052,-71.77235 -1.58572,-102.51247 -7.08874,-14.77589 -18.97783,-26.05907 -29.9435,-38.01581 -1.96335,-2.91214 1.96241,-4.95441 4.37387,-3.28791 13.55936,4.10614 24.54756,13.76415 34.74761,23.15067 25.16852,25.05204 39.12148,65.30174 36.8237,100.64494 -1.22874,49.61557 -28.55694,98.24006 -58.32196,137.04121 -11.65519,16.45085 -24.49778,33.17599 -29.62975,52.89408 1.13011,3.77359 -3.19585,5.39594 -5.519,2.58337 -16.44238,-8.511 -26.61049,-25.78664 -43.44743,-33.52452 -7.42318,-2.07326 -13.96518,2.56363 -19.93321,6.13525 -2.88962,1.12728 -10.00372,3.80647 -6.2818,7.80926 7.41471,4.57303 16.17183,6.82008 23.1488,12.23763 13.26156,8.83133 25.36766,22.93273 25.37706,39.60527 -0.67074,8.8257 -10.59179,15.81487 -18.90551,11.71343 -9.75195,-3.45794 -15.04832,-15.29725 -11.44946,-24.92333 -0.23297,-9.81771 -10.70921,-14.47152 -18.43581,-17.9661 -3.92295,-2.68482 -11.63733,-4.12493 -12.97504,2.08359 -2.90746,9.96145 0.27712,20.42547 1.26255,30.32585 1.41475,7.24187 6.23483,13.20051 8.71862,19.78573 0.0639,8.55703 -7.08781,15.12534 -13.3574,19.87403 -6.2893,5.08781 -4.00562,-3.36776 -4.34473,-7.48517 0,-154.76683 0,-309.53365 0,-464.300754 1.14512,1.741843 2.29026,3.483593 3.43445,5.225436 z m 34.72883,97.932688 c -8.21884,0.66697 -10.27896,10.73269 -11.67397,17.32261 -7.78202,30.34839 -16.04596,58.22145 -8.78249,89.51676 3.14512,11.86655 5.37245,20.37285 10.53448,31.51701 1.73883,4.59368 6.32219,7.64393 11.21366,5.72473 11.76698,-5.02676 17.00979,-12.91963 25.58562,-22.09198 17.02294,-18.90832 26.00458,-44.33799 18.95153,-69.47081 -4.63784,-21.19295 -16.13802,-34.26946 -33.83922,-45.75086 -4.00467,-2.02065 -7.38183,-6.37291 -11.98961,-6.76746 z"
     id="path4" />
</svg>
