<?xml version="1.0" encoding="UTF-8" standalone="no"?>
<!-- Created with Inkscape (http://www.inkscape.org/) -->

<svg
   xmlns:dc="http://purl.org/dc/elements/1.1/"
   xmlns:cc="http://creativecommons.org/ns#"
   xmlns:rdf="http://www.w3.org/1999/02/22-rdf-syntax-ns#"
   xmlns:svg="http://www.w3.org/2000/svg"
   xmlns="http://www.w3.org/2000/svg"
   xmlns:sodipodi="http://sodipodi.sourceforge.net/DTD/sodipodi-0.dtd"
   xmlns:inkscape="http://www.inkscape.org/namespaces/inkscape"
   version="1.0"
   width="580"
   height="580"
   id="svg2"
   sodipodi:version="0.32"
   inkscape:version="0.92.3 (2405546, 2018-03-11)"
   sodipodi:docname="place_of_worship_hindu_m.svg"
   inkscape:output_extension="org.inkscape.output.svg.inkscape">
  <metadata
     id="metadata2975">
    <rdf:RDF>
      <cc:Work
         rdf:about="">
        <dc:format>image/svg+xml</dc:format>
        <dc:type
           rdf:resource="http://purl.org/dc/dcmitype/StillImage" />
        <cc:license
           rdf:resource="http://web.resource.org/cc/PublicDomain" />
        <dc:language>en</dc:language>
        <dc:title></dc:title>
      </cc:Work>
    </rdf:RDF>
  </metadata>
  <sodipodi:namedview
     inkscape:window-height="1006"
     inkscape:window-width="1920"
     inkscape:pageshadow="2"
     inkscape:pageopacity="0.0"
     guidetolerance="10.0"
     gridtolerance="10.0"
     objecttolerance="10.0"
     borderopacity="1.0"
     bordercolor="#666666"
     pagecolor="#ffffff"
     id="base"
     inkscape:zoom="0.92167712"
     inkscape:cx="263.11583"
     inkscape:cy="289.88681"
     inkscape:window-x="1920"
     inkscape:window-y="0"
     inkscape:current-layer="svg2"
     showgrid="false"
     inkscape:window-maximized="1" />
  <defs
     id="defs4">
    <inkscape:perspective
       sodipodi:type="inkscape:persp3d"
       inkscape:vp_x="0 : 290 : 1"
       inkscape:vp_y="0 : 1000 : 0"
       inkscape:vp_z="580 : 290 : 1"
       inkscape:persp3d-origin="290 : 193.33333 : 1"
       id="perspective2441" />
  </defs>
  <path
     sodipodi:type="inkscape:offset"
     inkscape:radius="30.379402"
     inkscape:original="M 304.13672 48.964844 L 286.85156 65.132812 C 277.345 74.024592 269.99233 82.45688 270.50977 83.873047 C 271.02721 85.289123 278.82814 94.217614 287.8457 103.71289 L 304.24219 120.97656 L 320.35742 106.49219 C 329.22085 98.525738 337.28777 90.314052 338.2832 88.242188 C 339.27771 86.170323 332.00057 76.485614 322.11328 66.720703 L 304.13672 48.964844 z M 362.71484 100.44727 C 361.32491 100.44727 357.19921 104.24585 353.54688 108.88867 C 341.699 123.95155 318.38427 135.17201 299.02344 135.12891 C 277.41579 135.0812 261.06898 128.40318 243.33203 112.37891 C 229.94743 100.28681 229.47641 100.14717 221.01758 105.68945 C 216.26521 108.80353 212.37695 113.10111 212.37695 115.24023 C 212.37695 121.40793 241.97957 153.59682 257.42383 164.22266 C 265.1588 169.54475 278.31313 176.28772 286.6582 179.20703 C 307.60713 186.53649 333.62254 186.10875 355.07422 178.08203 C 374.91029 170.66082 409.9268 141.42567 405.69922 135.81641 C 401.31383 129.99706 365.40112 100.44727 362.71484 100.44727 z M 192.73828 161.41602 C 187.70962 161.40529 181.54472 161.60994 173.55859 161.92188 C 138.72781 163.28152 117.85938 169.88528 117.85938 179.54688 C 117.85937 185.17908 137.10081 228.7207 139.58984 228.7207 C 140.5559 228.7207 152.65953 224.9226 166.48633 220.28125 C 194.88491 210.74808 218.31599 209.50408 232.38867 216.78125 C 243.31819 222.43362 246.13281 227.9996 246.13281 243.9668 C 246.13281 268.5011 232.2816 285.26888 199.71875 300.15625 C 188.11491 305.46092 178.62109 311.92397 178.62109 314.51758 C 178.62109 323.37276 198.58149 363.74522 202.95312 363.73242 C 210.22387 363.71132 228.24392 351.29283 242.86523 336.22656 L 256.69141 321.97852 L 264.87109 331.89062 C 287.8861 359.78185 301.12509 406.90152 293.60938 434.16797 C 287.78086 455.31506 268.40413 474.81283 248.09375 479.9707 C 179.99184 497.26178 109.98747 427.03932 87.640625 319.01758 C 83.352673 298.29067 78.300056 294.9226 65.517578 304.26953 C 59.277763 308.83198 59.290528 309.66509 66.066406 343.93164 C 77.946302 404.01141 98.007382 444.36853 134.73828 482.08008 C 157.79825 505.75474 182.32115 520.57566 210.68945 527.97852 C 232.49435 533.66851 272.80325 531.10625 291.48242 522.84375 C 350.7952 496.60759 360.54134 418.98982 313.47461 347.70898 L 306.23047 336.73828 L 324.2832 328.33203 C 346.3037 318.08051 351.30702 317.87383 359.45117 326.87305 C 364.71455 332.68873 366.14904 341.46296 367.87109 378.35156 C 370.55186 435.77533 376.71322 451.80744 400.07227 462.14062 C 427.75065 474.38393 463.22668 464.89077 485.7793 439.20508 C 511.94207 409.40648 520.92567 373.25117 518.78711 306.35938 C 517.06507 252.46869 509.99213 228.05618 490.24414 207.83203 C 475.2852 192.51255 460.7103 187.18288 434.78516 187.55078 C 400.05621 188.04345 374.14702 208.66435 364.36523 243.60156 C 360.26701 258.23847 359.52664 258.89392 344.52734 261.14258 C 323.7252 264.26189 310.91951 269.92549 291.98438 284.37891 C 274.65476 297.60662 268.16383 297.50218 273.26758 284.07812 C 278.06031 271.47336 277.21657 245.81585 271.36328 226.10547 C 264.18611 201.93998 247.82602 181.9057 225.81836 170.33398 C 212.68491 163.42837 207.82425 161.44818 192.73828 161.41602 z M 433.54688 238.57227 C 442.54883 238.73476 451.38799 241.30957 459.14062 246.44336 C 474.41149 256.55544 489.24951 286.59841 491.56055 312.08594 C 495.09638 351.08008 478.98261 392.78418 454.64648 407.62109 C 438.10312 417.70839 417.23227 416.70272 408.33398 405.39062 C 398.99898 393.52349 398.48473 390.26638 397.23242 335.05273 C 396.34066 295.72923 395.07299 285.9674 389.67383 276.91406 L 383.18555 266.03516 L 391.45312 257.18359 C 403.08747 244.73044 418.54361 238.30144 433.54688 238.57227 z "
     style="fill:#fffefe;fill-opacity:1;stroke-width:0.99999994"
     id="path2"
     d="m 303.50195,18.59375 a 30.38244,30.38244 0 0 0 -20.11718,8.185547 l -17.28516,16.167969 v -0.002 c -5.39856,5.04944 -10.13701,9.879387 -14.07422,14.394532 -1.9686,2.257572 -3.69339,4.303921 -5.66406,7.210937 -0.98534,1.453508 -2.05476,2.994934 -3.45703,6.15625 -0.39998,0.901712 -1.08468,2.046363 -1.76563,3.427735 -0.78015,-0.263736 -1.23233,-0.557447 -2.08984,-0.814454 -7.73588,-2.318543 -18.38791,-1.13363 -24.14453,1.169922 -5.75662,2.303553 -8.26343,4.300611 -10.53516,5.789063 a 30.38244,30.38244 0 0 0 -0.002,0 c -4.5579,2.986647 -8.32616,6.130758 -11.98047,10.169922 -3.65431,4.039163 -10.38867,5.314663 -10.38867,24.791011 0,9.79165 1.92187,13.38261 3.66211,15.98243 -4.1737,0.0885 -8.03359,0.13854 -13.28711,0.34375 -19.09465,0.74537 -34.89006,2.66151 -48.89063,7.09179 -7.00028,2.21514 -13.72565,4.87658 -20.78711,10.52149 -7.061453,5.6449 -15.214841,17.01553 -15.214841,30.36719 -1.7e-5,9.35289 1.331279,9.92112 2.167969,12.64648 0.836689,2.72536 1.773453,5.3357 2.839843,8.15625 2.13278,5.64111 4.771022,11.96501 7.515629,18.17578 2.7446,6.21077 5.53065,12.17798 8.14843,17.24609 1.3089,2.53406 2.48949,4.7528 4.15625,7.37305 0.83338,1.31013 1.65473,2.65754 3.67188,4.98438 1.00857,1.16342 2.23467,2.60795 5.0293,4.71679 2.79462,2.10885 7.43064,6.25391 18.58007,6.25391 10.0739,0 7.20617,-0.82132 8.25391,-1.08399 1.04774,-0.26266 1.8858,-0.49785 2.82813,-0.76953 1.88465,-0.54335 4.06451,-1.2118 6.63867,-2.01953 5.14831,-1.61545 11.7651,-3.76838 18.84375,-6.14453 19.55493,-6.56443 34.08783,-6.22585 39.5664,-5.67187 0.005,0.29338 0.0332,0.23275 0.0332,0.55664 0,6.5501 -0.76525,8.40195 -4.03907,12.36523 -3.27381,3.96328 -10.78661,9.86767 -24.62695,16.19531 -7.19562,3.28947 -13.6011,6.78911 -19.36523,10.71289 -2.88207,1.9619 -5.56292,3.90285 -8.73633,7.02344 -3.17341,3.12059 -10.74414,5.07171 -10.74414,24.25391 0,13.62679 2.8199,16.13138 5.2207,22.35742 2.4008,6.22604 5.33041,12.72691 8.45117,19.03906 3.12077,6.31216 6.32306,12.26354 9.73438,17.64453 1.70565,2.6905 3.33461,5.1726 5.98047,8.2461 1.32293,1.53675 2.81048,3.24864 5.80859,5.55469 2.99811,2.30604 7.6256,6.78702 19.60547,6.75195 20.85654,-0.061 25.16073,-7.14203 34.34961,-13.47461 5.0487,-3.47935 10.11712,-7.51749 15.13281,-11.86914 3.60808,7.14553 6.74747,14.9881 8.91797,22.71289 4.21547,15.00284 4.23121,29.70919 2.87891,34.61523 -2.51674,9.13124 -16.63168,22.63289 -23.70704,24.42969 -22.13609,5.6196 -44.87894,-1.90138 -68.39062,-25.48633 -23.51235,-23.58561 -44.6709,-63.04875 -54.83399,-112.17578 -2.55741,-12.36191 -2.03611,-25.28322 -20.775386,-37.77539 -9.369638,-6.24608 -23.104582,-6.9186 -31.27539,-4.56055 -8.170809,2.35806 -13.086824,5.80604 -17.753906,9.21875 -1.919531,1.40353 -6.935536,4.56417 -11.458985,11.9336 -4.523448,7.36943 -5.670593,16.02131 -5.591797,21.70312 0.157592,11.36362 2.332193,19.26573 5.728516,36.44141 12.640158,63.92461 36.281004,111.94177 76.712888,153.45312 26.14955,26.8466 56.22802,45.27151 90.04297,54.09571 32.81157,8.56218 69.41096,7.1172 100.75195,-6.7461 32.31803,-14.29541 54.39182,-41.96891 64.07422,-73.81836 6.24873,5.57128 13.1159,10.09761 19.9375,13.11524 41.77407,18.47842 90.29853,4.09257 120.82422,-30.67383 a 30.38244,30.38244 0 0 0 0,-0.002 c 31.9262,-36.36297 42.77953,-83.90234 40.54297,-153.85938 -0.89875,-28.12601 -3.06852,-49.94838 -8.69531,-69.37109 -5.6268,-19.42271 -15.59848,-36.22356 -28.47461,-49.41016 -19.38948,-19.8568 -47.37796,-29.86285 -77.62695,-29.43359 -1.47628,0.0209 -2.92426,0.16418 -4.38672,0.24805 1.1348,-1.75319 2.26995,-3.68735 3.41211,-6.29493 2.53008,-5.77626 6.99164,-19.77982 -3.41797,-33.59375 l -0.002,-0.002 c -5.6517,-7.49928 -7.78059,-8.40433 -12.23242,-12.37305 -4.45235,-3.96918 -9.66115,-8.395534 -14.85351,-12.667966 -5.19236,-4.272431 -10.29309,-8.334416 -14.69141,-11.634765 -2.19916,-1.650175 -4.15822,-3.079089 -6.35156,-4.519531 -1.09667,-0.720222 -2.18737,-1.431514 -4.0293,-2.40625 -1.78009,-0.942012 -1.33706,-3.616746 -14.00586,-3.798829 -1.73037,-3.135863 -3.40148,-5.582037 -5.22851,-8.013671 -4.20185,-5.592322 -9.24092,-11.217721 -15.10547,-17.009766 L 325.48438,27.351562 A 30.38244,30.38244 0 0 0 303.50195,18.59375 Z m 40.92774,193.92773 c -3.29269,6.06022 -6.00442,12.51221 -8.14649,19.25977 -10.60128,1.87553 -20.61909,4.82159 -30.29101,9.03906 -1.30803,-7.75769 -3.17787,-15.52399 -5.50586,-23.36328 -0.40333,-1.35801 -0.9566,-2.64929 -1.4043,-3.98828 15.00246,2.32311 30.37172,1.97462 45.34766,-0.94727 z m 71.33593,48.83204 5.20704,8.73046 -0.75196,0.80469 c -1.32739,-3.44703 -2.78029,-6.72687 -4.45508,-9.53515 z m -148.42968,3.16601 c -0.19474,0.11768 -0.88418,0.62779 -1.00977,0.69727 -0.50316,0.27833 -0.52121,-0.22112 1.00977,-0.69727 z m 165.66211,4.42774 c 3.57066,0.0645 6.58063,0.97962 9.36914,2.82617 -0.13535,-0.0896 6.24692,6.35276 10.60547,15.17773 4.35854,8.82497 7.60759,19.88938 8.33203,27.87891 2.61028,28.78697 -14.65123,62.0831 -22.47266,66.85156 a 30.38244,30.38244 0 0 0 -0.002,0.002 c -3.04021,1.85377 -6.88548,2.59149 -8.74414,2.50196 -0.46642,-0.0225 -0.19598,0.0306 -0.27149,0.0137 0.0379,0.0537 0.32965,-0.0239 -0.0547,-2.45899 -0.82723,-5.24113 -1.53193,-19.85083 -2.15625,-47.37695 -0.45199,-19.93098 -0.91151,-32.70335 -2.33399,-43.64648 -0.83145,-6.39637 -2.42029,-12.62015 -4.46875,-18.30078 4.17423,-2.3642 8.45641,-3.53628 12.19727,-3.46875 z m -131.02539,24.96289 c -0.17462,2.00348 -0.64413,1.84737 -0.3086,0.96484 0.12308,-0.3237 0.18957,-0.64158 0.3086,-0.96484 z" />
</svg>
