<?xml version="1.0" encoding="UTF-8" standalone="no"?>
<!-- Created with Inkscape (http://www.inkscape.org/) -->

<svg
   xmlns:dc="http://purl.org/dc/elements/1.1/"
   xmlns:cc="http://creativecommons.org/ns#"
   xmlns:rdf="http://www.w3.org/1999/02/22-rdf-syntax-ns#"
   xmlns:svg="http://www.w3.org/2000/svg"
   xmlns="http://www.w3.org/2000/svg"
   xmlns:sodipodi="http://sodipodi.sourceforge.net/DTD/sodipodi-0.dtd"
   xmlns:inkscape="http://www.inkscape.org/namespaces/inkscape"
   version="1.0"
   width="580"
   height="580"
   id="svg2"
   sodipodi:version="0.32"
   inkscape:version="0.92.3 (2405546, 2018-03-11)"
   sodipodi:docname="place_of_worship_unknown_cluster_m.svg"
   inkscape:output_extension="org.inkscape.output.svg.inkscape">
  <metadata
     id="metadata2975">
    <rdf:RDF>
      <cc:Work
         rdf:about="">
        <dc:format>image/svg+xml</dc:format>
        <dc:type
           rdf:resource="http://purl.org/dc/dcmitype/StillImage" />
        <cc:license
           rdf:resource="http://web.resource.org/cc/PublicDomain" />
        <dc:language>en</dc:language>
        <dc:title></dc:title>
      </cc:Work>
    </rdf:RDF>
  </metadata>
  <sodipodi:namedview
     inkscape:window-height="1006"
     inkscape:window-width="1920"
     inkscape:pageshadow="2"
     inkscape:pageopacity="0.0"
     guidetolerance="10.0"
     gridtolerance="10.0"
     objecttolerance="10.0"
     borderopacity="1.0"
     bordercolor="#666666"
     pagecolor="#ffffff"
     id="base"
     inkscape:zoom="0.46083856"
     inkscape:cx="-30.421876"
     inkscape:cy="355.48354"
     inkscape:window-x="1920"
     inkscape:window-y="0"
     inkscape:current-layer="svg2"
     showgrid="false"
     inkscape:window-maximized="1"
     showguides="false" />
  <defs
     id="defs4">
    <inkscape:perspective
       sodipodi:type="inkscape:persp3d"
       inkscape:vp_x="0 : 290 : 1"
       inkscape:vp_y="0 : 1000 : 0"
       inkscape:vp_z="580 : 290 : 1"
       inkscape:persp3d-origin="290 : 193.33333 : 1"
       id="perspective2441" />
  </defs>
  <path
     sodipodi:type="inkscape:offset"
     inkscape:radius="42.113544"
     inkscape:original="M 357.83008 63.833984 C 356.87121 63.849324 355.89752 63.943368 354.92578 64.019531 C 338.85889 64.902477 326.76132 74.121172 320.10352 86.34375 C 336.09272 99.147839 347.69598 117.4286 351.62109 138.38281 C 352.53962 143.02166 353.0427 147.59152 353.17969 152.07422 C 380.29688 154.66569 407.72239 130.41716 401.54688 99.974609 C 397.61327 78.490011 379.5033 63.48649 357.83008 63.833984 z M 265.41602 106.16016 C 264.36566 106.17696 263.29882 106.27985 262.23438 106.36328 C 218.28135 108.77869 201.40868 168.1249 236.89062 193.51562 C 270.9457 219.62816 321.9108 188.17226 313.30469 145.74805 C 308.99576 122.21348 289.15721 105.77951 265.41602 106.16016 z M 399.16602 156.28906 A 49.384613 49.384613 0 0 0 362.40039 170.90039 L 351.16797 172.50195 C 350.70698 174.49203 350.18034 176.45751 349.57422 178.39062 C 373.78411 190.70299 392.9882 213.25489 399.35156 239.75781 L 399.21875 239.2207 L 426.5625 346.38867 L 426.45508 345.97266 C 428.11137 352.17724 429.10392 358.55267 429.44922 364.96484 L 461.35352 341.31641 A 30.016796 30.016796 0 0 0 472.04102 306.74219 A 49.384613 49.384613 0 0 0 470.41211 291.94727 L 445.45117 194.11328 A 49.384613 49.384613 0 0 0 399.16602 156.28906 z M 134.33594 160.66016 A 23.767549 23.767549 0 0 0 116.67773 199.9668 L 178.25195 273.2832 A 23.767549 23.767549 0 0 0 197.16602 281.75391 A 23.767549 23.767549 0 0 0 197.94141 281.71875 L 257.18164 277.99609 L 283.91797 382.78711 A 54.096689 54.096689 0 0 0 284.95117 386.31641 L 212.64453 451.55664 A 32.880875 32.880875 0 0 0 202.86133 487.78125 A 30.110421 30.110421 0 0 0 233.72266 518.61328 L 379.04492 517.04102 A 30.110421 30.110421 0 1 0 378.39258 456.82812 L 314.87305 457.51758 L 378.81836 410.11914 A 32.880875 32.880875 0 0 0 390.52539 372.24609 A 54.096689 54.096689 0 0 0 388.74219 356.03906 L 361.39844 248.87109 A 54.096689 54.096689 0 0 0 310.69727 207.4375 A 54.096689 54.096689 0 0 0 270.42188 223.44336 L 206.16211 232.60938 L 153.07422 169.39844 A 23.767549 23.767549 0 0 0 134.33594 160.66016 z M 460.96484 383.95703 L 431.10547 384.28125 C 430.61926 400.32903 424.81442 416.26871 414.80859 428.85547 C 419.43982 431.84452 423.74798 435.36102 427.63281 439.29102 L 461.56055 438.92383 A 27.487662 27.487662 0 1 0 460.96484 383.95703 z "
     style="color:#000000;font-style:normal;font-variant:normal;font-weight:normal;font-stretch:normal;font-size:medium;line-height:normal;font-family:sans-serif;font-variant-ligatures:normal;font-variant-position:normal;font-variant-caps:normal;font-variant-numeric:normal;font-variant-alternates:normal;font-feature-settings:normal;text-indent:0;text-align:start;text-decoration:none;text-decoration-line:none;text-decoration-style:solid;text-decoration-color:#000000;letter-spacing:normal;word-spacing:normal;text-transform:none;writing-mode:lr-tb;direction:ltr;text-orientation:mixed;dominant-baseline:auto;baseline-shift:baseline;text-anchor:start;white-space:normal;shape-padding:0;clip-rule:nonzero;display:inline;overflow:visible;visibility:visible;opacity:1;isolation:auto;mix-blend-mode:normal;color-interpolation:sRGB;color-interpolation-filters:linearRGB;solid-color:#000000;solid-opacity:1;vector-effect:none;fill:#ffffff;fill-opacity:1;fill-rule:nonzero;stroke:none;stroke-width:120.97924042;stroke-linecap:round;stroke-linejoin:round;stroke-miterlimit:4;stroke-dasharray:none;stroke-dashoffset:0;stroke-opacity:1;color-rendering:auto;image-rendering:auto;shape-rendering:auto;text-rendering:auto;enable-background:accumulate"
     id="path4817"
     d="m 357.1543,21.726562 c -2.77215,0.04446 -3.96868,0.192879 -4.70313,0.263672 -30.71104,1.751833 -56.40554,20.82776 -69.10742,43.853516 -6.05059,-1.222228 -12.26305,-1.892499 -18.60156,-1.791016 h -0.002 c -2.93283,0.04703 -4.30821,0.213562 -5.08789,0.28711 -42.8672,2.488199 -71.83639,35.043995 -80.01172,72.076176 -12.32423,-11.42518 -29.05147,-18.09469 -45.8789,-17.86524 -24.92127,0.33989 -48.983833,16.14216 -59.197267,38.87695 -10.213433,22.7348 -6.047218,51.2192 10.25,70.07618 l -0.386719,-0.45313 61.574216,73.31641 a 42.117756,42.117756 0 0 0 0.002,0.002 c 12.74278,15.17167 32.62164,24.07335 52.42578,23.47852 6.5e-4,-2e-5 0.001,2e-5 0.002,0 0.7019,-0.0208 1.40264,-0.0525 2.10352,-0.0957 a 42.117756,42.117756 0 0 0 0.0469,-0.002 L 225,322.21484 l 12.75,49.96875 -53.31641,48.10547 1.08789,-0.94726 c -21.03127,17.70739 -30.48874,47.62009 -24.52539,74.34765 3.13458,36.21752 37.11685,67.9491 73.78907,67.02344 l -0.60743,0.0117 145.32227,-1.57227 -0.50781,0.002 c 38.10765,0.0483 72.72337,-34.90042 72.31054,-73.00586 -0.0182,-1.67717 -0.18704,-3.3348 -0.33789,-4.99414 l 11.05078,-0.11914 -0.58398,0.002 c 36.76497,0.11189 70.20897,-33.59248 69.81055,-70.35547 -0.22777,-21.0166 -11.51463,-40.76099 -27.98828,-53.67773 10.55254,-16.2276 14.82125,-36.63242 10.8789,-55.56836 -0.24585,-6.86917 -1.25993,-13.71253 -3.0332,-20.35352 l 0.11914,0.45313 -24.96094,-97.83399 0.14258,0.58008 c -5.81448,-24.21614 -22.52921,-45.09841 -43.97266,-57.63477 2.45475,-10.91181 2.85101,-22.58749 0.4375,-34.718746 -7.6296,-40.358292 -44.39258,-70.862625 -85.70898,-70.201172 z M 211.26562,226.93555 c 0.18833,0.1444 0.38532,0.25986 0.57422,0.40234 0.18841,0.13706 0.35293,0.28979 0.54297,0.42578 z" />
</svg>
