<?xml version="1.0" encoding="UTF-8" standalone="no"?>
<!-- Created with Inkscape (http://www.inkscape.org/) -->

<svg
   xmlns:dc="http://purl.org/dc/elements/1.1/"
   xmlns:cc="http://creativecommons.org/ns#"
   xmlns:rdf="http://www.w3.org/1999/02/22-rdf-syntax-ns#"
   xmlns:svg="http://www.w3.org/2000/svg"
   xmlns="http://www.w3.org/2000/svg"
   xmlns:sodipodi="http://sodipodi.sourceforge.net/DTD/sodipodi-0.dtd"
   xmlns:inkscape="http://www.inkscape.org/namespaces/inkscape"
   version="1.0"
   width="580"
   height="580"
   id="svg2"
   sodipodi:version="0.32"
   inkscape:version="0.92.3 (2405546, 2018-03-11)"
   sodipodi:docname="place_of_worship_unknown_m.svg"
   inkscape:output_extension="org.inkscape.output.svg.inkscape">
  <metadata
     id="metadata2975">
    <rdf:RDF>
      <cc:Work
         rdf:about="">
        <dc:format>image/svg+xml</dc:format>
        <dc:type
           rdf:resource="http://purl.org/dc/dcmitype/StillImage" />
        <cc:license
           rdf:resource="http://web.resource.org/cc/PublicDomain" />
        <dc:language>en</dc:language>
        <dc:title />
      </cc:Work>
    </rdf:RDF>
  </metadata>
  <sodipodi:namedview
     inkscape:window-height="1006"
     inkscape:window-width="1920"
     inkscape:pageshadow="2"
     inkscape:pageopacity="0.0"
     guidetolerance="10.0"
     gridtolerance="10.0"
     objecttolerance="10.0"
     borderopacity="1.0"
     bordercolor="#666666"
     pagecolor="#ffffff"
     id="base"
     inkscape:zoom="0.92167712"
     inkscape:cx="211.30305"
     inkscape:cy="287.00324"
     inkscape:window-x="1920"
     inkscape:window-y="0"
     inkscape:current-layer="svg2"
     showgrid="false"
     inkscape:window-maximized="1"
     showguides="false" />
  <defs
     id="defs4">
    <inkscape:perspective
       sodipodi:type="inkscape:persp3d"
       inkscape:vp_x="0 : 290 : 1"
       inkscape:vp_y="0 : 1000 : 0"
       inkscape:vp_z="580 : 290 : 1"
       inkscape:persp3d-origin="290 : 193.33333 : 1"
       id="perspective2441" />
  </defs>
  <path
     sodipodi:type="inkscape:offset"
     inkscape:radius="34.996109"
     inkscape:original="M 283.69531 57.371094 C 282.52071 57.389924 281.32709 57.504362 280.13672 57.597656 C 230.9846 60.298779 212.11587 126.66639 251.79492 155.06055 C 289.8783 184.26188 346.87215 149.08506 337.24805 101.64258 C 332.42942 75.324149 310.24479 56.945414 283.69531 57.371094 z M 137.10938 118.31836 A 26.578961 26.578961 0 0 0 117.36133 162.27344 L 186.2207 244.26367 A 26.578961 26.578961 0 0 0 207.37109 253.73438 A 26.578961 26.578961 0 0 0 208.23828 253.69531 L 274.48633 249.5332 L 304.38477 366.71875 A 60.495669 60.495669 0 0 0 305.54102 370.66602 L 224.67969 443.62305 A 36.770282 36.770282 0 0 0 213.74023 484.13281 A 33.672118 33.672118 0 0 0 248.25195 518.61133 L 410.76367 516.85352 A 33.672118 33.672118 0 1 0 410.03516 449.51953 L 339.00195 450.28906 L 410.50977 397.28516 A 36.770282 36.770282 0 0 0 423.60156 354.93164 A 60.495669 60.495669 0 0 0 421.60742 336.80859 L 391.03125 216.96289 A 60.495669 60.495669 0 0 0 334.33203 170.62891 A 60.495669 60.495669 0 0 0 289.29297 188.52734 L 217.43164 198.77734 L 158.06445 128.08984 A 26.578961 26.578961 0 0 0 137.10938 118.31836 z "
     style="color:#000000;font-style:normal;font-variant:normal;font-weight:normal;font-stretch:normal;font-size:medium;line-height:normal;font-family:sans-serif;font-variant-ligatures:normal;font-variant-position:normal;font-variant-caps:normal;font-variant-numeric:normal;font-variant-alternates:normal;font-feature-settings:normal;text-indent:0;text-align:start;text-decoration:none;text-decoration-line:none;text-decoration-style:solid;text-decoration-color:#000000;letter-spacing:normal;word-spacing:normal;text-transform:none;writing-mode:lr-tb;direction:ltr;text-orientation:mixed;dominant-baseline:auto;baseline-shift:baseline;text-anchor:start;white-space:normal;shape-padding:0;clip-rule:nonzero;display:inline;overflow:visible;visibility:visible;opacity:1;isolation:auto;mix-blend-mode:normal;color-interpolation:sRGB;color-interpolation-filters:linearRGB;solid-color:#000000;solid-opacity:1;vector-effect:none;fill:#ffffff;fill-opacity:1;fill-rule:nonzero;stroke:none;stroke-width:120.97924042;stroke-linecap:round;stroke-linejoin:round;stroke-miterlimit:4;stroke-dasharray:none;stroke-dashoffset:0;stroke-opacity:1;color-rendering:auto;image-rendering:auto;shape-rendering:auto;text-rendering:auto;enable-background:accumulate"
     id="path4817-6"
     d="m 283.13477,22.378906 c -2.73563,0.04386 -4.20127,0.213229 -5.11329,0.294922 C 225.5883,25.672992 194.19125,74.016796 197,120.03125 l -12.13672,-14.44922 0.31445,0.38086 C 173.49886,91.652142 155.10251,83.074518 136.63281,83.326172 h -0.002 c -23.29123,0.318314 -45.780126,15.086458 -55.326172,36.333988 -9.546313,21.24812 -5.65266,47.87117 9.578124,65.49609 l -0.320312,-0.375 68.85938,81.99023 a 34.999609,34.999609 0 0 0 0.004,0.002 c 11.90989,14.17723 30.48659,22.49709 48.99414,21.9414 0.001,-4e-5 0.003,4e-5 0.004,0 0.65381,-0.0193 1.30807,-0.0497 1.96094,-0.0898 a 34.999609,34.999609 0 0 0 0.0488,-0.002 l 37.31055,-2.34375 18.54102,72.67187 -65.04883,58.68945 0.90234,-0.7871 c -20.40156,17.17804 -29.39039,46.35037 -23.18945,72.18945 2.53097,34.77546 35.04117,65.43968 70.18555,64.55273 l -0.50391,0.01 162.51172,-1.75781 -0.47852,0.002 c 36.26767,0.10391 69.25175,-33.14446 68.85938,-69.41016 -0.28716,-26.54067 -18.43803,-51.01815 -42.34961,-61.92187 18.79687,-17.42681 27.33965,-45.39774 21.41601,-70.3418 -0.17867,-7.55556 -1.22067,-15.09047 -3.16992,-22.39258 l 0.0977,0.37305 -30.57617,-119.8457 0.11914,0.48242 c -7.12214,-29.66154 -29.92697,-54.50104 -57.97852,-66.11524 5.88529,-14.33021 7.92161,-30.52738 4.51758,-47.652339 C 363.74198,52.989578 326.03245,21.691108 283.13477,22.378906 Z M 230.5,182.83203 c 0.163,0.12499 0.33265,0.22608 0.49609,0.34961 0.15033,0.10901 0.28222,0.22957 0.4336,0.33789 z" />
</svg>
