<?xml version="1.0" encoding="UTF-8" standalone="no"?>
<!-- Created with Inkscape (http://www.inkscape.org/) -->

<svg
   xmlns:dc="http://purl.org/dc/elements/1.1/"
   xmlns:cc="http://creativecommons.org/ns#"
   xmlns:rdf="http://www.w3.org/1999/02/22-rdf-syntax-ns#"
   xmlns:svg="http://www.w3.org/2000/svg"
   xmlns="http://www.w3.org/2000/svg"
   xmlns:sodipodi="http://sodipodi.sourceforge.net/DTD/sodipodi-0.dtd"
   xmlns:inkscape="http://www.inkscape.org/namespaces/inkscape"
   version="1.0"
   width="580"
   height="580"
   id="svg2"
   sodipodi:version="0.32"
   inkscape:version="0.92.3 (2405546, 2018-03-11)"
   sodipodi:docname="place_of_worship_buddhist.svg"
   inkscape:output_extension="org.inkscape.output.svg.inkscape">
  <metadata
     id="metadata2975">
    <rdf:RDF>
      <cc:Work
         rdf:about="">
        <dc:format>image/svg+xml</dc:format>
        <dc:type
           rdf:resource="http://purl.org/dc/dcmitype/StillImage" />
        <cc:license
           rdf:resource="http://web.resource.org/cc/PublicDomain" />
        <dc:language>en</dc:language>
        <dc:title />
      </cc:Work>
    </rdf:RDF>
  </metadata>
  <sodipodi:namedview
     inkscape:window-height="1006"
     inkscape:window-width="1920"
     inkscape:pageshadow="2"
     inkscape:pageopacity="0.0"
     guidetolerance="10.0"
     gridtolerance="10.0"
     objecttolerance="10.0"
     borderopacity="1.0"
     bordercolor="#666666"
     pagecolor="#ffffff"
     id="base"
     inkscape:zoom="0.65172414"
     inkscape:cx="319.14288"
     inkscape:cy="291.87532"
     inkscape:window-x="1920"
     inkscape:window-y="0"
     inkscape:current-layer="svg2"
     showgrid="false"
     inkscape:window-maximized="1" />
  <defs
     id="defs4">
    <inkscape:perspective
       sodipodi:type="inkscape:persp3d"
       inkscape:vp_x="0 : 290 : 1"
       inkscape:vp_y="0 : 1000 : 0"
       inkscape:vp_z="580 : 290 : 1"
       inkscape:persp3d-origin="290 : 193.33333 : 1"
       id="perspective2441" />
  </defs>
  <path
     d="m 272.40848,523.95432 c -4.36721,-4.36721 -6.66252,-11.10389 -6.66252,-19.55357 v -12.89197 l -19.32742,-3.80231 C 171.41971,472.95134 105.08754,395.2095 88.991764,314.65598 c -4.90922,-0.37904 -7.623575,-0.5704 -12.8114,-0.5704 -16.224965,0 -26.966014,-10.82647 -26.966014,-27.18108 0,-14.86591 9.137632,-23.56187 25.813602,-24.56624 l 12.495807,-0.75259 5.897657,-22.8862 c 9.839314,-38.1815 24.449234,-63.30075 54.027154,-92.88974 30.31504,-30.32538 55.6888,-45.55468 92.31936,-54.629958 11.12952,-2.757386 11.98373,-0.630454 24.51222,-3.425285 1.65533,-17.40338 0.14741,-36.812839 26.75535,-35.900486 21.03128,0.733728 23.03818,13.57525 23.12516,34.882843 7.21276,0.706719 9.55384,0.919861 22.0393,3.487177 75.07025,15.436399 142.48277,83.162309 155.6375,158.901819 2.08198,11.9874 3.19896,13.22066 11.13135,12.28496 10.47124,-1.23509 27.6233,6.91704 30.53935,14.51434 7.221,18.81929 -3.36559,34.98895 -24.79147,37.86563 -14.02635,1.88331 -14.69196,2.49307 -16.90944,15.4949 -3.4718,20.36384 -17.09621,51.54682 -32.30912,73.94869 -26.81119,39.4816 -68.60824,68.86002 -117.13372,82.33337 l -24.98465,6.93626 -1.07853,13.22706 c -0.59328,7.27411 -3.4489,15.85014 -6.34573,19.05642 -7.41327,8.20523 -28.98747,7.7264 -37.54702,-0.83315 z m -6.66252,-128.25317 c 0,-22.90268 -1.15726,-41.64048 -2.5718,-41.64048 -1.41454,0 -15.23763,12.73174 -30.71788,28.29256 -15.58005,15.66154 -24.37764,25.27764 -27.64801,29.99826 4.0312,2.95175 11.10754,10.90703 28.81443,18.18572 14.83753,6.10036 27.06664,7.84725 32.66344,8.69139 -0.92563,-6.95916 -0.54018,-17.39835 -0.54018,-43.52745 z m 100.04117,27.01262 14.5006,-8.93951 -29.719,-29.85634 c -16.34454,-16.42144 -30.87353,-29.85725 -32.28623,-29.85725 -1.41271,0 -2.56814,18.92549 -2.56814,42.05706 v 42.05706 l 17.78654,-3.26121 c 5.95479,-1.1884 20.48377,-6.679 32.28623,-12.19981 z M 199.0961,343.2342 229.96322,314.08558 h -44.107 -44.10791 l 2.25776,12.03867 c 2.58371,13.76999 18.81197,48.44125 22.06037,47.13109 1.18931,-0.47976 16.05247,-13.98973 33.02966,-30.02114 z m 232.6469,7.79597 c 5.21318,-11.4518 7.47919,-20.91317 8.61723,-25.9524 l 2.06916,-10.99219 h -44.13355 -44.13263 l 29.84169,29.98086 c 16.4132,16.49011 31.07678,29.98177 32.58562,29.98177 1.50883,0 9.93929,-11.56716 15.15248,-23.01804 z M 303.21791,318.0939 c 5.72956,-2.96275 15.13326,-12.83704 17.9074,-19.47666 4.42214,-10.58294 1.71575,-21.78387 -6.58927,-30.89001 -13.24538,-14.52258 -30.45054,-14.60955 -45.14707,-0.76174 -14.3413,13.51271 -10.83014,32.27707 -2.68717,41.8062 9.33869,10.92901 24.45089,15.56173 36.51611,9.32221 z m -77.44703,-57.37801 c 0,-0.95401 -13.28475,-14.95747 -29.52125,-31.11889 l -29.52124,-29.38391 -7.10565,11.49665 c -7.98274,12.91669 -13.10437,26.87071 -17.49997,50.82536 2.19826,0.30946 5.79823,-0.0842 42.00762,-0.0842 22.90177,0 41.64049,-0.78097 41.64049,-1.73498 z m 213.93381,-7.23565 c -0.53927,-4.38278 -3.11748,-17.80028 -8.5037,-29.81148 -5.44299,-12.13663 -13.69949,-22.84591 -15.14333,-22.84591 -2.40883,0 -60.36822,57.50252 -60.36822,59.89304 -9.1e-4,0.95493 19.11227,1.42369 42.47273,1.0419 42.07446,-0.68666 42.4654,-0.76449 41.54252,-8.27755 z M 265.74596,180.77213 v -43.36997 l -9.16107,2.06916 c -16.6952,0.73062 -51.61274,20.0324 -50.80155,23.63421 0.50905,2.26143 56.81768,61.03657 59.05988,61.03657 0.49623,0 0.90274,-19.51694 0.90274,-43.36997 z m 91.27653,-32.17361 c -12.44059,-5.83943 -26.73337,-7.78957 -31.3139,-8.36271 l -8.32883,-1.04099 -0.92471,43.30588 -0.92563,43.3068 31.87331,-31.64717 31.87423,-31.64717 z"
     id="path2-3"
     inkscape:connector-curvature="0"
     inkscape:transform-center-x="27.001196"
     inkscape:transform-center-y="-13.500599"
     style="fill:#090909;fill-opacity:1;stroke-width:0.99999994" />
</svg>
