<?xml version="1.0" encoding="UTF-8" standalone="no"?>
<!-- Created with Inkscape (http://www.inkscape.org/) -->

<svg
   xmlns:dc="http://purl.org/dc/elements/1.1/"
   xmlns:cc="http://creativecommons.org/ns#"
   xmlns:rdf="http://www.w3.org/1999/02/22-rdf-syntax-ns#"
   xmlns:svg="http://www.w3.org/2000/svg"
   xmlns="http://www.w3.org/2000/svg"
   xmlns:sodipodi="http://sodipodi.sourceforge.net/DTD/sodipodi-0.dtd"
   xmlns:inkscape="http://www.inkscape.org/namespaces/inkscape"
   version="1.0"
   width="580"
   height="580"
   id="svg2"
   sodipodi:version="0.32"
   inkscape:version="0.92.3 (2405546, 2018-03-11)"
   sodipodi:docname="place_of_worship_muslim_cluster.svg"
   inkscape:output_extension="org.inkscape.output.svg.inkscape">
  <metadata
     id="metadata2975">
    <rdf:RDF>
      <cc:Work
         rdf:about="">
        <dc:format>image/svg+xml</dc:format>
        <dc:type
           rdf:resource="http://purl.org/dc/dcmitype/StillImage" />
        <cc:license
           rdf:resource="http://web.resource.org/cc/PublicDomain" />
        <dc:language>en</dc:language>
        <dc:title></dc:title>
      </cc:Work>
    </rdf:RDF>
  </metadata>
  <sodipodi:namedview
     inkscape:window-height="1006"
     inkscape:window-width="1920"
     inkscape:pageshadow="2"
     inkscape:pageopacity="0.0"
     guidetolerance="10.0"
     gridtolerance="10.0"
     objecttolerance="10.0"
     borderopacity="1.0"
     bordercolor="#666666"
     pagecolor="#ffffff"
     id="base"
     inkscape:zoom="0.46083856"
     inkscape:cx="-14.454695"
     inkscape:cy="355.96679"
     inkscape:window-x="1920"
     inkscape:window-y="0"
     inkscape:current-layer="svg2"
     showgrid="false"
     inkscape:window-maximized="1" />
  <defs
     id="defs4">
    <inkscape:perspective
       sodipodi:type="inkscape:persp3d"
       inkscape:vp_x="0 : 290 : 1"
       inkscape:vp_y="0 : 1000 : 0"
       inkscape:vp_z="580 : 290 : 1"
       inkscape:persp3d-origin="290 : 193.33333 : 1"
       id="perspective2441" />
  </defs>
  <path
     style="vector-effect:none;fill:#000000;fill-opacity:1;stroke:none;stroke-width:21.51408958;stroke-linecap:butt;stroke-linejoin:bevel;stroke-miterlimit:4;stroke-dasharray:none;stroke-dashoffset:0;stroke-opacity:1;marker:none"
     d="M 294.81836 69.806641 C 269.5063 69.806641 225.71683 77.925895 206.00391 86.275391 C 151.74145 109.25855 102.53287 162.18715 83.078125 218.49219 C 75.958978 239.09596 71.900545 258.49058 71.636719 288.72266 C 71.366491 318.93338 75.958978 341.36888 83.078125 361.97266 C 103.48443 421.03167 158.16969 477.08602 214.80078 496.99023 C 225.85064 500.87397 241.46622 505.35924 249.50195 506.95703 C 288.79678 514.77006 343.60737 508.07068 381.19336 490.86328 C 406.64852 479.20948 424.00751 466.85753 420.14844 463.14258 C 418.49117 461.5472 400.05685 463.67393 379.18164 467.86914 C 346.84199 474.36833 337.80412 474.91072 318.09766 471.53516 C 254.59898 460.65829 197.10523 411.32108 174.4082 348.23242 C 163.44506 317.75949 163.48826 262.60638 174.49805 231.9375 C 197.83686 166.92484 256.23409 118.0047 321.14844 109.08594 C 343.69331 105.98843 353.36568 106.55102 382.52344 112.66016 C 418.95771 120.29388 425.83502 119.99275 418.44141 111.08398 C 403.97914 93.658031 332.54516 69.806641 294.81836 69.806641 z M 422.02539 202.63477 C 421.7204 202.61868 421.40927 202.6496 421.09766 202.73828 C 413.33058 208.33072 411.83558 219.28969 407.73242 227.47656 C 403.99894 237.70537 400.53615 248.05403 396.89062 258.32422 C 377.2428 259.99838 356.42383 257.41813 337.54102 263.54688 C 332.77355 269.17332 342.49089 273.57203 345.68555 277.2207 C 357.71997 287.09205 370.8284 295.48666 382.99414 305.23633 C 377.81907 324.11158 368.27355 342.3839 367.19336 362.0625 C 370.44069 370.79517 380.36454 363.6393 384.9082 360.19141 C 397.31965 351.99759 408.92579 341.25706 422.29297 335.1543 C 439.38443 344.29306 453.90808 358.21958 470.97461 367.63867 C 478.59978 367.85747 476.39246 357.10231 475.49023 352.23633 C 472.67427 336.57698 464.84498 321.3286 462.30078 306.07617 C 476.32442 291.64659 494.9514 282.58998 508.32812 267.5293 C 509.18633 259.9709 498.08775 261.79698 493.28125 260.625 C 477.90127 259.63831 462.47593 260.27543 447.07617 260.09375 C 439.78122 241.28332 436.45159 220.15573 424.50586 203.71094 C 423.80583 203.14869 422.94035 202.68302 422.02539 202.63477 z "
     id="path6579" />
  <path
     inkscape:connector-curvature="0"
     id="path6581"
     d="m 421.09828,202.73764 c -7.76708,5.59244 -9.26235,16.5526 -13.36551,24.73947 -3.73348,10.22881 -7.19735,20.5767 -10.84288,30.84689 -19.64783,1.67416 -40.46537,-0.90646 -59.34818,5.22228 -4.76747,5.62645 4.94857,10.02664 8.14323,13.67531 12.03442,9.87135 25.14262,18.26479 37.30836,28.01446 -5.17507,18.87525 -14.71944,37.14695 -15.79963,56.82555 3.24733,8.73267 13.17131,1.57755 17.71497,-1.87034 12.41145,-8.19382 24.01739,-18.93495 37.38457,-25.03771 17.09146,9.13876 31.61579,23.0653 48.68232,32.48439 7.62517,0.2188 5.41641,-10.53534 4.51418,-15.40132 -2.81596,-15.65935 -10.64429,-30.90726 -13.18849,-46.15969 14.02364,-14.42958 32.6502,-23.48687 46.02693,-38.54755 0.85821,-7.5584 -10.24077,-5.73206 -15.04727,-6.90404 -15.37998,-0.98669 -30.80419,-0.3494 -46.20395,-0.53108 -7.29495,-18.81043 -10.62516,-39.93819 -22.57089,-56.38298 -0.93337,-0.74967 -2.1613,-1.32836 -3.40776,-0.97364 z"
     style="vector-effect:none;fill:#000000;fill-opacity:1;stroke:none;stroke-width:21.51408958;stroke-linecap:butt;stroke-linejoin:bevel;stroke-miterlimit:4;stroke-dasharray:none;stroke-dashoffset:0;stroke-opacity:1;marker:none" />
  <path
     style="vector-effect:none;fill:#000000;fill-opacity:1;stroke:none;stroke-width:21.51408958;stroke-linecap:butt;stroke-linejoin:bevel;stroke-miterlimit:4;stroke-dasharray:none;stroke-dashoffset:0;stroke-opacity:1;marker:none"
     d="M 361.87891 40.501953 C 351.73918 40.501953 338.31091 41.952134 324.95898 44.21875 C 341.29118 46.988229 358.14044 51.597596 374.33789 57.005859 C 387.57114 61.424386 400.08891 66.418496 411.07227 71.941406 C 413.06565 72.943769 414.98668 73.927267 416.87695 74.919922 C 423.42001 75.65888 430.89275 77.027826 440.93945 79.132812 C 473.78321 86.014246 479.98335 85.743725 473.31836 77.712891 C 460.28131 62.004225 395.88783 40.501953 361.87891 40.501953 z M 476.54883 160.24023 C 476.2739 160.22573 475.99379 160.25398 475.71289 160.33398 C 468.71124 165.3753 467.36286 175.2547 463.66406 182.63477 C 461.28665 189.14829 459.02016 195.7112 456.74219 202.26953 C 462.02502 212.68346 465.18574 222.72445 467.80273 231.67578 C 476.48693 231.63788 485.52126 231.70399 495.09766 232.31836 A 28.36821 28.36821 0 0 1 500 233.06641 C 494.22744 231.65887 499.94739 232.20821 508.33789 233.83789 C 512.47587 234.64161 518.76376 235.86425 525.86719 242.23828 C 535.68292 234.75358 546.11726 228.00673 554.34766 218.74023 C 555.1213 211.9267 545.11603 213.57211 540.7832 212.51562 C 526.91888 211.62616 513.01301 212.20089 499.13086 212.03711 C 492.55481 195.0804 489.55367 176.03513 478.78516 161.21094 C 478.15412 160.7041 477.37363 160.28373 476.54883 160.24023 z M 265.53125 160.26758 C 236.86245 179.20379 213.26746 207.8933 201.19531 241.52148 C 193.8315 262.03404 193.83516 318.43873 201.09961 338.63086 C 208.35423 358.79581 220.11857 377.46779 234.76953 393.375 C 251.83648 407.62344 270.66792 418.88246 289.74609 425.58789 C 299.70701 429.0889 313.78352 433.13194 321.02734 434.57227 C 356.44977 441.61535 405.85825 435.5761 439.74023 420.06445 C 461.56814 410.07127 476.78059 399.51371 475.21875 395.625 C 473.44737 395.90901 471.74016 396.03752 470.16016 395.99219 A 28.36821 28.36821 0 0 1 464.11719 395.12891 C 457.29281 395.85877 447.96631 397.32047 437.92773 399.33789 C 408.77507 405.1966 400.62771 405.68549 382.86328 402.64258 C 325.62223 392.8376 273.79427 348.36166 253.33398 291.49023 C 243.45123 264.02033 243.48925 214.30279 253.41406 186.65625 C 256.70967 177.47599 260.7836 168.65309 265.53125 160.26758 z M 524.13477 292.10156 C 519.88886 296.37942 515.67508 300.09929 511.60156 303.4082 C 514.5587 305.38476 517.56773 307.27011 520.67383 308.98438 C 527.54756 309.18162 525.55941 299.48605 524.74609 295.09961 C 524.56603 294.09829 524.357 293.09929 524.13477 292.10156 z "
     id="path6579-3" />
</svg>
