<?xml version="1.0" encoding="UTF-8" standalone="no"?>
<!-- Created with Inkscape (http://www.inkscape.org/) -->

<svg
   xmlns:dc="http://purl.org/dc/elements/1.1/"
   xmlns:cc="http://creativecommons.org/ns#"
   xmlns:rdf="http://www.w3.org/1999/02/22-rdf-syntax-ns#"
   xmlns:svg="http://www.w3.org/2000/svg"
   xmlns="http://www.w3.org/2000/svg"
   xmlns:sodipodi="http://sodipodi.sourceforge.net/DTD/sodipodi-0.dtd"
   xmlns:inkscape="http://www.inkscape.org/namespaces/inkscape"
   version="1.0"
   width="580"
   height="580"
   id="svg2"
   sodipodi:version="0.32"
   inkscape:version="0.92.3 (2405546, 2018-03-11)"
   sodipodi:docname="place_of_worship_hindu.svg"
   inkscape:output_extension="org.inkscape.output.svg.inkscape">
  <metadata
     id="metadata2975">
    <rdf:RDF>
      <cc:Work
         rdf:about="">
        <dc:format>image/svg+xml</dc:format>
        <dc:type
           rdf:resource="http://purl.org/dc/dcmitype/StillImage" />
        <cc:license
           rdf:resource="http://web.resource.org/cc/PublicDomain" />
        <dc:language>en</dc:language>
        <dc:title />
      </cc:Work>
    </rdf:RDF>
  </metadata>
  <sodipodi:namedview
     inkscape:window-height="1006"
     inkscape:window-width="1920"
     inkscape:pageshadow="2"
     inkscape:pageopacity="0.0"
     guidetolerance="10.0"
     gridtolerance="10.0"
     objecttolerance="10.0"
     borderopacity="1.0"
     bordercolor="#666666"
     pagecolor="#ffffff"
     id="base"
     inkscape:zoom="0.92167712"
     inkscape:cx="263.11583"
     inkscape:cy="289.88681"
     inkscape:window-x="1920"
     inkscape:window-y="0"
     inkscape:current-layer="svg2"
     showgrid="false"
     inkscape:window-maximized="1" />
  <defs
     id="defs4">
    <inkscape:perspective
       sodipodi:type="inkscape:persp3d"
       inkscape:vp_x="0 : 290 : 1"
       inkscape:vp_y="0 : 1000 : 0"
       inkscape:vp_z="580 : 290 : 1"
       inkscape:persp3d-origin="290 : 193.33333 : 1"
       id="perspective2441" />
  </defs>
  <path
     inkscape:connector-curvature="0"
     style="fill:#000000;fill-opacity:1;stroke-width:0.99999994"
     d="m 210.68966,527.97775 c -28.3683,-7.40286 -52.89159,-22.22234 -75.95156,-45.897 C 98.007201,444.3692 77.945351,404.01174 66.065455,343.93197 c -6.775878,-34.26655 -6.787346,-35.10051 -0.547531,-39.66296 12.782478,-9.34693 17.834753,-5.97807 22.122705,14.74884 22.346841,108.02174 92.351331,178.24478 160.453241,160.9537 20.31038,-5.15787 39.68773,-24.65632 45.51625,-45.80341 7.51571,-27.26645 -5.72485,-74.38548 -28.73986,-102.27671 l -8.17902,-9.91207 -13.82681,14.24699 c -14.62131,15.06627 -32.64084,27.4848 -39.91158,27.5059 -4.37163,0.0128 -24.33155,-40.35929 -24.33155,-49.21447 0,-2.59361 9.49372,-9.05609 21.09756,-14.36076 32.56285,-14.88737 46.41443,-31.6555 46.41443,-56.1898 0,-15.9672 -2.81472,-21.53426 -13.74424,-27.18663 -14.07268,-7.27717 -37.50421,-6.0322 -65.90279,3.50097 -13.8268,4.64135 -25.93065,8.43865 -26.89671,8.43865 -2.48903,0 -21.72968,-43.54191 -21.72968,-49.17411 0,-9.6616 20.86728,-16.26445 55.69806,-17.6241 31.9445,-1.24773 34.74821,-0.79635 52.25947,8.41113 22.00766,11.57172 38.36936,31.60779 45.54653,55.77328 5.85329,19.71038 6.69551,45.36763 1.90278,57.9724 -5.10375,13.42405 1.38717,13.52863 18.71678,0.30092 18.93514,-14.45342 31.74266,-20.11772 52.5448,-23.23703 14.9993,-2.24866 15.73968,-2.90371 19.8379,-17.54062 9.78179,-34.93721 35.69042,-55.55952 70.41937,-56.05219 25.92514,-0.3679 40.50058,4.96246 55.45952,20.28194 19.74799,20.22415 26.82057,44.63735 28.54261,98.52804 2.13856,66.89179 -6.84505,103.04644 -33.00782,132.84504 -22.55262,25.68569 -58.02836,35.17849 -85.70674,22.93519 -23.35905,-10.33318 -29.52061,-26.36552 -32.20138,-83.78929 -1.72205,-36.8886 -3.15785,-45.66212 -8.42123,-51.4778 -8.14415,-8.99922 -13.14606,-8.79187 -35.16656,1.45965 l -18.05439,8.40471 7.24506,10.97172 c 47.06673,71.28084 37.32072,148.89848 -21.99206,175.13464 -18.67917,8.2625 -58.98801,10.82401 -80.79291,5.13402 z M 454.6464,407.62188 c 24.33613,-14.83691 40.45012,-56.5421 36.91429,-95.53624 -2.31104,-25.48753 -17.14887,-55.53108 -32.41973,-65.64316 -20.6737,-13.6901 -49.07227,-9.18361 -67.68722,10.74144 l -8.26893,8.85059 6.48817,10.87906 c 5.39916,9.05334 6.66798,18.81495 7.55974,58.13845 1.25231,55.21365 1.76608,58.47241 11.10108,70.33955 8.89829,11.31209 29.76924,12.31761 46.3126,2.23031 z M 286.65864,179.20665 c -8.34507,-2.91931 -21.50031,-9.66161 -29.23528,-14.9837 -15.44426,-10.62584 -45.04652,-42.8153 -45.04652,-48.983 0,-2.13912 3.88904,-6.43707 8.64141,-9.55115 8.45883,-5.54228 8.92948,-5.40109 22.31408,6.69101 17.73695,16.02427 34.08306,22.70143 55.69071,22.74914 19.36083,0.0431 42.67677,-11.17723 54.52465,-26.24011 3.65234,-4.64282 7.77625,-8.4414 9.16618,-8.4414 2.68628,0 38.60056,29.54932 42.98595,35.36867 4.22758,5.60926 -30.78944,34.84546 -50.62551,42.26667 -21.45168,8.02672 -47.46674,8.45333 -68.41567,1.12387 z m 1.18718,-75.49375 c -9.01756,-9.495277 -16.81951,-18.422837 -17.33695,-19.838913 -0.51744,-1.416167 6.8368,-9.849867 16.34336,-18.741647 l 17.28373,-16.166839 17.97733,17.754477 c 9.88729,9.764911 17.16355,19.449547 16.16904,21.521412 -0.99543,2.071864 -9.0616,10.285011 -17.92503,18.25146 l -16.11583,14.48452 z"
     id="path2" />
</svg>
