<?xml version="1.0" encoding="UTF-8" standalone="no"?>
<!-- Created with Inkscape (http://www.inkscape.org/) -->

<svg
   xmlns:dc="http://purl.org/dc/elements/1.1/"
   xmlns:cc="http://creativecommons.org/ns#"
   xmlns:rdf="http://www.w3.org/1999/02/22-rdf-syntax-ns#"
   xmlns:svg="http://www.w3.org/2000/svg"
   xmlns="http://www.w3.org/2000/svg"
   xmlns:sodipodi="http://sodipodi.sourceforge.net/DTD/sodipodi-0.dtd"
   xmlns:inkscape="http://www.inkscape.org/namespaces/inkscape"
   version="1.0"
   width="580"
   height="580"
   id="svg2"
   sodipodi:version="0.32"
   inkscape:version="0.92.3 (2405546, 2018-03-11)"
   sodipodi:docname="place_of_worship_shinto_m.svg"
   inkscape:output_extension="org.inkscape.output.svg.inkscape">
  <metadata
     id="metadata2975">
    <rdf:RDF>
      <cc:Work
         rdf:about="">
        <dc:format>image/svg+xml</dc:format>
        <dc:type
           rdf:resource="http://purl.org/dc/dcmitype/StillImage" />
        <cc:license
           rdf:resource="http://web.resource.org/cc/PublicDomain" />
        <dc:language>en</dc:language>
        <dc:title />
      </cc:Work>
    </rdf:RDF>
  </metadata>
  <sodipodi:namedview
     inkscape:window-height="1006"
     inkscape:window-width="1920"
     inkscape:pageshadow="2"
     inkscape:pageopacity="0.0"
     guidetolerance="10.0"
     gridtolerance="10.0"
     objecttolerance="10.0"
     borderopacity="1.0"
     bordercolor="#666666"
     pagecolor="#ffffff"
     id="base"
     inkscape:zoom="0.65172414"
     inkscape:cx="-386.67722"
     inkscape:cy="308.75363"
     inkscape:window-x="1920"
     inkscape:window-y="0"
     inkscape:current-layer="svg2"
     showgrid="false"
     inkscape:window-maximized="1" />
  <defs
     id="defs4">
    <inkscape:perspective
       sodipodi:type="inkscape:persp3d"
       inkscape:vp_x="0 : 290 : 1"
       inkscape:vp_y="0 : 1000 : 0"
       inkscape:vp_z="580 : 290 : 1"
       inkscape:persp3d-origin="290 : 193.33333 : 1"
       id="perspective2441" />
  </defs>
  <path
     inkscape:connector-curvature="0"
     style="fill:#ffffff;fill-opacity:1;stroke-width:0.99999994"
     d="m 176.80794,498.7754 c -2.38678,-4.46008 -3.43971,-36.36615 -3.0723,-93.08775 0.4781,-73.69129 -0.23067,-87.83147 -4.84981,-96.76372 -7.10078,-13.73183 -7.05428,-13.91321 4.62751,-17.98542 9.42616,-3.28529 10.03727,-4.56333 10.03727,-20.98794 v -17.48965 l -32.62043,-0.77017 c -17.94077,-0.42415 -33.66314,-1.81566 -34.93745,-3.09369 -3.05824,-3.06485 -4.44305,-35.27322 -1.70776,-39.69982 1.30873,-2.11702 11.79805,-2.83324 27.10464,-1.851 20.9619,1.34594 26.22935,0.5953 32.82506,-4.67773 13.35326,-10.67442 8.37974,-17.09341 -15.1066,-19.49413 -45.14028,-4.61355 -44.95145,-4.54565 -47.3133,-17.13525 -1.18361,-6.30922 -3.62164,-11.47063 -5.41776,-11.47063 -1.79622,0 -9.290179,-3.98663 -16.653257,-8.8597 -10.429981,-6.90266 -14.201282,-12.09104 -17.071545,-23.49006 -2.026336,-8.04767 -8.066371,-20.681 -13.422373,-28.074782 -5.355908,-7.393686 -8.844164,-14.889409 -7.751608,-16.657255 3.024204,-4.893158 17.43877,-3.841714 28.951819,2.112003 12.797217,6.61766 39.468394,14.653428 53.825294,16.216829 5.95111,0.648125 28.13337,3.75772 49.29527,6.910285 31.73585,4.72806 54.58876,5.44548 130.48079,4.09583 50.60306,-0.89982 98.78028,-3.25525 107.06049,-5.23424 8.28022,-1.978995 24.64439,-5.11249 36.3643,-6.9634 11.71992,-1.85091 30.76385,-7.790117 42.32099,-13.198206 28.07291,-13.137003 36.63589,-5.68667 21.67161,18.856416 -3.67317,6.02478 -6.6785,14.48973 -6.6785,18.81121 0,7.72305 -26.0396,35.47507 -33.28641,35.47507 -1.82868,0 -4.58007,4.84423 -6.11389,10.76558 -3.07322,11.85943 -9.90799,15.10938 -32.94971,15.66561 -20.4745,0.49484 -34.71048,3.995 -34.71048,8.53321 0,2.20911 3.46109,7.26821 7.69143,11.24275 7.07194,6.64408 9.56475,6.99381 30.94708,4.34661 14.29272,-1.77009 24.79507,-1.65382 27.24973,0.30229 4.02664,3.20717 2.48537,35.18765 -1.93471,40.1649 -1.15339,1.29849 -16.8404,2.61 -34.85931,2.91416 l -32.76181,0.55345 0.99713,17.15943 c 0.93387,16.07675 1.68357,17.38176 11.87338,20.6745 17.56686,5.67857 19.05323,9.25501 8.87086,21.35536 l -9.06712,10.7758 1.93007,85.9321 c 1.19617,53.2512 0.69296,88.14307 -1.32361,91.74647 -4.01268,7.16961 -33.55244,8.23371 -39.21335,1.4129 -2.30398,-2.7765 -4.47775,-37.074 -5.88321,-92.84219 -1.22595,-48.64137 -3.66945,-91.23489 -5.43023,-94.65319 -2.12539,-4.12709 -1.97285,-7.44122 0.45578,-9.86985 2.01005,-2.01006 3.65642,-14.26946 3.65828,-27.2423 l 0.003,-23.58679 -76.09295,1.09107 c -41.85033,0.59995 -76.6129,1.61196 -77.24912,2.24818 -0.63529,0.63529 -1.97378,55.09662 -2.97463,121.02486 -0.99991,65.92825 -3.17832,122.50381 -4.84051,125.72401 -4.51217,8.7425 -28.1278,8.07465 -32.94784,-0.93202 z m 97.07531,-301.01393 v -13.3821 h -24.92621 c -19.71272,0 -25.57453,1.15804 -28.02363,5.53533 -2.3263,4.15592 -0.90875,7.46447 5.68789,13.27699 6.96591,6.13714 12.77377,7.76305 28.02454,7.84676 l 19.23741,0.10604 z m 86.94875,4.27497 c 3.70107,-3.16902 6.72965,-8.43833 6.72965,-11.70968 0,-5.17071 -3.276,-5.94739 -25.09271,-5.94739 h -25.09271 v 11.70969 11.70967 h 18.36306 c 12.5403,0 20.49682,-1.82681 25.09271,-5.76229 z"
     id="path2" />
</svg>
