<?xml version="1.0" encoding="UTF-8" standalone="no"?>
<!-- Created with Inkscape (http://www.inkscape.org/) -->

<svg
   xmlns:dc="http://purl.org/dc/elements/1.1/"
   xmlns:cc="http://creativecommons.org/ns#"
   xmlns:rdf="http://www.w3.org/1999/02/22-rdf-syntax-ns#"
   xmlns:svg="http://www.w3.org/2000/svg"
   xmlns="http://www.w3.org/2000/svg"
   xmlns:sodipodi="http://sodipodi.sourceforge.net/DTD/sodipodi-0.dtd"
   xmlns:inkscape="http://www.inkscape.org/namespaces/inkscape"
   version="1.0"
   width="580"
   height="580"
   id="svg2"
   sodipodi:version="0.32"
   inkscape:version="0.92.3 (2405546, 2018-03-11)"
   sodipodi:docname="place_of_worship_muslim_cluster_m.svg"
   inkscape:output_extension="org.inkscape.output.svg.inkscape">
  <metadata
     id="metadata2975">
    <rdf:RDF>
      <cc:Work
         rdf:about="">
        <dc:format>image/svg+xml</dc:format>
        <dc:type
           rdf:resource="http://purl.org/dc/dcmitype/StillImage" />
        <cc:license
           rdf:resource="http://web.resource.org/cc/PublicDomain" />
        <dc:language>en</dc:language>
        <dc:title></dc:title>
      </cc:Work>
    </rdf:RDF>
  </metadata>
  <sodipodi:namedview
     inkscape:window-height="1006"
     inkscape:window-width="1920"
     inkscape:pageshadow="2"
     inkscape:pageopacity="0.0"
     guidetolerance="10.0"
     gridtolerance="10.0"
     objecttolerance="10.0"
     borderopacity="1.0"
     bordercolor="#666666"
     pagecolor="#ffffff"
     id="base"
     inkscape:zoom="1.3034483"
     inkscape:cx="284.94523"
     inkscape:cy="360.45782"
     inkscape:window-x="1920"
     inkscape:window-y="0"
     inkscape:current-layer="svg2"
     showgrid="false"
     inkscape:window-maximized="1" />
  <defs
     id="defs4">
    <inkscape:perspective
       sodipodi:type="inkscape:persp3d"
       inkscape:vp_x="0 : 290 : 1"
       inkscape:vp_y="0 : 1000 : 0"
       inkscape:vp_z="580 : 290 : 1"
       inkscape:persp3d-origin="290 : 193.33333 : 1"
       id="perspective2441" />
  </defs>
  <path
     style="vector-effect:none;fill:#ffffff;fill-opacity:1;stroke:none;stroke-width:21.51408958;stroke-linecap:butt;stroke-linejoin:bevel;stroke-miterlimit:4;stroke-dasharray:none;stroke-dashoffset:0;stroke-opacity:1;marker:none"
     d="m 361.87891,13.345703 c -12.72902,0 -27.03523,1.650046 -41.46485,4.099609 -12.49379,2.144459 -21.84245,12.646603 -22.52539,25.304688 -1.01794,-0.02211 -2.06402,-0.09961 -3.07031,-0.09961 -31.11934,0 -72.21607,7.102617 -99.40625,18.61914 -62.6206,26.523295 -115.646587,83.65363 -138.001954,148.35352 -7.796184,22.5632 -12.644974,46.29978 -12.929687,78.85742 -1.2e-5,10e-4 1.2e-5,0.003 0,0.004 -6e-6,6.9e-4 6e-6,0.001 0,0.002 -0.295223,33.07996 5.001039,59.40888 12.929687,82.35547 23.564883,68.20042 81.867814,128.39003 148.386724,151.76953 12.43004,4.36884 27.4383,8.79926 38.4082,10.98047 46.94445,9.33401 104.04708,2.21928 148.29297,-18.03711 13.90501,-6.36595 25.62408,-12.79445 34.91015,-19.40235 4.64304,-3.30394 8.63437,-6.21568 13.10938,-11.83789 2.2375,-2.8111 5.06095,-6.30439 6.65039,-13.64453 1.27484,-5.88733 -0.39802,-15.46609 -4.62891,-22.45117 2.84409,-1.14583 5.75812,-2.20493 8.50586,-3.46289 12.03403,-5.50938 22.2993,-11.09676 30.63477,-16.85156 4.16773,-2.87741 7.81452,-5.57848 11.76758,-9.90235 1.97653,-2.16193 4.16839,-4.6634 6.31445,-9.38672 2.14605,-4.72331 4.48458,-13.57944 0.65625,-23.11132 -0.68701,-1.70629 -1.54559,-3.33836 -2.5625,-4.8711 1.88436,-2.84884 3.19005,-5.69165 3.98633,-8.16406 1.02794,-3.19185 1.43193,-5.89486 1.63867,-8.24023 l 0.002,-0.002 c 0.20495,-2.3266 0.19799,-4.3419 0.11524,-6.15625 -0.0406,-0.88984 -0.10075,-1.73144 -0.17383,-2.53125 -0.21868,-2.39394 -0.53705,-4.35955 -0.80078,-5.8789 v -0.002 c -0.16339,-0.94092 -0.30377,-1.68809 -0.4043,-2.22851 -0.002,-0.008 -0.004,-0.0151 -0.006,-0.0234 -1.44326,-8.01632 -3.54479,-15.10712 -5.63672,-21.37891 3.38271,2.25932 7.01393,4.54648 10.97461,6.73243 3.78754,2.09008 8.01957,3.24518 12.34375,3.36914 8.05722,0.2312 19.67527,-4.27433 25.55078,-11.54493 5.87551,-7.27059 6.79759,-13.88743 7.19922,-18.43164 0.79227,-8.96404 -0.80208,-13.97605 -1.16992,-15.85937 -0.27115,-1.50789 -0.55913,-2.87046 -0.83203,-4.0957 -1.83141,-8.19092 -7.34699,-15.07493 -14.94141,-18.64844 2.37417,-0.92119 4.60697,-2.17173 6.63281,-3.71485 8.69395,-6.62931 20.86639,-14.16692 32.31836,-27.06054 3.71434,-4.18282 6.04648,-9.41053 6.67774,-14.96875 0.91988,-8.10147 -2.97746,-20.52549 -9.83789,-26.80078 -6.86044,-6.27529 -12.90698,-7.43079 -16.83203,-8.19336 -7.85011,-1.52514 -13.10326,-2.05782 -7.44336,-0.67774 -1.54111,-0.37625 -3.11223,-0.61675 -4.69532,-0.71875 -8.2346,-0.52829 -16.0456,-0.60825 -23.51367,-0.58594 -3.46078,-11.75923 -8.07732,-25.57147 -18.25195,-39.57812 -1.41644,-1.94955 -3.08605,-3.70191 -4.96484,-5.21094 -3.43887,-2.76203 -8.6987,-6.4373 -17.8125,-6.91797 -3.10283,-0.16364 -6.4708,0.17461 -9.69532,1.0918 -3.02781,0.86141 -5.88282,2.24265 -8.4375,4.08203 -19.31282,13.9056 -19.92545,31.10734 -20.45898,32.17188 -0.46508,0.92814 -0.87656,1.88217 -1.23242,2.85742 -0.71177,1.95005 -1.33722,3.8062 -2.02344,5.73633 -1.10706,-0.57826 -2.24853,-1.12211 -3.38867,-1.55664 0.60269,0.22971 -0.14541,-0.15449 -2.3418,-0.79688 l -0.0332,-0.01 c -0.36551,-0.10639 -0.76627,-0.21598 -1.17774,-0.31836 l -0.0273,-0.006 c -1.24869,-0.3093 -3.15494,-0.72304 -5.71094,-0.85743 h -0.002 c -3.10045,-0.16284 -6.49702,0.16689 -9.78711,1.10352 -3.02563,0.86144 -5.8786,2.242 -8.43164,4.08008 -1.25589,0.90425 -2.44178,1.85875 -3.54883,2.8418 -1.1142,0.98935 -2.14321,2.00284 -3.0918,3.02148 l -0.002,0.002 c -0.95564,1.02624 -1.83437,2.06293 -2.64258,3.09571 -0.80103,1.02367 -1.54106,2.05238 -2.2207,3.07031 -0.55188,0.83473 -1.05721,1.69933 -1.51367,2.58984 -5.32825,8.81676 -6.97488,15.75419 -8.16992,18.66797 -0.26232,0.63956 -0.46825,1.08549 -0.58594,1.32031 -0.46508,0.92814 -0.87656,1.88218 -1.23242,2.85743 -1.70965,4.684 -3.19794,9.0499 -4.78711,13.61523 -8.62616,0.0926 -18.2708,0.26884 -28.95703,1.67383 h -0.002 c -1.52766,0.20086 -3.0906,0.43331 -4.6875,0.70508 -3.16368,0.53849 -6.39647,1.22029 -9.67578,2.09375 -1.64839,0.43905 -3.302,0.9257 -4.95703,1.46289 -4.80016,1.55829 -9.07119,4.42323 -12.33398,8.27343 -1.33568,1.5763 -2.62362,3.38168 -3.75391,5.41797 -1.70859,3.07817 -3.09124,6.85088 -3.66211,10.83008 v 0.002 c -0.29988,2.09098 -0.22466,4.18689 -0.10156,6.24805 l -0.10742,-0.94336 c 0.009,0.62131 0.0399,1.24212 0.0918,1.86133 0.0188,0.21046 -0.0328,0.43585 -0.01,0.64453 0.048,0.43428 0.13396,0.74382 0.19531,1.14649 0.10147,0.8197 0.24029,1.63435 0.41601,2.4414 l 0.002,0.0137 c 0.52236,2.26335 1.25105,4.28941 2.06445,6.07618 l 0.002,0.002 c 1.56476,3.43611 3.16692,5.5677 4.33594,7.05469 -1.07068,-1.36212 -0.84574,-0.96146 0.7207,0.91015 1.60977,1.92384 3.06183,3.31458 4.3125,4.44141 1.88078,1.69454 3.3383,2.80356 4.25391,3.52539 0.57307,0.45177 0.87269,0.69831 0.92383,0.74023 0.62222,0.63652 1.27535,1.24207 1.95703,1.81446 1.70245,1.39645 3.4067,2.75508 5.10742,4.07812 6.19742,4.8211 11.89086,8.83514 17.57227,12.9375 -1.09433,3.0689 -2.17319,6.04994 -3.31446,9.43164 -0.86509,2.56339 -1.729,5.22805 -2.55468,8.00391 v 0.002 l -0.004,0.0117 c -0.41039,1.3801 -0.81147,2.78464 -1.19726,4.2168 v 0.004 l -0.01,0.0449 c -0.76797,2.85424 -1.48254,5.81894 -2.09375,8.9082 v 0.004 l -0.006,0.0293 c -0.71433,3.61534 -1.22156,7.43671 -1.57422,11.36524 -27.45885,-17.26912 -50.41974,-44.1529 -61.50195,-74.95703 -6.34188,-17.62777 -6.3481,-68.54224 0.0859,-86.46485 2.76047,-7.68959 6.18592,-15.11088 10.1914,-22.18555 4.79963,-8.5143 4.65418,-18.95089 -0.38086,-27.32812 11.65851,-5.05961 23.77605,-8.64006 36.0625,-10.32813 21.06794,-2.89458 23.80388,-2.68057 52.10938,3.25 18.62294,3.90189 28.01383,6.5412 41.15234,5.96485 3.28463,-0.14409 7.16929,-0.22089 13.3086,-3.08594 6.1393,-2.86505 15.05653,-12.22896 16.51171,-21.92773 0.74846,-4.98842 0.30619,-8.87622 -0.54296,-11.98633 9.13992,1.93026 16.83936,3.33176 25.74804,2.9414 3.1526,-0.13813 6.93981,-0.19834 13.01172,-3.03125 6.07191,-2.8329 14.95305,-12.150532 16.40039,-21.792965 1.44735,-9.642434 -1.53301,-15.224697 -3.36328,-18.677735 -1.83027,-3.453038 -3.44903,-5.44659 -4.9668,-7.27539 -8.3303,-10.03849 -16.83147,-14.333916 -26.82534,-19.359474 -9.99387,-5.025558 -21.33688,-9.548032 -33.32422,-13.550782 -23.97468,-8.0055 -49.45779,-14.113281 -72.18554,-14.113281 z"
     id="path6579"
     inkscape:connector-curvature="0"
     sodipodi:nodetypes="sccsscccccccccsccsccsccccccccccccccssccccccssccccccccccccccccccccccccccccccccccccccccccccccccccccccccccccccccccccsccssssccccsscsss" />
</svg>
