<?xml version="1.0" encoding="UTF-8" standalone="no"?>
<!-- Created with Inkscape (http://www.inkscape.org/) -->

<svg
   xmlns:dc="http://purl.org/dc/elements/1.1/"
   xmlns:cc="http://creativecommons.org/ns#"
   xmlns:rdf="http://www.w3.org/1999/02/22-rdf-syntax-ns#"
   xmlns:svg="http://www.w3.org/2000/svg"
   xmlns="http://www.w3.org/2000/svg"
   xmlns:sodipodi="http://sodipodi.sourceforge.net/DTD/sodipodi-0.dtd"
   xmlns:inkscape="http://www.inkscape.org/namespaces/inkscape"
   version="1.0"
   width="580"
   height="580"
   id="svg2"
   sodipodi:version="0.32"
   inkscape:version="0.92.3 (2405546, 2018-03-11)"
   sodipodi:docname="place_of_worship_buddhist_m.svg"
   inkscape:output_extension="org.inkscape.output.svg.inkscape">
  <metadata
     id="metadata2975">
    <rdf:RDF>
      <cc:Work
         rdf:about="">
        <dc:format>image/svg+xml</dc:format>
        <dc:type
           rdf:resource="http://purl.org/dc/dcmitype/StillImage" />
        <cc:license
           rdf:resource="http://web.resource.org/cc/PublicDomain" />
        <dc:language>en</dc:language>
        <dc:title />
      </cc:Work>
    </rdf:RDF>
  </metadata>
  <sodipodi:namedview
     inkscape:window-height="1006"
     inkscape:window-width="1920"
     inkscape:pageshadow="2"
     inkscape:pageopacity="0.0"
     guidetolerance="10.0"
     gridtolerance="10.0"
     objecttolerance="10.0"
     borderopacity="1.0"
     bordercolor="#666666"
     pagecolor="#ffffff"
     id="base"
     inkscape:zoom="0.65172414"
     inkscape:cx="141.15346"
     inkscape:cy="298.01289"
     inkscape:window-x="1920"
     inkscape:window-y="0"
     inkscape:current-layer="svg2"
     showgrid="false"
     inkscape:window-maximized="1" />
  <defs
     id="defs4">
    <inkscape:perspective
       sodipodi:type="inkscape:persp3d"
       inkscape:vp_x="0 : 290 : 1"
       inkscape:vp_y="0 : 1000 : 0"
       inkscape:vp_z="580 : 290 : 1"
       inkscape:persp3d-origin="290 : 193.33333 : 1"
       id="perspective2441" />
  </defs>
  <path
     sodipodi:type="inkscape:offset"
     inkscape:radius="22.41835"
     inkscape:original="M 291.03516 51.853516 C 264.42722 50.941163 265.93463 70.350526 264.2793 87.753906 C 251.75081 90.548737 250.8971 88.422302 239.76758 91.179688 C 203.13702 100.25497 177.76426 115.48517 147.44922 145.81055 C 117.8713 175.39954 103.26119 200.51772 93.421875 238.69922 L 87.523438 261.58594 L 75.027344 262.33789 C 58.351374 263.34226 49.214844 272.03839 49.214844 286.9043 C 49.214844 303.25891 59.954723 314.08594 76.179688 314.08594 C 81.367513 314.08594 84.082967 314.27721 88.992188 314.65625 C 105.08796 395.20977 171.41914 472.9519 246.41797 487.70703 L 265.74609 491.50781 L 265.74609 504.40039 C 265.74609 512.85007 268.04099 519.58787 272.4082 523.95508 C 280.96775 532.51463 302.54181 532.99234 309.95508 524.78711 C 312.85191 521.58083 315.7075 513.00458 316.30078 505.73047 L 317.37891 492.50391 L 342.36523 485.56836 C 390.89071 472.09501 432.68686 442.71598 459.49805 403.23438 C 474.71096 380.83251 488.33484 349.649 491.80664 329.28516 C 494.02412 316.28333 494.69045 315.67433 508.7168 313.79102 C 530.14268 310.91434 540.72881 294.74507 533.50781 275.92578 C 530.59176 268.32848 513.43999 260.17507 502.96875 261.41016 C 495.03636 262.34586 493.91987 261.1124 491.83789 249.125 C 478.68316 173.38549 411.26947 105.66101 336.19922 90.224609 C 323.71376 87.657293 321.37292 87.443047 314.16016 86.736328 C 314.07318 65.428735 312.06644 52.587244 291.03516 51.853516 z M 265.74609 137.40234 L 265.74609 180.77148 C 265.74609 204.62451 265.33998 224.14258 264.84375 224.14258 C 262.60155 224.14258 206.29225 165.3669 205.7832 163.10547 C 204.97201 159.50366 239.88878 140.20132 256.58398 139.4707 L 265.74609 137.40234 z M 317.37891 139.19531 L 325.70898 140.23633 C 330.28951 140.80947 344.58285 142.75823 357.02344 148.59766 L 379.27734 162.51367 L 347.40234 194.16016 L 315.5293 225.80664 L 316.45508 182.5 L 317.37891 139.19531 z M 166.72852 200.21289 L 196.25 229.59766 C 212.4865 245.75908 225.77148 259.76279 225.77148 260.7168 C 225.77148 261.67081 207.03263 262.45117 184.13086 262.45117 C 147.92147 262.45117 144.32131 262.84462 142.12305 262.53516 C 146.51865 238.58051 151.64031 224.62567 159.62305 211.70898 L 166.72852 200.21289 z M 416.05859 200.82227 C 417.50243 200.82227 425.75818 211.53134 431.20117 223.66797 C 436.58739 235.67917 439.16581 249.09769 439.70508 253.48047 C 440.62796 260.99353 440.23657 261.07115 398.16211 261.75781 C 374.80165 262.1396 355.68854 261.67173 355.68945 260.7168 C 355.68945 258.32628 413.64976 200.82227 416.05859 200.82227 z M 292.50586 256.70703 C 300.29989 256.81312 307.91247 260.46527 314.53516 267.72656 C 322.84018 276.8327 325.54714 288.03425 321.125 298.61719 C 318.35086 305.25681 308.94831 315.131 303.21875 318.09375 C 291.15353 324.33327 276.03986 319.70049 266.70117 308.77148 C 258.5582 299.24235 255.04737 280.47755 269.38867 266.96484 C 276.73694 260.04094 284.71183 256.60094 292.50586 256.70703 z M 141.74805 314.08594 L 185.85547 314.08594 L 229.96289 314.08594 L 199.0957 343.23438 C 182.11851 359.26578 167.25572 372.7761 166.06641 373.25586 C 162.81801 374.56602 146.58957 339.89499 144.00586 326.125 L 141.74805 314.08594 z M 354.16406 314.08594 L 398.29492 314.08594 L 442.42969 314.08594 L 440.35938 325.07812 C 439.22134 330.11736 436.95537 339.5775 431.74219 351.0293 C 426.529 362.48018 418.09867 374.04883 416.58984 374.04883 C 415.081 374.04883 400.41906 360.55652 384.00586 344.06641 L 354.16406 314.08594 z M 263.17383 354.06055 C 264.58837 354.06055 265.74609 372.79849 265.74609 395.70117 C 265.74609 421.83027 265.36148 432.26936 266.28711 439.22852 C 260.69031 438.38438 248.46058 436.63747 233.62305 430.53711 C 215.91616 423.25842 208.83979 415.30331 204.80859 412.35156 C 208.07896 407.63094 216.87698 398.01506 232.45703 382.35352 C 247.93728 366.7927 261.75929 354.06055 263.17383 354.06055 z M 318.2832 354.06055 C 319.6959 354.06055 334.22382 367.49653 350.56836 383.91797 L 380.28711 413.77344 L 365.78711 422.71289 C 353.98465 428.2337 339.45479 433.72566 333.5 434.91406 L 315.71484 438.17383 L 315.71484 396.11719 C 315.71484 372.98562 316.87049 354.06055 318.2832 354.06055 z "
     style="fill:#ffffff;fill-opacity:1;stroke-width:0.99999994"
     id="path2-3"
     d="m 291.80273,29.449219 c -9.36547,-0.321131 -18.48006,1.063506 -26.61328,5.466797 -8.13322,4.40329 -14.1584,11.863728 -17.2832,18.708984 -2.34146,5.129252 -3.48287,9.742558 -4.25977,14.068359 -2.69224,0.345308 -5.8238,0.87287 -9.26953,1.726563 -39.96787,9.902106 -70.69966,28.446532 -102.7832,60.541018 -31.45314,31.46491 -49.296194,62.07069 -59.880859,103.14453 l -1.826172,7.08203 3.791015,-0.22656 c -11.967876,0.72113 -24.064775,4.4658 -33.265625,13.22265 -9.201344,8.75733 -13.615234,21.69501 -13.615234,33.72071 0,13.08459 4.658265,26.19509 13.900391,35.51172 8.030292,8.09502 19.025148,12.53732 30.357422,13.62109 22.817091,82.87596 89.405122,157.60627 171.035152,173.66601 a 22.420592,22.420592 0 0 0 0.002,0.002 l 1.23632,0.24219 v -5.54688 c 0,12.50884 3.48567,25.6634 13.22852,35.40625 10.79147,10.79147 22.93993,13.00628 34.55859,13.26367 11.61867,0.2574 24.37071,-0.96377 35.47461,-13.2539 5.65757,-6.26194 6.95904,-10.8053 8.67188,-15.94922 1.71284,-5.14393 2.9073,-10.48432 3.38281,-16.31446 l -0.19336,2.36719 9.91016,-2.75 a 22.420592,22.420592 0 0 0 0.002,0 c 53.42272,-14.83309 99.69097,-47.17815 129.68164,-91.3418 16.58247,-24.41862 30.36058,-54.46286 35.29883,-80.11523 15.08614,-2.41592 29.00244,-9.97165 37.26758,-22.5957 8.56701,-13.08513 9.51856,-30.38721 3.82617,-45.22266 a 22.420592,22.420592 0 0 0 0,-0.002 c -5.76575,-15.02175 -14.91256,-18.58619 -23.74219,-22.7832 -5.60405,-2.6638 -11.44546,-4.78156 -18.05078,-5.7129 C 495.4219,155.74365 423.90358,85.371398 340.71484,68.265625 c -2.32771,-0.478634 -3.36192,-0.610873 -5.20117,-0.962891 -0.82433,-5.190308 -2.24872,-10.513156 -5.22656,-16.167968 -6.77179,-12.859395 -23.4254,-21.160655 -38.4707,-21.685547 a 22.420592,22.420592 0 0 0 -0.0137,0 z M 224.72656,151.00391 c 0.23614,0.12359 0.54213,0.25165 1.05664,1.20312 -0.12653,-0.14361 -0.40874,-0.44681 -0.52343,-0.57812 -0.29602,-0.3389 -0.33111,-0.38631 -0.53321,-0.625 z m 114.50586,14.92187 c 1.24617,0.36253 2.38501,0.76985 3.5918,1.19141 l -3.69531,3.66601 z m -95.9043,0.61524 v 4.47265 c -1.07209,-1.12815 -2.02418,-2.13795 -3.05273,-3.22656 1.04896,-0.43311 2.00535,-0.84676 3.05273,-1.24609 z m 31.51368,36.62695 c 0.79316,0.45339 1.13203,0.90072 1.33789,1.28906 -0.32746,-0.3051 -0.93863,-0.9092 -1.33789,-1.28906 z m 136.79882,32.06055 c 0.47486,1.2062 0.95069,2.39989 1.37696,3.67578 -1.6429,0.0553 -3.44419,0.10221 -5.32422,0.15429 1.39167,-1.3609 2.61365,-2.53777 3.94726,-3.83007 z m -239.65624,1.8457 2.96093,2.94726 c -1.73563,-0.003 -2.63043,-0.003 -4.16992,-0.006 0.3776,-1.06766 0.81418,-1.94385 1.20899,-2.9414 z m 245.21289,17.9668 c 0.0316,0.18541 0.24528,1.08624 0.25585,1.17187 0.10728,0.87329 -0.32992,0.44049 -0.25585,-1.17187 z m -124.9961,24.08203 c 0.99138,0.0135 2.38871,0.004 5.76953,3.71093 3.77124,4.13502 3.46639,4.75312 2.46875,7.14063 0.56228,-1.34575 -1.34415,2.09356 -3.57226,4.48828 -1.61649,1.73735 -3.81864,3.34293 -4.27735,3.77344 -1.50158,0.49311 -5.43956,-0.0431 -8.8457,-4.0293 -0.38376,-0.44909 -1.6875,-3.13861 -1.71484,-5.15039 -0.0273,-2.01178 -0.004,-3.19711 2.73242,-5.77539 4.15351,-3.91364 6.44811,-4.1717 7.43945,-4.1582 z m -120.93359,57.38086 h 2.13672 c -0.53074,0.49349 -1.02869,0.95687 -1.54688,1.4375 -0.19866,-0.49384 -0.39654,-0.9468 -0.58984,-1.4375 z m 237.15234,0 h 4.91211 c -0.46021,1.18549 -0.77604,2.20972 -1.32226,3.47461 -1.18845,-1.14233 -2.33208,-2.24903 -3.58985,-3.47461 z m -254.35937,17.67968 c -0.23935,0.20364 -0.4606,0.39345 -0.60743,0.51563 0.0782,-0.11055 0.19841,-0.24114 0.60743,-0.51563 z m 184.07226,49.01953 4.64844,4.66993 c -1.72622,0.65542 -3.10439,1.29069 -4.64844,1.85351 z m -94.84961,0.26172 c -0.0154,2.54962 -0.0177,4.53255 -0.0371,6.73633 -0.38308,-0.15252 -0.70885,-0.23858 -1.09765,-0.39844 a 22.420592,22.420592 0 0 0 -0.002,0 c -1.3582,-0.55831 -2.20001,-1.07195 -3.37304,-1.61718 1.48357,-1.56287 2.81849,-2.97718 4.50976,-4.72071 z" />
</svg>
