<?xml version="1.0" encoding="UTF-8" standalone="no"?>
<!-- Created with Inkscape (http://www.inkscape.org/) -->

<svg
   xmlns:dc="http://purl.org/dc/elements/1.1/"
   xmlns:cc="http://creativecommons.org/ns#"
   xmlns:rdf="http://www.w3.org/1999/02/22-rdf-syntax-ns#"
   xmlns:svg="http://www.w3.org/2000/svg"
   xmlns="http://www.w3.org/2000/svg"
   xmlns:sodipodi="http://sodipodi.sourceforge.net/DTD/sodipodi-0.dtd"
   xmlns:inkscape="http://www.inkscape.org/namespaces/inkscape"
   version="1.0"
   width="580"
   height="580"
   id="svg2"
   sodipodi:version="0.32"
   inkscape:version="0.92.3 (2405546, 2018-03-11)"
   sodipodi:docname="place_of_worship_sikh_m.svg"
   inkscape:output_extension="org.inkscape.output.svg.inkscape">
  <metadata
     id="metadata2975">
    <rdf:RDF>
      <cc:Work
         rdf:about="">
        <dc:format>image/svg+xml</dc:format>
        <dc:type
           rdf:resource="http://purl.org/dc/dcmitype/StillImage" />
        <cc:license
           rdf:resource="http://web.resource.org/cc/PublicDomain" />
        <dc:language>en</dc:language>
        <dc:title></dc:title>
      </cc:Work>
    </rdf:RDF>
  </metadata>
  <sodipodi:namedview
     inkscape:window-height="1006"
     inkscape:window-width="1920"
     inkscape:pageshadow="2"
     inkscape:pageopacity="0.0"
     guidetolerance="10.0"
     gridtolerance="10.0"
     objecttolerance="10.0"
     borderopacity="1.0"
     bordercolor="#666666"
     pagecolor="#ffffff"
     id="base"
     inkscape:zoom="0.92167712"
     inkscape:cx="158.86433"
     inkscape:cy="346.37252"
     inkscape:window-x="1920"
     inkscape:window-y="0"
     inkscape:current-layer="svg2"
     showgrid="false"
     inkscape:window-maximized="1" />
  <defs
     id="defs4">
    <inkscape:perspective
       sodipodi:type="inkscape:persp3d"
       inkscape:vp_x="0 : 290 : 1"
       inkscape:vp_y="0 : 1000 : 0"
       inkscape:vp_z="580 : 290 : 1"
       inkscape:persp3d-origin="290 : 193.33333 : 1"
       id="perspective2441" />
  </defs>
  <path
     sodipodi:type="inkscape:offset"
     inkscape:radius="27.155315"
     inkscape:original="M 289.01953 53.316406 L 289.01953 56.298828 C 288.52806 57.046369 288.03639 57.793455 287.54492 58.541016 C 276.79344 75.302896 257.81684 85.119597 247.38477 102.19336 C 247.44677 111.43634 247.37227 121.69129 242.36523 129.61328 C 232.86504 136.32721 221.98792 141.64087 214.42383 150.73242 C 197.24402 166.86199 181.90268 187.2736 180.30664 211.54688 C 177.61336 233.60218 179.81306 256.86668 191.60352 276.03711 C 203.66923 295.51659 218.6102 314.34964 239.51758 324.74414 C 247.39354 330.51302 249.63929 341.35136 246.59375 350.43164 C 245.30206 354.83369 247.23012 359.78737 252.38086 360.18945 C 263.86038 364.96725 274.18579 373.34999 280.73438 384.07422 C 284.28908 390.58053 286.4372 400.46493 280.38086 406.12109 C 275.07136 409.98203 269.45761 403.77175 264.6582 401.97656 C 249.81091 392.33544 236.28671 381.05872 222.45117 370.05078 C 194.00226 346.52904 162.28993 315.48469 151.30078 279.44727 C 140.2609 248.08808 137.17049 207.67567 152.88672 176.93555 C 159.97547 162.15966 171.86441 150.87666 182.83008 138.91992 C 184.79249 136.00778 180.86942 133.96436 178.45703 135.63086 C 164.89861 139.737 153.90904 149.39473 143.70898 158.78125 C 118.54047 183.83329 104.5869 224.08453 106.88477 259.42773 C 108.1137 309.0433 135.44201 357.6676 165.20703 396.46875 C 176.86316 412.9196 189.70592 429.64519 194.83789 449.36328 C 193.70779 453.13687 198.03232 454.75788 200.35547 451.94531 C 216.79785 443.43431 226.96775 426.15975 243.80469 418.42188 C 251.22786 416.34861 257.76736 420.98502 263.73633 424.55664 C 266.62594 425.68392 273.74145 428.36244 270.01953 432.36523 C 262.60481 436.93826 253.84515 439.18597 246.86914 444.60352 C 233.60757 453.43485 221.50064 467.53644 221.49219 484.20898 C 222.16199 493.03468 232.08378 500.0233 240.39844 495.92188 C 250.14946 492.46393 255.44746 480.62413 251.84766 470.99805 C 252.08063 461.18034 262.55754 456.52778 270.2832 453.0332 C 274.20616 450.34838 281.92113 448.90671 283.25977 455.11523 C 286.16724 465.07668 282.98059 475.54103 281.99609 485.44141 C 280.58134 492.68328 275.76112 498.6433 273.27734 505.22852 C 273.21344 513.78555 280.36518 520.35287 286.63477 525.10156 C 288.27374 526.42743 289.32729 526.82802 290 526.63086 C 290.67271 526.82802 291.72626 526.42743 293.36523 525.10156 C 299.63482 520.35287 306.78656 513.78555 306.72266 505.22852 C 304.23887 498.6433 299.41866 492.68328 298.00391 485.44141 C 297.01848 475.54103 293.83277 465.07668 296.74023 455.11523 C 298.07794 448.90671 305.79385 450.34838 309.7168 453.0332 C 317.4434 456.52778 327.91937 461.18034 328.15234 470.99805 C 324.55348 480.62413 329.84961 492.46392 339.60156 495.92188 C 347.91528 500.0233 357.83707 493.03468 358.50781 484.20898 C 358.49881 467.53644 346.39242 453.43485 333.13086 444.60352 C 326.15389 439.18597 317.39518 436.93826 309.98047 432.36523 C 306.25855 428.36244 313.37405 425.68392 316.26367 424.55664 C 322.2317 420.98502 328.77213 416.3486 336.19531 418.42188 C 353.03225 426.15974 363.2002 443.43431 379.64258 451.94531 C 381.96573 454.75788 386.29222 453.13687 385.16211 449.36328 C 390.29408 429.64519 403.13778 412.9196 414.79297 396.46875 C 444.55799 357.6676 471.88649 309.0433 473.11523 259.42773 C 475.41301 224.08453 461.45954 183.83329 436.29102 158.78125 C 426.09097 149.39473 415.10233 139.737 401.54297 135.63086 C 399.13151 133.96436 395.20657 136.00778 397.16992 138.91992 C 408.13559 150.87666 420.02454 162.15966 427.11328 176.93555 C 442.82952 207.67567 439.7391 248.08808 428.69922 279.44727 C 417.71007 315.48469 385.99774 346.52904 357.54883 370.05078 C 343.71329 381.05872 330.19002 392.33544 315.3418 401.97656 C 310.54332 403.77175 304.9267 409.98203 299.61719 406.12109 C 293.56179 400.46493 295.71186 390.58053 299.26562 384.07422 C 305.81516 373.34999 316.13962 364.96725 327.61914 360.18945 C 332.76895 359.78737 334.69698 354.83369 333.40625 350.43164 C 330.3607 341.35136 332.60739 330.51302 340.48242 324.74414 C 361.38979 314.34964 376.33077 295.51659 388.39648 276.03711 C 400.18599 256.86668 402.38663 233.60218 399.69336 211.54688 C 398.09731 187.2736 382.75693 166.86199 365.57617 150.73242 C 358.01303 141.64087 347.13496 136.32721 337.63477 129.61328 C 332.62769 121.69129 332.55228 111.43634 332.61328 102.19336 C 322.18214 85.119597 303.2075 75.302896 292.45508 58.541016 C 291.96402 57.793455 291.4718 57.046369 290.98047 56.298828 L 290.98047 53.316406 C 290.65379 53.81332 290.32668 54.309737 290 54.806641 C 289.67334 54.309737 289.34621 53.81332 289.01953 53.316406 z M 252.81641 156.47461 C 261.03526 157.14158 263.09522 167.20695 264.49023 173.79688 C 272.27226 204.14525 280.5359 232.01719 273.27148 263.3125 C 270.1273 275.17905 267.9003 283.68592 262.73828 294.83008 C 260.99944 299.42376 256.41592 302.47389 251.52539 300.55469 C 239.75842 295.52793 234.51433 287.63524 225.93945 278.46289 C 208.91557 259.55457 199.93524 234.12501 206.98828 208.99219 C 211.62518 187.79924 223.12498 174.72359 240.82617 163.24219 C 244.83084 161.22154 248.20864 156.86916 252.81641 156.47461 z M 327.18359 156.47461 C 331.79137 156.86916 335.16916 161.22154 339.17383 163.24219 C 356.87503 174.72359 368.37388 187.79924 373.01172 208.99219 C 380.06477 234.12501 371.08349 259.55457 354.06055 278.46289 C 345.48472 287.63524 340.24159 295.52793 328.47461 300.55469 C 323.58314 302.47389 319.00055 299.42376 317.26172 294.83008 C 312.09969 283.68592 309.87168 275.17905 306.72656 263.3125 C 299.46309 232.01719 307.72775 204.14525 315.50977 173.79688 C 316.90478 167.20695 318.96475 157.14158 327.18359 156.47461 z "
     style="fill:#ffffff;fill-opacity:1;stroke-width:0.99999988"
     id="path2"
     d="m 288.7207,26.169922 a 27.158031,27.158031 0 0 0 -25.88867,20.003906 c -7.09728,8.161116 -24.31765,18.454644 -38.61914,41.861328 A 27.158031,27.158031 0 0 0 220.23047,102.375 c 0.0284,4.23699 -0.2971,7.33795 -0.57227,9.52344 -4.24933,2.57857 -8.57362,5.39135 -13.96093,9.72461 -2.50904,-3.83735 -5.62025,-6.90906 -8.73047,-8.90821 -9.38093,-6.02976 -19.94814,-6.94452 -29.95508,-1.80273 -18.93452,6.69553 -31.7934,18.77816 -41.69141,27.88672 a 27.158031,27.158031 0 0 0 -0.76758,0.73633 c -31.85414,31.70673 -47.534362,77.68732 -44.769527,121.38476 1.719122,58.42398 32.084177,110.44214 63.273437,151.25781 12.07328,17.0396 22.2093,31.37434 25.50195,44.02539 l 0.041,-2.25781 c 1.86706,10.00672 8.16264,20.36253 17.03711,24.15235 2.93239,1.25226 5.97599,1.91921 9.01953,2.17382 -0.0798,1.32217 -0.31962,2.56245 -0.32031,3.92383 a 27.158031,27.158031 0 0 0 0.0781,2.06836 c 2.03313,26.78971 28.71403,45.64366 54.69922,35.38867 4.92019,12.75078 14.7326,20.23911 20.61914,24.69141 1.95336,1.57567 4.15938,3.26701 8.07813,4.97852 2.38434,1.04135 5.92185,2.11108 10.15429,2.37304 0.71008,0.0624 1.35851,0.0579 2.03516,0.0664 0.67665,-0.009 1.32508,-0.004 2.03516,-0.0664 4.23244,-0.26196 7.76995,-1.33169 10.15429,-2.37304 3.91875,-1.71151 6.12477,-3.40285 8.07813,-4.97852 5.88654,-4.4523 15.69895,-11.94063 20.61914,-24.69141 25.98569,10.25664 52.66338,-8.59695 54.69922,-35.38476 a 27.158031,27.158031 0 0 0 0.0781,-2.07422 c -7.3e-4,-1.3609 -0.24056,-2.60015 -0.32031,-3.92188 3.04225,-0.25467 6.08461,-0.92069 9.01563,-2.17187 8.87392,-3.78808 15.17316,-14.14665 17.04101,-24.15625 l 0.041,2.25976 c 3.29307,-12.65266 13.43361,-26.99012 25.50976,-44.03515 31.18661,-40.81417 61.54686,-92.82859 63.26563,-151.24805 2.76472,-43.69734 -12.91535,-89.678 -44.76953,-121.38476 a 27.158031,27.158031 0 0 0 -0.76758,-0.73633 c -9.89713,-9.10776 -22.75493,-21.19105 -41.68946,-27.88672 -10.00898,-5.14395 -20.57561,-4.22668 -29.95507,1.80078 -3.1105,1.99888 -6.22255,5.07182 -8.73243,8.91016 -5.38762,-4.33359 -9.71153,-7.14618 -13.96093,-9.72461 -0.27545,-2.18596 -0.60219,-5.28735 -0.57422,-9.52539 A 27.158031,27.158031 0 0 0 355.78516,88.035156 C 341.4609,64.589105 324.21055,54.302172 317.13477,46.132812 A 27.158031,27.158031 0 0 0 289.7793,26.210938 27.158031,27.158031 0 0 0 288.7207,26.169922 Z M 242.19531,196.49609 c 5.64731,22.84135 9.02124,41.39756 4.66797,60.42969 -0.33788,1.27559 -0.58111,2.03504 -0.88867,3.1875 -11.9863,-13.4014 -16.96906,-29.07612 -12.8418,-43.7832 a 27.158031,27.158031 0 0 0 0.38281,-1.5332 c 1.82268,-8.33056 4.22432,-13.54946 8.67969,-18.30079 z m 95.60938,0 c 4.4553,4.75141 6.85646,9.96941 8.67969,18.30079 a 27.158031,27.158031 0 0 0 0.38281,1.5332 c 4.1273,14.70722 -0.85637,30.38284 -12.84375,43.78515 -0.3052,-1.14321 -0.54784,-1.89786 -0.88282,-3.16211 -4.36138,-19.04108 -0.98607,-37.60508 4.66407,-60.45703 z m -184.45313,11.75977 c -0.0589,0.48203 -0.0816,0.98433 -0.13672,1.46875 -9.3e-4,0.0141 -0.005,0.0269 -0.006,0.041 z m 273.29688,0 c 0.0676,0.68913 0.1528,1.67454 0.13672,1.46875 -0.0552,-0.48443 -0.0779,-0.98671 -0.13672,-1.46875 z m -92.42383,51.66211 c -0.0978,0.10458 -0.0992,0.11177 -0.19531,0.21484 -2.3e-4,-8.3e-4 -0.002,-0.001 -0.002,-0.002 z M 231.81836,422.00195 c -0.50325,0.33514 -1.01059,0.74551 -1.51563,1.09375 -0.0317,0.0246 -0.0581,0.0359 -0.0898,0.0605 z m 116.36328,0 c 0.3721,0.27009 1.68768,1.20752 1.5,1.08203 -0.49975,-0.34447 -1.002,-0.75039 -1.5,-1.08203 z M 282.73828,477.125 c -0.21571,0.0956 -0.50607,0.30835 -0.73828,0.38086 a 27.158031,27.158031 0 0 0 0.73828,-0.38086 z m 14.75586,0.13672 a 27.158031,27.158031 0 0 0 0.48828,0.24219 c -0.15143,-0.0476 -0.34488,-0.18483 -0.48828,-0.24219 z m -45.08203,43.01367 -2.9375,1.24023 c 0.10072,-0.0357 0.18096,-0.0965 0.28125,-0.13281 0.88562,-0.36617 1.77374,-0.6721 2.65625,-1.10742 z m 75.17578,0 c 0.88254,0.43538 1.77061,0.74119 2.65625,1.10742 0.1003,0.0363 0.18053,0.0971 0.28125,0.13281 z" />
</svg>
