<?xml version="1.0" encoding="UTF-8" standalone="no"?>
<!-- Created with Inkscape (http://www.inkscape.org/) -->

<svg
   xmlns:dc="http://purl.org/dc/elements/1.1/"
   xmlns:cc="http://creativecommons.org/ns#"
   xmlns:rdf="http://www.w3.org/1999/02/22-rdf-syntax-ns#"
   xmlns:svg="http://www.w3.org/2000/svg"
   xmlns="http://www.w3.org/2000/svg"
   xmlns:sodipodi="http://sodipodi.sourceforge.net/DTD/sodipodi-0.dtd"
   xmlns:inkscape="http://www.inkscape.org/namespaces/inkscape"
   version="1.0"
   width="580"
   height="580"
   id="svg2"
   sodipodi:version="0.32"
   inkscape:version="0.92.3 (2405546, 2018-03-11)"
   sodipodi:docname="place_of_worship_taoist_m.svg"
   inkscape:output_extension="org.inkscape.output.svg.inkscape">
  <metadata
     id="metadata2975">
    <rdf:RDF>
      <cc:Work
         rdf:about="">
        <dc:format>image/svg+xml</dc:format>
        <dc:type
           rdf:resource="http://purl.org/dc/dcmitype/StillImage" />
        <cc:license
           rdf:resource="http://web.resource.org/cc/PublicDomain" />
        <dc:language>en</dc:language>
        <dc:title></dc:title>
      </cc:Work>
    </rdf:RDF>
  </metadata>
  <sodipodi:namedview
     inkscape:window-height="1006"
     inkscape:window-width="1920"
     inkscape:pageshadow="2"
     inkscape:pageopacity="0.0"
     guidetolerance="10.0"
     gridtolerance="10.0"
     objecttolerance="10.0"
     borderopacity="1.0"
     bordercolor="#666666"
     pagecolor="#ffffff"
     id="base"
     inkscape:zoom="0.65172414"
     inkscape:cx="29.142882"
     inkscape:cy="279.60019"
     inkscape:window-x="1920"
     inkscape:window-y="0"
     inkscape:current-layer="svg2"
     showgrid="false"
     inkscape:window-maximized="1" />
  <defs
     id="defs4">
    <inkscape:perspective
       sodipodi:type="inkscape:persp3d"
       inkscape:vp_x="0 : 290 : 1"
       inkscape:vp_y="0 : 1000 : 0"
       inkscape:vp_z="580 : 290 : 1"
       inkscape:persp3d-origin="290 : 193.33333 : 1"
       id="perspective2441" />
  </defs>
  <path
     sodipodi:type="inkscape:offset"
     inkscape:radius="29.220961"
     inkscape:original="M 290 59.519531 C 162.71578 59.519531 59.519531 162.71578 59.519531 290 C 59.519531 417.28422 162.71578 520.48047 290 520.48047 C 417.28422 520.48047 520.48047 417.28422 520.48047 290 L 520.45117 286.4375 C 518.50285 160.55871 415.89379 59.519531 290 59.519531 z M 321.49805 89.015625 C 417.75301 103.98121 491.85174 186.45922 493.40625 286.85547 L 493.40625 290 C 493.40625 402.34479 402.3448 493.40625 290 493.40625 C 284.73361 493.40625 279.52647 493.21512 274.36133 492.82227 C 274.34253 492.82027 274.32544 492.82427 274.30664 492.82227 C 203.08137 485.65633 172.62187 434.81066 172.54688 396.73828 C 172.50747 376.42932 175.49024 350.61066 191.58008 329.5957 C 207.66992 308.58075 236.90007 292.23299 289.85938 291.00195 L 290.61133 290.97461 C 343.47594 289.51667 370.09712 265.07807 383.35547 238.74609 C 396.66913 212.30441 396.66357 183.96704 396.93359 175.02344 L 396.93359 174.99609 C 397.21299 165.78716 394.11904 143.98307 379.1543 124.10352 C 367.87519 109.12143 349.81302 95.318424 321.49805 89.015625 z M 290 146.33594 C 306.35893 146.33594 319.6863 159.44475 319.93945 175.80273 L 319.93945 176.27539 C 319.93945 192.81621 306.53988 206.2168 290 206.2168 C 273.45919 206.2168 260.05859 192.81621 260.05859 176.27539 C 260.05859 159.73552 273.45919 146.33594 290 146.33594 z M 290 373.7832 C 273.45919 373.7832 260.05859 387.18278 260.05859 403.72266 C 260.05859 420.26348 273.45919 433.66406 290 433.66406 C 306.53988 433.66406 319.93945 420.26348 319.93945 403.72266 L 319.93945 403.25 C 319.6863 386.89201 306.35893 373.7832 290 373.7832 z "
     style="fill:#ffffff;fill-opacity:1;stroke-width:1"
     id="path2"
     d="M 290,30.298828 C 146.92176,30.298828 30.298828,146.92176 30.298828,290 30.298828,433.07824 146.92176,549.70117 290,549.70117 433.07824,549.70117 549.70117,433.07824 549.70117,290 a 29.223883,29.223883 0 0 0 0,-0.24023 l -0.0293,-3.5625 a 29.223883,29.223883 0 0 0 -0.004,-0.21289 C 547.4777,144.47374 431.52846,30.298828 290,30.298828 Z m 0,145.257812 c 0.73108,0 0.70947,-0.0118 0.71875,0.66992 v 0.0488 c 0,0.75973 0.0379,0.7207 -0.71875,0.7207 -0.75851,0 -0.7207,0.0378 -0.7207,-0.7207 0,-0.75666 -0.039,-0.71875 0.7207,-0.71875 z m 135.98633,5.68945 c 23.2879,29.08033 37.56141,65.75302 38.19922,105.99805 V 290 c 0,96.55469 -77.63085,174.18555 -174.18555,174.18555 -4.46253,0 -8.82849,-0.16981 -13.13672,-0.49024 -58.04245,-6.00194 -75.05141,-44.52499 -75.0957,-67.01367 -0.0338,-17.3998 2.88705,-36.09588 13.01367,-49.32226 10.15194,-13.25946 28.55729,-26.04736 75.75781,-27.14454 a 29.223883,29.223883 0 0 0 0.38282,-0.0117 l 0.75195,-0.0273 -0.25781,0.008 c 61.58974,-1.69856 100.98095,-34.41832 118.03906,-68.29687 14.82365,-29.4406 16.25416,-58.53439 16.53125,-70.64063 z M 290,344.5625 c -32.32192,0 -59.16211,26.83707 -59.16211,59.16016 0,32.32312 26.83901,59.16211 59.16211,59.16211 32.32306,0 59.16016,-26.8402 59.16016,-59.16211 V 403.25 a 29.223883,29.223883 0 0 0 -0.004,-0.45312 C 348.6613,370.8146 321.96924,344.5625 290,344.5625 Z" />
</svg>
