<?xml version="1.0" encoding="UTF-8" standalone="no"?>
<!-- Created with Inkscape (http://www.inkscape.org/) -->

<svg
   xmlns:dc="http://purl.org/dc/elements/1.1/"
   xmlns:cc="http://creativecommons.org/ns#"
   xmlns:rdf="http://www.w3.org/1999/02/22-rdf-syntax-ns#"
   xmlns:svg="http://www.w3.org/2000/svg"
   xmlns="http://www.w3.org/2000/svg"
   xmlns:sodipodi="http://sodipodi.sourceforge.net/DTD/sodipodi-0.dtd"
   xmlns:inkscape="http://www.inkscape.org/namespaces/inkscape"
   version="1.0"
   width="580"
   height="580"
   id="svg2"
   sodipodi:version="0.32"
   inkscape:version="0.92.3 (2405546, 2018-03-11)"
   sodipodi:docname="place_of_worship_christian_ruins_cluster_m.svg"
   inkscape:output_extension="org.inkscape.output.svg.inkscape">
  <metadata
     id="metadata2975">
    <rdf:RDF>
      <cc:Work
         rdf:about="">
        <dc:format>image/svg+xml</dc:format>
        <dc:type
           rdf:resource="http://purl.org/dc/dcmitype/StillImage" />
        <cc:license
           rdf:resource="http://web.resource.org/cc/PublicDomain" />
        <dc:language>en</dc:language>
        <dc:title></dc:title>
      </cc:Work>
    </rdf:RDF>
  </metadata>
  <sodipodi:namedview
     inkscape:window-height="1006"
     inkscape:window-width="1920"
     inkscape:pageshadow="2"
     inkscape:pageopacity="0.0"
     guidetolerance="10.0"
     gridtolerance="10.0"
     objecttolerance="10.0"
     borderopacity="1.0"
     bordercolor="#666666"
     pagecolor="#ffffff"
     id="base"
     inkscape:zoom="0.65172414"
     inkscape:cx="68.645363"
     inkscape:cy="356.4683"
     inkscape:window-x="1920"
     inkscape:window-y="0"
     inkscape:current-layer="svg2"
     showgrid="false"
     inkscape:window-maximized="1"
     inkscape:snap-global="false" />
  <defs
     id="defs4">
    <inkscape:perspective
       sodipodi:type="inkscape:persp3d"
       inkscape:vp_x="0 : 290 : 1"
       inkscape:vp_y="0 : 1000 : 0"
       inkscape:vp_z="580 : 290 : 1"
       inkscape:persp3d-origin="290 : 193.33333 : 1"
       id="perspective2441" />
  </defs>
  <path
     sodipodi:type="inkscape:offset"
     inkscape:radius="41.456978"
     inkscape:original="M 367.6875 95.935547 L 391.99805 214.89062 L 392.49219 214.76172 C 408.84682 210.48254 425.73122 219.55362 431.19141 235.55273 C 434.13494 244.17984 438.33182 258.67568 441.38477 277.98633 L 532.17578 299.40234 C 533.72408 256.35109 525.23918 225.70606 521.0332 213.37891 L 434.43945 236.04492 L 453.67773 159.03516 C 412.95047 148.0305 383.62381 117.008 367.6875 95.935547 z M 233.17578 117.69727 L 264.44922 270.72461 L 62.5 215.38672 L 62.40625 215.54297 L 62.40625 364.45703 L 62.5 364.61328 L 264.44922 314.74414 L 221.89648 517.5 L 222.03906 517.59375 L 357.96094 517.59375 L 358.10352 517.5 L 306.08203 314.74414 L 412.83008 339.92383 C 414.52113 292.90343 405.25392 259.43241 400.66016 245.96875 L 306.08203 270.72461 L 327.0957 186.61523 C 282.61355 174.59598 250.58135 140.71253 233.17578 117.69727 z M 445.12891 318.00781 C 445.35742 325.33478 445.35794 333.03481 445.06836 341.08398 C 444.33435 361.40379 425.21425 375.98642 405.42383 371.32031 L 377.75781 364.79492 L 366.26953 419.5293 L 377.18555 462.07422 L 481.9375 462.07422 L 482.06836 461.98828 L 445.12891 318.00781 z "
     style="color:#000000;display:inline;overflow:visible;visibility:visible;fill:#ffffff;fill-opacity:1;stroke:none;stroke-width:21.51408958;stroke-linejoin:bevel;stroke-miterlimit:4;stroke-dasharray:none;stroke-opacity:1;marker:none;enable-background:accumulate"
     id="rect2987"
     d="m 368.64258,54.501953 a 41.461124,41.461124 0 0 0 -41.57227,49.734377 l 8.49024,41.54297 c -29.39679,-8.9139 -55.244,-34.47747 -69.31836,-53.087894 a 41.461124,41.461124 0 0 0 -73.6836,33.306644 L 210.32031,212.9082 73.457031,175.4043 a 41.461124,41.461124 0 0 0 -46.505859,18.65234 l -0.09375,0.15625 a 41.461124,41.461124 0 0 0 -5.908203,21.33008 v 148.91406 a 41.461124,41.461124 0 0 0 5.908203,21.33008 l 0.09375,0.15625 a 41.461124,41.461124 0 0 0 45.488281,18.91797 L 210.32227,370.8125 181.32422,508.98438 a 41.461124,41.461124 0 0 0 17.79492,43.15624 l 0.14258,0.0938 a 41.461124,41.461124 0 0 0 22.77734,6.8164 h 135.92188 a 41.461124,41.461124 0 0 0 22.77734,-6.8164 l 0.14258,-0.0938 a 41.461124,41.461124 0 0 0 17.37891,-44.94335 l -0.94141,-3.66602 h 84.61914 a 41.461124,41.461124 0 0 0 22.75781,-6.80469 l 0.13086,-0.0859 a 41.461124,41.461124 0 0 0 17.39844,-44.95507 l -30.5957,-119.25196 31.02929,7.31836 a 41.461124,41.461124 0 0 0 50.94727,-38.85937 c 1.76922,-49.19399 -7.85172,-84.82689 -13.33594,-100.90039 a 41.461124,41.461124 0 0 0 -49.73437,-26.71875 l -18.92188,4.95312 2.28516,-9.14453 A 41.461124,41.461124 0 0 0 464.49219,119.01367 C 437.86742,111.81956 413.73821,88.098721 400.75391,70.929688 A 41.461124,41.461124 0 0 0 368.64258,54.501953 Z" />
</svg>
