<?xml version="1.0" encoding="UTF-8" standalone="no"?>
<!-- Created with Inkscape (http://www.inkscape.org/) -->

<svg
   xmlns:dc="http://purl.org/dc/elements/1.1/"
   xmlns:cc="http://creativecommons.org/ns#"
   xmlns:rdf="http://www.w3.org/1999/02/22-rdf-syntax-ns#"
   xmlns:svg="http://www.w3.org/2000/svg"
   xmlns="http://www.w3.org/2000/svg"
   xmlns:sodipodi="http://sodipodi.sourceforge.net/DTD/sodipodi-0.dtd"
   xmlns:inkscape="http://www.inkscape.org/namespaces/inkscape"
   version="1.0"
   width="580"
   height="580"
   id="svg2"
   sodipodi:version="0.32"
   inkscape:version="0.92.3 (2405546, 2018-03-11)"
   sodipodi:docname="place_of_worship_jewish_m.svg"
   inkscape:output_extension="org.inkscape.output.svg.inkscape">
  <metadata
     id="metadata2975">
    <rdf:RDF>
      <cc:Work
         rdf:about="">
        <dc:format>image/svg+xml</dc:format>
        <dc:type
           rdf:resource="http://purl.org/dc/dcmitype/StillImage" />
        <cc:license
           rdf:resource="http://web.resource.org/cc/PublicDomain" />
        <dc:language>en</dc:language>
        <dc:title />
      </cc:Work>
    </rdf:RDF>
  </metadata>
  <sodipodi:namedview
     inkscape:window-height="1006"
     inkscape:window-width="1920"
     inkscape:pageshadow="2"
     inkscape:pageopacity="0.0"
     guidetolerance="10.0"
     gridtolerance="10.0"
     objecttolerance="10.0"
     borderopacity="1.0"
     bordercolor="#666666"
     pagecolor="#ffffff"
     id="base"
     inkscape:zoom="1.3034483"
     inkscape:cx="233.49806"
     inkscape:cy="320.26884"
     inkscape:window-x="1920"
     inkscape:window-y="0"
     inkscape:current-layer="svg2"
     showgrid="false"
     inkscape:window-maximized="1" />
  <defs
     id="defs4">
    <inkscape:perspective
       sodipodi:type="inkscape:persp3d"
       inkscape:vp_x="0 : 290 : 1"
       inkscape:vp_y="0 : 1000 : 0"
       inkscape:vp_z="580 : 290 : 1"
       inkscape:persp3d-origin="290 : 193.33333 : 1"
       id="perspective2441" />
  </defs>
  <path
     sodipodi:type="inkscape:offset"
     inkscape:radius="28.427683"
     inkscape:original="M 288.80273 55.517578 C 287.44974 55.517578 271.53329 81.309796 253.43164 112.83398 L 220.51953 170.15039 L 153.64453 170.15625 C 105.21973 170.15988 86.769531 171.272 86.769531 174.19141 C 86.769531 176.40811 99.966829 201.03173 116.0957 228.9082 C 132.22485 256.78465 146.46725 282.34355 147.74609 285.70703 C 149.33331 289.87814 139.92703 309.46264 118.16797 347.29297 C 100.61999 377.80214 87.251333 404.36199 88.458984 406.31641 C 89.827258 408.53039 115.11963 409.87944 155.58594 409.89844 L 220.51953 409.92773 L 253.52344 467.18945 C 271.67574 498.68352 287.59219 524.46612 288.89453 524.48242 C 292.5022 524.52765 301.93107 509.88054 331.92383 457.63672 L 359.34766 409.86914 L 426.28906 409.86914 C 473.06757 409.86914 493.23047 408.70565 493.23047 406.00781 C 493.23047 403.88517 478.64058 376.86891 460.80664 345.97266 L 428.38086 289.79883 L 460.6543 234.32227 C 478.40415 203.80947 492.99493 176.89048 493.07812 174.50195 C 493.19478 171.17284 477.60768 170.16016 426.28906 170.16016 L 359.34766 170.16016 L 331.92383 122.39258 C 301.78275 69.890367 292.5144 55.517578 288.80273 55.517578 z M 290 128.47266 C 291.61527 128.47266 312.58203 165.15407 312.58203 167.97852 C 312.58203 169.17957 302.42019 170.16016 290 170.16016 C 277.58072 170.16016 267.41797 169.17957 267.41797 167.97852 C 267.41797 165.15407 288.38564 128.47266 290 128.47266 z M 149.0293 208.375 L 173.39062 208.375 L 197.75391 208.375 L 186.55469 229.16211 C 180.39569 240.59468 174.57614 249.95389 173.62109 249.96289 C 172.66603 249.97284 166.74174 240.61935 160.45703 229.17773 L 149.0293 208.375 z M 381.78906 208.375 L 406.15039 208.375 L 430.51367 208.375 L 419.31445 229.16211 C 413.15545 240.59468 407.33486 249.95389 406.37891 249.96289 C 405.42385 249.97284 399.50151 240.61935 393.2168 229.17773 L 381.78906 208.375 z M 241.84766 210.11133 L 290.1543 210.11133 L 338.46094 210.11133 L 360.9668 249.74805 L 383.4707 289.38672 L 373.66211 307.07031 C 368.26644 316.79627 357.71927 335.30737 350.22266 348.20508 L 336.59375 371.6543 L 290.27148 371.6543 C 257.33579 371.6543 242.97408 370.40014 240.56836 367.3125 C 233.95807 358.82829 197.93945 292.98624 197.93945 289.38672 C 197.93945 287.37351 207.81788 268.71309 219.89258 247.91992 L 241.84766 210.11133 z M 173.62109 330.04883 C 174.57614 330.04883 180.4985 339.40994 186.7832 350.85156 L 198.21094 371.6543 L 173.62109 371.6543 L 149.0293 371.6543 L 160.45703 350.85156 C 166.74174 339.40994 172.66603 330.04883 173.62109 330.04883 z M 406.37891 330.04883 C 407.33486 330.04883 413.26021 339.40994 419.54492 350.85156 L 430.9707 371.6543 L 406.37891 371.6543 L 381.78906 371.6543 L 393.2168 350.85156 C 399.50151 339.40994 405.42385 330.04883 406.37891 330.04883 z M 290 409.86914 C 302.42019 409.86914 312.58203 410.85063 312.58203 412.05078 C 312.58203 413.25092 307.7766 422.63135 301.9043 432.89453 C 296.032 443.15862 290.67469 451.55664 290 451.55664 C 288.38564 451.55664 267.41797 414.87614 267.41797 412.05078 C 267.41797 410.85063 277.58072 409.86914 290 409.86914 z "
     style="fill:#ffffff;fill-opacity:1;stroke-width:1"
     id="path2-3"
     d="m 288.80273,27.089844 c -11.33229,0 -14.34875,3.712354 -16.58593,5.294922 -2.23719,1.582567 -3.19722,2.584491 -4.00196,3.394531 -1.60947,1.620081 -2.28267,2.514418 -2.96679,3.388672 -1.36824,1.748507 -2.37378,3.213013 -3.55664,4.964843 -2.36573,3.503662 -5.16354,7.908577 -8.48633,13.292969 -6.64558,10.768785 -15.25044,25.273011 -24.42578,41.251953 l -24.71875,43.046876 -50.41797,0.004 c -24.42975,0.002 -41.35156,0.25536 -53.30664,0.97656 -5.977543,0.3606 -10.498886,0.71187 -15.691409,1.78711 -2.596261,0.53762 -5.288609,0.97676 -10.046875,3.4375 -2.379132,1.23037 -5.491815,2.98763 -9.035156,7.05078 -3.543341,4.06315 -7.220703,11.54271 -7.220703,19.21094 0,7.19048 1.069257,8.00386 1.548828,9.47656 0.479571,1.47269 0.863996,2.40774 1.244141,3.31836 0.76029,1.82124 1.509634,3.40892 2.394531,5.22461 1.769793,3.63137 4.036964,7.99144 6.798828,13.14453 5.523727,10.30619 12.963818,23.61948 21.162109,37.78906 7.99496,13.81791 15.533146,27.08129 21.167966,37.19336 1.91879,3.44339 3.22552,5.86067 4.63282,8.44531 -0.50889,1.14665 -0.5224,1.36568 -1.20508,2.78711 -4.28327,8.91832 -11.8554,22.93684 -22.560549,41.54883 -8.995982,15.64054 -16.905815,30.22369 -22.638672,41.61328 -2.866429,5.6948 -5.166215,10.50473 -6.984375,14.8457 -0.90908,2.17049 -1.697171,4.10527 -2.519532,6.91993 -0.41118,1.40732 -0.879628,2.9524 -1.220703,5.89453 -0.341074,2.94213 -2.827993,7.63367 4.113282,18.86719 a 28.430526,28.430526 0 0 0 0.002,0.002 c 5.063494,8.19315 9.56589,9.70133 12.279297,11.02148 2.713406,1.32015 4.443621,1.80695 5.957031,2.22461 3.026819,0.83532 5.147233,1.14793 7.458984,1.46485 4.623504,0.63382 9.659762,1.01419 15.873044,1.3457 12.42657,0.66303 29.18029,0.99816 49.72657,1.00781 l 48.51562,0.0215 24.80664,43.03711 c 9.19526,15.95368 17.80828,30.44195 24.44336,41.18945 3.31754,5.37375 6.10635,9.76882 8.44727,13.24805 1.17045,1.73961 2.16489,3.18792 3.49218,4.90039 0.66365,0.85623 1.31014,1.72614 2.85352,3.30859 0.77169,0.79123 1.68604,1.76728 3.84766,3.34375 2.16161,1.57647 4.88845,5.38712 16.56054,5.5332 10.14431,0.12718 15.75894,-3.90884 19.10938,-6.43164 3.35044,-2.52279 5.17797,-4.60124 6.91211,-6.63672 3.46828,-4.07095 6.25509,-8.189 9.85742,-13.78515 7.20466,-11.19231 17.09449,-28.02108 32.16015,-54.26367 l 19.22852,-33.49414 h 50.48242 c 23.62494,0 40.59407,-0.2713 52.65039,-0.9668 6.02816,-0.34775 10.63483,-0.7063 15.61719,-1.63477 2.49118,-0.46423 4.94469,-0.82184 9.4082,-2.83593 2.23176,-1.00705 5.1548,-2.34673 8.97657,-6.11133 3.82176,-3.76461 8.71679,-11.7191 8.71679,-20.74024 0,-8.27419 -1.23068,-8.52903 -1.72656,-9.96484 -0.49588,-1.43582 -0.88188,-2.34338 -1.27344,-3.24805 -0.78311,-1.80934 -1.57683,-3.45398 -2.52734,-5.36719 -1.90102,-3.82641 -4.38188,-8.54541 -7.41211,-14.15625 -6.06047,-11.22166 -14.25853,-25.86151 -23.29102,-41.50976 l -24.1914,-41.9082 23.99023,-41.23633 c 8.99959,-15.47071 17.18603,-30.00297 23.25782,-41.20508 3.03589,-5.60106 5.52789,-10.33249 7.44921,-14.20117 0.96067,-1.93435 1.7675,-3.60978 2.56055,-5.44922 0.39653,-0.91972 0.78958,-1.84881 1.27734,-3.26367 0.48755,-1.41424 1.47566,-2.10083 1.7168,-9 v -0.004 c 0.40137,-11.51113 -8.04239,-22.20506 -13.28516,-25.72852 -5.24336,-3.52385 -8.53374,-4.20732 -11.38476,-4.92187 -5.70205,-1.42909 -10.09074,-1.74468 -16.00195,-2.12891 -11.82243,-0.76846 -28.68105,-0.98242 -54.52735,-0.98242 H 375.80664 L 356.57812,108.23828 C 341.43885,81.867442 331.55533,65.045358 324.34375,53.861328 320.73796,48.269313 317.94658,44.152823 314.43359,40.0625 310.92061,35.972177 308.07752,27.089844 288.80273,27.089844 Z M 290,150.91016 c 1.16635,1.55782 2.26002,3.51969 3.24609,5.69531 -1.12647,0.0834 -1.90639,0.29492 -3.24609,0.29492 -1.33958,0 -2.11973,-0.21146 -3.24609,-0.29492 0.98595,-2.17553 2.07984,-4.13749 3.24609,-5.69531 z m -5.24414,24.22265 c 0.18896,0.37931 0.36691,0.72835 0.5,1.00391 -0.17187,-0.20048 -0.30122,-0.33373 -0.5,-1.00391 z m 10.48828,0 c -0.1988,0.67029 -0.32811,0.80342 -0.5,1.00391 0.13309,-0.27556 0.31103,-0.62459 0.5,-1.00391 z m -37.03125,63.40625 h 31.94141 31.75781 l 14.33398,25.24414 14.62696,25.76563 -2.07032,3.73242 c -5.19509,9.36438 -15.77895,27.94287 -23.1582,40.63867 l -5.4082,9.30664 h -29.96485 c -14.85405,0 -25.20718,-0.32274 -31.76562,-0.80273 -1.37676,-2.19091 -1.21064,-1.88968 -2.79883,-4.62695 -4.13377,-7.12465 -9.1726,-16.11166 -13.99219,-24.92188 -4.71375,-8.61675 -9.18099,-17.01356 -12.44922,-23.39453 0.10824,-0.20539 0.13504,-0.27459 0.2461,-0.48438 3.7333,-7.05189 9.09141,-16.68646 14.96484,-26.80078 z m -33.0957,41.7793 c 0.29767,-0.1188 0.75647,0.10512 1.02734,2.87891 -0.22119,-0.46158 -0.67203,-1.34058 -0.83398,-1.69141 -0.3567,-0.77268 -0.57017,-1.30527 -0.47266,-1.05469 0.0244,0.0627 0.13136,-0.0738 0.2793,-0.13281 z m -105.68555,2.06641 c 0.29564,-0.031 0.52031,0.19346 0.4375,0.44335 -0.10871,0.32809 -0.92781,2.08813 -1.24219,2.86915 -0.0746,-2.14901 0.34556,-3.26442 0.80469,-3.3125 z m 106.68359,13.28711 c -0.41781,3.80934 -1.21817,2.47781 -1.28711,2.65234 -0.0935,0.23667 0.14372,-0.34515 0.54297,-1.18945 0.14353,-0.30351 0.5585,-1.08326 0.74414,-1.46289 z m 26.4043,46.04101 c 0.18294,0.0134 0.54292,0.16886 0.78125,0.2168 -0.39237,-0.0631 -1.77291,-0.23581 -1.66601,-0.20899 0.0772,0.0194 0.3722,-0.0454 0.88476,-0.008 z m 32.97461,61.64844 c -0.17019,0.36264 -0.47709,0.97764 -0.80078,1.63086 0.31165,-1.21328 0.60361,-1.4244 0.80078,-1.63086 z m 9.25,0.52929 c 0.17196,0.20054 0.30086,0.33482 0.5,1.00586 -0.18931,-0.37999 -0.36682,-0.73008 -0.5,-1.00586 z M 290,423.12891 c 1.33967,0 2.11965,0.21149 3.24609,0.29492 -0.98567,2.17453 -2.08015,4.13603 -3.24609,5.69336 -1.16652,-1.55809 -2.26204,-3.51939 -3.24805,-5.69531 1.14666,-0.0777 1.8822,-0.29297 3.24805,-0.29297 z" />
</svg>
