<?xml version="1.0" encoding="UTF-8" standalone="no"?>
<svg
   xmlns:dc="http://purl.org/dc/elements/1.1/"
   xmlns:cc="http://creativecommons.org/ns#"
   xmlns:rdf="http://www.w3.org/1999/02/22-rdf-syntax-ns#"
   xmlns:svg="http://www.w3.org/2000/svg"
   xmlns="http://www.w3.org/2000/svg"
   xmlns:sodipodi="http://sodipodi.sourceforge.net/DTD/sodipodi-0.dtd"
   xmlns:inkscape="http://www.inkscape.org/namespaces/inkscape"
   width="580"
   height="580"
   viewBox="0 0 580 580"
   fill="none"
   version="1.1"
   id="svg8"
   sodipodi:docname="power_plant_m.svg"
   inkscape:version="0.92.5 (2060ec1f9f, 2020-04-08)">
  <metadata
     id="metadata14">
    <rdf:RDF>
      <cc:Work
         rdf:about="">
        <dc:format>image/svg+xml</dc:format>
        <dc:type
           rdf:resource="http://purl.org/dc/dcmitype/StillImage" />
        <dc:title></dc:title>
      </cc:Work>
    </rdf:RDF>
  </metadata>
  <defs
     id="defs12">
    <marker
       inkscape:stockid="TriangleOutM"
       orient="auto"
       refY="0.0"
       refX="0.0"
       id="TriangleOutM"
       style="overflow:visible"
       inkscape:isstock="true">
      <path
         id="path968"
         d="M 5.77,0.0 L -2.88,5.0 L -2.88,-5.0 L 5.77,0.0 z "
         style="fill-rule:evenodd;stroke:#000000;stroke-width:1pt;stroke-opacity:1;fill:#0d0d0d;fill-opacity:1"
         transform="scale(0.4)" />
    </marker>
    <marker
       inkscape:stockid="TriangleOutS"
       orient="auto"
       refY="0.0"
       refX="0.0"
       id="TriangleOutS"
       style="overflow:visible"
       inkscape:isstock="true">
      <path
         id="path971"
         d="M 5.77,0.0 L -2.88,5.0 L -2.88,-5.0 L 5.77,0.0 z "
         style="fill-rule:evenodd;stroke:#ffffff;stroke-width:1pt;stroke-opacity:1;fill:#0d0d0d;fill-opacity:1"
         transform="scale(0.2)" />
    </marker>
    <marker
       inkscape:stockid="TriangleInM"
       orient="auto"
       refY="0.0"
       refX="0.0"
       id="TriangleInM"
       style="overflow:visible"
       inkscape:isstock="true">
      <path
         id="path959"
         d="M 5.77,0.0 L -2.88,5.0 L -2.88,-5.0 L 5.77,0.0 z "
         style="fill-rule:evenodd;stroke:#000000;stroke-width:1pt;stroke-opacity:1;fill:#0d0d0d;fill-opacity:1"
         transform="scale(-0.4)" />
    </marker>
    <marker
       inkscape:stockid="Arrow2Send"
       orient="auto"
       refY="0.0"
       refX="0.0"
       id="Arrow2Send"
       style="overflow:visible;"
       inkscape:isstock="true">
      <path
         id="path856"
         style="fill-rule:evenodd;stroke-width:0.625;stroke-linejoin:round;stroke:#ffffff;stroke-opacity:1;fill:#0d0d0d;fill-opacity:1"
         d="M 8.7185878,4.0337352 L -2.2072895,0.016013256 L 8.7185884,-4.0017078 C 6.9730900,-1.6296469 6.9831476,1.6157441 8.7185878,4.0337352 z "
         transform="scale(0.3) rotate(180) translate(-2.3,0)" />
    </marker>
    <marker
       inkscape:stockid="Arrow1Sstart"
       orient="auto"
       refY="0.0"
       refX="0.0"
       id="Arrow1Sstart"
       style="overflow:visible"
       inkscape:isstock="true">
      <path
         id="path835"
         d="M 0.0,0.0 L 5.0,-5.0 L -12.5,0.0 L 5.0,5.0 L 0.0,0.0 z "
         style="fill-rule:evenodd;stroke:#ffffff;stroke-width:1pt;stroke-opacity:1"
         transform="scale(0.2) translate(6,0)" />
    </marker>
    <marker
       inkscape:stockid="Arrow1Lstart"
       orient="auto"
       refY="0.0"
       refX="0.0"
       id="Arrow1Lstart"
       style="overflow:visible"
       inkscape:isstock="true">
      <path
         id="path823"
         d="M 0.0,0.0 L 5.0,-5.0 L -12.5,0.0 L 5.0,5.0 L 0.0,0.0 z "
         style="fill-rule:evenodd;stroke:#ffffff;stroke-width:1pt;stroke-opacity:1"
         transform="scale(0.8) translate(12.5,0)" />
    </marker>
    <marker
       inkscape:stockid="TriangleInM"
       orient="auto"
       refY="0"
       refX="0"
       id="TriangleInM-3"
       style="overflow:visible"
       inkscape:isstock="true">
      <path
         inkscape:connector-curvature="0"
         id="path959-6"
         d="M 5.77,0 -2.88,5 V -5 Z"
         style="fill:#0d0d0d;fill-opacity:1;fill-rule:evenodd;stroke:#000000;stroke-width:1.00000003pt;stroke-opacity:1"
         transform="scale(-0.4)" />
    </marker>
    <marker
       inkscape:stockid="TriangleOutM"
       orient="auto"
       refY="0"
       refX="0"
       id="TriangleOutM-7"
       style="overflow:visible"
       inkscape:isstock="true">
      <path
         inkscape:connector-curvature="0"
         id="path968-5"
         d="M 5.77,0 -2.88,5 V -5 Z"
         style="fill:#0d0d0d;fill-opacity:1;fill-rule:evenodd;stroke:#000000;stroke-width:1.00000003pt;stroke-opacity:1"
         transform="scale(0.4)" />
    </marker>
  </defs>
  <sodipodi:namedview
     pagecolor="#ffffff"
     bordercolor="#666666"
     borderopacity="1"
     objecttolerance="10"
     gridtolerance="10"
     guidetolerance="10"
     inkscape:pageopacity="0"
     inkscape:pageshadow="2"
     inkscape:window-width="1720"
     inkscape:window-height="1051"
     id="namedview10"
     showgrid="false"
     inkscape:zoom="0.8137931"
     inkscape:cx="140.82176"
     inkscape:cy="261.56878"
     inkscape:window-x="200"
     inkscape:window-y="0"
     inkscape:window-maximized="1"
     inkscape:current-layer="svg8" />
  <path
     sodipodi:type="inkscape:offset"
     inkscape:radius="30.720339"
     inkscape:original="M 63.896484 63.896484 C 74.486252 103.5041 85.077358 143.11136 95.667969 182.71875 L 130.35547 148.03125 L 206.12109 223.79688 L 206.12109 356.20312 L 130.35547 431.96875 L 95.667969 397.28125 C 85.077359 436.88864 74.486254 476.4959 63.896484 516.10352 L 182.71875 484.33203 L 148.03125 449.64453 L 223.79688 373.87891 L 356.20312 373.87891 L 431.96875 449.64453 L 397.28125 484.33203 L 516.10352 516.10352 C 505.51375 476.4959 494.92264 436.88864 484.33203 397.28125 L 449.64453 431.96875 L 373.87891 356.20312 L 373.87891 223.79688 L 449.64453 148.03125 L 484.33203 182.71875 C 494.92264 143.11136 505.51375 103.5041 516.10352 63.896484 L 397.28125 95.667969 L 431.96875 130.35547 L 356.20312 206.12109 L 223.79688 206.12109 L 148.03125 130.35547 L 182.71875 95.667969 L 63.896484 63.896484 z "
     style="fill:#ffffff;fill-opacity:1;stroke:none;stroke-width:1;stroke-opacity:1"
     id="path2"
     d="m 517.07812,33.193359 a 30.723411,30.723411 0 0 0 -8.91015,1.025391 L 389.3457,65.990234 a 30.723411,30.723411 0 0 0 -13.78711,51.400386 l 12.96485,12.96485 -45.04492,45.04492 H 236.52148 l -45.04492,-45.04492 12.96485,-12.96485 A 30.723411,30.723411 0 0 0 190.6543,65.990234 L 71.832031,34.21875 A 30.723411,30.723411 0 0 0 34.21875,71.832031 C 44.808697,111.44032 55.399689,151.04715 65.990234,190.6543 a 30.723411,30.723411 0 0 0 51.400386,13.78711 l 12.96485,-12.96485 45.04492,45.04492 v 106.95704 l -45.04492,45.04492 -12.96485,-12.96485 A 30.723411,30.723411 0 0 0 65.990234,389.3457 C 55.39969,428.95285 44.808698,468.55968 34.21875,508.16797 a 30.723411,30.723411 0 0 0 37.613281,37.61328 L 190.6543,514.00977 a 30.723411,30.723411 0 0 0 13.78711,-51.40039 l -12.96485,-12.96485 45.04492,-45.04492 h 106.95704 l 45.04492,45.04492 -12.96485,12.96485 a 30.723411,30.723411 0 0 0 13.78711,51.40039 l 118.82227,31.77148 a 30.723411,30.723411 0 0 0 37.61328,-37.61328 C 535.1913,468.55968 524.60031,428.95284 514.00977,389.3457 a 30.723411,30.723411 0 0 0 -51.40039,-13.78711 l -12.96485,12.96485 -45.04492,-45.04492 V 236.52148 l 45.04492,-45.04492 12.96485,12.96485 A 30.723411,30.723411 0 0 0 514.00977,190.6543 C 524.60031,151.04716 535.1913,111.44032 545.78125,71.832031 A 30.723411,30.723411 0 0 0 517.07812,33.193359 Z" />
</svg>
