<?xml version="1.0" encoding="UTF-8" standalone="no"?>
<!-- Created with Inkscape (http://www.inkscape.org/) -->

<svg
   xmlns:dc="http://purl.org/dc/elements/1.1/"
   xmlns:cc="http://creativecommons.org/ns#"
   xmlns:rdf="http://www.w3.org/1999/02/22-rdf-syntax-ns#"
   xmlns:svg="http://www.w3.org/2000/svg"
   xmlns="http://www.w3.org/2000/svg"
   xmlns:sodipodi="http://sodipodi.sourceforge.net/DTD/sodipodi-0.dtd"
   xmlns:inkscape="http://www.inkscape.org/namespaces/inkscape"
   version="1.0"
   width="580"
   height="580"
   id="svg2"
   sodipodi:version="0.32"
   inkscape:version="0.92.3 (2405546, 2018-03-11)"
   sodipodi:docname="ruins_cluster_m.svg"
   inkscape:output_extension="org.inkscape.output.svg.inkscape">
  <metadata
     id="metadata2975">
    <rdf:RDF>
      <cc:Work
         rdf:about="">
        <dc:format>image/svg+xml</dc:format>
        <dc:type
           rdf:resource="http://purl.org/dc/dcmitype/StillImage" />
        <cc:license
           rdf:resource="http://web.resource.org/cc/PublicDomain" />
        <dc:language>en</dc:language>
        <dc:title></dc:title>
      </cc:Work>
    </rdf:RDF>
  </metadata>
  <sodipodi:namedview
     inkscape:window-height="1006"
     inkscape:window-width="1920"
     inkscape:pageshadow="2"
     inkscape:pageopacity="0.0"
     guidetolerance="10.0"
     gridtolerance="10.0"
     objecttolerance="10.0"
     borderopacity="1.0"
     bordercolor="#666666"
     pagecolor="#ffffff"
     id="base"
     inkscape:zoom="0.92167712"
     inkscape:cx="123.97012"
     inkscape:cy="405.55233"
     inkscape:window-x="1920"
     inkscape:window-y="0"
     inkscape:current-layer="svg2"
     showgrid="false"
     inkscape:window-maximized="1"
     inkscape:snap-global="false" />
  <defs
     id="defs4">
    <inkscape:perspective
       sodipodi:type="inkscape:persp3d"
       inkscape:vp_x="0 : 290 : 1"
       inkscape:vp_y="0 : 1000 : 0"
       inkscape:vp_z="580 : 290 : 1"
       inkscape:persp3d-origin="290 : 193.33333 : 1"
       id="perspective2441" />
  </defs>
  <path
     sodipodi:type="inkscape:offset"
     inkscape:radius="30.68783"
     inkscape:original="M 200.64258 64.109375 L 189.32422 109.08008 L 355.8125 150.98828 L 382.50195 157.70312 C 387.70795 159.01906 392.43971 161.77066 396.1582 165.64453 L 427.11523 173.4375 L 451.71875 179.63086 L 464.10156 130.42578 L 439.5 124.23242 L 225.24414 70.302734 L 200.64258 64.109375 z M 89.683594 113.55859 L 76.248047 166.93945 L 102.9375 173.6582 L 131.99023 180.9707 L 131.65234 437.11328 L 109.65625 437.11328 L 77.544922 437.11328 L 77.544922 501.33398 L 109.65625 501.33398 L 436.34961 501.33398 L 468.46094 501.33398 L 468.46094 437.11328 L 436.34961 437.11328 L 396.04688 437.11328 L 294.50977 245.92773 L 283.75 225.67188 L 247.82812 244.75 L 243.03906 208.92188 L 335.38086 232.16406 L 362.07031 238.88477 L 375.50586 185.50195 L 348.81641 178.78516 L 116.37305 120.27539 L 89.683594 113.55859 z M 177.84766 192.51172 L 195.14648 196.86719 L 227.26758 437.11328 L 177.52344 437.11328 L 177.84766 192.51172 z M 399.93555 205.88086 L 389.86914 245.88086 C 388.44438 251.49541 385.35222 256.54666 381 260.36914 L 435.16016 362.34961 L 388.79688 362.34961 L 413.2793 408.44922 L 436.34961 408.44922 L 468.46094 408.44922 C 478.17312 408.46162 487.21859 413.39046 492.49414 421.54492 L 520.18555 421.54492 L 549.7832 421.54492 L 549.7832 362.34961 L 520.18555 362.34961 L 483.03516 362.34961 L 399.93555 205.88086 z M 249.80859 259.55859 L 253.99609 267.44336 L 344.10742 437.11328 L 273.54688 437.11328 L 249.80859 259.55859 z "
     style="color:#000000;font-style:normal;font-variant:normal;font-weight:normal;font-stretch:normal;font-size:medium;line-height:normal;font-family:sans-serif;font-variant-ligatures:normal;font-variant-position:normal;font-variant-caps:normal;font-variant-numeric:normal;font-variant-alternates:normal;font-feature-settings:normal;text-indent:0;text-align:start;text-decoration:none;text-decoration-line:none;text-decoration-style:solid;text-decoration-color:#000000;letter-spacing:normal;word-spacing:normal;text-transform:none;writing-mode:lr-tb;direction:ltr;text-orientation:mixed;dominant-baseline:auto;baseline-shift:baseline;text-anchor:start;white-space:normal;shape-padding:0;clip-rule:nonzero;display:inline;overflow:visible;visibility:visible;opacity:1;isolation:auto;mix-blend-mode:normal;color-interpolation:sRGB;color-interpolation-filters:linearRGB;solid-color:#000000;solid-opacity:1;vector-effect:none;fill:#ffffff;fill-opacity:1;fill-rule:evenodd;stroke:none;stroke-width:60;stroke-linecap:square;stroke-linejoin:round;stroke-miterlimit:4;stroke-dasharray:none;stroke-dashoffset:0;stroke-opacity:1;color-rendering:auto;image-rendering:auto;shape-rendering:auto;text-rendering:auto;enable-background:accumulate"
     id="path814"
     d="M 202.07227,33.455078 A 30.690899,30.690899 0 0 0 170.88281,56.619141 L 160.05859,99.626953 123.86328,90.515625 97.173828,83.798828 a 30.690899,30.690899 0 0 0 -37.25,22.269532 l -13.435547,53.38086 a 30.690899,30.690899 0 0 0 22.267578,37.25 l 26.689453,6.71875 a 30.690899,30.690899 0 0 0 0.002,0 l 5.824214,1.46484 -0.26562,201.54297 H 77.544922 a 30.690899,30.690899 0 0 0 -30.6875,30.6875 v 64.2207 a 30.690899,30.690899 0 0 0 30.6875,30.6875 h 32.111328 326.69336 32.11133 a 30.690899,30.690899 0 0 0 30.6875,-30.6875 v -49.10156 h 21.03711 29.59765 a 30.690899,30.690899 0 0 0 30.6875,-30.6875 v -59.19531 a 30.690899,30.690899 0 0 0 -30.6875,-30.6875 h -29.59765 -18.70117 l -66.1211,-124.50195 8.86328,2.23046 a 30.690899,30.690899 0 0 0 37.25196,-22.26953 l 12.38281,-49.20507 a 30.690899,30.690899 0 0 0 -22.26758,-37.25 l -24.60156,-6.193364 a 30.690899,30.690899 0 0 0 -0.002,0 l -214.2539,-53.929687 -24.60156,-6.19336 a 30.690899,30.690899 0 0 0 -6.0625,-0.894531 z m 137.20312,231.335942 11.95899,3.01171 a 30.690899,30.690899 0 0 0 2.6621,6.96094 l 30.41407,57.26758 a 30.690899,30.690899 0 0 0 -8.07617,2.34961 z" />
</svg>
