<?xml version="1.0" encoding="UTF-8" standalone="no"?>
<!-- Created with Inkscape (http://www.inkscape.org/) -->

<svg
   xmlns:dc="http://purl.org/dc/elements/1.1/"
   xmlns:cc="http://creativecommons.org/ns#"
   xmlns:rdf="http://www.w3.org/1999/02/22-rdf-syntax-ns#"
   xmlns:svg="http://www.w3.org/2000/svg"
   xmlns="http://www.w3.org/2000/svg"
   xmlns:sodipodi="http://sodipodi.sourceforge.net/DTD/sodipodi-0.dtd"
   xmlns:inkscape="http://www.inkscape.org/namespaces/inkscape"
   version="1.0"
   width="580"
   height="580"
   id="svg2"
   sodipodi:version="0.32"
   inkscape:version="0.92.3 (2405546, 2018-03-11)"
   sodipodi:docname="sinkhole_m.svg"
   inkscape:output_extension="org.inkscape.output.svg.inkscape">
  <metadata
     id="metadata2975">
    <rdf:RDF>
      <cc:Work
         rdf:about="">
        <dc:format>image/svg+xml</dc:format>
        <dc:type
           rdf:resource="http://purl.org/dc/dcmitype/StillImage" />
        <cc:license
           rdf:resource="http://web.resource.org/cc/PublicDomain" />
        <dc:language>en</dc:language>
        <dc:title />
      </cc:Work>
    </rdf:RDF>
  </metadata>
  <sodipodi:namedview
     inkscape:window-height="1006"
     inkscape:window-width="1920"
     inkscape:pageshadow="2"
     inkscape:pageopacity="0.0"
     guidetolerance="10.0"
     gridtolerance="10.0"
     objecttolerance="10.0"
     borderopacity="1.0"
     bordercolor="#666666"
     pagecolor="#ffffff"
     id="base"
     inkscape:zoom="0.92167712"
     inkscape:cx="-286.14518"
     inkscape:cy="270.0744"
     inkscape:window-x="1920"
     inkscape:window-y="0"
     inkscape:current-layer="svg2"
     showgrid="false"
     inkscape:window-maximized="1" />
  <defs
     id="defs4">
    <inkscape:perspective
       sodipodi:type="inkscape:persp3d"
       inkscape:vp_x="0 : 290 : 1"
       inkscape:vp_y="0 : 1000 : 0"
       inkscape:vp_z="580 : 290 : 1"
       inkscape:persp3d-origin="290 : 193.33333 : 1"
       id="perspective2441" />
  </defs>
  <path
     sodipodi:type="inkscape:offset"
     inkscape:radius="28.309944"
     inkscape:original="M 290 58.357422 C 162.06742 58.357616 58.357616 162.06742 58.357422 290 C 58.357615 417.93258 162.06742 521.64239 290 521.64258 C 417.93258 521.64239 521.64239 417.93258 521.64258 290 C 521.64239 162.06742 417.93258 58.357615 290 58.357422 z M 307.49805 102.2832 C 345.29119 105.81158 381.14015 120.66197 410.35742 144.89258 L 370.66992 184.58008 C 367.19972 207.44478 377.01712 213.96896 395.4668 209.2793 L 435.03906 169.70703 C 459.24471 198.91032 474.08194 234.73394 477.61328 272.5 L 421.59375 272.5 C 409.20358 283.38348 406.87368 295.845 421.60547 307.5 L 477.7168 307.5 C 474.18786 345.29336 459.33678 381.14234 435.10547 410.35938 L 395.41797 370.67188 C 378.00664 370.76777 371.87154 375.30827 370.71875 395.46875 L 410.29102 435.04102 C 381.08773 459.24667 345.26411 474.08389 307.49805 477.61523 L 307.49805 421.59375 C 294.44475 408.11863 286.86536 407.95863 272.49805 421.60547 L 272.49805 477.7168 C 234.70606 474.1871 198.85854 459.33606 169.64258 435.10547 L 209.32812 395.41992 C 208.14711 377.4655 209.57401 369.70227 184.53125 370.71875 L 144.95898 410.29102 C 120.75441 381.08805 105.91788 345.26516 102.38672 307.5 L 158.40625 307.5 C 170.79642 297.15901 172.04134 284.69749 158.39453 272.5 L 102.2832 272.5 C 105.81196 234.70754 120.66233 198.85931 144.89258 169.64258 L 184.58008 209.33008 C 206.33119 208.69099 208.66887 203.60737 209.2793 184.53125 L 169.70898 144.96094 C 198.91119 120.75601 234.73335 105.91882 272.49805 102.38672 L 272.49805 158.40625 C 287.179 170.79702 296.38532 170.95568 307.49805 158.39258 L 307.49805 102.2832 z "
     style="color:#000000;clip-rule:nonzero;display:inline;overflow:visible;visibility:visible;opacity:1;isolation:auto;mix-blend-mode:normal;color-interpolation:sRGB;color-interpolation-filters:linearRGB;solid-color:#000000;solid-opacity:1;vector-effect:none;fill:#ffffff;fill-opacity:1;fill-rule:nonzero;stroke:none;stroke-width:27.08245277;stroke-linecap:round;stroke-linejoin:miter;stroke-miterlimit:4;stroke-dasharray:none;stroke-dashoffset:0;stroke-opacity:0.99607843;marker:none;paint-order:normal;color-rendering:auto;image-rendering:auto;shape-rendering:auto;text-rendering:auto;enable-background:accumulate"
     id="path816-5"
     d="M 290,30.046875 C 146.76762,30.047092 30.047092,146.76762 30.046875,290 30.047091,433.23238 146.76762,549.95291 290,549.95312 433.23238,549.95291 549.95291,433.23238 549.95312,290 549.95291,146.76762 433.23238,30.047091 290,30.046875 Z m 45.80859,106.533205 c 10.50191,3.13673 20.63769,7.33618 30.28125,12.54492 l -15.4375,15.4375 a 28.312775,28.312775 0 0 0 -7.97265,15.76953 c -2.38934,15.74303 -1.68458,34.51837 13.20703,47.95117 14.89161,13.4328 33.13002,11.84597 46.55469,8.4336 a 28.312775,28.312775 0 0 0 13.04297,-7.41992 l 15.31445,-15.31446 c 5.19245,9.62113 9.38294,19.732 12.51367,30.20703 h -21.71875 a 28.312775,28.312775 0 0 0 -18.68359,7.04102 c -9.55909,8.39667 -18.94241,20.40529 -19.75782,37.09961 -0.8154,16.69431 9.10302,32.04692 20.88868,41.37109 a 28.312775,28.312775 0 0 0 17.56445,6.10938 h 21.81445 c -3.13691,10.50148 -7.3381,20.6381 -12.54687,30.28125 l -15.4375,-15.4375 a 28.312775,28.312775 0 0 0 -20.17383,-8.29102 c -11.14812,0.0614 -25.68006,1.13782 -37.80469,12.67383 -12.12463,11.536 -14.26907,25.99943 -15.00195,38.81641 a 28.312775,28.312775 0 0 0 8.24609,21.63281 l 15.31445,15.31445 c -9.62112,5.19245 -19.73199,9.38295 -30.20703,12.51367 v -21.7207 a 28.312775,28.312775 0 0 0 -7.97656,-19.69727 c -8.39293,-8.66415 -19.89616,-18.71693 -37.24219,-18.77734 -17.34603,-0.0604 -28.56182,9.38749 -37.58789,17.96094 a 28.312775,28.312775 0 0 0 -8.81445,20.52539 v 21.8125 c -10.50019,-3.13684 -20.63727,-7.33475 -30.2793,-12.54297 l 15.4375,-15.4375 a 28.312775,28.312775 0 0 0 8.23047,-21.875 c -0.52395,-7.96543 2.59199,-18.42874 -8.72265,-34.14648 -5.65733,-7.85888 -15.25457,-13.24285 -23.07813,-15.23047 -7.82356,-1.98763 -14.6837,-2.06681 -22.39258,-1.75391 a 28.312775,28.312775 0 0 0 -18.86914,8.26953 l -15.31445,15.31445 c -5.19174,-9.62021 -9.37933,-19.73115 -12.50977,-30.20507 h 21.7168 a 28.312775,28.312775 0 0 0 18.14063,-6.57617 c 10.13186,-8.45618 19.49457,-21.50764 19.91796,-37.80274 0.4234,-16.2951 -8.49121,-30.46304 -19.20507,-40.03906 a 28.312775,28.312775 0 0 0 -18.86524,-7.20313 h -21.81445 c 3.13654,-10.50052 7.33689,-20.63692 12.54492,-30.27929 l 15.4375,15.4375 a 28.312775,28.312775 0 0 0 20.84961,8.27929 c 13.04845,-0.38339 28.24527,-1.31363 40.4375,-14.78906 12.19223,-13.47543 11.38502,-26.78804 11.72461,-37.40039 a 28.312775,28.312775 0 0 0 -8.27734,-20.92383 l -15.31446,-15.31445 c 9.62003,-5.19196 19.7313,-9.37907 30.20508,-12.50977 v 21.7168 a 28.312775,28.312775 0 0 0 10.05078,21.63477 c 9.52395,8.03824 20.83152,15.97234 37.00586,16.02539 16.17434,0.0531 29.29298,-9.68618 37.45898,-18.91797 a 28.312775,28.312775 0 0 0 7.10547,-18.75586 z"
     transform="matrix(0.97495752,0,0,0.97495752,7.2623203,7.2623203)" />
</svg>
