<?xml version="1.0" encoding="UTF-8" standalone="no"?>
<!-- Created with Inkscape (http://www.inkscape.org/) -->

<svg
   xmlns:dc="http://purl.org/dc/elements/1.1/"
   xmlns:cc="http://creativecommons.org/ns#"
   xmlns:rdf="http://www.w3.org/1999/02/22-rdf-syntax-ns#"
   xmlns:svg="http://www.w3.org/2000/svg"
   xmlns="http://www.w3.org/2000/svg"
   xmlns:sodipodi="http://sodipodi.sourceforge.net/DTD/sodipodi-0.dtd"
   xmlns:inkscape="http://www.inkscape.org/namespaces/inkscape"
   version="1.0"
   width="580"
   height="580"
   id="svg2"
   sodipodi:version="0.32"
   inkscape:version="0.92.3 (2405546, 2018-03-11)"
   sodipodi:docname="water_tower_m.svg"
   inkscape:output_extension="org.inkscape.output.svg.inkscape">
  <metadata
     id="metadata2975">
    <rdf:RDF>
      <cc:Work
         rdf:about="">
        <dc:format>image/svg+xml</dc:format>
        <dc:type
           rdf:resource="http://purl.org/dc/dcmitype/StillImage" />
        <cc:license
           rdf:resource="http://web.resource.org/cc/PublicDomain" />
        <dc:language>en</dc:language>
        <dc:title />
      </cc:Work>
    </rdf:RDF>
  </metadata>
  <sodipodi:namedview
     inkscape:window-height="1006"
     inkscape:window-width="1920"
     inkscape:pageshadow="2"
     inkscape:pageopacity="0.0"
     guidetolerance="10.0"
     gridtolerance="10.0"
     objecttolerance="10.0"
     borderopacity="1.0"
     bordercolor="#666666"
     pagecolor="#ffffff"
     id="base"
     inkscape:zoom="1.4142136"
     inkscape:cx="250.43533"
     inkscape:cy="343.21932"
     inkscape:window-x="1920"
     inkscape:window-y="0"
     inkscape:current-layer="svg2"
     showgrid="false"
     inkscape:window-maximized="1" />
  <defs
     id="defs4">
    <inkscape:perspective
       sodipodi:type="inkscape:persp3d"
       inkscape:vp_x="0 : 290 : 1"
       inkscape:vp_y="0 : 1000 : 0"
       inkscape:vp_z="580 : 290 : 1"
       inkscape:persp3d-origin="290 : 193.33333 : 1"
       id="perspective2441" />
  </defs>
  <path
     sodipodi:type="inkscape:offset"
     inkscape:radius="18.439091"
     inkscape:original="M 216.26953 24.267578 L 216.26953 33.435547 L 216.26953 119.46875 A 9.1680224 9.1680224 0 0 0 225.4375 128.63672 L 257.03906 128.63672 C 256.39891 132.76174 255.45434 138.10735 254.16992 144.05273 C 251.51699 156.33279 247.53112 171.9915 242.28906 188.75977 C 231.80494 222.2963 216.04666 260.36626 196.80078 284.72461 A 9.1680224 9.1680224 0 1 0 211.1875 296.08984 C 215.67036 290.41617 219.89561 284.24405 223.88086 277.72852 L 290.56836 227.28516 L 355.14844 276.13477 C 359.41508 283.24119 363.96481 289.95441 368.8125 296.08984 A 9.1680224 9.1680224 0 1 0 383.19922 284.72461 C 363.95334 260.36626 348.19506 222.2963 337.71094 188.75977 C 332.46888 171.9915 328.48301 156.33279 325.83008 144.05273 C 324.54566 138.10735 323.60109 132.76174 322.96094 128.63672 L 357.69727 128.63672 A 9.1680224 9.1680224 0 0 0 366.86523 119.46875 L 366.86523 33.435547 L 366.86523 24.267578 L 348.53125 24.267578 L 348.53125 33.435547 L 348.53125 110.30273 L 234.60352 110.30273 L 234.60352 33.435547 L 234.60352 24.267578 L 216.26953 24.267578 z M 264.58203 31.574219 C 259.94739 31.856359 254.86781 37.47555 250.33594 37.8125 C 250.25374 37.8135 250.17003 37.8135 250.08789 37.8125 L 250.08789 52.679688 C 250.17009 52.680687 250.2538 52.696712 250.33594 52.695312 C 254.86781 52.415352 259.94739 46.653811 264.58203 46.457031 C 269.09674 46.176731 273.13035 51.395634 277.67969 51.507812 C 282.29719 51.564712 286.98216 46.793414 291.92578 46.933594 C 296.80091 47.045104 301.76234 52.247333 306.74023 52.220703 C 311.63211 52.051963 316.2671 46.513081 321.36523 46.457031 C 325.13125 46.437231 329.17851 49.368466 333.05078 50.972656 L 333.05078 36.060547 C 329.17851 34.468107 325.13125 31.574219 321.36523 31.574219 C 316.2671 31.630819 311.63211 37.169091 306.74023 37.337891 C 301.76234 37.365291 296.80091 32.176583 291.92578 32.064453 C 286.98216 31.868243 282.29719 36.666645 277.67969 36.609375 C 273.13069 36.469935 269.09674 31.349959 264.58203 31.574219 z M 265.00781 59.320312 C 264.86759 59.317312 264.72323 59.327814 264.58203 59.333984 C 259.94739 59.614424 254.86781 65.220644 250.33594 65.558594 C 250.25374 65.559594 250.17003 65.559594 250.08789 65.558594 L 250.08789 80.441406 C 250.17009 80.442406 250.2538 80.442406 250.33594 80.441406 C 254.86781 80.102986 259.94739 74.483075 264.58203 74.203125 C 269.09674 73.978295 273.13035 79.098531 277.67969 79.238281 C 282.29719 79.294481 286.98216 74.496589 291.92578 74.693359 C 296.80091 74.805969 301.76234 79.995317 306.74023 79.966797 C 311.63211 79.799007 316.2671 74.257775 321.36523 74.203125 C 325.13125 74.203125 329.17851 77.097623 333.05078 78.689453 L 333.05078 63.820312 C 329.17815 62.228023 325.13125 59.333984 321.36523 59.333984 C 316.2671 59.391184 311.63211 64.914721 306.74023 65.082031 C 301.76234 65.110531 296.80091 59.923667 291.92578 59.810547 C 286.98216 59.613767 282.29719 64.411529 277.67969 64.355469 C 273.27296 64.219479 269.35336 59.415833 265.00781 59.320312 z M 275.72852 128.63672 L 304.27148 128.63672 C 304.60602 131.07416 305.07647 133.82677 305.65234 136.87305 L 289.71094 151.62891 L 274.26172 137.32812 C 274.87823 134.09721 275.37743 131.19479 275.72852 128.63672 z M 309.17773 153.59766 C 310.64618 159.99549 312.40468 167.03822 314.44922 174.52734 L 300.50781 161.62305 L 309.17773 153.59766 z M 270.71875 154.03711 L 278.91602 161.62305 L 265.74219 173.81836 C 267.65813 166.76354 269.31793 160.11438 270.71875 154.03711 z M 289.71094 171.61719 L 312.25977 192.48828 L 290.56836 208.89648 L 267.93359 191.77539 L 289.71094 171.61719 z M 257.26172 202.09375 L 278.41211 218.0918 L 239.86914 247.24609 C 246.61823 232.38524 252.38718 216.93129 257.26172 202.09375 z M 322.9668 202.7793 C 327.65203 216.9783 333.16004 231.7157 339.55664 245.95117 L 302.72461 218.0918 L 322.9668 202.7793 z "
     style="clip-rule:evenodd;fill:#ffffff;fill-opacity:1;fill-rule:evenodd;stroke:none;stroke-width:0.61114031;stroke-opacity:1"
     id="path2"
     d="m 216.26953,5.828125 a 18.440935,18.440935 0 0 0 -18.43945,18.439453 v 9.167969 86.033203 c 8e-5,14.45495 13.15247,27.60734 27.60742,27.60742 h 9.04492 c -2.47057,10.61479 -5.61298,22.81072 -9.79297,36.18164 -10.09984,32.30732 -25.8701,69.16815 -42.35742,90.03516 l 0.16016,-0.19727 c -9.19694,11.31647 -7.1321,30.03475 4.31054,39.07422 11.43206,9.03111 30.09226,6.71658 38.98243,-4.82226 4.20891,-5.3406 8.09085,-11.01778 11.78906,-16.85743 l 52.99414,-40.08593 50.83984,38.45508 c 3.99846,6.42827 8.21514,12.65961 12.81055,18.49023 8.89118,11.53599 27.54754,13.85056 38.97852,4.82031 11.44264,-9.03947 13.50748,-27.75775 4.31054,-39.07422 l 0.16016,0.19727 c -16.48732,-20.86701 -32.25758,-57.72784 -42.35742,-90.03516 -4.17999,-13.37092 -7.3224,-25.56685 -9.79297,-36.18164 h 12.17969 c 14.45493,-1e-4 27.60733,-13.15248 27.60742,-27.60742 V 33.435547 24.267578 A 18.440935,18.440935 0 0 0 366.86523,5.828125 h -18.33398 a 18.440935,18.440935 0 0 0 -15.91406,9.169922 c -2.80899,-1.001701 -6.26522,-1.863281 -11.25196,-1.863281 a 18.440935,18.440935 0 0 0 -0.20507,0.002 c -7.85808,0.08724 -12.12265,2.737889 -14.87696,4.46289 -2.55976,-1.496619 -6.40034,-3.744538 -13.77539,-3.951171 -7.07186,-0.24509 -11.21884,1.748193 -14.00586,3.189453 -2.8114,-1.710193 -7.46593,-4.045682 -14.83398,-3.679688 a 18.440935,18.440935 0 0 0 -0.20703,0.01172 c -6.10923,0.371907 -9.47908,1.981214 -12.05274,3.548828 A 18.440935,18.440935 0 0 0 234.60352,5.828125 Z m 76.08399,35.548828 0.30468,0.0098 c -0.0545,-0.0022 -0.0923,0.0097 -0.14648,0.0078 -0.0596,-0.0017 -0.0982,-0.01619 -0.1582,-0.01758 z m -2.47657,91.816407 0.39453,1.19922 -0.27148,0.23633 -0.46289,-0.4043 z" />
</svg>
