<?xml version="1.0" encoding="UTF-8" standalone="no"?>
<!-- Created with Inkscape (http://www.inkscape.org/) -->

<svg
   xmlns:dc="http://purl.org/dc/elements/1.1/"
   xmlns:cc="http://creativecommons.org/ns#"
   xmlns:rdf="http://www.w3.org/1999/02/22-rdf-syntax-ns#"
   xmlns:svg="http://www.w3.org/2000/svg"
   xmlns="http://www.w3.org/2000/svg"
   xmlns:sodipodi="http://sodipodi.sourceforge.net/DTD/sodipodi-0.dtd"
   xmlns:inkscape="http://www.inkscape.org/namespaces/inkscape"
   version="1.0"
   width="580"
   height="580"
   id="svg2"
   sodipodi:version="0.32"
   inkscape:version="0.92.3 (2405546, 2018-03-11)"
   sodipodi:docname="water_tower_cluster.svg"
   inkscape:output_extension="org.inkscape.output.svg.inkscape">
  <metadata
     id="metadata2975">
    <rdf:RDF>
      <cc:Work
         rdf:about="">
        <dc:format>image/svg+xml</dc:format>
        <dc:type
           rdf:resource="http://purl.org/dc/dcmitype/StillImage" />
        <cc:license
           rdf:resource="http://web.resource.org/cc/PublicDomain" />
        <dc:language>en</dc:language>
        <dc:title></dc:title>
      </cc:Work>
    </rdf:RDF>
  </metadata>
  <sodipodi:namedview
     inkscape:window-height="1006"
     inkscape:window-width="1920"
     inkscape:pageshadow="2"
     inkscape:pageopacity="0.0"
     guidetolerance="10.0"
     gridtolerance="10.0"
     objecttolerance="10.0"
     borderopacity="1.0"
     bordercolor="#666666"
     pagecolor="#ffffff"
     id="base"
     inkscape:zoom="0.65172415"
     inkscape:cx="109.80149"
     inkscape:cy="412.84566"
     inkscape:window-x="1920"
     inkscape:window-y="0"
     inkscape:current-layer="svg2"
     showgrid="false"
     inkscape:window-maximized="1" />
  <defs
     id="defs4">
    <inkscape:perspective
       sodipodi:type="inkscape:persp3d"
       inkscape:vp_x="0 : 290 : 1"
       inkscape:vp_y="0 : 1000 : 0"
       inkscape:vp_z="580 : 290 : 1"
       inkscape:persp3d-origin="290 : 193.33333 : 1"
       id="perspective2441" />
  </defs>
  <path
     style="clip-rule:evenodd;fill:#000000;fill-opacity:1;fill-rule:evenodd;stroke:#000000;stroke-width:0.61114031;stroke-opacity:1"
     d="m 207.03124,72.147621 v 9.16797 86.033199 a 9.1680224,9.1680224 0 0 0 9.16797,9.16797 h 31.60156 c -0.64015,4.12502 -1.58472,9.47063 -2.86914,15.41601 -2.65293,12.28006 -6.6388,27.93877 -11.88086,44.70704 -10.48412,33.53653 -26.2424,71.60649 -45.48828,95.96484 a 9.1680224,9.1680224 0 1 0 14.38672,11.36523 c 4.48286,-5.67367 8.70811,-11.84579 12.69336,-18.36132 l 66.6875,-50.44141 64.58008,48.84766 c 4.26664,7.10642 8.81637,13.81964 13.66406,19.95507 a 9.1680224,9.1680224 0 1 0 14.38672,-11.36523 c -19.24588,-24.35835 -35.00416,-62.42831 -45.48828,-95.96484 -5.24206,-16.76827 -9.22793,-32.42698 -11.88086,-44.70704 -1.28442,-5.94538 -2.22899,-11.29099 -2.86914,-15.41601 h 34.73633 a 9.1680224,9.1680224 0 0 0 9.16796,-9.16797 v -86.033199 -9.16797 h -18.33398 v 9.16797 76.867179 H 225.36523 v -76.867179 -9.16797 z m 48.3125,7.30664 c -4.63464,0.28214 -9.71422,5.90133 -14.24609,6.23828 -0.0822,10e-4 -0.16591,10e-4 -0.24805,0 v 14.867189 c 0.0822,0.001 0.16591,0.017 0.24805,0.0156 4.53187,-0.27996 9.61145,-6.041509 14.24609,-6.238289 4.51471,-0.2803 8.54832,4.93861 13.09766,5.05079 4.6175,0.0569 9.30247,-4.7144 14.24609,-4.57422 4.87513,0.11151 9.83656,5.313739 14.81445,5.287109 4.89188,-0.168739 9.52687,-5.707629 14.625,-5.763679 3.76602,-0.0198 7.81328,2.91144 11.68555,4.51563 v -14.91211 c -3.87227,-1.59244 -7.91953,-4.48633 -11.68555,-4.48633 -5.09813,0.0566 -9.73312,5.59487 -14.625,5.76367 -4.97789,0.0274 -9.93932,-5.1613 -14.81445,-5.27343 -4.94362,-0.19621 -9.62859,4.60219 -14.24609,4.54492 -4.549,-0.13944 -8.58295,-5.25942 -13.09766,-5.03516 z m 0.42578,27.746099 c -0.14022,-0.003 -0.28458,0.007 -0.42578,0.0137 -4.63464,0.28044 -9.71422,5.88666 -14.24609,6.22461 -0.0822,0.001 -0.16591,0.001 -0.24805,0 v 14.88281 c 0.0822,0.001 0.16591,0.001 0.24805,0 4.53187,-0.33842 9.61145,-5.95833 14.24609,-6.23828 4.51471,-0.22483 8.54832,4.8954 13.09766,5.03515 4.6175,0.0562 9.30247,-4.74169 14.24609,-4.54492 4.87513,0.11261 9.83656,5.30196 14.81445,5.27344 4.89188,-0.16779 9.52687,-5.70902 14.625,-5.76367 3.76602,0 7.81328,2.8945 11.68555,4.48633 v -14.86917 c -3.87263,-1.59229 -7.91953,-4.48633 -11.68555,-4.48633 -5.09813,0.0572 -9.73312,5.58073 -14.625,5.74804 -4.97789,0.0285 -9.93932,-5.15836 -14.81445,-5.27148 -4.94362,-0.19678 -9.62859,4.60098 -14.24609,4.54492 -4.40673,-0.13599 -8.32633,-4.93963 -12.67188,-5.03515 z m 10.72071,69.3164 h 28.54296 c 0.33454,2.43744 0.80499,5.19005 1.38086,8.23633 l -15.9414,14.75586 -15.44922,-14.30079 c 0.61651,-3.23092 1.11571,-6.13333 1.4668,-8.6914 z m 33.44921,24.96094 c 1.46845,6.39783 3.22695,13.44056 5.27149,20.92968 l -13.94141,-12.90429 z m -38.45898,0.43945 8.19727,7.58594 -13.17383,12.19531 c 1.91594,-7.05482 3.57574,-13.70398 4.97656,-19.78125 z m 18.99219,17.58008 22.54883,20.87109 -21.69141,16.4082 -22.63477,-17.12109 z m -32.44922,30.47656 21.15039,15.99805 -38.54297,29.15429 c 6.74909,-14.86085 12.51804,-30.3148 17.39258,-45.15234 z m 65.70508,0.6875 c 4.6851,14.19847 10.1935,28.93504 16.58984,43.16992 l -36.83203,-27.85937 z"
     id="path2"
     inkscape:connector-curvature="0" />
  <path
     style="clip-rule:evenodd;fill:#000000;fill-opacity:1;fill-rule:evenodd;stroke:#000000;stroke-width:0.61114031;stroke-opacity:1"
     d="m 255.47783,37.54578 v 8.019531 20.847656 c 6.87554,-0.108368 10.88024,2.916491 13.05079,4.203125 0.20587,0.12204 0.17707,0.07954 0.35351,0.173828 0.31996,-0.130133 0.36622,-0.112583 0.78711,-0.320312 0.51924,-0.256269 1.1617,-0.592347 1.8457,-0.931641 V 45.565311 37.54578 Z m 115.68946,0 v 8.019531 67.246089 h -0.49805 v 16.03907 h 8.51563 c 4.42868,1.3e-4 8.01903,-3.59023 8.01953,-8.01953 V 45.565311 37.54578 Z m -73.42969,6.392578 c -4.05394,0.24683 -8.4969,5.162261 -12.46094,5.457031 -0.0719,8.8e-4 -0.14495,8.8e-4 -0.21679,0 v 13.00586 c 0.0719,8.7e-4 0.14494,0.01497 0.21679,0.01367 3.96404,-0.24491 8.407,-5.284881 12.46094,-5.457031 3.94903,-0.24521 7.4777,4.319829 11.45703,4.417969 4.03894,0.0498 8.13674,-4.124593 12.46094,-4.001953 3.35425,0.07669 6.75394,2.903631 10.17187,4.097656 2.18709,-1.535032 4.79284,-2.361346 7.46485,-2.367188 h 2.24023 c 1.91388,-1.109248 3.85133,-2.124251 5.87305,-2.146484 2.09494,-0.011 4.28918,1.031873 6.48047,2.146484 h 3.74023 V 47.862186 c -3.38709,-1.39311 -6.92655,-3.923828 -10.2207,-3.923828 -4.45935,0.0495 -8.51403,4.893345 -12.79297,5.041015 -4.35418,0.024 -8.69274,-4.515181 -12.95703,-4.613281 -4.3242,-0.17165 -8.422,4.026663 -12.46094,3.976563 -3.97903,-0.12199 -7.508,-4.600487 -11.45703,-4.404297 z m 64.80664,140.140622 c -3.92473,3.36611 -8.89735,5.48044 -14.08594,5.48047 h -15.42773 l -3.08008,2.33008 c 0.93732,4.20334 2.02132,8.76512 3.25781,13.625 l 15.59766,-11.80078 c 4.09807,12.4212 8.91682,25.31453 14.51172,37.76758 l -29.08985,-22.00782 c 1.70054,6.46825 3.66039,13.38075 5.84571,20.51172 l 36.88281,27.90039 c 3.73204,6.21688 7.71087,12.08959 11.95117,17.45703 2.71777,3.56571 7.83044,4.21063 11.34832,1.43148 3.51789,-2.77914 4.07459,-7.90288 1.23567,-11.37288 -16.33506,-20.6772 -29.78457,-52.63926 -38.94727,-81.32227 z"
     id="path2-3"
     inkscape:connector-curvature="0"
     sodipodi:nodetypes="cccccscccccccccccccccccccccccccccccccccccccccccccccscc" />
</svg>
