<?xml version="1.0" encoding="UTF-8" standalone="no"?>
<!-- Created with Inkscape (http://www.inkscape.org/) -->

<svg
   xmlns:dc="http://purl.org/dc/elements/1.1/"
   xmlns:cc="http://creativecommons.org/ns#"
   xmlns:rdf="http://www.w3.org/1999/02/22-rdf-syntax-ns#"
   xmlns:svg="http://www.w3.org/2000/svg"
   xmlns="http://www.w3.org/2000/svg"
   xmlns:sodipodi="http://sodipodi.sourceforge.net/DTD/sodipodi-0.dtd"
   xmlns:inkscape="http://www.inkscape.org/namespaces/inkscape"
   version="1.0"
   width="580"
   height="580"
   id="svg2"
   sodipodi:version="0.32"
   inkscape:version="0.92.3 (2405546, 2018-03-11)"
   sodipodi:docname="weir_cluster.svg"
   inkscape:output_extension="org.inkscape.output.svg.inkscape">
  <metadata
     id="metadata2975">
    <rdf:RDF>
      <cc:Work
         rdf:about="">
        <dc:format>image/svg+xml</dc:format>
        <dc:type
           rdf:resource="http://purl.org/dc/dcmitype/StillImage" />
        <dc:title></dc:title>
      </cc:Work>
    </rdf:RDF>
  </metadata>
  <sodipodi:namedview
     inkscape:window-height="1006"
     inkscape:window-width="1920"
     inkscape:pageshadow="2"
     inkscape:pageopacity="0.0"
     guidetolerance="10.0"
     gridtolerance="10.0"
     objecttolerance="10.0"
     borderopacity="1.0"
     bordercolor="#666666"
     pagecolor="#ffffff"
     id="base"
     inkscape:zoom="0.64"
     inkscape:cx="107.50921"
     inkscape:cy="318.1777"
     inkscape:window-x="1920"
     inkscape:window-y="0"
     inkscape:current-layer="svg2"
     showgrid="false"
     inkscape:window-maximized="1"
     inkscape:snap-bbox="false"
     inkscape:bbox-nodes="false" />
  <defs
     id="defs4">
    <inkscape:perspective
       sodipodi:type="inkscape:persp3d"
       inkscape:vp_x="0 : 290 : 1"
       inkscape:vp_y="0 : 1000 : 0"
       inkscape:vp_z="580 : 290 : 1"
       inkscape:persp3d-origin="290 : 193.33333 : 1"
       id="perspective2441" />
    <inkscape:perspective
       id="perspective2466"
       inkscape:persp3d-origin="372.04724 : 350.78739 : 1"
       inkscape:vp_z="744.09448 : 526.18109 : 1"
       inkscape:vp_y="0 : 1000 : 0"
       inkscape:vp_x="0 : 526.18109 : 1"
       sodipodi:type="inkscape:persp3d" />
    <inkscape:perspective
       id="perspective3333"
       inkscape:persp3d-origin="372.04724 : 350.78739 : 1"
       inkscape:vp_z="744.09448 : 526.18109 : 1"
       inkscape:vp_y="0 : 1000 : 0"
       inkscape:vp_x="0 : 526.18109 : 1"
       sodipodi:type="inkscape:persp3d" />
    <inkscape:perspective
       id="perspective3401"
       inkscape:persp3d-origin="372.04724 : 350.78739 : 1"
       inkscape:vp_z="744.09448 : 526.18109 : 1"
       inkscape:vp_y="0 : 1000 : 0"
       inkscape:vp_x="0 : 526.18109 : 1"
       sodipodi:type="inkscape:persp3d" />
    <inkscape:perspective
       id="perspective3464"
       inkscape:persp3d-origin="372.04724 : 350.78739 : 1"
       inkscape:vp_z="744.09448 : 526.18109 : 1"
       inkscape:vp_y="0 : 1000 : 0"
       inkscape:vp_x="0 : 526.18109 : 1"
       sodipodi:type="inkscape:persp3d" />
    <inkscape:perspective
       id="perspective3581"
       inkscape:persp3d-origin="225 : 150 : 1"
       inkscape:vp_z="450 : 225 : 1"
       inkscape:vp_y="0 : 1000 : 0"
       inkscape:vp_x="0 : 225 : 1"
       sodipodi:type="inkscape:persp3d" />
    <inkscape:perspective
       id="perspective4312"
       inkscape:persp3d-origin="225 : 150 : 1"
       inkscape:vp_z="450 : 225 : 1"
       inkscape:vp_y="0 : 1000 : 0"
       inkscape:vp_x="0 : 225 : 1"
       sodipodi:type="inkscape:persp3d" />
    <inkscape:perspective
       id="perspective8860"
       inkscape:persp3d-origin="372.04724 : 350.78739 : 1"
       inkscape:vp_z="744.09448 : 526.18109 : 1"
       inkscape:vp_y="0 : 1000 : 0"
       inkscape:vp_x="0 : 526.18109 : 1"
       sodipodi:type="inkscape:persp3d" />
    <inkscape:perspective
       id="perspective8887"
       inkscape:persp3d-origin="372.04724 : 350.78739 : 1"
       inkscape:vp_z="744.09448 : 526.18109 : 1"
       inkscape:vp_y="0 : 1000 : 0"
       inkscape:vp_x="0 : 526.18109 : 1"
       sodipodi:type="inkscape:persp3d" />
    <inkscape:perspective
       sodipodi:type="inkscape:persp3d"
       inkscape:vp_x="0 : 16 : 1"
       inkscape:vp_y="0 : 1000 : 0"
       inkscape:vp_z="32 : 16 : 1"
       inkscape:persp3d-origin="16 : 10.666667 : 1"
       id="perspective4904" />
    <inkscape:perspective
       sodipodi:type="inkscape:persp3d"
       inkscape:vp_x="0 : 6 : 1"
       inkscape:vp_y="0 : 1000 : 0"
       inkscape:vp_z="12 : 6 : 1"
       inkscape:persp3d-origin="6 : 4 : 1"
       id="perspective4668" />
    <inkscape:perspective
       sodipodi:type="inkscape:persp3d"
       inkscape:vp_x="0 : 526.18109 : 1"
       inkscape:vp_y="0 : 1000 : 0"
       inkscape:vp_z="744.09448 : 526.18109 : 1"
       inkscape:persp3d-origin="372.04724 : 350.78739 : 1"
       id="perspective4471" />
    <symbol
       id="symbol-university"
       viewBox="244.5 110 489 219.9">
      <path
         d="M79,43l57,119c0,0,21-96,104-96s124,106,124,106l43-133l82-17L0,17L79,43z"
         id="path4460" />
      <path
         fill="none"
         stroke="#000000"
         stroke-width="20"
         d="M94,176l-21,39"
         id="path4462" />
      <path
         d="M300,19c0,10.5-22.6,19-50.5,19S199,29.5,199,19s22.6-19,50.5-19S300,8.5,300,19z"
         id="path4464" />
      <path
         ill="none"
         stroke="#000000"
         stroke-width="20"
         d="M112,216l-16-38L64,88c0,0-9-8-4-35s16-24,16-24"
         id="path4466" />
    </symbol>
    <inkscape:perspective
       sodipodi:type="inkscape:persp3d"
       inkscape:vp_x="0 : 30 : 1"
       inkscape:vp_y="0 : 1000 : 0"
       inkscape:vp_z="60 : 30 : 1"
       inkscape:persp3d-origin="30 : 20 : 1"
       id="perspective3452" />
    <inkscape:perspective
       id="perspective9479"
       inkscape:persp3d-origin="290 : 193.33333 : 1"
       inkscape:vp_z="580 : 290 : 1"
       inkscape:vp_y="0 : 1000 : 0"
       inkscape:vp_x="0 : 290 : 1"
       sodipodi:type="inkscape:persp3d" />
    <inkscape:perspective
       id="perspective9690"
       inkscape:persp3d-origin="372.04724 : 350.78739 : 1"
       inkscape:vp_z="744.09448 : 526.18109 : 1"
       inkscape:vp_y="0 : 1000 : 0"
       inkscape:vp_x="0 : 526.18109 : 1"
       sodipodi:type="inkscape:persp3d" />
    <inkscape:perspective
       sodipodi:type="inkscape:persp3d"
       inkscape:vp_x="0 : 290 : 1"
       inkscape:vp_y="0 : 1000 : 0"
       inkscape:vp_z="580 : 290 : 1"
       inkscape:persp3d-origin="290 : 193.33333 : 1"
       id="perspective9819" />
    <inkscape:perspective
       id="perspective9817"
       inkscape:persp3d-origin="30 : 20 : 1"
       inkscape:vp_z="60 : 30 : 1"
       inkscape:vp_y="0 : 1000 : 0"
       inkscape:vp_x="0 : 30 : 1"
       sodipodi:type="inkscape:persp3d" />
    <symbol
       viewBox="244.5 110 489 219.9"
       id="symbol9807">
      <path
         id="path9809"
         d="M79,43l57,119c0,0,21-96,104-96s124,106,124,106l43-133l82-17L0,17L79,43z" />
      <path
         id="path9811"
         d="M94,176l-21,39"
         stroke-width="20"
         stroke="#000000"
         fill="none" />
      <path
         id="path9813"
         d="M300,19c0,10.5-22.6,19-50.5,19S199,29.5,199,19s22.6-19,50.5-19S300,8.5,300,19z" />
      <path
         id="path9815"
         d="M112,216l-16-38L64,88c0,0-9-8-4-35s16-24,16-24"
         stroke-width="20"
         stroke="#000000"
         ill="none" />
    </symbol>
    <inkscape:perspective
       id="perspective9805"
       inkscape:persp3d-origin="372.04724 : 350.78739 : 1"
       inkscape:vp_z="744.09448 : 526.18109 : 1"
       inkscape:vp_y="0 : 1000 : 0"
       inkscape:vp_x="0 : 526.18109 : 1"
       sodipodi:type="inkscape:persp3d" />
    <inkscape:perspective
       id="perspective9803"
       inkscape:persp3d-origin="6 : 4 : 1"
       inkscape:vp_z="12 : 6 : 1"
       inkscape:vp_y="0 : 1000 : 0"
       inkscape:vp_x="0 : 6 : 1"
       sodipodi:type="inkscape:persp3d" />
    <inkscape:perspective
       id="perspective9801"
       inkscape:persp3d-origin="16 : 10.666667 : 1"
       inkscape:vp_z="32 : 16 : 1"
       inkscape:vp_y="0 : 1000 : 0"
       inkscape:vp_x="0 : 16 : 1"
       sodipodi:type="inkscape:persp3d" />
    <inkscape:perspective
       sodipodi:type="inkscape:persp3d"
       inkscape:vp_x="0 : 526.18109 : 1"
       inkscape:vp_y="0 : 1000 : 0"
       inkscape:vp_z="744.09448 : 526.18109 : 1"
       inkscape:persp3d-origin="372.04724 : 350.78739 : 1"
       id="perspective9799" />
    <inkscape:perspective
       sodipodi:type="inkscape:persp3d"
       inkscape:vp_x="0 : 526.18109 : 1"
       inkscape:vp_y="0 : 1000 : 0"
       inkscape:vp_z="744.09448 : 526.18109 : 1"
       inkscape:persp3d-origin="372.04724 : 350.78739 : 1"
       id="perspective9797" />
    <inkscape:perspective
       sodipodi:type="inkscape:persp3d"
       inkscape:vp_x="0 : 225 : 1"
       inkscape:vp_y="0 : 1000 : 0"
       inkscape:vp_z="450 : 225 : 1"
       inkscape:persp3d-origin="225 : 150 : 1"
       id="perspective9795" />
    <inkscape:perspective
       sodipodi:type="inkscape:persp3d"
       inkscape:vp_x="0 : 225 : 1"
       inkscape:vp_y="0 : 1000 : 0"
       inkscape:vp_z="450 : 225 : 1"
       inkscape:persp3d-origin="225 : 150 : 1"
       id="perspective9793" />
    <inkscape:perspective
       sodipodi:type="inkscape:persp3d"
       inkscape:vp_x="0 : 526.18109 : 1"
       inkscape:vp_y="0 : 1000 : 0"
       inkscape:vp_z="744.09448 : 526.18109 : 1"
       inkscape:persp3d-origin="372.04724 : 350.78739 : 1"
       id="perspective9791" />
    <inkscape:perspective
       sodipodi:type="inkscape:persp3d"
       inkscape:vp_x="0 : 526.18109 : 1"
       inkscape:vp_y="0 : 1000 : 0"
       inkscape:vp_z="744.09448 : 526.18109 : 1"
       inkscape:persp3d-origin="372.04724 : 350.78739 : 1"
       id="perspective9789" />
    <inkscape:perspective
       sodipodi:type="inkscape:persp3d"
       inkscape:vp_x="0 : 526.18109 : 1"
       inkscape:vp_y="0 : 1000 : 0"
       inkscape:vp_z="744.09448 : 526.18109 : 1"
       inkscape:persp3d-origin="372.04724 : 350.78739 : 1"
       id="perspective9787" />
    <inkscape:perspective
       sodipodi:type="inkscape:persp3d"
       inkscape:vp_x="0 : 526.18109 : 1"
       inkscape:vp_y="0 : 1000 : 0"
       inkscape:vp_z="744.09448 : 526.18109 : 1"
       inkscape:persp3d-origin="372.04724 : 350.78739 : 1"
       id="perspective9785" />
    <inkscape:perspective
       id="perspective9783"
       inkscape:persp3d-origin="290 : 193.33333 : 1"
       inkscape:vp_z="580 : 290 : 1"
       inkscape:vp_y="0 : 1000 : 0"
       inkscape:vp_x="0 : 290 : 1"
       sodipodi:type="inkscape:persp3d" />
    <defs
       id="defs48974" />
    <sodipodi:namedview
       pagecolor="#ffffff"
       inkscape:zoom="0.61399264"
       inkscape:window-y="26"
       inkscape:window-x="0"
       inkscape:window-width="1012"
       inkscape:window-height="739"
       inkscape:pageshadow="2"
       inkscape:pageopacity="0.0"
       inkscape:cy="250.37448"
       inkscape:cx="475.26707"
       id="namedview4258"
       borderopacity="1.0"
       bordercolor="#666666" />
    <inkscape:perspective
       id="perspective11483"
       inkscape:persp3d-origin="100 : 66.666667 : 1"
       inkscape:vp_z="200 : 100 : 1"
       inkscape:vp_y="0 : 1000 : 0"
       inkscape:vp_x="0 : 100 : 1"
       sodipodi:type="inkscape:persp3d" />
    <linearGradient
       id="linearGradient2936">
      <stop
         style="stop-color:#8acf6b;stop-opacity:1.0000000;"
         offset="0.0000000"
         id="stop2938" />
      <stop
         style="stop-color:#368912;stop-opacity:1.0000000;"
         offset="1.0000000"
         id="stop2940" />
    </linearGradient>
    <linearGradient
       id="linearGradient2952">
      <stop
         style="stop-color:#c0d50d;stop-opacity:1;"
         offset="0"
         id="stop2954" />
      <stop
         style="stop-color:#eef2cd;stop-opacity:1.0000000;"
         offset="1.0000000"
         id="stop2956" />
    </linearGradient>
    <inkscape:perspective
       id="perspective34"
       inkscape:persp3d-origin="372.04724 : 350.78739 : 1"
       inkscape:vp_z="744.09448 : 526.18109 : 1"
       inkscape:vp_y="0 : 1000 : 0"
       inkscape:vp_x="0 : 526.18109 : 1"
       sodipodi:type="inkscape:persp3d" />
    <inkscape:perspective
       id="perspective12300"
       inkscape:persp3d-origin="372.04724 : 350.78739 : 1"
       inkscape:vp_z="744.09448 : 526.18109 : 1"
       inkscape:vp_y="0 : 1000 : 0"
       inkscape:vp_x="0 : 526.18109 : 1"
       sodipodi:type="inkscape:persp3d" />
    <inkscape:perspective
       id="perspective3653"
       inkscape:persp3d-origin="290 : 193.33333 : 1"
       inkscape:vp_z="580 : 290 : 1"
       inkscape:vp_y="0 : 1000 : 0"
       inkscape:vp_x="0 : 290 : 1"
       sodipodi:type="inkscape:persp3d" />
  </defs>
  <path
     inkscape:connector-curvature="0"
     style="clip-rule:evenodd;opacity:1;vector-effect:none;fill:#739eff;fill-opacity:1;fill-rule:evenodd;stroke:none;stroke-width:1;stroke-linecap:butt;stroke-linejoin:miter;stroke-miterlimit:4;stroke-dasharray:none;stroke-dashoffset:0;stroke-opacity:1"
     d="m 111.69038,162.72628 c -18.955384,0.40862 -36.638461,12.71124 -54.914893,12.61203 -0.1764,-0.005 -0.349186,-0.0194 -0.525501,-0.0261 v 36.68 c 18.699775,-0.1135 36.790558,-13.00974 56.281184,-12.61203 19.71514,0.53811 41.04376,14.22133 60.35362,15.1605 19.05173,0.52045 39.13009,-11.45845 53.10254,-11.56102 13.64118,-0.11184 20.88131,8.81243 29.03374,10.90436 8.02379,1.94814 14.1667,2.37106 18.9702,1.051 l 0.1051,-25.82861 c 3.23205,1.70096 18.56743,3.35901 -8.22389,-12.79532 -11.74518,-8.30376 -25.2678,-10.18211 -38.91319,-9.9324 -13.97328,0.10175 -33.99866,12.08149 -53.04956,11.56104 -19.30986,-0.94002 -40.66455,-14.67452 -60.37968,-15.21347 -0.61463,-0.0118 -1.22841,-0.0126 -1.83967,0 z"
     id="path2" />
  <path
     inkscape:connector-curvature="0"
     style="clip-rule:evenodd;opacity:1;vector-effect:none;fill:#739eff;fill-opacity:1;fill-rule:evenodd;stroke:none;stroke-width:1;stroke-linecap:butt;stroke-linejoin:miter;stroke-miterlimit:4;stroke-dasharray:none;stroke-dashoffset:0;stroke-opacity:1"
     d="m 252.7879,217.12701 c 4.61011,14.85614 1.45795,35.83584 7.08544,52.51819 6.11938,16.38724 9.62637,23.21034 15.73059,40.01966 0.32623,0.91648 6.87691,16.66302 7.1258,17.59295 24.41773,-0.18667 47.9686,19.8547 34.0466,-21.11507 -6.10423,-16.80932 -15.89537,-31.26354 -22.01473,-47.65078 -5.62833,-16.6832 2.01288,-35.86862 -2.59639,-50.72308 -7.78415,-27.57915 -27.82803,-28.51496 -34.80503,-30.13098 -27.59176,-6.39346 -47.34809,-15.03607 -32.81818,13.60502 3.27071,6.44642 14.84099,11.05402 28.2459,25.88409 z"
     id="path4" />
  <path
     inkscape:connector-curvature="0"
     style="opacity:1;vector-effect:none;fill:#004cfc;fill-opacity:1;stroke:none;stroke-width:1;stroke-linecap:butt;stroke-linejoin:miter;stroke-miterlimit:4;stroke-dasharray:none;stroke-dashoffset:0;stroke-opacity:1;marker:none"
     d="m 141.56575,242.86565 c -17.38105,-0.0269 -62.948914,0.59192 -85.315764,1.20823 V 446.97037 H 255.88289 C 242.70584,240.48282 249.41124,220.33131 141.56575,242.86565 Z"
     id="path6" />
  <path
     inkscape:connector-curvature="0"
     style="clip-rule:evenodd;opacity:1;vector-effect:none;fill:#739eff;fill-opacity:1;fill-rule:evenodd;stroke:none;stroke-width:1;stroke-linecap:butt;stroke-linejoin:miter;stroke-miterlimit:4;stroke-dasharray:none;stroke-dashoffset:0;stroke-opacity:1"
     d="m 335.34375,315.3058 c -17.79557,0.39686 -35.06312,10.33683 -51.76145,9.74826 -0.68189,-0.032 -1.32258,-0.0639 -1.99775,-0.13116 v 36.75903 c 0.33969,0.0235 0.68441,0.0378 1.02494,0.0522 17.79389,0.62724 36.15954,-10.61344 55.20455,-9.74826 18.78099,0.78783 37.59226,14.09857 56.7802,14.5568 18.86592,0.0992 37.04826,-13.01056 56.70118,-12.61203 9.18492,0.21945 18.72382,3.35228 28.2459,6.72642 V 323.6357 c -9.17903,-3.21018 -18.369,-6.11767 -27.22097,-6.35898 -19.65291,-0.39686 -37.88822,12.76421 -56.75414,12.66499 -19.18794,-0.45655 -37.97314,-13.76813 -56.75414,-14.5568 -0.59529,-0.0311 -1.16703,-0.0707 -1.76064,-0.079 -0.57511,-0.008 -1.1334,-0.0127 -1.70768,0 z"
     id="path8" />
  <path
     inkscape:connector-curvature="0"
     style="clip-rule:evenodd;opacity:1;vector-effect:none;fill:#739eff;fill-opacity:1;fill-rule:evenodd;stroke:none;stroke-width:1;stroke-linecap:butt;stroke-linejoin:miter;stroke-miterlimit:4;stroke-dasharray:none;stroke-dashoffset:0;stroke-opacity:1"
     d="m 341.78094,389.63776 c -18.406,-0.24805 -36.23185,10.38222 -53.46997,9.77431 -0.68105,-0.032 -1.34864,-0.09 -2.02298,-0.15722 v 36.75902 c 0.3397,0.0235 0.68442,0.0639 1.02495,0.0782 17.7939,0.62724 36.18559,-10.63867 55.22976,-9.77433 18.78184,0.78783 37.5662,14.09857 56.75415,14.55681 18.86676,0.0992 37.07517,-13.01057 56.72808,-12.61203 7.66475,0.1833 15.57502,2.40974 23.51639,5.09694 v -36.99532 c -7.59832,-2.51484 -15.15713,-4.55548 -22.49145,-4.75558 -19.65291,-0.39687 -37.88823,12.76421 -56.75415,12.665 -19.18794,-0.45656 -37.97314,-13.76814 -56.75414,-14.55681 -0.59529,-0.0311 -1.16703,-0.0706 -1.76064,-0.079 z"
     id="path10" />
  <path
     inkscape:connector-curvature="0"
     style="clip-rule:evenodd;opacity:1;vector-effect:none;fill:#739eff;fill-opacity:1;fill-rule:evenodd;stroke:none;stroke-width:1;stroke-linecap:butt;stroke-linejoin:miter;stroke-miterlimit:4;stroke-dasharray:none;stroke-dashoffset:0;stroke-opacity:1"
     d="m 185.67605,99.317936 c -17.65297,0.380544 -34.12106,11.837854 -51.14173,11.745464 -0.16428,-0.005 -0.32519,-0.0181 -0.48939,-0.0243 v 34.15975 c 17.41492,-0.10571 34.2627,-12.11586 52.41413,-11.74547 18.36053,0.50113 38.22367,13.24419 56.20676,14.11883 17.7427,0.48469 36.44149,-10.67114 49.45389,-10.76667 12.70391,-0.10415 19.44658,8.20693 27.03886,10.15513 7.47247,1.81428 13.19331,2.20815 17.66677,0.97878 l 0.0979,-24.05394 c 3.00998,1.58409 17.29168,3.12822 -7.65882,-11.91616 -10.93818,-7.73321 -23.53167,-9.4825 -36.23949,-9.24995 -13.01319,0.0948 -31.66264,11.25138 -49.40457,10.76669 -17.98308,-0.87544 -37.87051,-13.666244 -56.23102,-14.168164 -0.5724,-0.01099 -1.14401,-0.01174 -1.71326,0 z"
     id="path2-5" />
  <path
     inkscape:connector-curvature="0"
     style="clip-rule:evenodd;opacity:1;vector-effect:none;fill:#739eff;fill-opacity:1;fill-rule:evenodd;stroke:none;stroke-width:1;stroke-linecap:butt;stroke-linejoin:miter;stroke-miterlimit:4;stroke-dasharray:none;stroke-dashoffset:0;stroke-opacity:1"
     d="m 317.07884,149.98083 c 4.29335,13.83538 1.35777,33.37358 6.5986,48.90969 5.69892,15.26129 8.96495,21.61557 14.64975,37.26994 0.30382,0.8535 6.4044,15.51811 6.63619,16.38414 22.74,-0.17384 44.6727,18.4905 31.70728,-19.66426 -5.68481,-15.65436 -14.80321,-29.11544 -20.50211,-44.37672 -5.24161,-15.53692 1.87458,-33.40412 -2.41799,-47.23793 -7.24931,-25.68421 -25.91599,-26.55572 -32.4136,-28.0607 -25.69595,-5.95417 -44.09484,-14.002953 -30.56326,12.67022 3.04598,6.0035 13.82127,10.29451 26.30514,24.10562 z"
     id="path4-6" />
  <path
     inkscape:connector-curvature="0"
     style="clip-rule:evenodd;opacity:1;vector-effect:none;fill:#739eff;fill-opacity:1;fill-rule:evenodd;stroke:none;stroke-width:1;stroke-linecap:butt;stroke-linejoin:miter;stroke-miterlimit:4;stroke-dasharray:none;stroke-dashoffset:0;stroke-opacity:1"
     d="m 393.96233,241.41381 c -16.57285,0.36959 -32.65396,9.62659 -48.20496,9.07846 -0.63503,-0.0298 -1.2317,-0.0595 -1.86049,-0.12215 v 34.23334 c 0.31635,0.0219 0.63739,0.0352 0.95452,0.0486 16.57129,0.58414 33.67504,-9.8842 51.41148,-9.07846 17.49056,0.73369 35.00932,13.12986 52.87886,13.5566 17.56966,0.0924 34.5027,-12.11661 52.80528,-11.74546 8.55383,0.20437 17.43732,3.12195 26.30514,6.26425 v -34.47764 c -8.54834,-2.98961 -17.10688,-5.69733 -25.35063,-5.92206 -18.30257,-0.3696 -35.28494,11.88719 -52.85459,11.79478 -17.86955,-0.42518 -35.36403,-12.82212 -52.8546,-13.5566 -0.55439,-0.029 -1.08684,-0.0659 -1.63967,-0.0736 -0.53559,-0.008 -1.05552,-0.0118 -1.59034,0 z"
     id="path8-9" />
</svg>
