<?xml version="1.0" encoding="UTF-8" standalone="no"?>
<!-- Created with Inkscape (http://www.inkscape.org/) -->

<svg
   xmlns:dc="http://purl.org/dc/elements/1.1/"
   xmlns:cc="http://creativecommons.org/ns#"
   xmlns:rdf="http://www.w3.org/1999/02/22-rdf-syntax-ns#"
   xmlns:svg="http://www.w3.org/2000/svg"
   xmlns="http://www.w3.org/2000/svg"
   xmlns:sodipodi="http://sodipodi.sourceforge.net/DTD/sodipodi-0.dtd"
   xmlns:inkscape="http://www.inkscape.org/namespaces/inkscape"
   version="1.0"
   width="580"
   height="580"
   id="svg2"
   sodipodi:version="0.32"
   inkscape:version="0.92.3 (2405546, 2018-03-11)"
   sodipodi:docname="wilderness_hut_m.svg"
   inkscape:output_extension="org.inkscape.output.svg.inkscape">
  <metadata
     id="metadata2975">
    <rdf:RDF>
      <cc:Work
         rdf:about="">
        <dc:format>image/svg+xml</dc:format>
        <dc:type
           rdf:resource="http://purl.org/dc/dcmitype/StillImage" />
        <cc:license
           rdf:resource="http://web.resource.org/cc/PublicDomain" />
        <dc:language>en</dc:language>
        <dc:title />
      </cc:Work>
    </rdf:RDF>
  </metadata>
  <sodipodi:namedview
     inkscape:window-height="1006"
     inkscape:window-width="1920"
     inkscape:pageshadow="2"
     inkscape:pageopacity="0.0"
     guidetolerance="10.0"
     gridtolerance="10.0"
     objecttolerance="10.0"
     borderopacity="1.0"
     bordercolor="#666666"
     pagecolor="#ffffff"
     id="base"
     inkscape:zoom="0.92167712"
     inkscape:cx="-152.89391"
     inkscape:cy="255.2327"
     inkscape:window-x="1920"
     inkscape:window-y="0"
     inkscape:current-layer="svg2"
     showgrid="false"
     inkscape:window-maximized="1" />
  <defs
     id="defs4">
    <inkscape:perspective
       sodipodi:type="inkscape:persp3d"
       inkscape:vp_x="0 : 290 : 1"
       inkscape:vp_y="0 : 1000 : 0"
       inkscape:vp_z="580 : 290 : 1"
       inkscape:persp3d-origin="290 : 193.33333 : 1"
       id="perspective2441" />
  </defs>
  <path
     sodipodi:type="inkscape:offset"
     inkscape:radius="33.634338"
     inkscape:original="M 366.50586 60.929688 C 359.76775 60.930669 354.30567 66.392744 354.30469 73.130859 L 354.30469 158.01172 L 295.05859 126.41406 C 293.46919 125.56584 291.69212 125.13065 289.89062 125.14844 C 288.16316 125.16654 286.4655 125.60067 284.94141 126.41406 L 44.46875 254.66406 C 38.101492 258.06117 36.823155 266.64261 41.923828 271.74805 L 57.945312 287.7832 C 60.995506 290.83547 65.575086 291.76831 69.576172 290.15234 L 87.521484 282.90039 L 87.521484 508.03125 C 87.522482 514.12754 92.464253 519.06931 98.560547 519.07031 L 128.66211 519.07031 C 134.7584 519.06931 139.70017 514.12754 139.70117 508.03125 L 139.70117 261.81641 L 148.2168 258.375 L 289.90234 241.60742 L 354.30469 249.35742 L 354.30469 334.36328 L 267.05664 334.36328 C 260.49748 334.364 255.18041 339.68107 255.17969 346.24023 L 255.17969 420.28125 L 255.17969 510.33789 C 255.18045 514.88745 258.86841 518.57541 263.41797 518.57617 L 293.76953 518.57617 C 298.31909 518.57541 302.00705 514.88745 302.00781 510.33789 L 302.00781 432.1582 L 354.30469 432.1582 L 354.30469 506.19141 C 354.30567 512.92952 359.76775 518.3916 366.50586 518.39258 L 387.91602 518.39258 C 394.65413 518.3916 400.11621 512.92952 400.11719 506.19141 L 400.11719 254.87109 L 431.27734 258.62109 L 437.48438 261.125 L 437.48438 508.03125 C 437.48537 514.12754 442.42715 519.06931 448.52344 519.07031 L 478.625 519.07031 C 484.72129 519.06931 489.66306 514.12754 489.66406 508.03125 L 489.66406 282.17188 L 510.34961 290.51562 C 514.38114 292.14148 518.99506 291.17953 522.04102 288.07812 L 538.14062 271.68164 C 543.16961 266.56029 541.86366 258.04332 535.53125 254.66406 L 400.11719 182.44531 L 400.11719 73.130859 C 400.11621 66.392744 394.65413 60.930669 387.91602 60.929688 L 366.50586 60.929688 z "
     style="color:#000000;font-style:normal;font-variant:normal;font-weight:normal;font-stretch:normal;font-size:medium;line-height:normal;font-family:sans-serif;font-variant-ligatures:normal;font-variant-position:normal;font-variant-caps:normal;font-variant-numeric:normal;font-variant-alternates:normal;font-feature-settings:normal;text-indent:0;text-align:start;text-decoration:none;text-decoration-line:none;text-decoration-style:solid;text-decoration-color:#000000;letter-spacing:normal;word-spacing:normal;text-transform:none;writing-mode:lr-tb;direction:ltr;text-orientation:mixed;dominant-baseline:auto;baseline-shift:baseline;text-anchor:start;white-space:normal;shape-padding:0;clip-rule:nonzero;display:inline;overflow:visible;visibility:visible;opacity:1;isolation:auto;mix-blend-mode:normal;color-interpolation:sRGB;color-interpolation-filters:linearRGB;solid-color:#000000;solid-opacity:1;vector-effect:none;fill:#ffffff;fill-opacity:1;fill-rule:evenodd;stroke:none;stroke-width:21.4998703;stroke-linecap:round;stroke-linejoin:round;stroke-miterlimit:4;stroke-dasharray:none;stroke-dashoffset:0;stroke-opacity:1;color-rendering:auto;image-rendering:auto;shape-rendering:auto;text-rendering:auto;enable-background:accumulate"
     id="path7057-3"
     d="m 366.5,27.294922 c -24.912,0.0036 -45.82645,20.918065 -45.83008,45.830078 a 33.637702,33.637702 0 0 0 0,0.0059 v 28.822261 l -9.7793,-5.214839 c -6.55977,-3.499943 -13.89767,-5.296071 -21.33203,-5.222656 a 33.637702,33.637702 0 0 0 -0.0195,0 c -7.12788,0.07469 -14.13653,1.865796 -20.42578,5.220703 l -0.004,0.002 c -0.001,6.88e-4 -0.003,0.0013 -0.004,0.002 L 28.640625,224.98633 a 33.637702,33.637702 0 0 0 -0.0039,0.002 C 3.1640822,238.57864 -2.2766507,275.0949 18.128906,295.51953 a 33.637702,33.637702 0 0 0 0.002,0.002 l 16.021485,16.03516 a 33.637702,33.637702 0 0 0 0.002,0.002 c 5.55078,5.55456 12.413337,9.30075 19.732422,11.29493 v 185.17773 a 33.637702,33.637702 0 0 0 0,0.006 c 0.004,24.26974 20.398241,44.66399 44.667969,44.66797 a 33.637702,33.637702 0 0 0 0.0059,0 h 30.101563 a 33.637702,33.637702 0 0 0 0.006,0 c 24.26973,-0.004 44.66399,-20.39823 44.66797,-44.66797 a 33.637702,33.637702 0 0 0 0,-0.006 V 289.27148 l 116.5332,-13.79101 30.80078,3.70703 v 21.54102 h -53.61328 a 33.637702,33.637702 0 0 0 -0.004,0 c -24.73389,0.003 -45.50509,20.77391 -45.50781,45.50781 a 33.637702,33.637702 0 0 0 0,0.004 v 74.04102 90.05664 a 33.637702,33.637702 0 0 0 0,0.006 c 0.004,22.72295 19.14424,41.86339 41.86719,41.86719 a 33.637702,33.637702 0 0 0 0.006,0 h 30.35156 a 33.637702,33.637702 0 0 0 0.006,0 c 14.72881,-0.002 27.85161,-8.10808 35.33399,-19.95508 8.36786,11.84694 22.10007,19.76926 37.39062,19.77148 a 33.637702,33.637702 0 0 0 0.006,0 h 21.41016 a 33.637702,33.637702 0 0 0 0.006,0 c 11.46771,-0.002 21.97185,-4.5691 30.0957,-11.7832 8.05012,7.63844 18.79189,12.45902 30.5,12.46094 a 33.637702,33.637702 0 0 0 0.006,0 H 478.625 a 33.637702,33.637702 0 0 0 0.006,0 c 24.26974,-0.004 44.66399,-20.39823 44.66797,-44.66797 a 33.637702,33.637702 0 0 0 0,-0.006 V 323.97266 c 8.4795,-1.74344 16.45446,-5.92796 22.73828,-12.32618 a 33.637702,33.637702 0 0 0 0.004,-0.004 l 16.09765,-16.39453 0.002,-0.002 c 20.12756,-20.49991 14.57291,-56.7299 -10.77343,-70.25586 a 33.637702,33.637702 0 0 0 -0.008,-0.004 L 433.75195,162.26367 V 73.130859 a 33.637702,33.637702 0 0 0 0,-0.0059 c -0.004,-24.912013 -20.91807,-45.826451 -45.83007,-45.830078 a 33.637702,33.637702 0 0 0 -0.006,0 h -21.41016 a 33.637702,33.637702 0 0 0 -0.006,0 z" />
</svg>
